<svg width="30" height="30" viewBox="0 0 30 30" fill="none" xmlns="http://www.w3.org/2000/svg">
<path d="M15.0937 0.726277C15.0437 0.388807 14.7875 0.113832 14.45 0.0638363C13.0689 -0.129896 11.6627 0.120081 10.4253 0.776273L5.80066 3.2448C4.5695 3.90099 3.57582 4.93215 2.96336 6.18829L0.669777 10.9129C0.0573211 12.169 -0.142665 13.5939 0.101068 14.9688L1.00725 20.1433C1.25099 21.5244 1.91969 22.7868 2.92587 23.7617L6.69435 27.4114C7.70052 28.3863 8.98168 29.0112 10.3628 29.205L15.55 29.9362C16.9311 30.1299 18.3373 29.8799 19.5747 29.2237L24.1993 26.7552C25.4305 26.099 26.4242 25.0679 27.0366 23.8055L29.3302 19.0871C29.9427 17.831 30.1427 16.4061 29.8989 15.0312C29.8427 14.7 29.5677 14.45 29.2365 14.4001C26.018 13.8876 23.4369 11.4566 22.7057 8.3131C22.5932 7.83814 22.2057 7.47567 21.7245 7.40068C18.3123 6.85698 15.6187 4.15097 15.0875 0.726277H15.0937ZM12.0002 8.00063C12.5306 8.00063 13.0393 8.21132 13.4143 8.58636C13.7894 8.9614 14.0001 9.47006 14.0001 10.0004C14.0001 10.5308 13.7894 11.0395 13.4143 11.4145C13.0393 11.7896 12.5306 12.0003 12.0002 12.0003C11.4698 12.0003 10.9611 11.7896 10.5861 11.4145C10.2111 11.0395 10.0004 10.5308 10.0004 10.0004C10.0004 9.47006 10.2111 8.9614 10.5861 8.58636C10.9611 8.21132 11.4698 8.00063 12.0002 8.00063ZM8.0005 19.9996C8.0005 19.4692 8.2112 18.9605 8.58625 18.5855C8.96129 18.2104 9.46996 17.9997 10.0004 17.9997C10.5308 17.9997 11.0394 18.2104 11.4145 18.5855C11.7895 18.9605 12.0002 19.4692 12.0002 19.9996C12.0002 20.5299 11.7895 21.0386 11.4145 21.4136C11.0394 21.7887 10.5308 21.9994 10.0004 21.9994C9.46996 21.9994 8.96129 21.7887 8.58625 21.4136C8.2112 21.0386 8.0005 20.5299 8.0005 19.9996ZM21.9995 15.9999C22.5299 15.9999 23.0386 16.2106 23.4136 16.5856C23.7887 16.9607 23.9994 17.4693 23.9994 17.9997C23.9994 18.5301 23.7887 19.0388 23.4136 19.4138C23.0386 19.7889 22.5299 19.9996 21.9995 19.9996C21.4691 19.9996 20.9604 19.7889 20.5854 19.4138C20.2103 19.0388 19.9996 18.5301 19.9996 17.9997C19.9996 17.4693 20.2103 16.9607 20.5854 16.5856C20.9604 16.2106 21.4691 15.9999 21.9995 15.9999Z" fill="#CC9D52"/>
</svg>
