<svg width="42" height="61" viewBox="0 0 42 61" fill="none" xmlns="http://www.w3.org/2000/svg">
<mask id="path-1-outside-1_567_894" maskUnits="userSpaceOnUse" x="1" y="0" width="40" height="54" fill="black">
<rect fill="white" x="1" width="40" height="54"/>
<path d="M19.4363 50.128C17.4736 50.128 15.5749 49.9147 13.7403 49.488C11.9483 49.0187 10.3056 48.1227 8.81225 46.8C8.25758 46.288 7.72425 45.712 7.21225 45.072C6.74292 44.3893 6.40158 43.728 6.18825 43.088C6.01758 42.4053 6.03892 41.744 6.25225 41.104C6.46558 40.4213 6.99892 39.824 7.85225 39.312C8.40692 38.9707 8.89758 38.8 9.32425 38.8C9.79358 38.8 10.2203 38.9067 10.6042 39.12C11.0309 39.3333 11.4149 39.632 11.7563 40.016C12.1403 40.3573 12.5243 40.6987 12.9083 41.04C13.8896 41.8507 14.9349 42.384 16.0443 42.64C17.1963 42.896 18.3909 43.024 19.6283 43.024C21.0363 43.024 22.3376 42.6827 23.5323 42C24.7269 41.3173 25.7296 40.4213 26.5403 39.312C27.3936 38.2027 28.0123 36.944 28.3963 35.536C28.7803 34.128 28.8656 32.72 28.6523 31.312C27.4149 32.0373 26.0069 32.6133 24.4283 33.04C22.8496 33.424 21.3349 33.616 19.8843 33.616C17.5803 33.616 15.4896 33.296 13.6123 32.656C11.7776 31.9733 10.1989 31.0347 8.87625 29.84C7.55358 28.6027 6.52958 27.1093 5.80425 25.36C5.07892 23.6107 4.71625 21.6693 4.71625 19.536C4.71625 17.3173 5.10025 15.2693 5.86825 13.392C6.63625 11.472 7.72425 9.82933 9.13225 8.464C10.5403 7.056 12.2256 5.968 14.1883 5.2C16.1509 4.38933 18.3269 3.984 20.7163 3.984C23.4469 3.984 25.7296 4.38933 27.5643 5.2C29.4416 5.968 31.1483 7.14133 32.6843 8.72C34.2629 10.384 35.4149 12.56 36.1403 15.248C36.9083 17.936 37.2923 21.4773 37.2923 25.872C37.2923 29.456 36.8869 32.7413 36.0763 35.728C35.3083 38.7147 34.1776 41.2747 32.6843 43.408C31.1909 45.5413 29.3136 47.2053 27.0523 48.4C24.8336 49.552 22.2949 50.128 19.4363 50.128ZM20.9083 11.728C20.1403 11.6853 19.3723 11.728 18.6042 11.856C17.8789 11.9413 17.2176 12.0907 16.6203 12.304C15.4683 12.7733 14.5509 13.5413 13.8683 14.608C13.1856 15.632 12.7589 16.7627 12.5883 18C12.4176 19.2373 12.5029 20.4747 12.8443 21.712C13.2283 22.9493 13.8896 23.9733 14.8283 24.784C15.6389 25.552 16.5989 26.064 17.7083 26.32C18.8176 26.576 19.9269 26.64 21.0363 26.512C22.1883 26.384 23.2763 26.064 24.3003 25.552C25.3243 25.04 26.1776 24.3787 26.8603 23.568C27.5429 22.7573 27.9909 21.904 28.2043 21.008C28.4603 20.0693 28.5029 19.152 28.3323 18.256C28.2043 17.3173 27.9056 16.4427 27.4363 15.632C26.9669 14.7787 26.3909 14.032 25.7083 13.392C25.1109 12.9227 24.3856 12.56 23.5323 12.304C22.7216 12.0053 21.8469 11.8133 20.9083 11.728Z"/>
</mask>
<path d="M19.4363 50.128C17.4736 50.128 15.5749 49.9147 13.7403 49.488C11.9483 49.0187 10.3056 48.1227 8.81225 46.8C8.25758 46.288 7.72425 45.712 7.21225 45.072C6.74292 44.3893 6.40158 43.728 6.18825 43.088C6.01758 42.4053 6.03892 41.744 6.25225 41.104C6.46558 40.4213 6.99892 39.824 7.85225 39.312C8.40692 38.9707 8.89758 38.8 9.32425 38.8C9.79358 38.8 10.2203 38.9067 10.6042 39.12C11.0309 39.3333 11.4149 39.632 11.7563 40.016C12.1403 40.3573 12.5243 40.6987 12.9083 41.04C13.8896 41.8507 14.9349 42.384 16.0443 42.64C17.1963 42.896 18.3909 43.024 19.6283 43.024C21.0363 43.024 22.3376 42.6827 23.5323 42C24.7269 41.3173 25.7296 40.4213 26.5403 39.312C27.3936 38.2027 28.0123 36.944 28.3963 35.536C28.7803 34.128 28.8656 32.72 28.6523 31.312C27.4149 32.0373 26.0069 32.6133 24.4283 33.04C22.8496 33.424 21.3349 33.616 19.8843 33.616C17.5803 33.616 15.4896 33.296 13.6123 32.656C11.7776 31.9733 10.1989 31.0347 8.87625 29.84C7.55358 28.6027 6.52958 27.1093 5.80425 25.36C5.07892 23.6107 4.71625 21.6693 4.71625 19.536C4.71625 17.3173 5.10025 15.2693 5.86825 13.392C6.63625 11.472 7.72425 9.82933 9.13225 8.464C10.5403 7.056 12.2256 5.968 14.1883 5.2C16.1509 4.38933 18.3269 3.984 20.7163 3.984C23.4469 3.984 25.7296 4.38933 27.5643 5.2C29.4416 5.968 31.1483 7.14133 32.6843 8.72C34.2629 10.384 35.4149 12.56 36.1403 15.248C36.9083 17.936 37.2923 21.4773 37.2923 25.872C37.2923 29.456 36.8869 32.7413 36.0763 35.728C35.3083 38.7147 34.1776 41.2747 32.6843 43.408C31.1909 45.5413 29.3136 47.2053 27.0523 48.4C24.8336 49.552 22.2949 50.128 19.4363 50.128ZM20.9083 11.728C20.1403 11.6853 19.3723 11.728 18.6042 11.856C17.8789 11.9413 17.2176 12.0907 16.6203 12.304C15.4683 12.7733 14.5509 13.5413 13.8683 14.608C13.1856 15.632 12.7589 16.7627 12.5883 18C12.4176 19.2373 12.5029 20.4747 12.8443 21.712C13.2283 22.9493 13.8896 23.9733 14.8283 24.784C15.6389 25.552 16.5989 26.064 17.7083 26.32C18.8176 26.576 19.9269 26.64 21.0363 26.512C22.1883 26.384 23.2763 26.064 24.3003 25.552C25.3243 25.04 26.1776 24.3787 26.8603 23.568C27.5429 22.7573 27.9909 21.904 28.2043 21.008C28.4603 20.0693 28.5029 19.152 28.3323 18.256C28.2043 17.3173 27.9056 16.4427 27.4363 15.632C26.9669 14.7787 26.3909 14.032 25.7083 13.392C25.1109 12.9227 24.3856 12.56 23.5323 12.304C22.7216 12.0053 21.8469 11.8133 20.9083 11.728Z" fill="white"/>
<path d="M13.7403 49.488L12.9802 52.3901L13.0203 52.4006L13.0607 52.41L13.7403 49.488ZM8.81225 46.8L6.77741 49.0044L6.80006 49.0253L6.82314 49.0458L8.81225 46.8ZM7.21225 45.072L4.74012 46.7716L4.80172 46.8612L4.86964 46.9461L7.21225 45.072ZM6.18825 43.088L3.27782 43.8156L3.30577 43.9274L3.3422 44.0367L6.18825 43.088ZM6.25225 41.104L9.0983 42.0527L9.10725 42.0258L9.11569 41.9988L6.25225 41.104ZM7.85225 39.312L9.39574 41.8845L9.41019 41.8758L9.42454 41.867L7.85225 39.312ZM10.6042 39.12L9.14732 41.7425L9.2043 41.7741L9.26261 41.8033L10.6042 39.12ZM11.7563 40.016L9.51402 42.0091L9.63126 42.141L9.76316 42.2582L11.7563 40.016ZM12.9083 41.04L10.9152 43.2822L10.9557 43.3183L10.9976 43.3529L12.9083 41.04ZM16.0443 42.64L15.3697 45.5632L15.3816 45.5659L15.3935 45.5686L16.0443 42.64ZM23.5323 42L25.0207 44.6047L25.0207 44.6047L23.5323 42ZM26.5403 39.312L24.1624 37.4829L24.1399 37.5121L24.1181 37.542L26.5403 39.312ZM28.3963 35.536L25.502 34.7466L25.502 34.7466L28.3963 35.536ZM28.6523 31.312L31.6184 30.8626L30.9551 26.4846L27.1351 28.7239L28.6523 31.312ZM24.4283 33.04L25.1373 35.955L25.1743 35.946L25.211 35.9361L24.4283 33.04ZM13.6123 32.656L12.5661 35.4677L12.6049 35.4821L12.6442 35.4955L13.6123 32.656ZM8.87625 29.84L6.82678 32.0308L6.84593 32.0487L6.86539 32.0663L8.87625 29.84ZM5.80425 25.36L8.57548 24.211L8.57548 24.211L5.80425 25.36ZM5.86825 13.392L8.64489 14.5279L8.64933 14.5171L8.65368 14.5062L5.86825 13.392ZM9.13225 8.464L11.2207 10.6177L11.2373 10.6016L11.2536 10.5853L9.13225 8.464ZM14.1883 5.2L15.2814 7.99373L15.3076 7.9835L15.3335 7.97278L14.1883 5.2ZM27.5643 5.2L26.3518 7.94406L26.3898 7.96088L26.4284 7.97664L27.5643 5.2ZM32.6843 8.72L34.8606 6.65522L34.8476 6.64149L34.8344 6.62793L32.6843 8.72ZM36.1403 15.248L33.2438 16.0296L33.2496 16.0509L33.2557 16.0722L36.1403 15.248ZM36.0763 35.728L33.181 34.9421L33.1758 34.9615L33.1708 34.9809L36.0763 35.728ZM32.6843 43.408L30.2266 41.6876L32.6843 43.408ZM27.0523 48.4L28.4347 51.0625L28.4442 51.0576L28.4536 51.0526L27.0523 48.4ZM20.9083 11.728L21.1799 8.74032L21.1273 8.73554L21.0747 8.73262L20.9083 11.728ZM18.6042 11.856L18.9548 14.8355L19.0264 14.827L19.0975 14.8152L18.6042 11.856ZM16.6203 12.304L15.6112 9.47877L15.5493 9.5009L15.4884 9.52572L16.6203 12.304ZM13.8683 14.608L16.3644 16.2721L16.38 16.2488L16.3951 16.2252L13.8683 14.608ZM12.5883 18L9.61639 17.5901L9.61639 17.5901L12.5883 18ZM12.8443 21.712L9.95227 22.5098L9.96494 22.5557L9.97906 22.6012L12.8443 21.712ZM14.8283 24.784L16.8915 22.6061L16.8414 22.5587L16.7891 22.5135L14.8283 24.784ZM17.7083 26.32L17.0337 29.2432L17.0337 29.2432L17.7083 26.32ZM21.0363 26.512L20.705 23.5303L20.6924 23.5318L21.0363 26.512ZM24.3003 25.552L22.9586 22.8687L22.9586 22.8687L24.3003 25.552ZM28.2043 21.008L25.31 20.2186L25.2971 20.2657L25.2858 20.3131L28.2043 21.008ZM28.3323 18.256L25.3598 18.6613L25.3704 18.7397L25.3852 18.8173L28.3323 18.256ZM27.4363 15.632L24.8076 17.0778L24.8235 17.1066L24.84 17.1351L27.4363 15.632ZM25.7083 13.392L27.7601 11.2034L27.6646 11.1139L27.5617 11.033L25.7083 13.392ZM23.5323 12.304L22.4951 15.119L22.5818 15.1509L22.6702 15.1775L23.5323 12.304ZM19.4363 47.128C17.6927 47.128 16.0225 46.9387 14.4198 46.566L13.0607 52.41C15.1273 52.8906 17.2544 53.128 19.4363 53.128V47.128ZM14.5003 46.5859C13.1983 46.2449 11.9699 45.5892 10.8014 44.5542L6.82314 49.0458C8.64126 50.6561 10.6982 51.7924 12.9802 52.3901L14.5003 46.5859ZM10.8471 44.5956C10.4121 44.1941 9.98065 43.7302 9.55486 43.1979L4.86964 46.9461C5.46785 47.6938 6.10304 48.3819 6.77741 49.0044L10.8471 44.5956ZM9.68438 43.3724C9.33948 42.8707 9.14126 42.4602 9.0343 42.1393L3.3422 44.0367C3.66191 44.9958 4.14636 45.9079 4.74012 46.7716L9.68438 43.3724ZM9.09868 42.3604C9.06012 42.2062 9.07339 42.1274 9.0983 42.0527L3.4062 40.1553C3.00444 41.3606 2.97505 42.6045 3.27782 43.8156L9.09868 42.3604ZM9.11569 41.9988C9.08034 42.1119 9.03397 42.1601 9.05006 42.142C9.07363 42.1157 9.168 42.0211 9.39574 41.8845L6.30876 36.7395C5.07152 37.4819 3.89446 38.5911 3.38881 40.2092L9.11569 41.9988ZM9.42454 41.867C9.49074 41.8262 9.54105 41.7992 9.57585 41.7822C9.61077 41.7651 9.6258 41.7601 9.62181 41.7615C9.61687 41.7632 9.51038 41.8 9.32425 41.8V35.8C8.12313 35.8 7.0773 36.2663 6.27996 36.757L9.42454 41.867ZM9.32425 41.8C9.33001 41.8 9.30865 41.8004 9.26864 41.7904C9.22762 41.7802 9.18505 41.7634 9.14732 41.7425L12.0612 36.4975C11.2011 36.0197 10.2674 35.8 9.32425 35.8V41.8ZM9.26261 41.8033C9.32237 41.8332 9.40656 41.8882 9.51402 42.0091L13.9985 38.0229C13.4233 37.3758 12.7395 36.8335 11.9459 36.4367L9.26261 41.8033ZM9.76316 42.2582C9.85946 42.3438 10.2429 42.6846 10.3392 42.7702C10.3622 42.7907 10.3521 42.7818 10.3752 42.8022C10.3982 42.8227 10.3881 42.8138 10.4112 42.8342C10.4342 42.8547 10.4241 42.8458 10.4472 42.8662C10.4702 42.8867 10.4601 42.8778 10.4832 42.8982C10.5062 42.9187 10.4961 42.9098 10.5192 42.9302C10.5422 42.9507 10.5321 42.9418 10.5552 42.9622C10.5782 42.9827 10.5681 42.9738 10.5912 42.9942C10.6142 43.0147 10.6041 43.0058 10.6272 43.0262C10.6502 43.0467 10.6401 43.0378 10.6632 43.0582C10.6862 43.0787 10.6761 43.0698 10.6992 43.0902C10.7222 43.1107 10.7121 43.1018 10.7352 43.1222C10.7582 43.1427 10.7481 43.1338 10.7712 43.1542C10.7942 43.1747 10.7841 43.1658 10.8072 43.1862C10.8302 43.2067 10.8201 43.1978 10.8432 43.2182C10.8662 43.2387 10.8561 43.2298 10.8792 43.2502C10.9022 43.2707 10.8921 43.2618 10.9152 43.2822L14.9013 38.7978C14.805 38.7122 14.4216 38.3714 14.3253 38.2858C14.3113 38.2733 14.3033 38.2662 14.2893 38.2538C14.2753 38.2413 14.2673 38.2342 14.2533 38.2218C14.2393 38.2093 14.2313 38.2022 14.2173 38.1898C14.2033 38.1773 14.1953 38.1702 14.1813 38.1578C14.1673 38.1453 14.1593 38.1382 14.1453 38.1258C14.1313 38.1133 14.1233 38.1062 14.1093 38.0938C14.0953 38.0813 14.0873 38.0742 14.0733 38.0618C14.0593 38.0493 14.0513 38.0422 14.0373 38.0298C14.0233 38.0173 14.0153 38.0102 14.0013 37.9978C13.9873 37.9853 13.9793 37.9782 13.9653 37.9658C13.9513 37.9533 13.9433 37.9462 13.9293 37.9338C13.9153 37.9213 13.9073 37.9142 13.8933 37.9018C13.8793 37.8893 13.8713 37.8822 13.8573 37.8698C13.8433 37.8573 13.8353 37.8502 13.8213 37.8378C13.8073 37.8253 13.7993 37.8182 13.7853 37.8058C13.7713 37.7933 13.7633 37.7862 13.7493 37.7738L9.76316 42.2582ZM10.9976 43.3529C12.2952 44.4248 13.7553 45.1906 15.3697 45.5632L16.7188 39.7168C16.1145 39.5774 15.484 39.2766 14.8189 38.7271L10.9976 43.3529ZM15.3935 45.5686C16.7692 45.8743 18.1826 46.024 19.6283 46.024V40.024C18.5992 40.024 17.6233 39.9177 16.695 39.7114L15.3935 45.5686ZM19.6283 46.024C21.5456 46.024 23.3618 45.5527 25.0207 44.6047L22.0438 39.3953C21.3134 39.8127 20.5269 40.024 19.6283 40.024V46.024ZM25.0207 44.6047C26.5813 43.7129 27.9023 42.5327 28.9624 41.082L24.1181 37.542C23.5568 38.31 22.8725 38.9217 22.0438 39.3953L25.0207 44.6047ZM28.9181 41.1411C30.0198 39.7089 30.8082 38.0939 31.2905 36.3254L25.502 34.7466C25.2163 35.7941 24.7674 36.6964 24.1624 37.4829L28.9181 41.1411ZM31.2905 36.3254C31.7818 34.5242 31.8959 32.6944 31.6184 30.8626L25.6861 31.7614C25.8352 32.7456 25.7787 33.7318 25.502 34.7466L31.2905 36.3254ZM27.1351 28.7239C26.1573 29.2971 25.0021 29.7773 23.6455 30.1439L25.211 35.9361C27.0118 35.4494 28.6725 34.7776 30.1694 33.9001L27.1351 28.7239ZM23.7192 30.125C22.3453 30.4592 21.0695 30.616 19.8843 30.616V36.616C21.6004 36.616 23.3538 36.3888 25.1373 35.955L23.7192 30.125ZM19.8843 30.616C17.8574 30.616 16.1001 30.3346 14.5803 29.8165L12.6442 35.4955C14.879 36.2574 17.3031 36.616 19.8843 36.616V30.616ZM14.6584 29.8443C13.1444 29.281 11.9017 28.5301 10.8871 27.6137L6.86539 32.0663C8.49617 33.5393 10.4107 34.6657 12.5661 35.4677L14.6584 29.8443ZM10.9257 27.6492C9.92931 26.7171 9.14479 25.584 8.57548 24.211L3.03302 26.509C3.91438 28.6347 5.17786 30.4883 6.82678 32.0308L10.9257 27.6492ZM8.57548 24.211C8.01913 22.8692 7.71625 21.3247 7.71625 19.536H1.71625C1.71625 22.0139 2.1387 24.3522 3.03302 26.509L8.57548 24.211ZM7.71625 19.536C7.71625 17.6702 8.03768 16.0122 8.64489 14.5279L3.09161 12.2561C2.16282 14.5265 1.71625 16.9645 1.71625 19.536H7.71625ZM8.65368 14.5062C9.2737 12.9561 10.1319 11.6735 11.2207 10.6177L7.04381 6.3103C5.31663 7.98514 3.9988 9.98789 3.08282 12.2778L8.65368 14.5062ZM11.2536 10.5853C12.352 9.48689 13.6813 8.61988 15.2814 7.99373L13.0951 2.40627C10.7699 3.31612 8.7285 4.6251 7.01093 6.34268L11.2536 10.5853ZM15.3335 7.97278C16.8903 7.32979 18.6708 6.984 20.7163 6.984V0.983997C17.983 0.983997 15.4116 1.44887 13.043 2.42721L15.3335 7.97278ZM20.7163 6.984C23.1714 6.984 25.0105 7.35143 26.3518 7.94406L28.7767 2.45594C26.4486 1.42724 23.7224 0.983997 20.7163 0.983997V6.984ZM26.4284 7.97664C27.8924 8.57555 29.2606 9.50321 30.5341 10.8121L34.8344 6.62793C33.0359 4.77946 30.9908 3.36044 28.7001 2.42336L26.4284 7.97664ZM30.5079 10.7848C31.6777 12.0179 32.6208 13.7205 33.2438 16.0296L39.0367 14.4664C38.2091 11.3995 36.8481 8.75013 34.8606 6.65522L30.5079 10.7848ZM33.2557 16.0722C33.9164 18.3847 34.2923 21.6164 34.2923 25.872H40.2923C40.2923 21.3383 39.9001 17.4873 39.0248 14.4238L33.2557 16.0722ZM34.2923 25.872C34.2923 29.2314 33.9122 32.2483 33.181 34.9421L38.9715 36.5139C39.8616 33.2344 40.2923 29.6806 40.2923 25.872H34.2923ZM33.1708 34.9809C32.4763 37.6817 31.4793 39.898 30.2266 41.6876L35.1419 45.1284C36.8759 42.6513 38.1402 39.7476 38.9817 36.4751L33.1708 34.9809ZM30.2266 41.6876C29.0012 43.4381 27.4832 44.7794 25.6509 45.7474L28.4536 51.0526C31.144 49.6313 33.3807 47.6445 35.1419 45.1284L30.2266 41.6876ZM25.6698 45.7375C23.9359 46.6378 21.8832 47.128 19.4363 47.128V53.128C22.7066 53.128 25.7312 52.4662 28.4347 51.0625L25.6698 45.7375ZM21.0747 8.73262C20.0834 8.67755 19.0942 8.73295 18.111 8.89682L19.0975 14.8152C19.6503 14.723 20.1971 14.6931 20.7418 14.7234L21.0747 8.73262ZM18.2537 8.87655C17.3368 8.98442 16.4508 9.17894 15.6112 9.47877L17.6293 15.1292C17.9844 15.0024 18.421 14.8982 18.9548 14.8355L18.2537 8.87655ZM15.4884 9.52572C13.7517 10.2333 12.3516 11.4125 11.3414 12.9908L16.3951 16.2252C16.7503 15.6702 17.1848 15.3134 17.7521 15.0823L15.4884 9.52572ZM11.3721 12.9439C10.4344 14.3505 9.84798 15.9111 9.61639 17.5901L15.5601 18.4099C15.6699 17.6143 15.9368 16.9135 16.3644 16.2721L11.3721 12.9439ZM9.61639 17.5901C9.38847 19.2425 9.50561 20.8906 9.95227 22.5098L15.7362 20.9142C15.5002 20.0587 15.4467 19.2322 15.5601 18.4099L9.61639 17.5901ZM9.97906 22.6012C10.5216 24.3494 11.4846 25.8602 12.8674 27.0545L16.7891 22.5135C16.2946 22.0864 15.9349 21.5493 15.7094 20.8228L9.97906 22.6012ZM12.765 26.9619C13.9718 28.1051 15.414 28.8694 17.0337 29.2432L18.3828 23.3968C17.7839 23.2586 17.3061 22.9989 16.8915 22.6061L12.765 26.9619ZM17.0337 29.2432C18.4701 29.5747 19.9238 29.6603 21.3801 29.4922L20.6924 23.5318C19.93 23.6197 19.1651 23.5773 18.3828 23.3968L17.0337 29.2432ZM21.3675 29.4937C22.8668 29.3271 24.2974 28.9075 25.6419 28.2353L22.9586 22.8687C22.2551 23.2205 21.5097 23.4409 20.705 23.5303L21.3675 29.4937ZM25.6419 28.2353C27.0018 27.5553 28.1885 26.6481 29.155 25.5004L24.5655 21.6356C24.1666 22.1093 23.6467 22.5246 22.9586 22.8687L25.6419 28.2353ZM29.155 25.5004C30.0937 24.3857 30.7856 23.1186 31.1227 21.7029L25.2858 20.3131C25.1962 20.6894 24.9921 21.129 24.5655 21.6356L29.155 25.5004ZM31.0985 21.7974C31.4664 20.4484 31.541 19.0687 31.2793 17.6947L25.3852 18.8173C25.4649 19.2353 25.4541 19.6903 25.31 20.2186L31.0985 21.7974ZM31.3047 17.8507C31.1246 16.5296 30.6998 15.2814 30.0325 14.1289L24.84 17.1351C25.1114 17.6039 25.2839 18.1051 25.3598 18.6613L31.3047 17.8507ZM30.0649 14.1862C29.4498 13.0679 28.6821 12.0678 27.7601 11.2034L23.6564 15.5806C24.0997 15.9962 24.484 16.4895 24.8076 17.0778L30.0649 14.1862ZM27.5617 11.033C26.6227 10.2953 25.5463 9.77613 24.3943 9.43052L22.6702 15.1775C23.2248 15.3439 23.5991 15.5501 23.8548 15.751L27.5617 11.033ZM24.5694 9.48897C23.4909 9.09165 22.3566 8.84729 21.1799 8.74032L20.6366 14.7157C21.3372 14.7794 21.9522 14.919 22.4951 15.119L24.5694 9.48897Z" fill="#1EE5B0" mask="url(#path-1-outside-1_567_894)"/>
</svg>
