<svg width="39" height="61" viewBox="0 0 39 61" fill="none" xmlns="http://www.w3.org/2000/svg">
<mask id="path-1-outside-1_567_894" maskUnits="userSpaceOnUse" x="0" y="0" width="39" height="53" fill="black">
<rect fill="white" width="39" height="53"/>
<path d="M10.8933 18.832C10.2533 19.8133 9.48525 20.4107 8.58925 20.624C7.73592 20.8373 6.90392 20.7733 6.09325 20.432C5.28258 20.0907 4.59992 19.536 4.04525 18.768C3.53325 17.9573 3.31992 17.04 3.40525 16.016C3.44792 15.3333 3.61858 14.5867 3.91725 13.776C4.21592 12.9653 4.57858 12.1973 5.00525 11.472C5.47458 10.704 5.96525 10 6.47725 9.36C7.03192 8.67733 7.58658 8.10133 8.14125 7.632C9.16525 6.82133 10.3173 6.11733 11.5973 5.52C12.9199 4.92266 14.2853 4.47466 15.6933 4.176C17.1439 3.87733 18.5733 3.74933 19.9813 3.792C21.4319 3.83466 22.7759 4.048 24.0133 4.432C27.4266 5.49866 30.0719 7.184 31.9493 9.488C33.8266 11.792 34.7653 14.7787 34.7653 18.448C34.7653 20.1973 34.5946 21.776 34.2533 23.184C33.9546 24.5493 33.3999 25.872 32.5893 27.152C31.8213 28.432 30.7759 29.7333 29.4533 31.056C28.1733 32.3787 26.5733 33.8293 24.6533 35.408C24.0133 35.9627 23.3519 36.5173 22.6693 37.072C21.9866 37.6267 21.3039 38.1813 20.6213 38.736C20.4079 38.9067 20.0026 39.1627 19.4053 39.504C18.8079 39.8453 18.2746 40.1867 17.8053 40.528C17.3359 40.8693 17.0586 41.1893 16.9733 41.488C16.8879 41.7867 17.2293 41.9573 17.9973 42C18.9359 42.0853 19.6826 42.1067 20.2373 42.064C20.7919 42.0213 21.5386 42 22.4773 42C23.5866 42 24.6746 41.9787 25.7413 41.936C26.8079 41.8933 27.8746 41.9147 28.9413 42C29.3679 42.0427 29.8373 42.064 30.3493 42.064C30.8613 42.0213 31.3733 42.0213 31.8853 42.064C32.3973 42.064 32.8879 42.128 33.3573 42.256C33.8266 42.3413 34.2319 42.5333 34.5732 42.832C34.9146 43.1307 35.1706 43.536 35.3413 44.048C35.5119 44.56 35.5973 45.1147 35.5973 45.712C35.6399 46.2667 35.5973 46.8213 35.4693 47.376C35.3413 47.888 35.1279 48.2933 34.8293 48.592C34.2746 49.232 33.5919 49.552 32.7812 49.552C31.9706 49.5093 31.2026 49.488 30.4773 49.488H7.50125C7.07458 49.488 6.60525 49.5093 6.09325 49.552C5.62392 49.5947 5.19725 49.552 4.81325 49.424C4.04525 49.2107 3.66125 48.8053 3.66125 48.208C3.70392 47.6107 3.72525 46.992 3.72525 46.352C3.72525 45.2853 3.98125 44.304 4.49325 43.408C5.00525 42.4693 5.64525 41.616 6.41325 40.848C7.22392 40.0373 8.07725 39.2907 8.97325 38.608C9.86925 37.9253 10.7013 37.264 11.4693 36.624C12.5786 35.6427 13.7733 34.6613 15.0533 33.68C16.3333 32.6987 17.5493 31.7173 18.7013 30.736C20.1946 29.4987 21.4533 28.368 22.4773 27.344C23.5439 26.32 24.3973 25.36 25.0373 24.464C25.6773 23.568 26.1466 22.6933 26.4453 21.84C26.7439 20.944 26.8933 20.0053 26.8933 19.024C26.8933 16.848 26.2319 15.184 24.9093 14.032C23.5866 12.8373 21.9013 12.24 19.8533 12.24C18.3599 12.24 16.9519 12.56 15.6293 13.2C14.3493 13.84 13.2826 14.7787 12.4293 16.016C12.1733 16.4853 11.9173 16.976 11.6613 17.488C11.4479 17.9573 11.1919 18.4053 10.8933 18.832Z"/>
</mask>
<path d="M10.8933 18.832C10.2533 19.8133 9.48525 20.4107 8.58925 20.624C7.73592 20.8373 6.90392 20.7733 6.09325 20.432C5.28258 20.0907 4.59992 19.536 4.04525 18.768C3.53325 17.9573 3.31992 17.04 3.40525 16.016C3.44792 15.3333 3.61858 14.5867 3.91725 13.776C4.21592 12.9653 4.57858 12.1973 5.00525 11.472C5.47458 10.704 5.96525 10 6.47725 9.36C7.03192 8.67733 7.58658 8.10133 8.14125 7.632C9.16525 6.82133 10.3173 6.11733 11.5973 5.52C12.9199 4.92266 14.2853 4.47466 15.6933 4.176C17.1439 3.87733 18.5733 3.74933 19.9813 3.792C21.4319 3.83466 22.7759 4.048 24.0133 4.432C27.4266 5.49866 30.0719 7.184 31.9493 9.488C33.8266 11.792 34.7653 14.7787 34.7653 18.448C34.7653 20.1973 34.5946 21.776 34.2533 23.184C33.9546 24.5493 33.3999 25.872 32.5893 27.152C31.8213 28.432 30.7759 29.7333 29.4533 31.056C28.1733 32.3787 26.5733 33.8293 24.6533 35.408C24.0133 35.9627 23.3519 36.5173 22.6693 37.072C21.9866 37.6267 21.3039 38.1813 20.6213 38.736C20.4079 38.9067 20.0026 39.1627 19.4053 39.504C18.8079 39.8453 18.2746 40.1867 17.8053 40.528C17.3359 40.8693 17.0586 41.1893 16.9733 41.488C16.8879 41.7867 17.2293 41.9573 17.9973 42C18.9359 42.0853 19.6826 42.1067 20.2373 42.064C20.7919 42.0213 21.5386 42 22.4773 42C23.5866 42 24.6746 41.9787 25.7413 41.936C26.8079 41.8933 27.8746 41.9147 28.9413 42C29.3679 42.0427 29.8373 42.064 30.3493 42.064C30.8613 42.0213 31.3733 42.0213 31.8853 42.064C32.3973 42.064 32.8879 42.128 33.3573 42.256C33.8266 42.3413 34.2319 42.5333 34.5732 42.832C34.9146 43.1307 35.1706 43.536 35.3413 44.048C35.5119 44.56 35.5973 45.1147 35.5973 45.712C35.6399 46.2667 35.5973 46.8213 35.4693 47.376C35.3413 47.888 35.1279 48.2933 34.8293 48.592C34.2746 49.232 33.5919 49.552 32.7812 49.552C31.9706 49.5093 31.2026 49.488 30.4773 49.488H7.50125C7.07458 49.488 6.60525 49.5093 6.09325 49.552C5.62392 49.5947 5.19725 49.552 4.81325 49.424C4.04525 49.2107 3.66125 48.8053 3.66125 48.208C3.70392 47.6107 3.72525 46.992 3.72525 46.352C3.72525 45.2853 3.98125 44.304 4.49325 43.408C5.00525 42.4693 5.64525 41.616 6.41325 40.848C7.22392 40.0373 8.07725 39.2907 8.97325 38.608C9.86925 37.9253 10.7013 37.264 11.4693 36.624C12.5786 35.6427 13.7733 34.6613 15.0533 33.68C16.3333 32.6987 17.5493 31.7173 18.7013 30.736C20.1946 29.4987 21.4533 28.368 22.4773 27.344C23.5439 26.32 24.3973 25.36 25.0373 24.464C25.6773 23.568 26.1466 22.6933 26.4453 21.84C26.7439 20.944 26.8933 20.0053 26.8933 19.024C26.8933 16.848 26.2319 15.184 24.9093 14.032C23.5866 12.8373 21.9013 12.24 19.8533 12.24C18.3599 12.24 16.9519 12.56 15.6293 13.2C14.3493 13.84 13.2826 14.7787 12.4293 16.016C12.1733 16.4853 11.9173 16.976 11.6613 17.488C11.4479 17.9573 11.1919 18.4053 10.8933 18.832Z" fill="white"/>
<path d="M10.8933 18.832L8.43556 17.1116L8.40732 17.152L8.38042 17.1932L10.8933 18.832ZM8.58925 20.624L7.89439 17.7056L7.87799 17.7095L7.86164 17.7136L8.58925 20.624ZM6.09325 20.432L4.92908 23.1969L4.92908 23.1969L6.09325 20.432ZM4.04525 18.768L1.50878 20.37L1.5586 20.4488L1.61321 20.5245L4.04525 18.768ZM3.40525 16.016L6.39489 16.2651L6.39747 16.2342L6.39941 16.2031L3.40525 16.016ZM5.00525 11.472L2.44541 9.90764L2.43224 9.92918L2.41945 9.95094L5.00525 11.472ZM6.47725 9.36L4.14891 7.46822L4.14174 7.47704L4.13464 7.48592L6.47725 9.36ZM8.14125 7.632L6.27914 5.27986L6.24078 5.31023L6.20342 5.34184L8.14125 7.632ZM11.5973 5.52L10.3625 2.78588L10.3455 2.79356L10.3286 2.80145L11.5973 5.52ZM15.6933 4.176L15.0883 1.23763L15.0795 1.23944L15.0707 1.2413L15.6933 4.176ZM19.9813 3.792L19.8904 6.79062L19.893 6.7907L19.9813 3.792ZM24.0133 4.432L24.9081 1.56855L24.9024 1.56681L24.0133 4.432ZM31.9493 9.488L29.6235 11.383L29.6235 11.383L31.9493 9.488ZM34.2533 23.184L31.3377 22.4772L31.3298 22.51L31.3225 22.5429L34.2533 23.184ZM32.5893 27.152L30.0548 25.5468L30.0354 25.5774L30.0168 25.6085L32.5893 27.152ZM29.4533 31.056L27.3319 28.9347L27.3145 28.9521L27.2974 28.9697L29.4533 31.056ZM24.6533 35.408L22.7479 33.0907L22.7179 33.1154L22.6885 33.1409L24.6533 35.408ZM20.6213 38.736L22.4953 41.0786L22.5042 41.0715L22.513 41.0643L20.6213 38.736ZM17.8053 40.528L16.0407 38.1018L16.0407 38.1018L17.8053 40.528ZM17.9973 42L18.2689 39.0123L18.2163 39.0075L18.1637 39.0046L17.9973 42ZM20.2373 42.064L20.0072 39.0728L20.0072 39.0728L20.2373 42.064ZM28.9413 42L29.2398 39.0149L29.2102 39.0119L29.1805 39.0096L28.9413 42ZM30.3493 42.064V45.064H30.474L30.5984 45.0536L30.3493 42.064ZM31.8853 42.064L31.6361 45.0536L31.7605 45.064H31.8853V42.064ZM33.3573 42.256L32.5679 45.1503L32.693 45.1844L32.8206 45.2076L33.3573 42.256ZM34.5732 42.832L32.5977 45.0897L32.5977 45.0897L34.5732 42.832ZM35.5973 45.712H32.5973V45.8272L32.6061 45.9421L35.5973 45.712ZM35.4693 47.376L38.3797 48.1036L38.3863 48.0771L38.3924 48.0506L35.4693 47.376ZM34.8293 48.592L32.7079 46.4707L32.6323 46.5463L32.5622 46.6272L34.8293 48.592ZM32.7812 49.552L32.6236 52.5479L32.7024 52.552H32.7812V49.552ZM6.09325 49.552L5.84411 46.5624L5.83287 46.5633L5.82164 46.5643L6.09325 49.552ZM4.81325 49.424L5.76193 46.578L5.68962 46.5538L5.61618 46.5334L4.81325 49.424ZM3.66125 48.208L0.668874 47.9943L0.66125 48.101V48.208H3.66125ZM4.49325 43.408L7.09798 44.8964L7.11271 44.8706L7.12694 44.8446L4.49325 43.408ZM6.41325 40.848L4.29193 38.7267L4.29193 38.7267L6.41325 40.848ZM11.4693 36.624L13.3898 38.9287L13.4238 38.9003L13.457 38.871L11.4693 36.624ZM15.0533 33.68L13.228 31.2992L13.228 31.2992L15.0533 33.68ZM18.7013 30.736L16.7872 28.4259L16.7714 28.439L16.7558 28.4523L18.7013 30.736ZM22.4773 27.344L20.3997 25.1798L20.3776 25.201L20.3559 25.2227L22.4773 27.344ZM25.0373 24.464L22.5961 22.7203L22.596 22.7203L25.0373 24.464ZM26.4453 21.84L29.2768 22.831L29.2842 22.8099L29.2913 22.7887L26.4453 21.84ZM24.9093 14.032L22.8984 16.2583L22.9185 16.2765L22.9389 16.2942L24.9093 14.032ZM15.6293 13.2L14.3226 10.4995L14.305 10.508L14.2876 10.5167L15.6293 13.2ZM12.4293 16.016L9.95961 14.3128L9.87062 14.4418L9.79556 14.5794L12.4293 16.016ZM11.6613 17.488L8.97797 16.1464L8.95313 16.196L8.93015 16.2466L11.6613 17.488ZM8.38042 17.1932C8.20616 17.4604 8.06953 17.5903 7.99543 17.6479C7.93054 17.6984 7.90177 17.7038 7.89439 17.7056L9.28411 23.5424C11.1155 23.1064 12.4653 21.9134 13.4061 20.4708L8.38042 17.1932ZM7.86164 17.7136C7.63804 17.7695 7.46984 17.7565 7.25742 17.6671L4.92908 23.1969C6.33799 23.7901 7.83379 23.9052 9.31686 23.5344L7.86164 17.7136ZM7.25742 17.6671C6.99294 17.5557 6.73557 17.3691 6.47729 17.0115L1.61321 20.5245C2.46426 21.7028 3.57223 22.6256 4.92908 23.1969L7.25742 17.6671ZM6.58172 17.166C6.44362 16.9474 6.35958 16.6888 6.39489 16.2651L0.415613 15.7669C0.280252 17.3912 0.622885 18.9673 1.50878 20.37L6.58172 17.166ZM6.39941 16.2031C6.41988 15.8756 6.50909 15.4189 6.73228 14.8131L1.10222 12.7389C0.728072 13.7544 0.475955 14.7911 0.411092 15.8289L6.39941 16.2031ZM6.73228 14.8131C6.97076 14.1658 7.25745 13.5602 7.59105 12.9931L2.41945 9.95094C1.89972 10.8345 1.46107 11.7649 1.10222 12.7389L6.73228 14.8131ZM7.56509 13.0364C7.97493 12.3657 8.39394 11.7665 8.81986 11.2341L4.13464 7.48592C3.53656 8.23352 2.97424 9.04228 2.44541 9.90764L7.56509 13.0364ZM8.80559 11.2518C9.26635 10.6847 9.69266 10.2491 10.0791 9.92215L6.20342 5.34184C5.48051 5.95353 4.79748 6.66997 4.14891 7.46822L8.80559 11.2518ZM10.0034 9.98413C10.8303 9.3295 11.7802 8.74519 12.8659 8.23855L10.3286 2.80145C8.85426 3.48947 7.50023 4.31316 6.27914 5.27986L10.0034 9.98413ZM12.832 8.25411C13.96 7.74468 15.1202 7.3643 16.3158 7.1107L15.0707 1.2413C13.4503 1.58503 11.8798 2.10065 10.3625 2.78588L12.832 8.25411ZM16.2982 7.11437C17.5318 6.86039 18.7276 6.75538 19.8904 6.79062L20.0721 0.793372C18.4189 0.743277 16.756 0.894269 15.0883 1.23763L16.2982 7.11437ZM19.893 6.7907C21.104 6.82632 22.1754 7.0028 23.1241 7.29719L24.9024 1.56681C23.3764 1.0932 21.7598 0.843011 20.0695 0.793293L19.893 6.7907ZM23.1184 7.29544C26.0858 8.22275 28.1877 9.62081 29.6235 11.383L34.275 7.59298C31.9562 4.74718 28.7674 2.77458 24.9081 1.56856L23.1184 7.29544ZM29.6235 11.383C30.9699 13.0353 31.7653 15.3023 31.7653 18.448H37.7653C37.7653 14.255 36.6833 10.5487 34.275 7.59298L29.6235 11.383ZM31.7653 18.448C31.7653 20.0066 31.6128 21.3425 31.3377 22.4772L37.1688 23.8908C37.5764 22.2095 37.7653 20.3881 37.7653 18.448H31.7653ZM31.3225 22.5429C31.1048 23.5386 30.6939 24.5377 30.0548 25.5468L35.1237 28.7572C36.1059 27.2063 36.8044 25.5601 37.184 23.8251L31.3225 22.5429ZM30.0168 25.6085C29.402 26.6331 28.5228 27.7438 27.3319 28.9347L31.5746 33.1773C33.0291 31.7228 34.2405 30.2309 35.1617 28.6955L30.0168 25.6085ZM27.2974 28.9697C26.1184 30.1881 24.6083 31.5611 22.7479 33.0907L26.5586 37.7253C28.5382 36.0976 30.2281 34.5692 31.6091 33.1423L27.2974 28.9697ZM22.6885 33.1409C22.0734 33.674 21.4364 34.2083 20.7775 34.7437L24.561 39.4003C25.2674 38.8264 25.9531 38.2513 26.618 37.6751L22.6885 33.1409ZM20.7775 34.7437C20.7761 34.7447 20.7748 34.7458 20.7735 34.7469C20.7721 34.748 20.7708 34.7491 20.7695 34.7502C20.7681 34.7512 20.7668 34.7523 20.7655 34.7534C20.7641 34.7545 20.7628 34.7556 20.7615 34.7567C20.7601 34.7577 20.7588 34.7588 20.7575 34.7599C20.7561 34.761 20.7548 34.7621 20.7535 34.7632C20.7521 34.7642 20.7508 34.7653 20.7495 34.7664C20.7481 34.7675 20.7468 34.7686 20.7455 34.7697C20.7441 34.7707 20.7428 34.7718 20.7415 34.7729C20.7401 34.774 20.7388 34.7751 20.7375 34.7762C20.7361 34.7772 20.7348 34.7783 20.7335 34.7794C20.7321 34.7805 20.7308 34.7816 20.7295 34.7827C20.7281 34.7837 20.7268 34.7848 20.7255 34.7859C20.7241 34.787 20.7228 34.7881 20.7215 34.7892C20.7201 34.7902 20.7188 34.7913 20.7175 34.7924C20.7161 34.7935 20.7148 34.7946 20.7135 34.7957C20.7121 34.7967 20.7108 34.7978 20.7095 34.7989C20.7081 34.8 20.7068 34.8011 20.7055 34.8022C20.7041 34.8032 20.7028 34.8043 20.7015 34.8054C20.7001 34.8065 20.6988 34.8076 20.6975 34.8087C20.6961 34.8097 20.6948 34.8108 20.6935 34.8119C20.6921 34.813 20.6908 34.8141 20.6895 34.8152C20.6881 34.8162 20.6868 34.8173 20.6855 34.8184C20.6841 34.8195 20.6828 34.8206 20.6815 34.8217C20.6801 34.8227 20.6788 34.8238 20.6775 34.8249C20.6761 34.826 20.6748 34.8271 20.6735 34.8282C20.6721 34.8292 20.6708 34.8303 20.6695 34.8314C20.6681 34.8325 20.6668 34.8336 20.6655 34.8347C20.6641 34.8357 20.6628 34.8368 20.6615 34.8379C20.6601 34.839 20.6588 34.8401 20.6575 34.8412C20.6561 34.8422 20.6548 34.8433 20.6535 34.8444C20.6521 34.8455 20.6508 34.8466 20.6495 34.8477C20.6481 34.8487 20.6468 34.8498 20.6455 34.8509C20.6441 34.852 20.6428 34.8531 20.6415 34.8542C20.6401 34.8552 20.6388 34.8563 20.6375 34.8574C20.6361 34.8585 20.6348 34.8596 20.6335 34.8607C20.6321 34.8617 20.6308 34.8628 20.6295 34.8639C20.6281 34.865 20.6268 34.8661 20.6255 34.8672C20.6241 34.8682 20.6228 34.8693 20.6215 34.8704C20.6201 34.8715 20.6188 34.8726 20.6175 34.8737C20.6161 34.8747 20.6148 34.8758 20.6135 34.8769C20.6121 34.878 20.6108 34.8791 20.6095 34.8802C20.6081 34.8812 20.6068 34.8823 20.6055 34.8834C20.6041 34.8845 20.6028 34.8856 20.6015 34.8867C20.6001 34.8877 20.5988 34.8888 20.5975 34.8899C20.5961 34.891 20.5948 34.8921 20.5935 34.8932C20.5921 34.8942 20.5908 34.8953 20.5895 34.8964C20.5881 34.8975 20.5868 34.8986 20.5855 34.8997C20.5841 34.9007 20.5828 34.9018 20.5815 34.9029C20.5801 34.904 20.5788 34.9051 20.5775 34.9062C20.5761 34.9072 20.5748 34.9083 20.5735 34.9094C20.5721 34.9105 20.5708 34.9116 20.5695 34.9127C20.5681 34.9137 20.5668 34.9148 20.5655 34.9159C20.5641 34.917 20.5628 34.9181 20.5615 34.9192C20.5601 34.9202 20.5588 34.9213 20.5575 34.9224C20.5561 34.9235 20.5548 34.9246 20.5535 34.9257C20.5521 34.9267 20.5508 34.9278 20.5495 34.9289C20.5481 34.93 20.5468 34.9311 20.5455 34.9322C20.5441 34.9332 20.5428 34.9343 20.5415 34.9354C20.5401 34.9365 20.5388 34.9376 20.5375 34.9387C20.5361 34.9397 20.5348 34.9408 20.5335 34.9419C20.5321 34.943 20.5308 34.9441 20.5295 34.9452C20.5281 34.9462 20.5268 34.9473 20.5255 34.9484C20.5241 34.9495 20.5228 34.9506 20.5215 34.9517C20.5201 34.9527 20.5188 34.9538 20.5175 34.9549C20.5161 34.956 20.5148 34.9571 20.5135 34.9582C20.5121 34.9592 20.5108 34.9603 20.5095 34.9614C20.5081 34.9625 20.5068 34.9636 20.5055 34.9647C20.5041 34.9657 20.5028 34.9668 20.5015 34.9679C20.5001 34.969 20.4988 34.9701 20.4975 34.9712C20.4961 34.9722 20.4948 34.9733 20.4935 34.9744C20.4921 34.9755 20.4908 34.9766 20.4895 34.9777C20.4881 34.9787 20.4868 34.9798 20.4855 34.9809C20.4841 34.982 20.4828 34.9831 20.4815 34.9842C20.4801 34.9852 20.4788 34.9863 20.4775 34.9874C20.4761 34.9885 20.4748 34.9896 20.4735 34.9907C20.4721 34.9917 20.4708 34.9928 20.4695 34.9939C20.4681 34.995 20.4668 34.9961 20.4655 34.9972C20.4641 34.9982 20.4628 34.9993 20.4615 35.0004C20.4601 35.0015 20.4588 35.0026 20.4575 35.0037C20.4561 35.0047 20.4548 35.0058 20.4535 35.0069C20.4521 35.008 20.4508 35.0091 20.4495 35.0102C20.4481 35.0112 20.4468 35.0123 20.4455 35.0134C20.4441 35.0145 20.4428 35.0156 20.4415 35.0167C20.4401 35.0177 20.4388 35.0188 20.4375 35.0199C20.4361 35.021 20.4348 35.0221 20.4335 35.0232C20.4321 35.0242 20.4308 35.0253 20.4295 35.0264C20.4281 35.0275 20.4268 35.0286 20.4255 35.0297C20.4241 35.0307 20.4228 35.0318 20.4215 35.0329C20.4201 35.034 20.4188 35.0351 20.4175 35.0362C20.4161 35.0372 20.4148 35.0383 20.4135 35.0394C20.4121 35.0405 20.4108 35.0416 20.4095 35.0427C20.4081 35.0437 20.4068 35.0448 20.4055 35.0459C20.4041 35.047 20.4028 35.0481 20.4015 35.0492C20.4001 35.0502 20.3988 35.0513 20.3975 35.0524C20.3961 35.0535 20.3948 35.0546 20.3935 35.0557C20.3921 35.0567 20.3908 35.0578 20.3895 35.0589C20.3881 35.06 20.3868 35.0611 20.3855 35.0622C20.3841 35.0632 20.3828 35.0643 20.3815 35.0654C20.3801 35.0665 20.3788 35.0676 20.3775 35.0687C20.3761 35.0697 20.3748 35.0708 20.3735 35.0719C20.3721 35.073 20.3708 35.0741 20.3695 35.0752C20.3681 35.0762 20.3668 35.0773 20.3655 35.0784C20.3641 35.0795 20.3628 35.0806 20.3615 35.0817C20.3601 35.0827 20.3588 35.0838 20.3575 35.0849C20.3561 35.086 20.3548 35.0871 20.3535 35.0882C20.3521 35.0892 20.3508 35.0903 20.3495 35.0914C20.3481 35.0925 20.3468 35.0936 20.3455 35.0947C20.3441 35.0957 20.3428 35.0968 20.3415 35.0979C20.3401 35.099 20.3388 35.1001 20.3375 35.1012C20.3361 35.1022 20.3348 35.1033 20.3335 35.1044C20.3321 35.1055 20.3308 35.1066 20.3295 35.1077C20.3281 35.1087 20.3268 35.1098 20.3255 35.1109C20.3241 35.112 20.3228 35.1131 20.3215 35.1142C20.3201 35.1152 20.3188 35.1163 20.3175 35.1174C20.3161 35.1185 20.3148 35.1196 20.3135 35.1207C20.3121 35.1217 20.3108 35.1228 20.3095 35.1239C20.3081 35.125 20.3068 35.1261 20.3055 35.1272C20.3041 35.1282 20.3028 35.1293 20.3015 35.1304C20.3001 35.1315 20.2988 35.1326 20.2975 35.1337C20.2961 35.1347 20.2948 35.1358 20.2935 35.1369C20.2921 35.138 20.2908 35.1391 20.2895 35.1402C20.2881 35.1412 20.2868 35.1423 20.2855 35.1434C20.2841 35.1445 20.2828 35.1456 20.2815 35.1467C20.2801 35.1477 20.2788 35.1488 20.2775 35.1499C20.2761 35.151 20.2748 35.1521 20.2735 35.1532C20.2721 35.1542 20.2708 35.1553 20.2695 35.1564C20.2681 35.1575 20.2668 35.1586 20.2655 35.1597C20.2641 35.1607 20.2628 35.1618 20.2615 35.1629C20.2601 35.164 20.2588 35.1651 20.2575 35.1662C20.2561 35.1672 20.2548 35.1683 20.2535 35.1694C20.2521 35.1705 20.2508 35.1716 20.2495 35.1727C20.2481 35.1737 20.2468 35.1748 20.2455 35.1759C20.2441 35.177 20.2428 35.1781 20.2415 35.1792C20.2401 35.1802 20.2388 35.1813 20.2375 35.1824C20.2361 35.1835 20.2348 35.1846 20.2335 35.1857C20.2321 35.1867 20.2308 35.1878 20.2295 35.1889C20.2281 35.19 20.2268 35.1911 20.2255 35.1922C20.2241 35.1932 20.2228 35.1943 20.2215 35.1954C20.2201 35.1965 20.2188 35.1976 20.2175 35.1987C20.2161 35.1997 20.2148 35.2008 20.2135 35.2019C20.2121 35.203 20.2108 35.2041 20.2095 35.2052C20.2081 35.2062 20.2068 35.2073 20.2055 35.2084C20.2041 35.2095 20.2028 35.2106 20.2015 35.2117C20.2001 35.2127 20.1988 35.2138 20.1975 35.2149C20.1961 35.216 20.1948 35.2171 20.1935 35.2182C20.1921 35.2192 20.1908 35.2203 20.1895 35.2214C20.1881 35.2225 20.1868 35.2236 20.1855 35.2247C20.1841 35.2257 20.1828 35.2268 20.1815 35.2279C20.1801 35.229 20.1788 35.2301 20.1775 35.2312C20.1761 35.2322 20.1748 35.2333 20.1735 35.2344C20.1721 35.2355 20.1708 35.2366 20.1695 35.2377C20.1681 35.2387 20.1668 35.2398 20.1655 35.2409C20.1641 35.242 20.1628 35.2431 20.1615 35.2442C20.1601 35.2452 20.1588 35.2463 20.1575 35.2474C20.1561 35.2485 20.1548 35.2496 20.1535 35.2507C20.1521 35.2517 20.1508 35.2528 20.1495 35.2539C20.1481 35.255 20.1468 35.2561 20.1455 35.2572C20.1441 35.2582 20.1428 35.2593 20.1415 35.2604C20.1401 35.2615 20.1388 35.2626 20.1375 35.2637C20.1361 35.2647 20.1348 35.2658 20.1335 35.2669C20.1321 35.268 20.1308 35.2691 20.1295 35.2702C20.1281 35.2712 20.1268 35.2723 20.1255 35.2734C20.1241 35.2745 20.1228 35.2756 20.1215 35.2767C20.1201 35.2777 20.1188 35.2788 20.1175 35.2799C20.1161 35.281 20.1148 35.2821 20.1135 35.2832C20.1121 35.2842 20.1108 35.2853 20.1095 35.2864C20.1081 35.2875 20.1068 35.2886 20.1055 35.2897C20.1041 35.2907 20.1028 35.2918 20.1015 35.2929C20.1001 35.294 20.0988 35.2951 20.0975 35.2962C20.0961 35.2972 20.0948 35.2983 20.0935 35.2994C20.0921 35.3005 20.0908 35.3016 20.0895 35.3027C20.0881 35.3037 20.0868 35.3048 20.0855 35.3059C20.0841 35.307 20.0828 35.3081 20.0815 35.3092C20.0801 35.3102 20.0788 35.3113 20.0775 35.3124C20.0761 35.3135 20.0748 35.3146 20.0735 35.3157C20.0721 35.3167 20.0708 35.3178 20.0695 35.3189C20.0681 35.32 20.0668 35.3211 20.0655 35.3222C20.0641 35.3232 20.0628 35.3243 20.0615 35.3254C20.0601 35.3265 20.0588 35.3276 20.0575 35.3287C20.0561 35.3297 20.0548 35.3308 20.0535 35.3319C20.0521 35.333 20.0508 35.3341 20.0495 35.3352C20.0481 35.3362 20.0468 35.3373 20.0455 35.3384C20.0441 35.3395 20.0428 35.3406 20.0415 35.3417C20.0401 35.3427 20.0388 35.3438 20.0375 35.3449C20.0361 35.346 20.0348 35.3471 20.0335 35.3482C20.0321 35.3492 20.0308 35.3503 20.0295 35.3514C20.0281 35.3525 20.0268 35.3536 20.0255 35.3547C20.0241 35.3557 20.0228 35.3568 20.0215 35.3579C20.0201 35.359 20.0188 35.3601 20.0175 35.3612C20.0161 35.3622 20.0148 35.3633 20.0135 35.3644C20.0121 35.3655 20.0108 35.3666 20.0095 35.3677C20.0081 35.3687 20.0068 35.3698 20.0055 35.3709C20.0041 35.372 20.0028 35.3731 20.0015 35.3742C20.0001 35.3752 19.9988 35.3763 19.9975 35.3774C19.9961 35.3785 19.9948 35.3796 19.9935 35.3807C19.9921 35.3817 19.9908 35.3828 19.9895 35.3839C19.9881 35.385 19.9868 35.3861 19.9855 35.3872C19.9841 35.3882 19.9828 35.3893 19.9815 35.3904C19.9801 35.3915 19.9788 35.3926 19.9775 35.3937C19.9761 35.3947 19.9748 35.3958 19.9735 35.3969C19.9721 35.398 19.9708 35.3991 19.9695 35.4002C19.9681 35.4012 19.9668 35.4023 19.9655 35.4034C19.9641 35.4045 19.9628 35.4056 19.9615 35.4067C19.9601 35.4077 19.9588 35.4088 19.9575 35.4099C19.9561 35.411 19.9548 35.4121 19.9535 35.4132C19.9521 35.4142 19.9508 35.4153 19.9495 35.4164C19.9481 35.4175 19.9468 35.4186 19.9455 35.4197C19.9441 35.4207 19.9428 35.4218 19.9415 35.4229C19.9401 35.424 19.9388 35.4251 19.9375 35.4262C19.9361 35.4272 19.9348 35.4283 19.9335 35.4294C19.9321 35.4305 19.9308 35.4316 19.9295 35.4327C19.9281 35.4337 19.9268 35.4348 19.9255 35.4359C19.9241 35.437 19.9228 35.4381 19.9215 35.4392C19.9201 35.4402 19.9188 35.4413 19.9175 35.4424C19.9161 35.4435 19.9148 35.4446 19.9135 35.4457C19.9121 35.4467 19.9108 35.4478 19.9095 35.4489C19.9081 35.45 19.9068 35.4511 19.9055 35.4522C19.9041 35.4532 19.9028 35.4543 19.9015 35.4554C19.9001 35.4565 19.8988 35.4576 19.8975 35.4587C19.8961 35.4597 19.8948 35.4608 19.8935 35.4619C19.8921 35.463 19.8908 35.4641 19.8895 35.4652C19.8881 35.4662 19.8868 35.4673 19.8855 35.4684C19.8841 35.4695 19.8828 35.4706 19.8815 35.4717C19.8801 35.4727 19.8788 35.4738 19.8775 35.4749C19.8761 35.476 19.8748 35.4771 19.8735 35.4782C19.8721 35.4792 19.8708 35.4803 19.8695 35.4814C19.8681 35.4825 19.8668 35.4836 19.8655 35.4847C19.8641 35.4857 19.8628 35.4868 19.8615 35.4879C19.8601 35.489 19.8588 35.4901 19.8575 35.4912C19.8561 35.4922 19.8548 35.4933 19.8535 35.4944C19.8521 35.4955 19.8508 35.4966 19.8495 35.4977C19.8481 35.4987 19.8468 35.4998 19.8455 35.5009C19.8441 35.502 19.8428 35.5031 19.8415 35.5042C19.8401 35.5052 19.8388 35.5063 19.8375 35.5074C19.8361 35.5085 19.8348 35.5096 19.8335 35.5107C19.8321 35.5117 19.8308 35.5128 19.8295 35.5139C19.8281 35.515 19.8268 35.5161 19.8255 35.5172C19.8241 35.5182 19.8228 35.5193 19.8215 35.5204C19.8201 35.5215 19.8188 35.5226 19.8175 35.5237C19.8161 35.5247 19.8148 35.5258 19.8135 35.5269C19.8121 35.528 19.8108 35.5291 19.8095 35.5302C19.8081 35.5312 19.8068 35.5323 19.8055 35.5334C19.8041 35.5345 19.8028 35.5356 19.8015 35.5367C19.8001 35.5377 19.7988 35.5388 19.7975 35.5399C19.7961 35.541 19.7948 35.5421 19.7935 35.5432C19.7921 35.5442 19.7908 35.5453 19.7895 35.5464C19.7881 35.5475 19.7868 35.5486 19.7855 35.5497C19.7841 35.5507 19.7828 35.5518 19.7815 35.5529C19.7801 35.554 19.7788 35.5551 19.7775 35.5562C19.7761 35.5572 19.7748 35.5583 19.7735 35.5594C19.7721 35.5605 19.7708 35.5616 19.7695 35.5627C19.7681 35.5637 19.7668 35.5648 19.7655 35.5659C19.7641 35.567 19.7628 35.5681 19.7615 35.5692C19.7601 35.5702 19.7588 35.5713 19.7575 35.5724C19.7561 35.5735 19.7548 35.5746 19.7535 35.5757C19.7521 35.5767 19.7508 35.5778 19.7495 35.5789C19.7481 35.58 19.7468 35.5811 19.7455 35.5822C19.7441 35.5832 19.7428 35.5843 19.7415 35.5854C19.7401 35.5865 19.7388 35.5876 19.7375 35.5887C19.7361 35.5897 19.7348 35.5908 19.7335 35.5919C19.7321 35.593 19.7308 35.5941 19.7295 35.5952C19.7281 35.5962 19.7268 35.5973 19.7255 35.5984C19.7241 35.5995 19.7228 35.6006 19.7215 35.6017C19.7201 35.6027 19.7188 35.6038 19.7175 35.6049C19.7161 35.606 19.7148 35.6071 19.7135 35.6082C19.7121 35.6092 19.7108 35.6103 19.7095 35.6114C19.7081 35.6125 19.7068 35.6136 19.7055 35.6147C19.7041 35.6157 19.7028 35.6168 19.7015 35.6179C19.7001 35.619 19.6988 35.6201 19.6975 35.6212C19.6961 35.6222 19.6948 35.6233 19.6935 35.6244C19.6921 35.6255 19.6908 35.6266 19.6895 35.6277C19.6881 35.6287 19.6868 35.6298 19.6855 35.6309C19.6841 35.632 19.6828 35.6331 19.6815 35.6342C19.6801 35.6352 19.6788 35.6363 19.6775 35.6374C19.6761 35.6385 19.6748 35.6396 19.6735 35.6407C19.6721 35.6417 19.6708 35.6428 19.6695 35.6439C19.6681 35.645 19.6668 35.6461 19.6655 35.6472C19.6641 35.6482 19.6628 35.6493 19.6615 35.6504C19.6601 35.6515 19.6588 35.6526 19.6575 35.6537C19.6561 35.6547 19.6548 35.6558 19.6535 35.6569C19.6521 35.658 19.6508 35.6591 19.6495 35.6602C19.6481 35.6612 19.6468 35.6623 19.6455 35.6634C19.6441 35.6645 19.6428 35.6656 19.6415 35.6667C19.6401 35.6677 19.6388 35.6688 19.6375 35.6699C19.6361 35.671 19.6348 35.6721 19.6335 35.6732C19.6321 35.6742 19.6308 35.6753 19.6295 35.6764C19.6281 35.6775 19.6268 35.6786 19.6255 35.6797C19.6241 35.6807 19.6228 35.6818 19.6215 35.6829C19.6201 35.684 19.6188 35.6851 19.6175 35.6862C19.6161 35.6872 19.6148 35.6883 19.6135 35.6894C19.6121 35.6905 19.6108 35.6916 19.6095 35.6927C19.6081 35.6937 19.6068 35.6948 19.6055 35.6959C19.6041 35.697 19.6028 35.6981 19.6015 35.6992C19.6001 35.7002 19.5988 35.7013 19.5975 35.7024C19.5961 35.7035 19.5948 35.7046 19.5935 35.7057C19.5921 35.7067 19.5908 35.7078 19.5895 35.7089C19.5881 35.71 19.5868 35.7111 19.5855 35.7122C19.5841 35.7132 19.5828 35.7143 19.5815 35.7154C19.5801 35.7165 19.5788 35.7176 19.5775 35.7187C19.5761 35.7197 19.5748 35.7208 19.5735 35.7219C19.5721 35.723 19.5708 35.7241 19.5695 35.7252C19.5681 35.7262 19.5668 35.7273 19.5655 35.7284C19.5641 35.7295 19.5628 35.7306 19.5615 35.7317C19.5601 35.7327 19.5588 35.7338 19.5575 35.7349C19.5561 35.736 19.5548 35.7371 19.5535 35.7382C19.5521 35.7392 19.5508 35.7403 19.5495 35.7414C19.5481 35.7425 19.5468 35.7436 19.5455 35.7447C19.5441 35.7457 19.5428 35.7468 19.5415 35.7479C19.5401 35.749 19.5388 35.7501 19.5375 35.7512C19.5361 35.7522 19.5348 35.7533 19.5335 35.7544C19.5321 35.7555 19.5308 35.7566 19.5295 35.7577C19.5281 35.7587 19.5268 35.7598 19.5255 35.7609C19.5241 35.762 19.5228 35.7631 19.5215 35.7642C19.5201 35.7652 19.5188 35.7663 19.5175 35.7674C19.5161 35.7685 19.5148 35.7696 19.5135 35.7707C19.5121 35.7717 19.5108 35.7728 19.5095 35.7739C19.5081 35.775 19.5068 35.7761 19.5055 35.7772C19.5041 35.7782 19.5028 35.7793 19.5015 35.7804C19.5001 35.7815 19.4988 35.7826 19.4975 35.7837C19.4961 35.7847 19.4948 35.7858 19.4935 35.7869C19.4921 35.788 19.4908 35.7891 19.4895 35.7902C19.4881 35.7912 19.4868 35.7923 19.4855 35.7934C19.4841 35.7945 19.4828 35.7956 19.4815 35.7967C19.4801 35.7977 19.4788 35.7988 19.4775 35.7999C19.4761 35.801 19.4748 35.8021 19.4735 35.8032C19.4721 35.8042 19.4708 35.8053 19.4695 35.8064C19.4681 35.8075 19.4668 35.8086 19.4655 35.8097C19.4641 35.8107 19.4628 35.8118 19.4615 35.8129C19.4601 35.814 19.4588 35.8151 19.4575 35.8162C19.4561 35.8172 19.4548 35.8183 19.4535 35.8194C19.4521 35.8205 19.4508 35.8216 19.4495 35.8227C19.4481 35.8237 19.4468 35.8248 19.4455 35.8259C19.4441 35.827 19.4428 35.8281 19.4415 35.8292C19.4401 35.8302 19.4388 35.8313 19.4375 35.8324C19.4361 35.8335 19.4348 35.8346 19.4335 35.8357C19.4321 35.8367 19.4308 35.8378 19.4295 35.8389C19.4281 35.84 19.4268 35.8411 19.4255 35.8422C19.4241 35.8432 19.4228 35.8443 19.4215 35.8454C19.4201 35.8465 19.4188 35.8476 19.4175 35.8487C19.4161 35.8497 19.4148 35.8508 19.4135 35.8519C19.4121 35.853 19.4108 35.8541 19.4095 35.8552C19.4081 35.8562 19.4068 35.8573 19.4055 35.8584C19.4041 35.8595 19.4028 35.8606 19.4015 35.8617C19.4001 35.8627 19.3988 35.8638 19.3975 35.8649C19.3961 35.866 19.3948 35.8671 19.3935 35.8682C19.3921 35.8692 19.3908 35.8703 19.3895 35.8714C19.3881 35.8725 19.3868 35.8736 19.3855 35.8747C19.3841 35.8757 19.3828 35.8768 19.3815 35.8779C19.3801 35.879 19.3788 35.8801 19.3775 35.8812C19.3761 35.8822 19.3748 35.8833 19.3735 35.8844C19.3721 35.8855 19.3708 35.8866 19.3695 35.8877C19.3681 35.8887 19.3668 35.8898 19.3655 35.8909C19.3641 35.892 19.3628 35.8931 19.3615 35.8942C19.3601 35.8952 19.3588 35.8963 19.3575 35.8974C19.3561 35.8985 19.3548 35.8996 19.3535 35.9007C19.3521 35.9017 19.3508 35.9028 19.3495 35.9039C19.3481 35.905 19.3468 35.9061 19.3455 35.9072C19.3441 35.9082 19.3428 35.9093 19.3415 35.9104C19.3401 35.9115 19.3388 35.9126 19.3375 35.9137C19.3361 35.9147 19.3348 35.9158 19.3335 35.9169C19.3321 35.918 19.3308 35.9191 19.3295 35.9202C19.3281 35.9212 19.3268 35.9223 19.3255 35.9234C19.3241 35.9245 19.3228 35.9256 19.3215 35.9267C19.3201 35.9277 19.3188 35.9288 19.3175 35.9299C19.3161 35.931 19.3148 35.9321 19.3135 35.9332C19.3121 35.9342 19.3108 35.9353 19.3095 35.9364C19.3081 35.9375 19.3068 35.9386 19.3055 35.9397C19.3041 35.9407 19.3028 35.9418 19.3015 35.9429C19.3001 35.944 19.2988 35.9451 19.2975 35.9462C19.2961 35.9472 19.2948 35.9483 19.2935 35.9494C19.2921 35.9505 19.2908 35.9516 19.2895 35.9527C19.2881 35.9537 19.2868 35.9548 19.2855 35.9559C19.2841 35.957 19.2828 35.9581 19.2815 35.9592C19.2801 35.9602 19.2788 35.9613 19.2775 35.9624C19.2761 35.9635 19.2748 35.9646 19.2735 35.9657C19.2721 35.9667 19.2708 35.9678 19.2695 35.9689C19.2681 35.97 19.2668 35.9711 19.2655 35.9722C19.2641 35.9732 19.2628 35.9743 19.2615 35.9754C19.2601 35.9765 19.2588 35.9776 19.2575 35.9787C19.2561 35.9797 19.2548 35.9808 19.2535 35.9819C19.2521 35.983 19.2508 35.9841 19.2495 35.9852C19.2481 35.9862 19.2468 35.9873 19.2455 35.9884C19.2441 35.9895 19.2428 35.9906 19.2415 35.9917C19.2401 35.9927 19.2388 35.9938 19.2375 35.9949C19.2361 35.996 19.2348 35.9971 19.2335 35.9982C19.2321 35.9992 19.2308 36.0003 19.2295 36.0014C19.2281 36.0025 19.2268 36.0036 19.2255 36.0047C19.2241 36.0057 19.2228 36.0068 19.2215 36.0079C19.2201 36.009 19.2188 36.0101 19.2175 36.0112C19.2161 36.0122 19.2148 36.0133 19.2135 36.0144C19.2121 36.0155 19.2108 36.0166 19.2095 36.0177C19.2081 36.0187 19.2068 36.0198 19.2055 36.0209C19.2041 36.022 19.2028 36.0231 19.2015 36.0242C19.2001 36.0252 19.1988 36.0263 19.1975 36.0274C19.1961 36.0285 19.1948 36.0296 19.1935 36.0307C19.1921 36.0317 19.1908 36.0328 19.1895 36.0339C19.1881 36.035 19.1868 36.0361 19.1855 36.0372C19.1841 36.0382 19.1828 36.0393 19.1815 36.0404C19.1801 36.0415 19.1788 36.0426 19.1775 36.0437C19.1761 36.0447 19.1748 36.0458 19.1735 36.0469C19.1721 36.048 19.1708 36.0491 19.1695 36.0502C19.1681 36.0512 19.1668 36.0523 19.1655 36.0534C19.1641 36.0545 19.1628 36.0556 19.1615 36.0567C19.1601 36.0577 19.1588 36.0588 19.1575 36.0599C19.1561 36.061 19.1548 36.0621 19.1535 36.0632C19.1521 36.0642 19.1508 36.0653 19.1495 36.0664C19.1481 36.0675 19.1468 36.0686 19.1455 36.0697C19.1441 36.0707 19.1428 36.0718 19.1415 36.0729C19.1401 36.074 19.1388 36.0751 19.1375 36.0762C19.1361 36.0772 19.1348 36.0783 19.1335 36.0794C19.1321 36.0805 19.1308 36.0816 19.1295 36.0827C19.1281 36.0837 19.1268 36.0848 19.1255 36.0859C19.1241 36.087 19.1228 36.0881 19.1215 36.0892C19.1201 36.0902 19.1188 36.0913 19.1175 36.0924C19.1161 36.0935 19.1148 36.0946 19.1135 36.0957C19.1121 36.0967 19.1108 36.0978 19.1095 36.0989C19.1081 36.1 19.1068 36.1011 19.1055 36.1022C19.1041 36.1032 19.1028 36.1043 19.1015 36.1054C19.1001 36.1065 19.0988 36.1076 19.0975 36.1087C19.0961 36.1097 19.0948 36.1108 19.0935 36.1119C19.0921 36.113 19.0908 36.1141 19.0895 36.1152C19.0881 36.1162 19.0868 36.1173 19.0855 36.1184C19.0841 36.1195 19.0828 36.1206 19.0815 36.1217C19.0801 36.1227 19.0788 36.1238 19.0775 36.1249C19.0761 36.126 19.0748 36.1271 19.0735 36.1282C19.0721 36.1292 19.0708 36.1303 19.0695 36.1314C19.0681 36.1325 19.0668 36.1336 19.0655 36.1347C19.0641 36.1357 19.0628 36.1368 19.0615 36.1379C19.0601 36.139 19.0588 36.1401 19.0575 36.1412C19.0561 36.1422 19.0548 36.1433 19.0535 36.1444C19.0521 36.1455 19.0508 36.1466 19.0495 36.1477C19.0481 36.1487 19.0468 36.1498 19.0455 36.1509C19.0441 36.152 19.0428 36.1531 19.0415 36.1542C19.0401 36.1552 19.0388 36.1563 19.0375 36.1574C19.0361 36.1585 19.0348 36.1596 19.0335 36.1607C19.0321 36.1617 19.0308 36.1628 19.0295 36.1639C19.0281 36.165 19.0268 36.1661 19.0255 36.1672C19.0241 36.1682 19.0228 36.1693 19.0215 36.1704C19.0201 36.1715 19.0188 36.1726 19.0175 36.1737C19.0161 36.1747 19.0148 36.1758 19.0135 36.1769C19.0121 36.178 19.0108 36.1791 19.0095 36.1802C19.0081 36.1812 19.0068 36.1823 19.0055 36.1834C19.0041 36.1845 19.0028 36.1856 19.0015 36.1867C19.0001 36.1877 18.9988 36.1888 18.9975 36.1899C18.9961 36.191 18.9948 36.1921 18.9935 36.1932C18.9921 36.1942 18.9908 36.1953 18.9895 36.1964C18.9881 36.1975 18.9868 36.1986 18.9855 36.1997C18.9841 36.2007 18.9828 36.2018 18.9815 36.2029C18.9801 36.204 18.9788 36.2051 18.9775 36.2062C18.9761 36.2072 18.9748 36.2083 18.9735 36.2094C18.9721 36.2105 18.9708 36.2116 18.9695 36.2127C18.9681 36.2137 18.9668 36.2148 18.9655 36.2159C18.9641 36.217 18.9628 36.2181 18.9615 36.2192C18.9601 36.2202 18.9588 36.2213 18.9575 36.2224C18.9561 36.2235 18.9548 36.2246 18.9535 36.2257C18.9521 36.2267 18.9508 36.2278 18.9495 36.2289C18.9481 36.23 18.9468 36.2311 18.9455 36.2322C18.9441 36.2332 18.9428 36.2343 18.9415 36.2354C18.9401 36.2365 18.9388 36.2376 18.9375 36.2387C18.9361 36.2397 18.9348 36.2408 18.9335 36.2419C18.9321 36.243 18.9308 36.2441 18.9295 36.2452C18.9281 36.2462 18.9268 36.2473 18.9255 36.2484C18.9241 36.2495 18.9228 36.2506 18.9215 36.2517C18.9201 36.2527 18.9188 36.2538 18.9175 36.2549C18.9161 36.256 18.9148 36.2571 18.9135 36.2582C18.9121 36.2592 18.9108 36.2603 18.9095 36.2614C18.9081 36.2625 18.9068 36.2636 18.9055 36.2647C18.9041 36.2657 18.9028 36.2668 18.9015 36.2679C18.9001 36.269 18.8988 36.2701 18.8975 36.2712C18.8961 36.2722 18.8948 36.2733 18.8935 36.2744C18.8921 36.2755 18.8908 36.2766 18.8895 36.2777C18.8881 36.2787 18.8868 36.2798 18.8855 36.2809C18.8841 36.282 18.8828 36.2831 18.8815 36.2842C18.8801 36.2852 18.8788 36.2863 18.8775 36.2874C18.8761 36.2885 18.8748 36.2896 18.8735 36.2907C18.8721 36.2917 18.8708 36.2928 18.8695 36.2939C18.8681 36.295 18.8668 36.2961 18.8655 36.2972C18.8641 36.2982 18.8628 36.2993 18.8615 36.3004C18.8601 36.3015 18.8588 36.3026 18.8575 36.3037C18.8561 36.3047 18.8548 36.3058 18.8535 36.3069C18.8521 36.308 18.8508 36.3091 18.8495 36.3102C18.8481 36.3112 18.8468 36.3123 18.8455 36.3134C18.8441 36.3145 18.8428 36.3156 18.8415 36.3167C18.8401 36.3177 18.8388 36.3188 18.8375 36.3199C18.8361 36.321 18.8348 36.3221 18.8335 36.3232C18.8321 36.3242 18.8308 36.3253 18.8295 36.3264C18.8281 36.3275 18.8268 36.3286 18.8255 36.3297C18.8241 36.3307 18.8228 36.3318 18.8215 36.3329C18.8201 36.334 18.8188 36.3351 18.8175 36.3362C18.8161 36.3372 18.8148 36.3383 18.8135 36.3394C18.8121 36.3405 18.8108 36.3416 18.8095 36.3427C18.8081 36.3437 18.8068 36.3448 18.8055 36.3459C18.8041 36.347 18.8028 36.3481 18.8015 36.3492C18.8001 36.3502 18.7988 36.3513 18.7975 36.3524C18.7961 36.3535 18.7948 36.3546 18.7935 36.3557C18.7921 36.3567 18.7908 36.3578 18.7895 36.3589C18.7881 36.36 18.7868 36.3611 18.7855 36.3622C18.7841 36.3632 18.7828 36.3643 18.7815 36.3654C18.7801 36.3665 18.7788 36.3676 18.7775 36.3687C18.7761 36.3697 18.7748 36.3708 18.7735 36.3719C18.7721 36.373 18.7708 36.3741 18.7695 36.3752C18.7681 36.3762 18.7668 36.3773 18.7655 36.3784C18.7641 36.3795 18.7628 36.3806 18.7615 36.3817C18.7601 36.3827 18.7588 36.3838 18.7575 36.3849C18.7561 36.386 18.7548 36.3871 18.7535 36.3882C18.7521 36.3892 18.7508 36.3903 18.7495 36.3914C18.7481 36.3925 18.7468 36.3936 18.7455 36.3947C18.7441 36.3957 18.7428 36.3968 18.7415 36.3979C18.7401 36.399 18.7388 36.4001 18.7375 36.4012C18.7361 36.4022 18.7348 36.4033 18.7335 36.4044C18.7321 36.4055 18.7308 36.4066 18.7295 36.4077L22.513 41.0643C22.5144 41.0633 22.5157 41.0622 22.517 41.0611C22.5184 41.06 22.5197 41.0589 22.521 41.0578C22.5224 41.0568 22.5237 41.0557 22.525 41.0546C22.5264 41.0535 22.5277 41.0524 22.529 41.0513C22.5304 41.0503 22.5317 41.0492 22.533 41.0481C22.5344 41.047 22.5357 41.0459 22.537 41.0448C22.5384 41.0438 22.5397 41.0427 22.541 41.0416C22.5424 41.0405 22.5437 41.0394 22.545 41.0383C22.5464 41.0373 22.5477 41.0362 22.549 41.0351C22.5504 41.034 22.5517 41.0329 22.553 41.0318C22.5544 41.0308 22.5557 41.0297 22.557 41.0286C22.5584 41.0275 22.5597 41.0264 22.561 41.0253C22.5624 41.0243 22.5637 41.0232 22.565 41.0221C22.5664 41.021 22.5677 41.0199 22.569 41.0188C22.5704 41.0178 22.5717 41.0167 22.573 41.0156C22.5744 41.0145 22.5757 41.0134 22.577 41.0123C22.5784 41.0113 22.5797 41.0102 22.581 41.0091C22.5824 41.008 22.5837 41.0069 22.585 41.0058C22.5864 41.0048 22.5877 41.0037 22.589 41.0026C22.5904 41.0015 22.5917 41.0004 22.593 40.9993C22.5944 40.9983 22.5957 40.9972 22.597 40.9961C22.5984 40.995 22.5997 40.9939 22.601 40.9928C22.6024 40.9918 22.6037 40.9907 22.605 40.9896C22.6064 40.9885 22.6077 40.9874 22.609 40.9863C22.6104 40.9853 22.6117 40.9842 22.613 40.9831C22.6144 40.982 22.6157 40.9809 22.617 40.9798C22.6184 40.9788 22.6197 40.9777 22.621 40.9766C22.6224 40.9755 22.6237 40.9744 22.625 40.9733C22.6264 40.9723 22.6277 40.9712 22.629 40.9701C22.6304 40.969 22.6317 40.9679 22.633 40.9668C22.6344 40.9658 22.6357 40.9647 22.637 40.9636C22.6384 40.9625 22.6397 40.9614 22.641 40.9603C22.6424 40.9593 22.6437 40.9582 22.645 40.9571C22.6464 40.956 22.6477 40.9549 22.649 40.9538C22.6504 40.9528 22.6517 40.9517 22.653 40.9506C22.6544 40.9495 22.6557 40.9484 22.657 40.9473C22.6584 40.9463 22.6597 40.9452 22.661 40.9441C22.6624 40.943 22.6637 40.9419 22.665 40.9408C22.6664 40.9398 22.6677 40.9387 22.669 40.9376C22.6704 40.9365 22.6717 40.9354 22.673 40.9343C22.6744 40.9333 22.6757 40.9322 22.677 40.9311C22.6784 40.93 22.6797 40.9289 22.681 40.9278C22.6824 40.9268 22.6837 40.9257 22.685 40.9246C22.6864 40.9235 22.6877 40.9224 22.689 40.9213C22.6904 40.9203 22.6917 40.9192 22.693 40.9181C22.6944 40.917 22.6957 40.9159 22.697 40.9148C22.6984 40.9138 22.6997 40.9127 22.701 40.9116C22.7024 40.9105 22.7037 40.9094 22.705 40.9083C22.7064 40.9073 22.7077 40.9062 22.709 40.9051C22.7104 40.904 22.7117 40.9029 22.713 40.9018C22.7144 40.9008 22.7157 40.8997 22.717 40.8986C22.7184 40.8975 22.7197 40.8964 22.721 40.8953C22.7224 40.8943 22.7237 40.8932 22.725 40.8921C22.7264 40.891 22.7277 40.8899 22.729 40.8888C22.7304 40.8878 22.7317 40.8867 22.733 40.8856C22.7344 40.8845 22.7357 40.8834 22.737 40.8823C22.7384 40.8813 22.7397 40.8802 22.741 40.8791C22.7424 40.878 22.7437 40.8769 22.745 40.8758C22.7464 40.8748 22.7477 40.8737 22.749 40.8726C22.7504 40.8715 22.7517 40.8704 22.753 40.8693C22.7544 40.8683 22.7557 40.8672 22.757 40.8661C22.7584 40.865 22.7597 40.8639 22.761 40.8628C22.7624 40.8618 22.7637 40.8607 22.765 40.8596C22.7664 40.8585 22.7677 40.8574 22.769 40.8563C22.7704 40.8553 22.7717 40.8542 22.773 40.8531C22.7744 40.852 22.7757 40.8509 22.777 40.8498C22.7784 40.8488 22.7797 40.8477 22.781 40.8466C22.7824 40.8455 22.7837 40.8444 22.785 40.8433C22.7864 40.8423 22.7877 40.8412 22.789 40.8401C22.7904 40.839 22.7917 40.8379 22.793 40.8368C22.7944 40.8358 22.7957 40.8347 22.797 40.8336C22.7984 40.8325 22.7997 40.8314 22.801 40.8303C22.8024 40.8293 22.8037 40.8282 22.805 40.8271C22.8064 40.826 22.8077 40.8249 22.809 40.8238C22.8104 40.8228 22.8117 40.8217 22.813 40.8206C22.8144 40.8195 22.8157 40.8184 22.817 40.8173C22.8184 40.8163 22.8197 40.8152 22.821 40.8141C22.8224 40.813 22.8237 40.8119 22.825 40.8108C22.8264 40.8098 22.8277 40.8087 22.829 40.8076C22.8304 40.8065 22.8317 40.8054 22.833 40.8043C22.8344 40.8033 22.8357 40.8022 22.837 40.8011C22.8384 40.8 22.8397 40.7989 22.841 40.7978C22.8424 40.7968 22.8437 40.7957 22.845 40.7946C22.8464 40.7935 22.8477 40.7924 22.849 40.7913C22.8504 40.7903 22.8517 40.7892 22.853 40.7881C22.8544 40.787 22.8557 40.7859 22.857 40.7848C22.8584 40.7838 22.8597 40.7827 22.861 40.7816C22.8624 40.7805 22.8637 40.7794 22.865 40.7783C22.8664 40.7773 22.8677 40.7762 22.869 40.7751C22.8704 40.774 22.8717 40.7729 22.873 40.7718C22.8744 40.7708 22.8757 40.7697 22.877 40.7686C22.8784 40.7675 22.8797 40.7664 22.881 40.7653C22.8824 40.7643 22.8837 40.7632 22.885 40.7621C22.8864 40.761 22.8877 40.7599 22.889 40.7588C22.8904 40.7578 22.8917 40.7567 22.893 40.7556C22.8944 40.7545 22.8957 40.7534 22.897 40.7523C22.8984 40.7513 22.8997 40.7502 22.901 40.7491C22.9024 40.748 22.9037 40.7469 22.905 40.7458C22.9064 40.7448 22.9077 40.7437 22.909 40.7426C22.9104 40.7415 22.9117 40.7404 22.913 40.7393C22.9144 40.7383 22.9157 40.7372 22.917 40.7361C22.9184 40.735 22.9197 40.7339 22.921 40.7328C22.9224 40.7318 22.9237 40.7307 22.925 40.7296C22.9264 40.7285 22.9277 40.7274 22.929 40.7263C22.9304 40.7253 22.9317 40.7242 22.933 40.7231C22.9344 40.722 22.9357 40.7209 22.937 40.7198C22.9384 40.7188 22.9397 40.7177 22.941 40.7166C22.9424 40.7155 22.9437 40.7144 22.945 40.7133C22.9464 40.7123 22.9477 40.7112 22.949 40.7101C22.9504 40.709 22.9517 40.7079 22.953 40.7068C22.9544 40.7058 22.9557 40.7047 22.957 40.7036C22.9584 40.7025 22.9597 40.7014 22.961 40.7003C22.9624 40.6993 22.9637 40.6982 22.965 40.6971C22.9664 40.696 22.9677 40.6949 22.969 40.6938C22.9704 40.6928 22.9717 40.6917 22.973 40.6906C22.9744 40.6895 22.9757 40.6884 22.977 40.6873C22.9784 40.6863 22.9797 40.6852 22.981 40.6841C22.9824 40.683 22.9837 40.6819 22.985 40.6808C22.9864 40.6798 22.9877 40.6787 22.989 40.6776C22.9904 40.6765 22.9917 40.6754 22.993 40.6743C22.9944 40.6733 22.9957 40.6722 22.997 40.6711C22.9984 40.67 22.9997 40.6689 23.001 40.6678C23.0024 40.6668 23.0037 40.6657 23.005 40.6646C23.0064 40.6635 23.0077 40.6624 23.009 40.6613C23.0104 40.6603 23.0117 40.6592 23.013 40.6581C23.0144 40.657 23.0157 40.6559 23.017 40.6548C23.0184 40.6538 23.0197 40.6527 23.021 40.6516C23.0224 40.6505 23.0237 40.6494 23.025 40.6483C23.0264 40.6473 23.0277 40.6462 23.029 40.6451C23.0304 40.644 23.0317 40.6429 23.033 40.6418C23.0344 40.6408 23.0357 40.6397 23.037 40.6386C23.0384 40.6375 23.0397 40.6364 23.041 40.6353C23.0424 40.6343 23.0437 40.6332 23.045 40.6321C23.0464 40.631 23.0477 40.6299 23.049 40.6288C23.0504 40.6278 23.0517 40.6267 23.053 40.6256C23.0544 40.6245 23.0557 40.6234 23.057 40.6223C23.0584 40.6213 23.0597 40.6202 23.061 40.6191C23.0624 40.618 23.0637 40.6169 23.065 40.6158C23.0664 40.6148 23.0677 40.6137 23.069 40.6126C23.0704 40.6115 23.0717 40.6104 23.073 40.6093C23.0744 40.6083 23.0757 40.6072 23.077 40.6061C23.0784 40.605 23.0797 40.6039 23.081 40.6028C23.0824 40.6018 23.0837 40.6007 23.085 40.5996C23.0864 40.5985 23.0877 40.5974 23.089 40.5963C23.0904 40.5953 23.0917 40.5942 23.093 40.5931C23.0944 40.592 23.0957 40.5909 23.097 40.5898C23.0984 40.5888 23.0997 40.5877 23.101 40.5866C23.1024 40.5855 23.1037 40.5844 23.105 40.5833C23.1064 40.5823 23.1077 40.5812 23.109 40.5801C23.1104 40.579 23.1117 40.5779 23.113 40.5768C23.1144 40.5758 23.1157 40.5747 23.117 40.5736C23.1184 40.5725 23.1197 40.5714 23.121 40.5703C23.1224 40.5693 23.1237 40.5682 23.125 40.5671C23.1264 40.566 23.1277 40.5649 23.129 40.5638C23.1304 40.5628 23.1317 40.5617 23.133 40.5606C23.1344 40.5595 23.1357 40.5584 23.137 40.5573C23.1384 40.5563 23.1397 40.5552 23.141 40.5541C23.1424 40.553 23.1437 40.5519 23.145 40.5508C23.1464 40.5498 23.1477 40.5487 23.149 40.5476C23.1504 40.5465 23.1517 40.5454 23.153 40.5443C23.1544 40.5433 23.1557 40.5422 23.157 40.5411C23.1584 40.54 23.1597 40.5389 23.161 40.5378C23.1624 40.5368 23.1637 40.5357 23.165 40.5346C23.1664 40.5335 23.1677 40.5324 23.169 40.5313C23.1704 40.5303 23.1717 40.5292 23.173 40.5281C23.1744 40.527 23.1757 40.5259 23.177 40.5248C23.1784 40.5238 23.1797 40.5227 23.181 40.5216C23.1824 40.5205 23.1837 40.5194 23.185 40.5183C23.1864 40.5173 23.1877 40.5162 23.189 40.5151C23.1904 40.514 23.1917 40.5129 23.193 40.5118C23.1944 40.5108 23.1957 40.5097 23.197 40.5086C23.1984 40.5075 23.1997 40.5064 23.201 40.5053C23.2024 40.5043 23.2037 40.5032 23.205 40.5021C23.2064 40.501 23.2077 40.4999 23.209 40.4988C23.2104 40.4978 23.2117 40.4967 23.213 40.4956C23.2144 40.4945 23.2157 40.4934 23.217 40.4923C23.2184 40.4913 23.2197 40.4902 23.221 40.4891C23.2224 40.488 23.2237 40.4869 23.225 40.4858C23.2264 40.4848 23.2277 40.4837 23.229 40.4826C23.2304 40.4815 23.2317 40.4804 23.233 40.4793C23.2344 40.4783 23.2357 40.4772 23.237 40.4761C23.2384 40.475 23.2397 40.4739 23.241 40.4728C23.2424 40.4718 23.2437 40.4707 23.245 40.4696C23.2464 40.4685 23.2477 40.4674 23.249 40.4663C23.2504 40.4653 23.2517 40.4642 23.253 40.4631C23.2544 40.462 23.2557 40.4609 23.257 40.4598C23.2584 40.4588 23.2597 40.4577 23.261 40.4566C23.2624 40.4555 23.2637 40.4544 23.265 40.4533C23.2664 40.4523 23.2677 40.4512 23.269 40.4501C23.2704 40.449 23.2717 40.4479 23.273 40.4468C23.2744 40.4458 23.2757 40.4447 23.277 40.4436C23.2784 40.4425 23.2797 40.4414 23.281 40.4403C23.2824 40.4393 23.2837 40.4382 23.285 40.4371C23.2864 40.436 23.2877 40.4349 23.289 40.4338C23.2904 40.4328 23.2917 40.4317 23.293 40.4306C23.2944 40.4295 23.2957 40.4284 23.297 40.4273C23.2984 40.4263 23.2997 40.4252 23.301 40.4241C23.3024 40.423 23.3037 40.4219 23.305 40.4208C23.3064 40.4198 23.3077 40.4187 23.309 40.4176C23.3104 40.4165 23.3117 40.4154 23.313 40.4143C23.3144 40.4133 23.3157 40.4122 23.317 40.4111C23.3184 40.41 23.3197 40.4089 23.321 40.4078C23.3224 40.4068 23.3237 40.4057 23.325 40.4046C23.3264 40.4035 23.3277 40.4024 23.329 40.4013C23.3304 40.4003 23.3317 40.3992 23.333 40.3981C23.3344 40.397 23.3357 40.3959 23.337 40.3948C23.3384 40.3938 23.3397 40.3927 23.341 40.3916C23.3424 40.3905 23.3437 40.3894 23.345 40.3883C23.3464 40.3873 23.3477 40.3862 23.349 40.3851C23.3504 40.384 23.3517 40.3829 23.353 40.3818C23.3544 40.3808 23.3557 40.3797 23.357 40.3786C23.3584 40.3775 23.3597 40.3764 23.361 40.3753C23.3624 40.3743 23.3637 40.3732 23.365 40.3721C23.3664 40.371 23.3677 40.3699 23.369 40.3688C23.3704 40.3678 23.3717 40.3667 23.373 40.3656C23.3744 40.3645 23.3757 40.3634 23.377 40.3623C23.3784 40.3613 23.3797 40.3602 23.381 40.3591C23.3824 40.358 23.3837 40.3569 23.385 40.3558C23.3864 40.3548 23.3877 40.3537 23.389 40.3526C23.3904 40.3515 23.3917 40.3504 23.393 40.3493C23.3944 40.3483 23.3957 40.3472 23.397 40.3461C23.3984 40.345 23.3997 40.3439 23.401 40.3428C23.4024 40.3418 23.4037 40.3407 23.405 40.3396C23.4064 40.3385 23.4077 40.3374 23.409 40.3363C23.4104 40.3353 23.4117 40.3342 23.413 40.3331C23.4144 40.332 23.4157 40.3309 23.417 40.3298C23.4184 40.3288 23.4197 40.3277 23.421 40.3266C23.4224 40.3255 23.4237 40.3244 23.425 40.3233C23.4264 40.3223 23.4277 40.3212 23.429 40.3201C23.4304 40.319 23.4317 40.3179 23.433 40.3168C23.4344 40.3158 23.4357 40.3147 23.437 40.3136C23.4384 40.3125 23.4397 40.3114 23.441 40.3103C23.4424 40.3093 23.4437 40.3082 23.445 40.3071C23.4464 40.306 23.4477 40.3049 23.449 40.3038C23.4504 40.3028 23.4517 40.3017 23.453 40.3006C23.4544 40.2995 23.4557 40.2984 23.457 40.2973C23.4584 40.2963 23.4597 40.2952 23.461 40.2941C23.4624 40.293 23.4637 40.2919 23.465 40.2908C23.4664 40.2898 23.4677 40.2887 23.469 40.2876C23.4704 40.2865 23.4717 40.2854 23.473 40.2843C23.4744 40.2833 23.4757 40.2822 23.477 40.2811C23.4784 40.28 23.4797 40.2789 23.481 40.2778C23.4824 40.2768 23.4837 40.2757 23.485 40.2746C23.4864 40.2735 23.4877 40.2724 23.489 40.2713C23.4904 40.2703 23.4917 40.2692 23.493 40.2681C23.4944 40.267 23.4957 40.2659 23.497 40.2648C23.4984 40.2638 23.4997 40.2627 23.501 40.2616C23.5024 40.2605 23.5037 40.2594 23.505 40.2583C23.5064 40.2573 23.5077 40.2562 23.509 40.2551C23.5104 40.254 23.5117 40.2529 23.513 40.2518C23.5144 40.2508 23.5157 40.2497 23.517 40.2486C23.5184 40.2475 23.5197 40.2464 23.521 40.2453C23.5224 40.2443 23.5237 40.2432 23.525 40.2421C23.5264 40.241 23.5277 40.2399 23.529 40.2388C23.5304 40.2378 23.5317 40.2367 23.533 40.2356C23.5344 40.2345 23.5357 40.2334 23.537 40.2323C23.5384 40.2313 23.5397 40.2302 23.541 40.2291C23.5424 40.228 23.5437 40.2269 23.545 40.2258C23.5464 40.2248 23.5477 40.2237 23.549 40.2226C23.5504 40.2215 23.5517 40.2204 23.553 40.2193C23.5544 40.2183 23.5557 40.2172 23.557 40.2161C23.5584 40.215 23.5597 40.2139 23.561 40.2128C23.5624 40.2118 23.5637 40.2107 23.565 40.2096C23.5664 40.2085 23.5677 40.2074 23.569 40.2063C23.5704 40.2053 23.5717 40.2042 23.573 40.2031C23.5744 40.202 23.5757 40.2009 23.577 40.1998C23.5784 40.1988 23.5797 40.1977 23.581 40.1966C23.5824 40.1955 23.5837 40.1944 23.585 40.1933C23.5864 40.1923 23.5877 40.1912 23.589 40.1901C23.5904 40.189 23.5917 40.1879 23.593 40.1868C23.5944 40.1858 23.5957 40.1847 23.597 40.1836C23.5984 40.1825 23.5997 40.1814 23.601 40.1803C23.6024 40.1793 23.6037 40.1782 23.605 40.1771C23.6064 40.176 23.6077 40.1749 23.609 40.1738C23.6104 40.1728 23.6117 40.1717 23.613 40.1706C23.6144 40.1695 23.6157 40.1684 23.617 40.1673C23.6184 40.1663 23.6197 40.1652 23.621 40.1641C23.6224 40.163 23.6237 40.1619 23.625 40.1608C23.6264 40.1598 23.6277 40.1587 23.629 40.1576C23.6304 40.1565 23.6317 40.1554 23.633 40.1543C23.6344 40.1533 23.6357 40.1522 23.637 40.1511C23.6384 40.15 23.6397 40.1489 23.641 40.1478C23.6424 40.1468 23.6437 40.1457 23.645 40.1446C23.6464 40.1435 23.6477 40.1424 23.649 40.1413C23.6504 40.1403 23.6517 40.1392 23.653 40.1381C23.6544 40.137 23.6557 40.1359 23.657 40.1348C23.6584 40.1338 23.6597 40.1327 23.661 40.1316C23.6624 40.1305 23.6637 40.1294 23.665 40.1283C23.6664 40.1273 23.6677 40.1262 23.669 40.1251C23.6704 40.124 23.6717 40.1229 23.673 40.1218C23.6744 40.1208 23.6757 40.1197 23.677 40.1186C23.6784 40.1175 23.6797 40.1164 23.681 40.1153C23.6824 40.1143 23.6837 40.1132 23.685 40.1121C23.6864 40.111 23.6877 40.1099 23.689 40.1088C23.6904 40.1078 23.6917 40.1067 23.693 40.1056C23.6944 40.1045 23.6957 40.1034 23.697 40.1023C23.6984 40.1013 23.6997 40.1002 23.701 40.0991C23.7024 40.098 23.7037 40.0969 23.705 40.0958C23.7064 40.0948 23.7077 40.0937 23.709 40.0926C23.7104 40.0915 23.7117 40.0904 23.713 40.0893C23.7144 40.0883 23.7157 40.0872 23.717 40.0861C23.7184 40.085 23.7197 40.0839 23.721 40.0828C23.7224 40.0818 23.7237 40.0807 23.725 40.0796C23.7264 40.0785 23.7277 40.0774 23.729 40.0763C23.7304 40.0753 23.7317 40.0742 23.733 40.0731C23.7344 40.072 23.7357 40.0709 23.737 40.0698C23.7384 40.0688 23.7397 40.0677 23.741 40.0666C23.7424 40.0655 23.7437 40.0644 23.745 40.0633C23.7464 40.0623 23.7477 40.0612 23.749 40.0601C23.7504 40.059 23.7517 40.0579 23.753 40.0568C23.7544 40.0558 23.7557 40.0547 23.757 40.0536C23.7584 40.0525 23.7597 40.0514 23.761 40.0503C23.7624 40.0493 23.7637 40.0482 23.765 40.0471C23.7664 40.046 23.7677 40.0449 23.769 40.0438C23.7704 40.0428 23.7717 40.0417 23.773 40.0406C23.7744 40.0395 23.7757 40.0384 23.777 40.0373C23.7784 40.0363 23.7797 40.0352 23.781 40.0341C23.7824 40.033 23.7837 40.0319 23.785 40.0308C23.7864 40.0298 23.7877 40.0287 23.789 40.0276C23.7904 40.0265 23.7917 40.0254 23.793 40.0243C23.7944 40.0233 23.7957 40.0222 23.797 40.0211C23.7984 40.02 23.7997 40.0189 23.801 40.0178C23.8024 40.0168 23.8037 40.0157 23.805 40.0146C23.8064 40.0135 23.8077 40.0124 23.809 40.0113C23.8104 40.0103 23.8117 40.0092 23.813 40.0081C23.8144 40.007 23.8157 40.0059 23.817 40.0048C23.8184 40.0038 23.8197 40.0027 23.821 40.0016C23.8224 40.0005 23.8237 39.9994 23.825 39.9983C23.8264 39.9973 23.8277 39.9962 23.829 39.9951C23.8304 39.994 23.8317 39.9929 23.833 39.9918C23.8344 39.9908 23.8357 39.9897 23.837 39.9886C23.8384 39.9875 23.8397 39.9864 23.841 39.9853C23.8424 39.9843 23.8437 39.9832 23.845 39.9821C23.8464 39.981 23.8477 39.9799 23.849 39.9788C23.8504 39.9778 23.8517 39.9767 23.853 39.9756C23.8544 39.9745 23.8557 39.9734 23.857 39.9723C23.8584 39.9713 23.8597 39.9702 23.861 39.9691C23.8624 39.968 23.8637 39.9669 23.865 39.9658C23.8664 39.9648 23.8677 39.9637 23.869 39.9626C23.8704 39.9615 23.8717 39.9604 23.873 39.9593C23.8744 39.9583 23.8757 39.9572 23.877 39.9561C23.8784 39.955 23.8797 39.9539 23.881 39.9528C23.8824 39.9518 23.8837 39.9507 23.885 39.9496C23.8864 39.9485 23.8877 39.9474 23.889 39.9463C23.8904 39.9453 23.8917 39.9442 23.893 39.9431C23.8944 39.942 23.8957 39.9409 23.897 39.9398C23.8984 39.9388 23.8997 39.9377 23.901 39.9366C23.9024 39.9355 23.9037 39.9344 23.905 39.9333C23.9064 39.9323 23.9077 39.9312 23.909 39.9301C23.9104 39.929 23.9117 39.9279 23.913 39.9268C23.9144 39.9258 23.9157 39.9247 23.917 39.9236C23.9184 39.9225 23.9197 39.9214 23.921 39.9203C23.9224 39.9193 23.9237 39.9182 23.925 39.9171C23.9264 39.916 23.9277 39.9149 23.929 39.9138C23.9304 39.9128 23.9317 39.9117 23.933 39.9106C23.9344 39.9095 23.9357 39.9084 23.937 39.9073C23.9384 39.9063 23.9397 39.9052 23.941 39.9041C23.9424 39.903 23.9437 39.9019 23.945 39.9008C23.9464 39.8998 23.9477 39.8987 23.949 39.8976C23.9504 39.8965 23.9517 39.8954 23.953 39.8943C23.9544 39.8933 23.9557 39.8922 23.957 39.8911C23.9584 39.89 23.9597 39.8889 23.961 39.8878C23.9624 39.8868 23.9637 39.8857 23.965 39.8846C23.9664 39.8835 23.9677 39.8824 23.969 39.8813C23.9704 39.8803 23.9717 39.8792 23.973 39.8781C23.9744 39.877 23.9757 39.8759 23.977 39.8748C23.9784 39.8738 23.9797 39.8727 23.981 39.8716C23.9824 39.8705 23.9837 39.8694 23.985 39.8683C23.9864 39.8673 23.9877 39.8662 23.989 39.8651C23.9904 39.864 23.9917 39.8629 23.993 39.8618C23.9944 39.8608 23.9957 39.8597 23.997 39.8586C23.9984 39.8575 23.9997 39.8564 24.001 39.8553C24.0024 39.8543 24.0037 39.8532 24.005 39.8521C24.0064 39.851 24.0077 39.8499 24.009 39.8488C24.0104 39.8478 24.0117 39.8467 24.013 39.8456C24.0144 39.8445 24.0157 39.8434 24.017 39.8423C24.0184 39.8413 24.0197 39.8402 24.021 39.8391C24.0224 39.838 24.0237 39.8369 24.025 39.8358C24.0264 39.8348 24.0277 39.8337 24.029 39.8326C24.0304 39.8315 24.0317 39.8304 24.033 39.8293C24.0344 39.8283 24.0357 39.8272 24.037 39.8261C24.0384 39.825 24.0397 39.8239 24.041 39.8228C24.0424 39.8218 24.0437 39.8207 24.045 39.8196C24.0464 39.8185 24.0477 39.8174 24.049 39.8163C24.0504 39.8153 24.0517 39.8142 24.053 39.8131C24.0544 39.812 24.0557 39.8109 24.057 39.8098C24.0584 39.8088 24.0597 39.8077 24.061 39.8066C24.0624 39.8055 24.0637 39.8044 24.065 39.8033C24.0664 39.8023 24.0677 39.8012 24.069 39.8001C24.0704 39.799 24.0717 39.7979 24.073 39.7968C24.0744 39.7958 24.0757 39.7947 24.077 39.7936C24.0784 39.7925 24.0797 39.7914 24.081 39.7903C24.0824 39.7893 24.0837 39.7882 24.085 39.7871C24.0864 39.786 24.0877 39.7849 24.089 39.7838C24.0904 39.7828 24.0917 39.7817 24.093 39.7806C24.0944 39.7795 24.0957 39.7784 24.097 39.7773C24.0984 39.7763 24.0997 39.7752 24.101 39.7741C24.1024 39.773 24.1037 39.7719 24.105 39.7708C24.1064 39.7698 24.1077 39.7687 24.109 39.7676C24.1104 39.7665 24.1117 39.7654 24.113 39.7643C24.1144 39.7633 24.1157 39.7622 24.117 39.7611C24.1184 39.76 24.1197 39.7589 24.121 39.7578C24.1224 39.7568 24.1237 39.7557 24.125 39.7546C24.1264 39.7535 24.1277 39.7524 24.129 39.7513C24.1304 39.7503 24.1317 39.7492 24.133 39.7481C24.1344 39.747 24.1357 39.7459 24.137 39.7448C24.1384 39.7438 24.1397 39.7427 24.141 39.7416C24.1424 39.7405 24.1437 39.7394 24.145 39.7383C24.1464 39.7373 24.1477 39.7362 24.149 39.7351C24.1504 39.734 24.1517 39.7329 24.153 39.7318C24.1544 39.7308 24.1557 39.7297 24.157 39.7286C24.1584 39.7275 24.1597 39.7264 24.161 39.7253C24.1624 39.7243 24.1637 39.7232 24.165 39.7221C24.1664 39.721 24.1677 39.7199 24.169 39.7188C24.1704 39.7178 24.1717 39.7167 24.173 39.7156C24.1744 39.7145 24.1757 39.7134 24.177 39.7123C24.1784 39.7113 24.1797 39.7102 24.181 39.7091C24.1824 39.708 24.1837 39.7069 24.185 39.7058C24.1864 39.7048 24.1877 39.7037 24.189 39.7026C24.1904 39.7015 24.1917 39.7004 24.193 39.6993C24.1944 39.6983 24.1957 39.6972 24.197 39.6961C24.1984 39.695 24.1997 39.6939 24.201 39.6928C24.2024 39.6918 24.2037 39.6907 24.205 39.6896C24.2064 39.6885 24.2077 39.6874 24.209 39.6863C24.2104 39.6853 24.2117 39.6842 24.213 39.6831C24.2144 39.682 24.2157 39.6809 24.217 39.6798C24.2184 39.6788 24.2197 39.6777 24.221 39.6766C24.2224 39.6755 24.2237 39.6744 24.225 39.6733C24.2264 39.6723 24.2277 39.6712 24.229 39.6701C24.2304 39.669 24.2317 39.6679 24.233 39.6668C24.2344 39.6658 24.2357 39.6647 24.237 39.6636C24.2384 39.6625 24.2397 39.6614 24.241 39.6603C24.2424 39.6593 24.2437 39.6582 24.245 39.6571C24.2464 39.656 24.2477 39.6549 24.249 39.6538C24.2504 39.6528 24.2517 39.6517 24.253 39.6506C24.2544 39.6495 24.2557 39.6484 24.257 39.6473C24.2584 39.6463 24.2597 39.6452 24.261 39.6441C24.2624 39.643 24.2637 39.6419 24.265 39.6408C24.2664 39.6398 24.2677 39.6387 24.269 39.6376C24.2704 39.6365 24.2717 39.6354 24.273 39.6343C24.2744 39.6333 24.2757 39.6322 24.277 39.6311C24.2784 39.63 24.2797 39.6289 24.281 39.6278C24.2824 39.6268 24.2837 39.6257 24.285 39.6246C24.2864 39.6235 24.2877 39.6224 24.289 39.6213C24.2904 39.6203 24.2917 39.6192 24.293 39.6181C24.2944 39.617 24.2957 39.6159 24.297 39.6148C24.2984 39.6138 24.2997 39.6127 24.301 39.6116C24.3024 39.6105 24.3037 39.6094 24.305 39.6083C24.3064 39.6073 24.3077 39.6062 24.309 39.6051C24.3104 39.604 24.3117 39.6029 24.313 39.6018C24.3144 39.6008 24.3157 39.5997 24.317 39.5986C24.3184 39.5975 24.3197 39.5964 24.321 39.5953C24.3224 39.5943 24.3237 39.5932 24.325 39.5921C24.3264 39.591 24.3277 39.5899 24.329 39.5888C24.3304 39.5878 24.3317 39.5867 24.333 39.5856C24.3344 39.5845 24.3357 39.5834 24.337 39.5823C24.3384 39.5813 24.3397 39.5802 24.341 39.5791C24.3424 39.578 24.3437 39.5769 24.345 39.5758C24.3464 39.5748 24.3477 39.5737 24.349 39.5726C24.3504 39.5715 24.3517 39.5704 24.353 39.5693C24.3544 39.5683 24.3557 39.5672 24.357 39.5661C24.3584 39.565 24.3597 39.5639 24.361 39.5628C24.3624 39.5618 24.3637 39.5607 24.365 39.5596C24.3664 39.5585 24.3677 39.5574 24.369 39.5563C24.3704 39.5553 24.3717 39.5542 24.373 39.5531C24.3744 39.552 24.3757 39.5509 24.377 39.5498C24.3784 39.5488 24.3797 39.5477 24.381 39.5466C24.3824 39.5455 24.3837 39.5444 24.385 39.5433C24.3864 39.5423 24.3877 39.5412 24.389 39.5401C24.3904 39.539 24.3917 39.5379 24.393 39.5368C24.3944 39.5358 24.3957 39.5347 24.397 39.5336C24.3984 39.5325 24.3997 39.5314 24.401 39.5303C24.4024 39.5293 24.4037 39.5282 24.405 39.5271C24.4064 39.526 24.4077 39.5249 24.409 39.5238C24.4104 39.5228 24.4117 39.5217 24.413 39.5206C24.4144 39.5195 24.4157 39.5184 24.417 39.5173C24.4184 39.5163 24.4197 39.5152 24.421 39.5141C24.4224 39.513 24.4237 39.5119 24.425 39.5108C24.4264 39.5098 24.4277 39.5087 24.429 39.5076C24.4304 39.5065 24.4317 39.5054 24.433 39.5043C24.4344 39.5033 24.4357 39.5022 24.437 39.5011C24.4384 39.5 24.4397 39.4989 24.441 39.4978C24.4424 39.4968 24.4437 39.4957 24.445 39.4946C24.4464 39.4935 24.4477 39.4924 24.449 39.4913C24.4504 39.4903 24.4517 39.4892 24.453 39.4881C24.4544 39.487 24.4557 39.4859 24.457 39.4848C24.4584 39.4838 24.4597 39.4827 24.461 39.4816C24.4624 39.4805 24.4637 39.4794 24.465 39.4783C24.4664 39.4773 24.4677 39.4762 24.469 39.4751C24.4704 39.474 24.4717 39.4729 24.473 39.4718C24.4744 39.4708 24.4757 39.4697 24.477 39.4686C24.4784 39.4675 24.4797 39.4664 24.481 39.4653C24.4824 39.4643 24.4837 39.4632 24.485 39.4621C24.4864 39.461 24.4877 39.4599 24.489 39.4588C24.4904 39.4578 24.4917 39.4567 24.493 39.4556C24.4944 39.4545 24.4957 39.4534 24.497 39.4523C24.4984 39.4513 24.4997 39.4502 24.501 39.4491C24.5024 39.448 24.5037 39.4469 24.505 39.4458C24.5064 39.4448 24.5077 39.4437 24.509 39.4426C24.5104 39.4415 24.5117 39.4404 24.513 39.4393C24.5144 39.4383 24.5157 39.4372 24.517 39.4361C24.5184 39.435 24.5197 39.4339 24.521 39.4328C24.5224 39.4318 24.5237 39.4307 24.525 39.4296C24.5264 39.4285 24.5277 39.4274 24.529 39.4263C24.5304 39.4253 24.5317 39.4242 24.533 39.4231C24.5344 39.422 24.5357 39.4209 24.537 39.4198C24.5384 39.4188 24.5397 39.4177 24.541 39.4166C24.5424 39.4155 24.5437 39.4144 24.545 39.4133C24.5464 39.4123 24.5477 39.4112 24.549 39.4101C24.5504 39.409 24.5517 39.4079 24.553 39.4068C24.5544 39.4058 24.5557 39.4047 24.557 39.4036C24.5584 39.4025 24.5597 39.4014 24.561 39.4003L20.7775 34.7437ZM18.7472 36.3934C18.7688 36.3761 18.7225 36.4139 18.5553 36.5195C18.4021 36.6163 18.1921 36.742 17.9168 36.8993L20.8937 42.1087C21.4838 41.7715 22.0778 41.4126 22.4953 41.0786L18.7472 36.3934ZM17.9168 36.8993C17.2412 37.2854 16.6132 37.6854 16.0407 38.1018L19.5698 42.9542C19.9359 42.6879 20.3747 42.4053 20.8937 42.1087L17.9168 36.8993ZM16.0407 38.1018C15.4383 38.54 14.4604 39.3627 14.0887 40.6638L19.8578 42.3122C19.745 42.7072 19.5619 42.9316 19.5123 42.9888C19.4581 43.0514 19.4568 43.0363 19.5698 42.9542L16.0407 38.1018ZM14.0887 40.6638C13.8888 41.3635 13.8853 42.2624 14.3556 43.1246C14.7819 43.9061 15.4155 44.3192 15.8236 44.5233C16.5719 44.8974 17.3692 44.9697 17.8308 44.9954L18.1637 39.0046C17.8573 38.9876 18.0999 38.9532 18.5069 39.1567C18.7444 39.2755 19.2606 39.5872 19.6229 40.2514C20.0292 40.9963 20.015 41.7619 19.8578 42.3122L14.0887 40.6638ZM17.7256 44.9877C18.7336 45.0793 19.6703 45.1165 20.4673 45.0552L20.0072 39.0728C19.6949 39.0969 19.1382 39.0914 18.2689 39.0123L17.7256 44.9877ZM20.4673 45.0552C20.9113 45.021 21.571 45 22.4773 45V39C21.5061 39 20.6726 39.0217 20.0072 39.0728L20.4673 45.0552ZM22.4773 45C23.625 45 24.753 44.9779 25.8612 44.9336L25.6213 38.9384C24.5961 38.9794 23.5482 39 22.4773 39V45ZM25.8612 44.9336C26.8078 44.8957 27.7545 44.9146 28.702 44.9904L29.1805 39.0096C27.9946 38.9147 26.808 38.8909 25.6213 38.9384L25.8612 44.9336ZM28.6427 44.9851C29.1854 45.0394 29.756 45.064 30.3493 45.064V39.064C29.9185 39.064 29.5504 39.046 29.2398 39.0149L28.6427 44.9851ZM30.5984 45.0536C30.9446 45.0248 31.2899 45.0248 31.6361 45.0536L32.1344 39.0744C31.4566 39.0179 30.7779 39.0179 30.1001 39.0744L30.5984 45.0536ZM31.8853 45.064C32.1446 45.064 32.369 45.096 32.5679 45.1503L34.1466 39.3617C33.4069 39.16 32.6499 39.064 31.8853 39.064V45.064ZM32.8206 45.2076C32.813 45.2062 32.7785 45.1987 32.729 45.1752C32.6786 45.1513 32.6331 45.1207 32.5977 45.0897L36.5488 40.5743C35.7779 39.8997 34.8679 39.4815 33.8939 39.3044L32.8206 45.2076ZM32.5977 45.0897C32.5387 45.0381 32.5024 44.9898 32.4848 44.962C32.4686 44.9364 32.4769 44.9419 32.4952 44.9967L38.1873 43.0993C37.8802 42.1779 37.3617 41.2856 36.5488 40.5743L32.5977 45.0897ZM32.4952 44.9967C32.5536 45.172 32.5973 45.4029 32.5973 45.712H38.5973C38.5973 44.8264 38.4702 43.948 38.1873 43.0993L32.4952 44.9967ZM32.6061 45.9421C32.6249 46.1864 32.6073 46.4362 32.5461 46.7014L38.3924 48.0506C38.5872 47.2065 38.655 46.3469 38.5884 45.4819L32.6061 45.9421ZM32.5588 46.6484C32.5444 46.7062 32.5381 46.7055 32.5585 46.6668C32.5804 46.6251 32.6269 46.5517 32.7079 46.4707L36.9506 50.7133C37.7188 49.9451 38.1524 49.0126 38.3797 48.1036L32.5588 46.6484ZM32.5622 46.6272C32.5422 46.6503 32.5372 46.6519 32.5503 46.6417C32.564 46.6311 32.5902 46.6133 32.628 46.5956C32.6659 46.5778 32.7038 46.5656 32.7367 46.5586C32.7689 46.5517 32.7856 46.552 32.7812 46.552V52.552C34.5054 52.552 36.0009 51.8207 37.0963 50.5568L32.5622 46.6272ZM32.9389 46.5561C32.0818 46.511 31.2609 46.488 30.4773 46.488V52.488C31.1442 52.488 31.8593 52.5076 32.6236 52.5479L32.9389 46.5561ZM30.4773 46.488H7.50125V52.488H30.4773V46.488ZM7.50125 46.488C6.97672 46.488 6.4229 46.5141 5.84411 46.5624L6.34239 52.5416C6.7876 52.5045 7.17245 52.488 7.50125 52.488V46.488ZM5.82164 46.5643C5.75822 46.5701 5.72598 46.5675 5.71976 46.5669C5.71458 46.5664 5.73094 46.5676 5.76193 46.578L3.86457 52.27C4.70042 52.5487 5.55041 52.6137 6.36486 52.5397L5.82164 46.5643ZM5.61618 46.5334C5.54462 46.5136 5.81729 46.5697 6.12711 46.8968C6.29095 47.0697 6.4363 47.2898 6.53482 47.5471C6.63196 47.8007 6.66125 48.0318 6.66125 48.208H0.66125C0.66125 49.2154 1.01235 50.222 1.77139 51.0232C2.46521 51.7556 3.31388 52.1211 4.01032 52.3146L5.61618 46.5334ZM6.65363 48.4217C6.70171 47.7486 6.72525 47.0585 6.72525 46.352H0.72525C0.72525 46.9255 0.706128 47.4727 0.668874 47.9943L6.65363 48.4217ZM6.72525 46.352C6.72525 45.7891 6.85395 45.3235 7.09798 44.8964L1.88852 41.9196C1.10856 43.2845 0.72525 44.7816 0.72525 46.352H6.72525ZM7.12694 44.8446C7.49955 44.1614 7.96595 43.5379 8.53457 42.9693L4.29193 38.7267C3.32455 39.6941 2.51095 40.7772 1.85956 41.9714L7.12694 44.8446ZM8.53457 42.9693C9.25191 42.252 10.0041 41.5941 10.7914 40.9943L7.15512 36.2217C6.15036 36.9872 5.19593 37.8227 4.29193 38.7267L8.53457 42.9693ZM10.7914 40.9943C11.7178 40.2884 12.5844 39.5998 13.3898 38.9287L9.5487 34.3193C8.81812 34.9281 8.02065 35.5623 7.15512 36.2217L10.7914 40.9943ZM13.457 38.871C14.5094 37.94 15.6494 37.0032 16.8785 36.0608L13.228 31.2992C11.8971 32.3195 10.6478 33.3453 9.48153 34.377L13.457 38.871ZM16.8785 36.0608C18.1968 35.0502 19.453 34.0365 20.6467 33.0197L16.7558 28.4523C15.6455 29.3981 14.4697 30.3471 13.228 31.2992L16.8785 36.0608ZM20.6153 33.0461C22.1582 31.7677 23.4907 30.5732 24.5986 29.4653L20.3559 25.2227C19.4159 26.1628 18.231 27.2297 16.7872 28.4259L20.6153 33.0461ZM24.5548 29.5082C25.7131 28.3962 26.7011 27.2961 27.4785 26.2077L22.596 22.7203C22.0934 23.4239 21.3747 24.2438 20.3997 25.1798L24.5548 29.5082ZM27.4784 26.2077C28.249 25.1289 28.8665 24.0033 29.2768 22.831L23.6137 20.8489C23.4266 21.3833 23.1055 22.0071 22.5961 22.7203L27.4784 26.2077ZM29.2913 22.7887C29.6959 21.575 29.8933 20.3151 29.8933 19.024H23.8933C23.8933 19.6956 23.792 20.313 23.5992 20.8913L29.2913 22.7887ZM29.8933 19.024C29.8933 16.2066 29.0095 13.6248 26.8796 11.7698L22.9389 16.2942C23.4543 16.7432 23.8933 17.4894 23.8933 19.024H29.8933ZM26.9201 11.8057C24.9642 10.039 22.5259 9.24 19.8533 9.24V15.24C21.2766 15.24 22.209 15.6356 22.8984 16.2583L26.9201 11.8057ZM19.8533 9.24C17.915 9.24 16.0594 9.65909 14.3226 10.4995L16.9359 15.9005C17.8444 15.4609 18.8049 15.24 19.8533 15.24V9.24ZM14.2876 10.5167C12.5319 11.3945 11.0853 12.6806 9.95961 14.3128L14.8989 17.7192C15.4799 16.8768 16.1666 16.2854 16.9709 15.8833L14.2876 10.5167ZM9.79556 14.5794C9.52132 15.0822 9.24883 15.6046 8.97797 16.1464L14.3445 18.8296C14.5857 18.3474 14.8252 17.8884 15.0629 17.4526L9.79556 14.5794ZM8.93015 16.2466C8.79383 16.5465 8.62966 16.8343 8.43556 17.1116L13.3509 20.5524C13.7542 19.9763 14.102 19.3682 14.3924 18.7294L8.93015 16.2466Z" fill="#1EE5B0" mask="url(#path-1-outside-1_567_894)"/>
</svg>
