<svg width="42" height="61" viewBox="0 0 42 61" fill="none" xmlns="http://www.w3.org/2000/svg">
<mask id="path-1-outside-1_567_894" maskUnits="userSpaceOnUse" x="1" y="1" width="40" height="53" fill="black">
<rect fill="white" x="1" y="1" width="40" height="53"/>
<path d="M5.593 5.136C6.105 4.88 6.681 4.73067 7.321 4.688C7.961 4.60266 8.64367 4.56 9.369 4.56H32.537C33.1343 4.56 33.7743 4.53866 34.457 4.496C35.1397 4.45333 35.7583 4.58133 36.313 4.88C37.081 5.30666 37.529 5.98933 37.657 6.928C37.785 7.824 37.6997 8.848 37.401 10C37.145 11.1093 36.7397 12.304 36.185 13.584C35.6303 14.8213 35.0543 16.016 34.457 17.168C33.8597 18.2773 33.2837 19.3013 32.729 20.24C32.1743 21.136 31.7903 21.8187 31.577 22.288C30.8943 23.568 30.2543 24.7413 29.657 25.808C29.1023 26.8747 28.5477 27.9413 27.993 29.008C27.481 30.0747 26.9263 31.1413 26.329 32.208C25.7743 33.2747 25.1557 34.448 24.473 35.728C23.6197 37.4773 22.6383 39.312 21.529 41.232C20.4623 43.1093 19.4383 44.88 18.457 46.544C18.1583 47.056 17.817 47.568 17.433 48.08C17.049 48.592 16.601 49.0187 16.089 49.36C15.6197 49.7013 15.065 49.9147 14.425 50C13.8277 50.0853 13.1663 49.9573 12.441 49.616C11.3317 49.0187 10.6063 48.144 10.265 46.992C9.96633 45.84 10.073 44.7733 10.585 43.792C11.3957 42.3413 12.185 40.8907 12.953 39.44C13.721 37.9467 14.489 36.4747 15.257 35.024C16.409 32.848 17.4757 30.7573 18.457 28.752C19.481 26.7467 20.569 24.656 21.721 22.48C22.0623 21.84 22.5317 21.072 23.129 20.176C23.7263 19.2373 24.281 18.2773 24.793 17.296C25.3477 16.3147 25.7743 15.3547 26.073 14.416C26.4143 13.4347 26.521 12.5813 26.393 11.856C24.8997 11.728 23.5343 11.6853 22.297 11.728C21.1023 11.728 19.7797 11.728 18.329 11.728H12.121C11.353 11.728 10.521 11.7493 9.625 11.792C8.77167 11.8347 7.961 11.792 7.193 11.664C6.425 11.4933 5.76367 11.1733 5.209 10.704C4.697 10.2347 4.377 9.46667 4.249 8.4C4.16367 7.504 4.249 6.8 4.505 6.288C4.761 5.776 5.12367 5.392 5.593 5.136Z"/>
</mask>
<path d="M5.593 5.136C6.105 4.88 6.681 4.73067 7.321 4.688C7.961 4.60266 8.64367 4.56 9.369 4.56H32.537C33.1343 4.56 33.7743 4.53866 34.457 4.496C35.1397 4.45333 35.7583 4.58133 36.313 4.88C37.081 5.30666 37.529 5.98933 37.657 6.928C37.785 7.824 37.6997 8.848 37.401 10C37.145 11.1093 36.7397 12.304 36.185 13.584C35.6303 14.8213 35.0543 16.016 34.457 17.168C33.8597 18.2773 33.2837 19.3013 32.729 20.24C32.1743 21.136 31.7903 21.8187 31.577 22.288C30.8943 23.568 30.2543 24.7413 29.657 25.808C29.1023 26.8747 28.5477 27.9413 27.993 29.008C27.481 30.0747 26.9263 31.1413 26.329 32.208C25.7743 33.2747 25.1557 34.448 24.473 35.728C23.6197 37.4773 22.6383 39.312 21.529 41.232C20.4623 43.1093 19.4383 44.88 18.457 46.544C18.1583 47.056 17.817 47.568 17.433 48.08C17.049 48.592 16.601 49.0187 16.089 49.36C15.6197 49.7013 15.065 49.9147 14.425 50C13.8277 50.0853 13.1663 49.9573 12.441 49.616C11.3317 49.0187 10.6063 48.144 10.265 46.992C9.96633 45.84 10.073 44.7733 10.585 43.792C11.3957 42.3413 12.185 40.8907 12.953 39.44C13.721 37.9467 14.489 36.4747 15.257 35.024C16.409 32.848 17.4757 30.7573 18.457 28.752C19.481 26.7467 20.569 24.656 21.721 22.48C22.0623 21.84 22.5317 21.072 23.129 20.176C23.7263 19.2373 24.281 18.2773 24.793 17.296C25.3477 16.3147 25.7743 15.3547 26.073 14.416C26.4143 13.4347 26.521 12.5813 26.393 11.856C24.8997 11.728 23.5343 11.6853 22.297 11.728C21.1023 11.728 19.7797 11.728 18.329 11.728H12.121C11.353 11.728 10.521 11.7493 9.625 11.792C8.77167 11.8347 7.961 11.792 7.193 11.664C6.425 11.4933 5.76367 11.1733 5.209 10.704C4.697 10.2347 4.377 9.46667 4.249 8.4C4.16367 7.504 4.249 6.8 4.505 6.288C4.761 5.776 5.12367 5.392 5.593 5.136Z" fill="white"/>
<path d="M5.593 5.136L4.25136 2.45271L4.20346 2.47666L4.15645 2.50231L5.593 5.136ZM7.321 4.688L7.52055 7.68136L7.61935 7.67477L7.7175 7.66168L7.321 4.688ZM34.457 4.496L34.2699 1.50184L34.2699 1.50184L34.457 4.496ZM36.313 4.88L37.7699 2.25753L37.7527 2.24794L37.7353 2.23858L36.313 4.88ZM37.657 6.928L34.6845 7.33334L34.6858 7.34281L34.6872 7.35226L37.657 6.928ZM37.401 10L34.497 9.24711L34.4869 9.28614L34.4778 9.32542L37.401 10ZM36.185 13.584L38.9225 14.8112L38.9302 14.794L38.9377 14.7768L36.185 13.584ZM34.457 17.168L37.0984 18.5903L37.1095 18.5697L37.1203 18.549L34.457 17.168ZM32.729 20.24L35.2798 21.8191L35.2961 21.7928L35.3118 21.7662L32.729 20.24ZM31.577 22.288L34.2241 23.6998L34.2688 23.6159L34.3081 23.5294L31.577 22.288ZM29.657 25.808L27.0395 24.3422L27.0168 24.3827L26.9954 24.4239L29.657 25.808ZM27.993 29.008L25.3314 27.6239L25.3092 27.6665L25.2884 27.7098L27.993 29.008ZM26.329 32.208L23.7115 30.7422L23.6888 30.7827L23.6673 30.8239L26.329 32.208ZM24.473 35.728L21.8259 34.3162L21.8004 34.364L21.7767 34.4127L24.473 35.728ZM21.529 41.232L18.9314 39.7312L18.926 39.7405L18.9206 39.75L21.529 41.232ZM18.457 46.544L15.8729 45.02L15.8693 45.0262L15.8657 45.0324L18.457 46.544ZM17.433 48.08L19.833 49.88L19.833 49.88L17.433 48.08ZM16.089 49.36L14.4249 46.8638L14.374 46.8978L14.3245 46.9338L16.089 49.36ZM14.425 50L14.0285 47.0263L14.0146 47.0282L14.0007 47.0302L14.425 50ZM12.441 49.616L11.0187 52.2574L11.0902 52.2959L11.1636 52.3305L12.441 49.616ZM10.265 46.992L7.36101 47.7449L7.37395 47.7948L7.38861 47.8443L10.265 46.992ZM10.585 43.792L7.96617 42.3285L7.94516 42.3661L7.92525 42.4043L10.585 43.792ZM12.953 39.44L15.6044 40.8437L15.6127 40.8279L15.6209 40.812L12.953 39.44ZM15.257 35.024L17.9084 36.4277L17.9084 36.4277L15.257 35.024ZM18.457 28.752L15.7852 27.3877L15.7736 27.4104L15.7624 27.4333L18.457 28.752ZM21.721 22.48L19.0739 21.0682L19.0696 21.0763L21.721 22.48ZM23.129 20.176L25.6252 21.8401L25.6429 21.8135L25.66 21.7866L23.129 20.176ZM24.793 17.296L22.1813 15.8198L22.1565 15.8637L22.1332 15.9083L24.793 17.296ZM26.073 14.416L23.2395 13.4304L23.2264 13.4682L23.2142 13.5064L26.073 14.416ZM26.393 11.856L29.3474 11.3346L28.9466 9.06388L26.6492 8.86696L26.393 11.856ZM22.297 11.728V14.728H22.3487L22.4004 14.7262L22.297 11.728ZM9.625 11.792L9.4823 8.79539L9.47519 8.79574L9.625 11.792ZM7.193 11.664L6.54221 14.5926L6.62059 14.61L6.6998 14.6232L7.193 11.664ZM5.209 10.704L3.18183 12.9155L3.22572 12.9557L3.27118 12.9942L5.209 10.704ZM4.249 8.4L1.26251 8.68443L1.26599 8.72098L1.27037 8.75743L4.249 8.4ZM6.93464 7.81928C7.04977 7.76172 7.23019 7.70071 7.52055 7.68136L7.12145 1.69464C6.13181 1.76062 5.16023 1.99828 4.25136 2.45271L6.93464 7.81928ZM7.7175 7.66168C8.21118 7.59586 8.76036 7.56 9.369 7.56V1.56C8.52698 1.56 7.71082 1.60947 6.9245 1.71432L7.7175 7.66168ZM9.369 7.56H32.537V1.56H9.369V7.56ZM32.537 7.56C33.2049 7.56 33.9079 7.53617 34.6441 7.49016L34.2699 1.50184C33.6408 1.54116 33.0637 1.56 32.537 1.56V7.56ZM34.6441 7.49016C34.8177 7.47931 34.8712 7.51091 34.8907 7.52141L37.7353 2.23858C36.6455 1.65175 35.4617 1.42735 34.2699 1.50184L34.6441 7.49016ZM34.8561 7.50247C34.8583 7.50369 34.8382 7.49265 34.8071 7.46429C34.7753 7.43527 34.7436 7.39865 34.7169 7.35796C34.6592 7.2701 34.6713 7.23624 34.6845 7.33334L40.6295 6.52266C40.3854 4.73261 39.4365 3.18341 37.7699 2.25753L34.8561 7.50247ZM34.6872 7.35226C34.7444 7.75282 34.7259 8.36435 34.497 9.24711L40.305 10.7529C40.6735 9.33165 40.8256 7.89518 40.6268 6.50373L34.6872 7.35226ZM34.4778 9.32542C34.2707 10.2228 33.9301 11.2426 33.4323 12.3912L38.9377 14.7768C39.5493 13.3654 40.0193 11.9958 40.3242 10.6746L34.4778 9.32542ZM33.4475 12.3568C32.9151 13.5445 32.3637 14.6878 31.7937 15.787L37.1203 18.549C37.7449 17.3442 38.3456 16.0981 38.9225 14.8112L33.4475 12.3568ZM31.8156 15.7457C31.2343 16.8253 30.6778 17.8141 30.1462 18.7138L35.3118 21.7662C35.8895 20.7885 36.485 19.7294 37.0984 18.5903L31.8156 15.7457ZM30.1782 18.6609C29.6105 19.578 29.1422 20.3947 28.8459 21.0466L34.3081 23.5294C34.4385 23.2426 34.7382 22.694 35.2798 21.8191L30.1782 18.6609ZM28.9299 20.8762C28.2552 22.1413 27.6251 23.2964 27.0395 24.3422L32.2745 27.2738C32.8835 26.1863 33.5335 24.9947 34.2241 23.6998L28.9299 20.8762ZM26.9954 24.4239C26.4407 25.4906 25.886 26.5573 25.3314 27.6239L30.6547 30.3921C31.2093 29.3254 31.764 28.2587 32.3187 27.1921L26.9954 24.4239ZM25.2884 27.7098C24.8046 28.7179 24.2791 29.7287 23.7115 30.7422L28.9465 33.6738C29.5736 32.554 30.1574 31.4315 30.6976 30.3062L25.2884 27.7098ZM23.6673 30.8239C23.1184 31.8797 22.5047 33.0436 21.8259 34.3162L27.1201 37.1398C27.8067 35.8524 28.4303 34.6696 28.9907 33.5921L23.6673 30.8239ZM21.7767 34.4127C20.958 36.0911 20.0104 37.8637 18.9314 39.7312L24.1266 42.7328C25.2663 40.7603 26.2814 38.8635 27.1693 37.0433L21.7767 34.4127ZM18.9206 39.75C17.861 41.6149 16.8451 43.3715 15.8729 45.02L21.0411 48.068C22.0315 46.3885 23.0636 44.6038 24.1374 42.714L18.9206 39.75ZM15.8657 45.0324C15.6296 45.4371 15.3532 45.8531 15.033 46.28L19.833 49.88C20.2808 49.2829 20.6871 48.6749 21.0483 48.0556L15.8657 45.0324ZM15.033 46.28C14.8448 46.5309 14.6427 46.7187 14.4249 46.8638L17.7531 51.8562C18.5593 51.3187 19.2532 50.6531 19.833 49.88L15.033 46.28ZM14.3245 46.9338C14.3024 46.9499 14.2308 46.9993 14.0285 47.0263L14.8215 52.9737C15.8992 52.83 16.9369 52.4528 17.8535 51.7862L14.3245 46.9338ZM14.0007 47.0302C14.1455 47.0095 14.0843 47.0737 13.7184 46.9015L11.1636 52.3305C12.2484 52.8409 13.5098 53.1612 14.8493 52.9698L14.0007 47.0302ZM13.8633 46.9746C13.4195 46.7356 13.2437 46.4849 13.1414 46.1397L7.38861 47.8443C7.96899 49.8031 9.24384 51.3017 11.0187 52.2574L13.8633 46.9746ZM13.169 46.2391C13.0415 45.7474 13.1035 45.4504 13.2448 45.1797L7.92525 42.4043C7.04246 44.0963 6.89116 45.9326 7.36101 47.7449L13.169 46.2391ZM13.2038 45.2555C14.0254 43.7852 14.8256 42.3146 15.6044 40.8437L10.3016 38.0363C9.54439 39.4667 8.7659 40.8974 7.96617 42.3285L13.2038 45.2555ZM15.6209 40.812C16.3836 39.329 17.1461 37.8676 17.9084 36.4277L12.6056 33.6203C11.8319 35.0817 11.0584 36.5643 10.2851 38.068L15.6209 40.812ZM17.9084 36.4277C19.0738 34.2264 20.155 32.1073 21.1517 30.0707L15.7624 27.4333C14.7963 29.4074 13.7442 31.4696 12.6056 33.6203L17.9084 36.4277ZM21.1288 30.1163C22.1455 28.1253 23.2266 26.0478 24.3724 23.8837L19.0696 21.0763C17.9114 23.2642 16.8165 25.368 15.7852 27.3877L21.1288 30.1163ZM24.3681 23.8918C24.647 23.3688 25.0589 22.6895 25.6252 21.8401L20.6329 18.5119C20.0045 19.4545 19.4777 20.3112 19.0739 21.0682L24.3681 23.8918ZM25.66 21.7866C26.3032 20.7759 26.9008 19.7415 27.4528 18.6837L22.1332 15.9083C21.6612 16.8131 21.1495 17.6988 20.598 18.5654L25.66 21.7866ZM27.4047 18.7722C28.0467 17.6362 28.5623 16.487 28.9318 15.3256L23.2142 13.5064C22.9864 14.2224 22.6486 14.9931 22.1813 15.8198L27.4047 18.7722ZM28.9065 15.4016C29.3508 14.1242 29.5935 12.7294 29.3474 11.3346L23.4387 12.3774C23.4485 12.4333 23.4779 12.7452 23.2395 13.4304L28.9065 15.4016ZM26.6492 8.86696C25.0602 8.73076 23.5727 8.68222 22.1936 8.72978L22.4004 14.7262C23.496 14.6884 24.7391 14.7252 26.1368 14.845L26.6492 8.86696ZM22.297 8.728C22.2947 8.728 22.2923 8.728 22.29 8.728C22.2877 8.728 22.2853 8.728 22.283 8.728C22.2807 8.728 22.2783 8.728 22.276 8.728C22.2737 8.728 22.2713 8.728 22.269 8.728C22.2666 8.728 22.2643 8.728 22.262 8.728C22.2596 8.728 22.2573 8.728 22.2549 8.728C22.2526 8.728 22.2503 8.728 22.2479 8.728C22.2456 8.728 22.2432 8.728 22.2409 8.728C22.2386 8.728 22.2362 8.728 22.2339 8.728C22.2315 8.728 22.2292 8.728 22.2269 8.728C22.2245 8.728 22.2222 8.728 22.2198 8.728C22.2175 8.728 22.2151 8.728 22.2128 8.728C22.2104 8.728 22.2081 8.728 22.2058 8.728C22.2034 8.728 22.2011 8.728 22.1987 8.728C22.1964 8.728 22.194 8.728 22.1917 8.728C22.1893 8.728 22.187 8.728 22.1846 8.728C22.1823 8.728 22.1799 8.728 22.1776 8.728C22.1752 8.728 22.1729 8.728 22.1705 8.728C22.1682 8.728 22.1658 8.728 22.1635 8.728C22.1611 8.728 22.1588 8.728 22.1564 8.728C22.1541 8.728 22.1517 8.728 22.1494 8.728C22.147 8.728 22.1446 8.728 22.1423 8.728C22.1399 8.728 22.1376 8.728 22.1352 8.728C22.1329 8.728 22.1305 8.728 22.1282 8.728C22.1258 8.728 22.1234 8.728 22.1211 8.728C22.1187 8.728 22.1164 8.728 22.114 8.728C22.1117 8.728 22.1093 8.728 22.1069 8.728C22.1046 8.728 22.1022 8.728 22.0999 8.728C22.0975 8.728 22.0951 8.728 22.0928 8.728C22.0904 8.728 22.088 8.728 22.0857 8.728C22.0833 8.728 22.081 8.728 22.0786 8.728C22.0762 8.728 22.0739 8.728 22.0715 8.728C22.0691 8.728 22.0668 8.728 22.0644 8.728C22.062 8.728 22.0597 8.728 22.0573 8.728C22.0549 8.728 22.0526 8.728 22.0502 8.728C22.0478 8.728 22.0455 8.728 22.0431 8.728C22.0407 8.728 22.0384 8.728 22.036 8.728C22.0336 8.728 22.0313 8.728 22.0289 8.728C22.0265 8.728 22.0241 8.728 22.0218 8.728C22.0194 8.728 22.017 8.728 22.0147 8.728C22.0123 8.728 22.0099 8.728 22.0075 8.728C22.0052 8.728 22.0028 8.728 22.0004 8.728C21.998 8.728 21.9957 8.728 21.9933 8.728C21.9909 8.728 21.9885 8.728 21.9862 8.728C21.9838 8.728 21.9814 8.728 21.979 8.728C21.9767 8.728 21.9743 8.728 21.9719 8.728C21.9695 8.728 21.9671 8.728 21.9648 8.728C21.9624 8.728 21.96 8.728 21.9576 8.728C21.9552 8.728 21.9529 8.728 21.9505 8.728C21.9481 8.728 21.9457 8.728 21.9433 8.728C21.941 8.728 21.9386 8.728 21.9362 8.728C21.9338 8.728 21.9314 8.728 21.929 8.728C21.9267 8.728 21.9243 8.728 21.9219 8.728C21.9195 8.728 21.9171 8.728 21.9147 8.728C21.9123 8.728 21.91 8.728 21.9076 8.728C21.9052 8.728 21.9028 8.728 21.9004 8.728C21.898 8.728 21.8956 8.728 21.8932 8.728C21.8909 8.728 21.8885 8.728 21.8861 8.728C21.8837 8.728 21.8813 8.728 21.8789 8.728C21.8765 8.728 21.8741 8.728 21.8717 8.728C21.8693 8.728 21.8669 8.728 21.8646 8.728C21.8622 8.728 21.8598 8.728 21.8574 8.728C21.855 8.728 21.8526 8.728 21.8502 8.728C21.8478 8.728 21.8454 8.728 21.843 8.728C21.8406 8.728 21.8382 8.728 21.8358 8.728C21.8334 8.728 21.831 8.728 21.8286 8.728C21.8262 8.728 21.8238 8.728 21.8214 8.728C21.819 8.728 21.8166 8.728 21.8142 8.728C21.8118 8.728 21.8094 8.728 21.807 8.728C21.8046 8.728 21.8022 8.728 21.7998 8.728C21.7974 8.728 21.795 8.728 21.7926 8.728C21.7902 8.728 21.7878 8.728 21.7854 8.728C21.783 8.728 21.7806 8.728 21.7782 8.728C21.7758 8.728 21.7734 8.728 21.771 8.728C21.7686 8.728 21.7662 8.728 21.7638 8.728C21.7614 8.728 21.7589 8.728 21.7565 8.728C21.7541 8.728 21.7517 8.728 21.7493 8.728C21.7469 8.728 21.7445 8.728 21.7421 8.728C21.7397 8.728 21.7373 8.728 21.7349 8.728C21.7324 8.728 21.73 8.728 21.7276 8.728C21.7252 8.728 21.7228 8.728 21.7204 8.728C21.718 8.728 21.7156 8.728 21.7132 8.728C21.7107 8.728 21.7083 8.728 21.7059 8.728C21.7035 8.728 21.7011 8.728 21.6987 8.728C21.6962 8.728 21.6938 8.728 21.6914 8.728C21.689 8.728 21.6866 8.728 21.6842 8.728C21.6817 8.728 21.6793 8.728 21.6769 8.728C21.6745 8.728 21.6721 8.728 21.6697 8.728C21.6672 8.728 21.6648 8.728 21.6624 8.728C21.66 8.728 21.6576 8.728 21.6551 8.728C21.6527 8.728 21.6503 8.728 21.6479 8.728C21.6454 8.728 21.643 8.728 21.6406 8.728C21.6382 8.728 21.6358 8.728 21.6333 8.728C21.6309 8.728 21.6285 8.728 21.6261 8.728C21.6236 8.728 21.6212 8.728 21.6188 8.728C21.6164 8.728 21.6139 8.728 21.6115 8.728C21.6091 8.728 21.6066 8.728 21.6042 8.728C21.6018 8.728 21.5994 8.728 21.5969 8.728C21.5945 8.728 21.5921 8.728 21.5896 8.728C21.5872 8.728 21.5848 8.728 21.5824 8.728C21.5799 8.728 21.5775 8.728 21.5751 8.728C21.5726 8.728 21.5702 8.728 21.5678 8.728C21.5653 8.728 21.5629 8.728 21.5605 8.728C21.558 8.728 21.5556 8.728 21.5532 8.728C21.5507 8.728 21.5483 8.728 21.5459 8.728C21.5434 8.728 21.541 8.728 21.5385 8.728C21.5361 8.728 21.5337 8.728 21.5312 8.728C21.5288 8.728 21.5264 8.728 21.5239 8.728C21.5215 8.728 21.519 8.728 21.5166 8.728C21.5142 8.728 21.5117 8.728 21.5093 8.728C21.5068 8.728 21.5044 8.728 21.502 8.728C21.4995 8.728 21.4971 8.728 21.4946 8.728C21.4922 8.728 21.4897 8.728 21.4873 8.728C21.4849 8.728 21.4824 8.728 21.48 8.728C21.4775 8.728 21.4751 8.728 21.4726 8.728C21.4702 8.728 21.4677 8.728 21.4653 8.728C21.4628 8.728 21.4604 8.728 21.4579 8.728C21.4555 8.728 21.4531 8.728 21.4506 8.728C21.4482 8.728 21.4457 8.728 21.4433 8.728C21.4408 8.728 21.4384 8.728 21.4359 8.728C21.4335 8.728 21.431 8.728 21.4286 8.728C21.4261 8.728 21.4237 8.728 21.4212 8.728C21.4187 8.728 21.4163 8.728 21.4138 8.728C21.4114 8.728 21.4089 8.728 21.4065 8.728C21.404 8.728 21.4016 8.728 21.3991 8.728C21.3967 8.728 21.3942 8.728 21.3917 8.728C21.3893 8.728 21.3868 8.728 21.3844 8.728C21.3819 8.728 21.3795 8.728 21.377 8.728C21.3745 8.728 21.3721 8.728 21.3696 8.728C21.3672 8.728 21.3647 8.728 21.3622 8.728C21.3598 8.728 21.3573 8.728 21.3549 8.728C21.3524 8.728 21.3499 8.728 21.3475 8.728C21.345 8.728 21.3426 8.728 21.3401 8.728C21.3376 8.728 21.3352 8.728 21.3327 8.728C21.3302 8.728 21.3278 8.728 21.3253 8.728C21.3228 8.728 21.3204 8.728 21.3179 8.728C21.3154 8.728 21.313 8.728 21.3105 8.728C21.308 8.728 21.3056 8.728 21.3031 8.728C21.3006 8.728 21.2982 8.728 21.2957 8.728C21.2932 8.728 21.2908 8.728 21.2883 8.728C21.2858 8.728 21.2833 8.728 21.2809 8.728C21.2784 8.728 21.2759 8.728 21.2735 8.728C21.271 8.728 21.2685 8.728 21.266 8.728C21.2636 8.728 21.2611 8.728 21.2586 8.728C21.2562 8.728 21.2537 8.728 21.2512 8.728C21.2487 8.728 21.2463 8.728 21.2438 8.728C21.2413 8.728 21.2388 8.728 21.2363 8.728C21.2339 8.728 21.2314 8.728 21.2289 8.728C21.2264 8.728 21.224 8.728 21.2215 8.728C21.219 8.728 21.2165 8.728 21.214 8.728C21.2116 8.728 21.2091 8.728 21.2066 8.728C21.2041 8.728 21.2016 8.728 21.1992 8.728C21.1967 8.728 21.1942 8.728 21.1917 8.728C21.1892 8.728 21.1867 8.728 21.1843 8.728C21.1818 8.728 21.1793 8.728 21.1768 8.728C21.1743 8.728 21.1718 8.728 21.1694 8.728C21.1669 8.728 21.1644 8.728 21.1619 8.728C21.1594 8.728 21.1569 8.728 21.1544 8.728C21.1519 8.728 21.1495 8.728 21.147 8.728C21.1445 8.728 21.142 8.728 21.1395 8.728C21.137 8.728 21.1345 8.728 21.132 8.728C21.1295 8.728 21.127 8.728 21.1246 8.728C21.1221 8.728 21.1196 8.728 21.1171 8.728C21.1146 8.728 21.1121 8.728 21.1096 8.728C21.1071 8.728 21.1046 8.728 21.1021 8.728C21.0996 8.728 21.0971 8.728 21.0946 8.728C21.0921 8.728 21.0896 8.728 21.0871 8.728C21.0847 8.728 21.0822 8.728 21.0797 8.728C21.0772 8.728 21.0747 8.728 21.0722 8.728C21.0697 8.728 21.0672 8.728 21.0647 8.728C21.0622 8.728 21.0597 8.728 21.0572 8.728C21.0547 8.728 21.0522 8.728 21.0497 8.728C21.0472 8.728 21.0447 8.728 21.0422 8.728C21.0397 8.728 21.0372 8.728 21.0347 8.728C21.0321 8.728 21.0296 8.728 21.0271 8.728C21.0246 8.728 21.0221 8.728 21.0196 8.728C21.0171 8.728 21.0146 8.728 21.0121 8.728C21.0096 8.728 21.0071 8.728 21.0046 8.728C21.0021 8.728 20.9996 8.728 20.9971 8.728C20.9946 8.728 20.992 8.728 20.9895 8.728C20.987 8.728 20.9845 8.728 20.982 8.728C20.9795 8.728 20.977 8.728 20.9745 8.728C20.972 8.728 20.9695 8.728 20.9669 8.728C20.9644 8.728 20.9619 8.728 20.9594 8.728C20.9569 8.728 20.9544 8.728 20.9519 8.728C20.9494 8.728 20.9468 8.728 20.9443 8.728C20.9418 8.728 20.9393 8.728 20.9368 8.728C20.9343 8.728 20.9317 8.728 20.9292 8.728C20.9267 8.728 20.9242 8.728 20.9217 8.728C20.9192 8.728 20.9166 8.728 20.9141 8.728C20.9116 8.728 20.9091 8.728 20.9066 8.728C20.904 8.728 20.9015 8.728 20.899 8.728C20.8965 8.728 20.894 8.728 20.8914 8.728C20.8889 8.728 20.8864 8.728 20.8839 8.728C20.8813 8.728 20.8788 8.728 20.8763 8.728C20.8738 8.728 20.8713 8.728 20.8687 8.728C20.8662 8.728 20.8637 8.728 20.8612 8.728C20.8586 8.728 20.8561 8.728 20.8536 8.728C20.851 8.728 20.8485 8.728 20.846 8.728C20.8435 8.728 20.8409 8.728 20.8384 8.728C20.8359 8.728 20.8333 8.728 20.8308 8.728C20.8283 8.728 20.8258 8.728 20.8232 8.728C20.8207 8.728 20.8182 8.728 20.8156 8.728C20.8131 8.728 20.8106 8.728 20.808 8.728C20.8055 8.728 20.803 8.728 20.8004 8.728C20.7979 8.728 20.7954 8.728 20.7928 8.728C20.7903 8.728 20.7878 8.728 20.7852 8.728C20.7827 8.728 20.7802 8.728 20.7776 8.728C20.7751 8.728 20.7726 8.728 20.77 8.728C20.7675 8.728 20.7649 8.728 20.7624 8.728C20.7599 8.728 20.7573 8.728 20.7548 8.728C20.7522 8.728 20.7497 8.728 20.7472 8.728C20.7446 8.728 20.7421 8.728 20.7395 8.728C20.737 8.728 20.7345 8.728 20.7319 8.728C20.7294 8.728 20.7268 8.728 20.7243 8.728C20.7217 8.728 20.7192 8.728 20.7167 8.728C20.7141 8.728 20.7116 8.728 20.709 8.728C20.7065 8.728 20.7039 8.728 20.7014 8.728C20.6988 8.728 20.6963 8.728 20.6937 8.728C20.6912 8.728 20.6887 8.728 20.6861 8.728C20.6836 8.728 20.681 8.728 20.6785 8.728C20.6759 8.728 20.6734 8.728 20.6708 8.728C20.6683 8.728 20.6657 8.728 20.6632 8.728C20.6606 8.728 20.6581 8.728 20.6555 8.728C20.6529 8.728 20.6504 8.728 20.6478 8.728C20.6453 8.728 20.6427 8.728 20.6402 8.728C20.6376 8.728 20.6351 8.728 20.6325 8.728C20.63 8.728 20.6274 8.728 20.6249 8.728C20.6223 8.728 20.6197 8.728 20.6172 8.728C20.6146 8.728 20.6121 8.728 20.6095 8.728C20.607 8.728 20.6044 8.728 20.6018 8.728C20.5993 8.728 20.5967 8.728 20.5942 8.728C20.5916 8.728 20.589 8.728 20.5865 8.728C20.5839 8.728 20.5814 8.728 20.5788 8.728C20.5762 8.728 20.5737 8.728 20.5711 8.728C20.5685 8.728 20.566 8.728 20.5634 8.728C20.5609 8.728 20.5583 8.728 20.5557 8.728C20.5532 8.728 20.5506 8.728 20.548 8.728C20.5455 8.728 20.5429 8.728 20.5403 8.728C20.5378 8.728 20.5352 8.728 20.5326 8.728C20.5301 8.728 20.5275 8.728 20.5249 8.728C20.5224 8.728 20.5198 8.728 20.5172 8.728C20.5146 8.728 20.5121 8.728 20.5095 8.728C20.5069 8.728 20.5044 8.728 20.5018 8.728C20.4992 8.728 20.4966 8.728 20.4941 8.728C20.4915 8.728 20.4889 8.728 20.4864 8.728C20.4838 8.728 20.4812 8.728 20.4786 8.728C20.4761 8.728 20.4735 8.728 20.4709 8.728C20.4683 8.728 20.4658 8.728 20.4632 8.728C20.4606 8.728 20.458 8.728 20.4554 8.728C20.4529 8.728 20.4503 8.728 20.4477 8.728C20.4451 8.728 20.4426 8.728 20.44 8.728C20.4374 8.728 20.4348 8.728 20.4322 8.728C20.4297 8.728 20.4271 8.728 20.4245 8.728C20.4219 8.728 20.4193 8.728 20.4167 8.728C20.4142 8.728 20.4116 8.728 20.409 8.728C20.4064 8.728 20.4038 8.728 20.4012 8.728C20.3987 8.728 20.3961 8.728 20.3935 8.728C20.3909 8.728 20.3883 8.728 20.3857 8.728C20.3832 8.728 20.3806 8.728 20.378 8.728C20.3754 8.728 20.3728 8.728 20.3702 8.728C20.3676 8.728 20.365 8.728 20.3624 8.728C20.3599 8.728 20.3573 8.728 20.3547 8.728C20.3521 8.728 20.3495 8.728 20.3469 8.728C20.3443 8.728 20.3417 8.728 20.3391 8.728C20.3365 8.728 20.3339 8.728 20.3314 8.728C20.3288 8.728 20.3262 8.728 20.3236 8.728C20.321 8.728 20.3184 8.728 20.3158 8.728C20.3132 8.728 20.3106 8.728 20.308 8.728C20.3054 8.728 20.3028 8.728 20.3002 8.728C20.2976 8.728 20.295 8.728 20.2924 8.728C20.2898 8.728 20.2872 8.728 20.2846 8.728C20.282 8.728 20.2794 8.728 20.2768 8.728C20.2742 8.728 20.2716 8.728 20.269 8.728C20.2664 8.728 20.2638 8.728 20.2612 8.728C20.2586 8.728 20.256 8.728 20.2534 8.728C20.2508 8.728 20.2482 8.728 20.2456 8.728C20.243 8.728 20.2404 8.728 20.2378 8.728C20.2352 8.728 20.2326 8.728 20.23 8.728C20.2274 8.728 20.2248 8.728 20.2222 8.728C20.2196 8.728 20.2169 8.728 20.2143 8.728C20.2117 8.728 20.2091 8.728 20.2065 8.728C20.2039 8.728 20.2013 8.728 20.1987 8.728C20.1961 8.728 20.1935 8.728 20.1909 8.728C20.1882 8.728 20.1856 8.728 20.183 8.728C20.1804 8.728 20.1778 8.728 20.1752 8.728C20.1726 8.728 20.17 8.728 20.1673 8.728C20.1647 8.728 20.1621 8.728 20.1595 8.728C20.1569 8.728 20.1543 8.728 20.1517 8.728C20.149 8.728 20.1464 8.728 20.1438 8.728C20.1412 8.728 20.1386 8.728 20.136 8.728C20.1333 8.728 20.1307 8.728 20.1281 8.728C20.1255 8.728 20.1229 8.728 20.1202 8.728C20.1176 8.728 20.115 8.728 20.1124 8.728C20.1098 8.728 20.1071 8.728 20.1045 8.728C20.1019 8.728 20.0993 8.728 20.0967 8.728C20.094 8.728 20.0914 8.728 20.0888 8.728C20.0862 8.728 20.0835 8.728 20.0809 8.728C20.0783 8.728 20.0757 8.728 20.073 8.728C20.0704 8.728 20.0678 8.728 20.0652 8.728C20.0625 8.728 20.0599 8.728 20.0573 8.728C20.0547 8.728 20.052 8.728 20.0494 8.728C20.0468 8.728 20.0441 8.728 20.0415 8.728C20.0389 8.728 20.0363 8.728 20.0336 8.728C20.031 8.728 20.0284 8.728 20.0257 8.728C20.0231 8.728 20.0205 8.728 20.0178 8.728C20.0152 8.728 20.0126 8.728 20.0099 8.728C20.0073 8.728 20.0047 8.728 20.002 8.728C19.9994 8.728 19.9968 8.728 19.9941 8.728C19.9915 8.728 19.9889 8.728 19.9862 8.728C19.9836 8.728 19.981 8.728 19.9783 8.728C19.9757 8.728 19.973 8.728 19.9704 8.728C19.9678 8.728 19.9651 8.728 19.9625 8.728C19.9599 8.728 19.9572 8.728 19.9546 8.728C19.9519 8.728 19.9493 8.728 19.9467 8.728C19.944 8.728 19.9414 8.728 19.9387 8.728C19.9361 8.728 19.9334 8.728 19.9308 8.728C19.9282 8.728 19.9255 8.728 19.9229 8.728C19.9202 8.728 19.9176 8.728 19.9149 8.728C19.9123 8.728 19.9096 8.728 19.907 8.728C19.9044 8.728 19.9017 8.728 19.8991 8.728C19.8964 8.728 19.8938 8.728 19.8911 8.728C19.8885 8.728 19.8858 8.728 19.8832 8.728C19.8805 8.728 19.8779 8.728 19.8752 8.728C19.8726 8.728 19.8699 8.728 19.8673 8.728C19.8646 8.728 19.862 8.728 19.8593 8.728C19.8567 8.728 19.854 8.728 19.8514 8.728C19.8487 8.728 19.8461 8.728 19.8434 8.728C19.8408 8.728 19.8381 8.728 19.8354 8.728C19.8328 8.728 19.8301 8.728 19.8275 8.728C19.8248 8.728 19.8222 8.728 19.8195 8.728C19.8169 8.728 19.8142 8.728 19.8115 8.728C19.8089 8.728 19.8062 8.728 19.8036 8.728C19.8009 8.728 19.7982 8.728 19.7956 8.728C19.7929 8.728 19.7903 8.728 19.7876 8.728C19.7849 8.728 19.7823 8.728 19.7796 8.728C19.777 8.728 19.7743 8.728 19.7716 8.728C19.769 8.728 19.7663 8.728 19.7637 8.728C19.761 8.728 19.7583 8.728 19.7557 8.728C19.753 8.728 19.7503 8.728 19.7477 8.728C19.745 8.728 19.7423 8.728 19.7397 8.728C19.737 8.728 19.7343 8.728 19.7317 8.728C19.729 8.728 19.7263 8.728 19.7237 8.728C19.721 8.728 19.7183 8.728 19.7157 8.728C19.713 8.728 19.7103 8.728 19.7076 8.728C19.705 8.728 19.7023 8.728 19.6996 8.728C19.697 8.728 19.6943 8.728 19.6916 8.728C19.6889 8.728 19.6863 8.728 19.6836 8.728C19.6809 8.728 19.6783 8.728 19.6756 8.728C19.6729 8.728 19.6702 8.728 19.6676 8.728C19.6649 8.728 19.6622 8.728 19.6595 8.728C19.6569 8.728 19.6542 8.728 19.6515 8.728C19.6488 8.728 19.6461 8.728 19.6435 8.728C19.6408 8.728 19.6381 8.728 19.6354 8.728C19.6328 8.728 19.6301 8.728 19.6274 8.728C19.6247 8.728 19.622 8.728 19.6194 8.728C19.6167 8.728 19.614 8.728 19.6113 8.728C19.6086 8.728 19.6059 8.728 19.6033 8.728C19.6006 8.728 19.5979 8.728 19.5952 8.728C19.5925 8.728 19.5898 8.728 19.5872 8.728C19.5845 8.728 19.5818 8.728 19.5791 8.728C19.5764 8.728 19.5737 8.728 19.571 8.728C19.5684 8.728 19.5657 8.728 19.563 8.728C19.5603 8.728 19.5576 8.728 19.5549 8.728C19.5522 8.728 19.5495 8.728 19.5468 8.728C19.5442 8.728 19.5415 8.728 19.5388 8.728C19.5361 8.728 19.5334 8.728 19.5307 8.728C19.528 8.728 19.5253 8.728 19.5226 8.728C19.5199 8.728 19.5172 8.728 19.5145 8.728C19.5119 8.728 19.5092 8.728 19.5065 8.728C19.5038 8.728 19.5011 8.728 19.4984 8.728C19.4957 8.728 19.493 8.728 19.4903 8.728C19.4876 8.728 19.4849 8.728 19.4822 8.728C19.4795 8.728 19.4768 8.728 19.4741 8.728C19.4714 8.728 19.4687 8.728 19.466 8.728C19.4633 8.728 19.4606 8.728 19.4579 8.728C19.4552 8.728 19.4525 8.728 19.4498 8.728C19.4471 8.728 19.4444 8.728 19.4417 8.728C19.439 8.728 19.4363 8.728 19.4336 8.728C19.4309 8.728 19.4282 8.728 19.4255 8.728C19.4228 8.728 19.4201 8.728 19.4174 8.728C19.4147 8.728 19.412 8.728 19.4092 8.728C19.4065 8.728 19.4038 8.728 19.4011 8.728C19.3984 8.728 19.3957 8.728 19.393 8.728C19.3903 8.728 19.3876 8.728 19.3849 8.728C19.3822 8.728 19.3795 8.728 19.3767 8.728C19.374 8.728 19.3713 8.728 19.3686 8.728C19.3659 8.728 19.3632 8.728 19.3605 8.728C19.3578 8.728 19.3551 8.728 19.3523 8.728C19.3496 8.728 19.3469 8.728 19.3442 8.728C19.3415 8.728 19.3388 8.728 19.3361 8.728C19.3333 8.728 19.3306 8.728 19.3279 8.728C19.3252 8.728 19.3225 8.728 19.3198 8.728C19.317 8.728 19.3143 8.728 19.3116 8.728C19.3089 8.728 19.3062 8.728 19.3034 8.728C19.3007 8.728 19.298 8.728 19.2953 8.728C19.2926 8.728 19.2898 8.728 19.2871 8.728C19.2844 8.728 19.2817 8.728 19.279 8.728C19.2762 8.728 19.2735 8.728 19.2708 8.728C19.2681 8.728 19.2653 8.728 19.2626 8.728C19.2599 8.728 19.2572 8.728 19.2545 8.728C19.2517 8.728 19.249 8.728 19.2463 8.728C19.2436 8.728 19.2408 8.728 19.2381 8.728C19.2354 8.728 19.2326 8.728 19.2299 8.728C19.2272 8.728 19.2245 8.728 19.2217 8.728C19.219 8.728 19.2163 8.728 19.2135 8.728C19.2108 8.728 19.2081 8.728 19.2054 8.728C19.2026 8.728 19.1999 8.728 19.1972 8.728C19.1944 8.728 19.1917 8.728 19.189 8.728C19.1862 8.728 19.1835 8.728 19.1808 8.728C19.178 8.728 19.1753 8.728 19.1726 8.728C19.1698 8.728 19.1671 8.728 19.1644 8.728C19.1616 8.728 19.1589 8.728 19.1561 8.728C19.1534 8.728 19.1507 8.728 19.1479 8.728C19.1452 8.728 19.1425 8.728 19.1397 8.728C19.137 8.728 19.1342 8.728 19.1315 8.728C19.1288 8.728 19.126 8.728 19.1233 8.728C19.1205 8.728 19.1178 8.728 19.1151 8.728C19.1123 8.728 19.1096 8.728 19.1068 8.728C19.1041 8.728 19.1013 8.728 19.0986 8.728C19.0959 8.728 19.0931 8.728 19.0904 8.728C19.0876 8.728 19.0849 8.728 19.0821 8.728C19.0794 8.728 19.0766 8.728 19.0739 8.728C19.0712 8.728 19.0684 8.728 19.0657 8.728C19.0629 8.728 19.0602 8.728 19.0574 8.728C19.0547 8.728 19.0519 8.728 19.0492 8.728C19.0464 8.728 19.0437 8.728 19.0409 8.728C19.0382 8.728 19.0354 8.728 19.0327 8.728C19.0299 8.728 19.0272 8.728 19.0244 8.728C19.0217 8.728 19.0189 8.728 19.0162 8.728C19.0134 8.728 19.0106 8.728 19.0079 8.728C19.0051 8.728 19.0024 8.728 18.9996 8.728C18.9969 8.728 18.9941 8.728 18.9914 8.728C18.9886 8.728 18.9858 8.728 18.9831 8.728C18.9803 8.728 18.9776 8.728 18.9748 8.728C18.9721 8.728 18.9693 8.728 18.9665 8.728C18.9638 8.728 18.961 8.728 18.9583 8.728C18.9555 8.728 18.9527 8.728 18.95 8.728C18.9472 8.728 18.9445 8.728 18.9417 8.728C18.9389 8.728 18.9362 8.728 18.9334 8.728C18.9306 8.728 18.9279 8.728 18.9251 8.728C18.9224 8.728 18.9196 8.728 18.9168 8.728C18.9141 8.728 18.9113 8.728 18.9085 8.728C18.9058 8.728 18.903 8.728 18.9002 8.728C18.8975 8.728 18.8947 8.728 18.8919 8.728C18.8892 8.728 18.8864 8.728 18.8836 8.728C18.8809 8.728 18.8781 8.728 18.8753 8.728C18.8725 8.728 18.8698 8.728 18.867 8.728C18.8642 8.728 18.8615 8.728 18.8587 8.728C18.8559 8.728 18.8531 8.728 18.8504 8.728C18.8476 8.728 18.8448 8.728 18.842 8.728C18.8393 8.728 18.8365 8.728 18.8337 8.728C18.831 8.728 18.8282 8.728 18.8254 8.728C18.8226 8.728 18.8198 8.728 18.8171 8.728C18.8143 8.728 18.8115 8.728 18.8087 8.728C18.806 8.728 18.8032 8.728 18.8004 8.728C18.7976 8.728 18.7948 8.728 18.7921 8.728C18.7893 8.728 18.7865 8.728 18.7837 8.728C18.7809 8.728 18.7782 8.728 18.7754 8.728C18.7726 8.728 18.7698 8.728 18.767 8.728C18.7643 8.728 18.7615 8.728 18.7587 8.728C18.7559 8.728 18.7531 8.728 18.7503 8.728C18.7476 8.728 18.7448 8.728 18.742 8.728C18.7392 8.728 18.7364 8.728 18.7336 8.728C18.7308 8.728 18.7281 8.728 18.7253 8.728C18.7225 8.728 18.7197 8.728 18.7169 8.728C18.7141 8.728 18.7113 8.728 18.7085 8.728C18.7057 8.728 18.703 8.728 18.7002 8.728C18.6974 8.728 18.6946 8.728 18.6918 8.728C18.689 8.728 18.6862 8.728 18.6834 8.728C18.6806 8.728 18.6778 8.728 18.675 8.728C18.6722 8.728 18.6695 8.728 18.6667 8.728C18.6639 8.728 18.6611 8.728 18.6583 8.728C18.6555 8.728 18.6527 8.728 18.6499 8.728C18.6471 8.728 18.6443 8.728 18.6415 8.728C18.6387 8.728 18.6359 8.728 18.6331 8.728C18.6303 8.728 18.6275 8.728 18.6247 8.728C18.6219 8.728 18.6191 8.728 18.6163 8.728C18.6135 8.728 18.6107 8.728 18.6079 8.728C18.6051 8.728 18.6023 8.728 18.5995 8.728C18.5967 8.728 18.5939 8.728 18.5911 8.728C18.5883 8.728 18.5855 8.728 18.5827 8.728C18.5799 8.728 18.5771 8.728 18.5743 8.728C18.5715 8.728 18.5687 8.728 18.5659 8.728C18.563 8.728 18.5602 8.728 18.5574 8.728C18.5546 8.728 18.5518 8.728 18.549 8.728C18.5462 8.728 18.5434 8.728 18.5406 8.728C18.5378 8.728 18.535 8.728 18.5322 8.728C18.5293 8.728 18.5265 8.728 18.5237 8.728C18.5209 8.728 18.5181 8.728 18.5153 8.728C18.5125 8.728 18.5097 8.728 18.5069 8.728C18.504 8.728 18.5012 8.728 18.4984 8.728C18.4956 8.728 18.4928 8.728 18.49 8.728C18.4872 8.728 18.4843 8.728 18.4815 8.728C18.4787 8.728 18.4759 8.728 18.4731 8.728C18.4703 8.728 18.4674 8.728 18.4646 8.728C18.4618 8.728 18.459 8.728 18.4562 8.728C18.4534 8.728 18.4505 8.728 18.4477 8.728C18.4449 8.728 18.4421 8.728 18.4393 8.728C18.4364 8.728 18.4336 8.728 18.4308 8.728C18.428 8.728 18.4251 8.728 18.4223 8.728C18.4195 8.728 18.4167 8.728 18.4139 8.728C18.411 8.728 18.4082 8.728 18.4054 8.728C18.4026 8.728 18.3997 8.728 18.3969 8.728C18.3941 8.728 18.3913 8.728 18.3884 8.728C18.3856 8.728 18.3828 8.728 18.3799 8.728C18.3771 8.728 18.3743 8.728 18.3715 8.728C18.3686 8.728 18.3658 8.728 18.363 8.728C18.3601 8.728 18.3573 8.728 18.3545 8.728C18.3517 8.728 18.3488 8.728 18.346 8.728C18.3432 8.728 18.3403 8.728 18.3375 8.728C18.3347 8.728 18.3318 8.728 18.329 8.728V14.728C18.3318 14.728 18.3347 14.728 18.3375 14.728C18.3403 14.728 18.3432 14.728 18.346 14.728C18.3488 14.728 18.3517 14.728 18.3545 14.728C18.3573 14.728 18.3601 14.728 18.363 14.728C18.3658 14.728 18.3686 14.728 18.3715 14.728C18.3743 14.728 18.3771 14.728 18.3799 14.728C18.3828 14.728 18.3856 14.728 18.3884 14.728C18.3913 14.728 18.3941 14.728 18.3969 14.728C18.3997 14.728 18.4026 14.728 18.4054 14.728C18.4082 14.728 18.411 14.728 18.4139 14.728C18.4167 14.728 18.4195 14.728 18.4223 14.728C18.4251 14.728 18.428 14.728 18.4308 14.728C18.4336 14.728 18.4364 14.728 18.4393 14.728C18.4421 14.728 18.4449 14.728 18.4477 14.728C18.4505 14.728 18.4534 14.728 18.4562 14.728C18.459 14.728 18.4618 14.728 18.4646 14.728C18.4674 14.728 18.4703 14.728 18.4731 14.728C18.4759 14.728 18.4787 14.728 18.4815 14.728C18.4843 14.728 18.4872 14.728 18.49 14.728C18.4928 14.728 18.4956 14.728 18.4984 14.728C18.5012 14.728 18.504 14.728 18.5069 14.728C18.5097 14.728 18.5125 14.728 18.5153 14.728C18.5181 14.728 18.5209 14.728 18.5237 14.728C18.5265 14.728 18.5293 14.728 18.5322 14.728C18.535 14.728 18.5378 14.728 18.5406 14.728C18.5434 14.728 18.5462 14.728 18.549 14.728C18.5518 14.728 18.5546 14.728 18.5574 14.728C18.5602 14.728 18.563 14.728 18.5659 14.728C18.5687 14.728 18.5715 14.728 18.5743 14.728C18.5771 14.728 18.5799 14.728 18.5827 14.728C18.5855 14.728 18.5883 14.728 18.5911 14.728C18.5939 14.728 18.5967 14.728 18.5995 14.728C18.6023 14.728 18.6051 14.728 18.6079 14.728C18.6107 14.728 18.6135 14.728 18.6163 14.728C18.6191 14.728 18.6219 14.728 18.6247 14.728C18.6275 14.728 18.6303 14.728 18.6331 14.728C18.6359 14.728 18.6387 14.728 18.6415 14.728C18.6443 14.728 18.6471 14.728 18.6499 14.728C18.6527 14.728 18.6555 14.728 18.6583 14.728C18.6611 14.728 18.6639 14.728 18.6667 14.728C18.6695 14.728 18.6722 14.728 18.675 14.728C18.6778 14.728 18.6806 14.728 18.6834 14.728C18.6862 14.728 18.689 14.728 18.6918 14.728C18.6946 14.728 18.6974 14.728 18.7002 14.728C18.703 14.728 18.7057 14.728 18.7085 14.728C18.7113 14.728 18.7141 14.728 18.7169 14.728C18.7197 14.728 18.7225 14.728 18.7253 14.728C18.7281 14.728 18.7308 14.728 18.7336 14.728C18.7364 14.728 18.7392 14.728 18.742 14.728C18.7448 14.728 18.7476 14.728 18.7503 14.728C18.7531 14.728 18.7559 14.728 18.7587 14.728C18.7615 14.728 18.7643 14.728 18.767 14.728C18.7698 14.728 18.7726 14.728 18.7754 14.728C18.7782 14.728 18.7809 14.728 18.7837 14.728C18.7865 14.728 18.7893 14.728 18.7921 14.728C18.7948 14.728 18.7976 14.728 18.8004 14.728C18.8032 14.728 18.806 14.728 18.8087 14.728C18.8115 14.728 18.8143 14.728 18.8171 14.728C18.8198 14.728 18.8226 14.728 18.8254 14.728C18.8282 14.728 18.831 14.728 18.8337 14.728C18.8365 14.728 18.8393 14.728 18.842 14.728C18.8448 14.728 18.8476 14.728 18.8504 14.728C18.8531 14.728 18.8559 14.728 18.8587 14.728C18.8615 14.728 18.8642 14.728 18.867 14.728C18.8698 14.728 18.8725 14.728 18.8753 14.728C18.8781 14.728 18.8809 14.728 18.8836 14.728C18.8864 14.728 18.8892 14.728 18.8919 14.728C18.8947 14.728 18.8975 14.728 18.9002 14.728C18.903 14.728 18.9058 14.728 18.9085 14.728C18.9113 14.728 18.9141 14.728 18.9168 14.728C18.9196 14.728 18.9224 14.728 18.9251 14.728C18.9279 14.728 18.9306 14.728 18.9334 14.728C18.9362 14.728 18.9389 14.728 18.9417 14.728C18.9445 14.728 18.9472 14.728 18.95 14.728C18.9527 14.728 18.9555 14.728 18.9583 14.728C18.961 14.728 18.9638 14.728 18.9665 14.728C18.9693 14.728 18.9721 14.728 18.9748 14.728C18.9776 14.728 18.9803 14.728 18.9831 14.728C18.9858 14.728 18.9886 14.728 18.9914 14.728C18.9941 14.728 18.9969 14.728 18.9996 14.728C19.0024 14.728 19.0051 14.728 19.0079 14.728C19.0106 14.728 19.0134 14.728 19.0162 14.728C19.0189 14.728 19.0217 14.728 19.0244 14.728C19.0272 14.728 19.0299 14.728 19.0327 14.728C19.0354 14.728 19.0382 14.728 19.0409 14.728C19.0437 14.728 19.0464 14.728 19.0492 14.728C19.0519 14.728 19.0547 14.728 19.0574 14.728C19.0602 14.728 19.0629 14.728 19.0657 14.728C19.0684 14.728 19.0712 14.728 19.0739 14.728C19.0766 14.728 19.0794 14.728 19.0821 14.728C19.0849 14.728 19.0876 14.728 19.0904 14.728C19.0931 14.728 19.0959 14.728 19.0986 14.728C19.1013 14.728 19.1041 14.728 19.1068 14.728C19.1096 14.728 19.1123 14.728 19.1151 14.728C19.1178 14.728 19.1205 14.728 19.1233 14.728C19.126 14.728 19.1288 14.728 19.1315 14.728C19.1342 14.728 19.137 14.728 19.1397 14.728C19.1425 14.728 19.1452 14.728 19.1479 14.728C19.1507 14.728 19.1534 14.728 19.1561 14.728C19.1589 14.728 19.1616 14.728 19.1644 14.728C19.1671 14.728 19.1698 14.728 19.1726 14.728C19.1753 14.728 19.178 14.728 19.1808 14.728C19.1835 14.728 19.1862 14.728 19.189 14.728C19.1917 14.728 19.1944 14.728 19.1972 14.728C19.1999 14.728 19.2026 14.728 19.2054 14.728C19.2081 14.728 19.2108 14.728 19.2135 14.728C19.2163 14.728 19.219 14.728 19.2217 14.728C19.2245 14.728 19.2272 14.728 19.2299 14.728C19.2326 14.728 19.2354 14.728 19.2381 14.728C19.2408 14.728 19.2436 14.728 19.2463 14.728C19.249 14.728 19.2517 14.728 19.2545 14.728C19.2572 14.728 19.2599 14.728 19.2626 14.728C19.2653 14.728 19.2681 14.728 19.2708 14.728C19.2735 14.728 19.2762 14.728 19.279 14.728C19.2817 14.728 19.2844 14.728 19.2871 14.728C19.2898 14.728 19.2926 14.728 19.2953 14.728C19.298 14.728 19.3007 14.728 19.3034 14.728C19.3062 14.728 19.3089 14.728 19.3116 14.728C19.3143 14.728 19.317 14.728 19.3198 14.728C19.3225 14.728 19.3252 14.728 19.3279 14.728C19.3306 14.728 19.3333 14.728 19.3361 14.728C19.3388 14.728 19.3415 14.728 19.3442 14.728C19.3469 14.728 19.3496 14.728 19.3523 14.728C19.3551 14.728 19.3578 14.728 19.3605 14.728C19.3632 14.728 19.3659 14.728 19.3686 14.728C19.3713 14.728 19.374 14.728 19.3767 14.728C19.3795 14.728 19.3822 14.728 19.3849 14.728C19.3876 14.728 19.3903 14.728 19.393 14.728C19.3957 14.728 19.3984 14.728 19.4011 14.728C19.4038 14.728 19.4065 14.728 19.4092 14.728C19.412 14.728 19.4147 14.728 19.4174 14.728C19.4201 14.728 19.4228 14.728 19.4255 14.728C19.4282 14.728 19.4309 14.728 19.4336 14.728C19.4363 14.728 19.439 14.728 19.4417 14.728C19.4444 14.728 19.4471 14.728 19.4498 14.728C19.4525 14.728 19.4552 14.728 19.4579 14.728C19.4606 14.728 19.4633 14.728 19.466 14.728C19.4687 14.728 19.4714 14.728 19.4741 14.728C19.4768 14.728 19.4795 14.728 19.4822 14.728C19.4849 14.728 19.4876 14.728 19.4903 14.728C19.493 14.728 19.4957 14.728 19.4984 14.728C19.5011 14.728 19.5038 14.728 19.5065 14.728C19.5092 14.728 19.5119 14.728 19.5145 14.728C19.5172 14.728 19.5199 14.728 19.5226 14.728C19.5253 14.728 19.528 14.728 19.5307 14.728C19.5334 14.728 19.5361 14.728 19.5388 14.728C19.5415 14.728 19.5442 14.728 19.5468 14.728C19.5495 14.728 19.5522 14.728 19.5549 14.728C19.5576 14.728 19.5603 14.728 19.563 14.728C19.5657 14.728 19.5684 14.728 19.571 14.728C19.5737 14.728 19.5764 14.728 19.5791 14.728C19.5818 14.728 19.5845 14.728 19.5872 14.728C19.5898 14.728 19.5925 14.728 19.5952 14.728C19.5979 14.728 19.6006 14.728 19.6033 14.728C19.6059 14.728 19.6086 14.728 19.6113 14.728C19.614 14.728 19.6167 14.728 19.6194 14.728C19.622 14.728 19.6247 14.728 19.6274 14.728C19.6301 14.728 19.6328 14.728 19.6354 14.728C19.6381 14.728 19.6408 14.728 19.6435 14.728C19.6461 14.728 19.6488 14.728 19.6515 14.728C19.6542 14.728 19.6569 14.728 19.6595 14.728C19.6622 14.728 19.6649 14.728 19.6676 14.728C19.6702 14.728 19.6729 14.728 19.6756 14.728C19.6783 14.728 19.6809 14.728 19.6836 14.728C19.6863 14.728 19.6889 14.728 19.6916 14.728C19.6943 14.728 19.697 14.728 19.6996 14.728C19.7023 14.728 19.705 14.728 19.7076 14.728C19.7103 14.728 19.713 14.728 19.7157 14.728C19.7183 14.728 19.721 14.728 19.7237 14.728C19.7263 14.728 19.729 14.728 19.7317 14.728C19.7343 14.728 19.737 14.728 19.7397 14.728C19.7423 14.728 19.745 14.728 19.7477 14.728C19.7503 14.728 19.753 14.728 19.7557 14.728C19.7583 14.728 19.761 14.728 19.7637 14.728C19.7663 14.728 19.769 14.728 19.7716 14.728C19.7743 14.728 19.777 14.728 19.7796 14.728C19.7823 14.728 19.7849 14.728 19.7876 14.728C19.7903 14.728 19.7929 14.728 19.7956 14.728C19.7982 14.728 19.8009 14.728 19.8036 14.728C19.8062 14.728 19.8089 14.728 19.8115 14.728C19.8142 14.728 19.8169 14.728 19.8195 14.728C19.8222 14.728 19.8248 14.728 19.8275 14.728C19.8301 14.728 19.8328 14.728 19.8354 14.728C19.8381 14.728 19.8408 14.728 19.8434 14.728C19.8461 14.728 19.8487 14.728 19.8514 14.728C19.854 14.728 19.8567 14.728 19.8593 14.728C19.862 14.728 19.8646 14.728 19.8673 14.728C19.8699 14.728 19.8726 14.728 19.8752 14.728C19.8779 14.728 19.8805 14.728 19.8832 14.728C19.8858 14.728 19.8885 14.728 19.8911 14.728C19.8938 14.728 19.8964 14.728 19.8991 14.728C19.9017 14.728 19.9044 14.728 19.907 14.728C19.9096 14.728 19.9123 14.728 19.9149 14.728C19.9176 14.728 19.9202 14.728 19.9229 14.728C19.9255 14.728 19.9282 14.728 19.9308 14.728C19.9334 14.728 19.9361 14.728 19.9387 14.728C19.9414 14.728 19.944 14.728 19.9467 14.728C19.9493 14.728 19.9519 14.728 19.9546 14.728C19.9572 14.728 19.9599 14.728 19.9625 14.728C19.9651 14.728 19.9678 14.728 19.9704 14.728C19.973 14.728 19.9757 14.728 19.9783 14.728C19.981 14.728 19.9836 14.728 19.9862 14.728C19.9889 14.728 19.9915 14.728 19.9941 14.728C19.9968 14.728 19.9994 14.728 20.002 14.728C20.0047 14.728 20.0073 14.728 20.0099 14.728C20.0126 14.728 20.0152 14.728 20.0178 14.728C20.0205 14.728 20.0231 14.728 20.0257 14.728C20.0284 14.728 20.031 14.728 20.0336 14.728C20.0363 14.728 20.0389 14.728 20.0415 14.728C20.0441 14.728 20.0468 14.728 20.0494 14.728C20.052 14.728 20.0547 14.728 20.0573 14.728C20.0599 14.728 20.0625 14.728 20.0652 14.728C20.0678 14.728 20.0704 14.728 20.073 14.728C20.0757 14.728 20.0783 14.728 20.0809 14.728C20.0835 14.728 20.0862 14.728 20.0888 14.728C20.0914 14.728 20.094 14.728 20.0967 14.728C20.0993 14.728 20.1019 14.728 20.1045 14.728C20.1071 14.728 20.1098 14.728 20.1124 14.728C20.115 14.728 20.1176 14.728 20.1202 14.728C20.1229 14.728 20.1255 14.728 20.1281 14.728C20.1307 14.728 20.1333 14.728 20.136 14.728C20.1386 14.728 20.1412 14.728 20.1438 14.728C20.1464 14.728 20.149 14.728 20.1517 14.728C20.1543 14.728 20.1569 14.728 20.1595 14.728C20.1621 14.728 20.1647 14.728 20.1673 14.728C20.17 14.728 20.1726 14.728 20.1752 14.728C20.1778 14.728 20.1804 14.728 20.183 14.728C20.1856 14.728 20.1882 14.728 20.1909 14.728C20.1935 14.728 20.1961 14.728 20.1987 14.728C20.2013 14.728 20.2039 14.728 20.2065 14.728C20.2091 14.728 20.2117 14.728 20.2143 14.728C20.2169 14.728 20.2196 14.728 20.2222 14.728C20.2248 14.728 20.2274 14.728 20.23 14.728C20.2326 14.728 20.2352 14.728 20.2378 14.728C20.2404 14.728 20.243 14.728 20.2456 14.728C20.2482 14.728 20.2508 14.728 20.2534 14.728C20.256 14.728 20.2586 14.728 20.2612 14.728C20.2638 14.728 20.2664 14.728 20.269 14.728C20.2716 14.728 20.2742 14.728 20.2768 14.728C20.2794 14.728 20.282 14.728 20.2846 14.728C20.2872 14.728 20.2898 14.728 20.2924 14.728C20.295 14.728 20.2976 14.728 20.3002 14.728C20.3028 14.728 20.3054 14.728 20.308 14.728C20.3106 14.728 20.3132 14.728 20.3158 14.728C20.3184 14.728 20.321 14.728 20.3236 14.728C20.3262 14.728 20.3288 14.728 20.3314 14.728C20.3339 14.728 20.3365 14.728 20.3391 14.728C20.3417 14.728 20.3443 14.728 20.3469 14.728C20.3495 14.728 20.3521 14.728 20.3547 14.728C20.3573 14.728 20.3599 14.728 20.3624 14.728C20.365 14.728 20.3676 14.728 20.3702 14.728C20.3728 14.728 20.3754 14.728 20.378 14.728C20.3806 14.728 20.3832 14.728 20.3857 14.728C20.3883 14.728 20.3909 14.728 20.3935 14.728C20.3961 14.728 20.3987 14.728 20.4012 14.728C20.4038 14.728 20.4064 14.728 20.409 14.728C20.4116 14.728 20.4142 14.728 20.4167 14.728C20.4193 14.728 20.4219 14.728 20.4245 14.728C20.4271 14.728 20.4297 14.728 20.4322 14.728C20.4348 14.728 20.4374 14.728 20.44 14.728C20.4426 14.728 20.4451 14.728 20.4477 14.728C20.4503 14.728 20.4529 14.728 20.4554 14.728C20.458 14.728 20.4606 14.728 20.4632 14.728C20.4658 14.728 20.4683 14.728 20.4709 14.728C20.4735 14.728 20.4761 14.728 20.4786 14.728C20.4812 14.728 20.4838 14.728 20.4864 14.728C20.4889 14.728 20.4915 14.728 20.4941 14.728C20.4966 14.728 20.4992 14.728 20.5018 14.728C20.5044 14.728 20.5069 14.728 20.5095 14.728C20.5121 14.728 20.5146 14.728 20.5172 14.728C20.5198 14.728 20.5224 14.728 20.5249 14.728C20.5275 14.728 20.5301 14.728 20.5326 14.728C20.5352 14.728 20.5378 14.728 20.5403 14.728C20.5429 14.728 20.5455 14.728 20.548 14.728C20.5506 14.728 20.5532 14.728 20.5557 14.728C20.5583 14.728 20.5609 14.728 20.5634 14.728C20.566 14.728 20.5685 14.728 20.5711 14.728C20.5737 14.728 20.5762 14.728 20.5788 14.728C20.5814 14.728 20.5839 14.728 20.5865 14.728C20.589 14.728 20.5916 14.728 20.5942 14.728C20.5967 14.728 20.5993 14.728 20.6018 14.728C20.6044 14.728 20.607 14.728 20.6095 14.728C20.6121 14.728 20.6146 14.728 20.6172 14.728C20.6197 14.728 20.6223 14.728 20.6249 14.728C20.6274 14.728 20.63 14.728 20.6325 14.728C20.6351 14.728 20.6376 14.728 20.6402 14.728C20.6427 14.728 20.6453 14.728 20.6478 14.728C20.6504 14.728 20.6529 14.728 20.6555 14.728C20.6581 14.728 20.6606 14.728 20.6632 14.728C20.6657 14.728 20.6683 14.728 20.6708 14.728C20.6734 14.728 20.6759 14.728 20.6785 14.728C20.681 14.728 20.6836 14.728 20.6861 14.728C20.6887 14.728 20.6912 14.728 20.6937 14.728C20.6963 14.728 20.6988 14.728 20.7014 14.728C20.7039 14.728 20.7065 14.728 20.709 14.728C20.7116 14.728 20.7141 14.728 20.7167 14.728C20.7192 14.728 20.7217 14.728 20.7243 14.728C20.7268 14.728 20.7294 14.728 20.7319 14.728C20.7345 14.728 20.737 14.728 20.7395 14.728C20.7421 14.728 20.7446 14.728 20.7472 14.728C20.7497 14.728 20.7522 14.728 20.7548 14.728C20.7573 14.728 20.7599 14.728 20.7624 14.728C20.7649 14.728 20.7675 14.728 20.77 14.728C20.7726 14.728 20.7751 14.728 20.7776 14.728C20.7802 14.728 20.7827 14.728 20.7852 14.728C20.7878 14.728 20.7903 14.728 20.7928 14.728C20.7954 14.728 20.7979 14.728 20.8004 14.728C20.803 14.728 20.8055 14.728 20.808 14.728C20.8106 14.728 20.8131 14.728 20.8156 14.728C20.8182 14.728 20.8207 14.728 20.8232 14.728C20.8258 14.728 20.8283 14.728 20.8308 14.728C20.8333 14.728 20.8359 14.728 20.8384 14.728C20.8409 14.728 20.8435 14.728 20.846 14.728C20.8485 14.728 20.851 14.728 20.8536 14.728C20.8561 14.728 20.8586 14.728 20.8612 14.728C20.8637 14.728 20.8662 14.728 20.8687 14.728C20.8713 14.728 20.8738 14.728 20.8763 14.728C20.8788 14.728 20.8813 14.728 20.8839 14.728C20.8864 14.728 20.8889 14.728 20.8914 14.728C20.894 14.728 20.8965 14.728 20.899 14.728C20.9015 14.728 20.904 14.728 20.9066 14.728C20.9091 14.728 20.9116 14.728 20.9141 14.728C20.9166 14.728 20.9192 14.728 20.9217 14.728C20.9242 14.728 20.9267 14.728 20.9292 14.728C20.9317 14.728 20.9343 14.728 20.9368 14.728C20.9393 14.728 20.9418 14.728 20.9443 14.728C20.9468 14.728 20.9494 14.728 20.9519 14.728C20.9544 14.728 20.9569 14.728 20.9594 14.728C20.9619 14.728 20.9644 14.728 20.9669 14.728C20.9695 14.728 20.972 14.728 20.9745 14.728C20.977 14.728 20.9795 14.728 20.982 14.728C20.9845 14.728 20.987 14.728 20.9895 14.728C20.992 14.728 20.9946 14.728 20.9971 14.728C20.9996 14.728 21.0021 14.728 21.0046 14.728C21.0071 14.728 21.0096 14.728 21.0121 14.728C21.0146 14.728 21.0171 14.728 21.0196 14.728C21.0221 14.728 21.0246 14.728 21.0271 14.728C21.0296 14.728 21.0321 14.728 21.0347 14.728C21.0372 14.728 21.0397 14.728 21.0422 14.728C21.0447 14.728 21.0472 14.728 21.0497 14.728C21.0522 14.728 21.0547 14.728 21.0572 14.728C21.0597 14.728 21.0622 14.728 21.0647 14.728C21.0672 14.728 21.0697 14.728 21.0722 14.728C21.0747 14.728 21.0772 14.728 21.0797 14.728C21.0822 14.728 21.0847 14.728 21.0871 14.728C21.0896 14.728 21.0921 14.728 21.0946 14.728C21.0971 14.728 21.0996 14.728 21.1021 14.728C21.1046 14.728 21.1071 14.728 21.1096 14.728C21.1121 14.728 21.1146 14.728 21.1171 14.728C21.1196 14.728 21.1221 14.728 21.1246 14.728C21.127 14.728 21.1295 14.728 21.132 14.728C21.1345 14.728 21.137 14.728 21.1395 14.728C21.142 14.728 21.1445 14.728 21.147 14.728C21.1495 14.728 21.1519 14.728 21.1544 14.728C21.1569 14.728 21.1594 14.728 21.1619 14.728C21.1644 14.728 21.1669 14.728 21.1694 14.728C21.1718 14.728 21.1743 14.728 21.1768 14.728C21.1793 14.728 21.1818 14.728 21.1843 14.728C21.1867 14.728 21.1892 14.728 21.1917 14.728C21.1942 14.728 21.1967 14.728 21.1992 14.728C21.2016 14.728 21.2041 14.728 21.2066 14.728C21.2091 14.728 21.2116 14.728 21.214 14.728C21.2165 14.728 21.219 14.728 21.2215 14.728C21.224 14.728 21.2264 14.728 21.2289 14.728C21.2314 14.728 21.2339 14.728 21.2363 14.728C21.2388 14.728 21.2413 14.728 21.2438 14.728C21.2463 14.728 21.2487 14.728 21.2512 14.728C21.2537 14.728 21.2562 14.728 21.2586 14.728C21.2611 14.728 21.2636 14.728 21.266 14.728C21.2685 14.728 21.271 14.728 21.2735 14.728C21.2759 14.728 21.2784 14.728 21.2809 14.728C21.2833 14.728 21.2858 14.728 21.2883 14.728C21.2908 14.728 21.2932 14.728 21.2957 14.728C21.2982 14.728 21.3006 14.728 21.3031 14.728C21.3056 14.728 21.308 14.728 21.3105 14.728C21.313 14.728 21.3154 14.728 21.3179 14.728C21.3204 14.728 21.3228 14.728 21.3253 14.728C21.3278 14.728 21.3302 14.728 21.3327 14.728C21.3352 14.728 21.3376 14.728 21.3401 14.728C21.3426 14.728 21.345 14.728 21.3475 14.728C21.3499 14.728 21.3524 14.728 21.3549 14.728C21.3573 14.728 21.3598 14.728 21.3622 14.728C21.3647 14.728 21.3672 14.728 21.3696 14.728C21.3721 14.728 21.3745 14.728 21.377 14.728C21.3795 14.728 21.3819 14.728 21.3844 14.728C21.3868 14.728 21.3893 14.728 21.3917 14.728C21.3942 14.728 21.3967 14.728 21.3991 14.728C21.4016 14.728 21.404 14.728 21.4065 14.728C21.4089 14.728 21.4114 14.728 21.4138 14.728C21.4163 14.728 21.4187 14.728 21.4212 14.728C21.4237 14.728 21.4261 14.728 21.4286 14.728C21.431 14.728 21.4335 14.728 21.4359 14.728C21.4384 14.728 21.4408 14.728 21.4433 14.728C21.4457 14.728 21.4482 14.728 21.4506 14.728C21.4531 14.728 21.4555 14.728 21.4579 14.728C21.4604 14.728 21.4628 14.728 21.4653 14.728C21.4677 14.728 21.4702 14.728 21.4726 14.728C21.4751 14.728 21.4775 14.728 21.48 14.728C21.4824 14.728 21.4849 14.728 21.4873 14.728C21.4897 14.728 21.4922 14.728 21.4946 14.728C21.4971 14.728 21.4995 14.728 21.502 14.728C21.5044 14.728 21.5068 14.728 21.5093 14.728C21.5117 14.728 21.5142 14.728 21.5166 14.728C21.519 14.728 21.5215 14.728 21.5239 14.728C21.5264 14.728 21.5288 14.728 21.5312 14.728C21.5337 14.728 21.5361 14.728 21.5385 14.728C21.541 14.728 21.5434 14.728 21.5459 14.728C21.5483 14.728 21.5507 14.728 21.5532 14.728C21.5556 14.728 21.558 14.728 21.5605 14.728C21.5629 14.728 21.5653 14.728 21.5678 14.728C21.5702 14.728 21.5726 14.728 21.5751 14.728C21.5775 14.728 21.5799 14.728 21.5824 14.728C21.5848 14.728 21.5872 14.728 21.5896 14.728C21.5921 14.728 21.5945 14.728 21.5969 14.728C21.5994 14.728 21.6018 14.728 21.6042 14.728C21.6066 14.728 21.6091 14.728 21.6115 14.728C21.6139 14.728 21.6164 14.728 21.6188 14.728C21.6212 14.728 21.6236 14.728 21.6261 14.728C21.6285 14.728 21.6309 14.728 21.6333 14.728C21.6358 14.728 21.6382 14.728 21.6406 14.728C21.643 14.728 21.6454 14.728 21.6479 14.728C21.6503 14.728 21.6527 14.728 21.6551 14.728C21.6576 14.728 21.66 14.728 21.6624 14.728C21.6648 14.728 21.6672 14.728 21.6697 14.728C21.6721 14.728 21.6745 14.728 21.6769 14.728C21.6793 14.728 21.6817 14.728 21.6842 14.728C21.6866 14.728 21.689 14.728 21.6914 14.728C21.6938 14.728 21.6962 14.728 21.6987 14.728C21.7011 14.728 21.7035 14.728 21.7059 14.728C21.7083 14.728 21.7107 14.728 21.7132 14.728C21.7156 14.728 21.718 14.728 21.7204 14.728C21.7228 14.728 21.7252 14.728 21.7276 14.728C21.73 14.728 21.7324 14.728 21.7349 14.728C21.7373 14.728 21.7397 14.728 21.7421 14.728C21.7445 14.728 21.7469 14.728 21.7493 14.728C21.7517 14.728 21.7541 14.728 21.7565 14.728C21.7589 14.728 21.7614 14.728 21.7638 14.728C21.7662 14.728 21.7686 14.728 21.771 14.728C21.7734 14.728 21.7758 14.728 21.7782 14.728C21.7806 14.728 21.783 14.728 21.7854 14.728C21.7878 14.728 21.7902 14.728 21.7926 14.728C21.795 14.728 21.7974 14.728 21.7998 14.728C21.8022 14.728 21.8046 14.728 21.807 14.728C21.8094 14.728 21.8118 14.728 21.8142 14.728C21.8166 14.728 21.819 14.728 21.8214 14.728C21.8238 14.728 21.8262 14.728 21.8286 14.728C21.831 14.728 21.8334 14.728 21.8358 14.728C21.8382 14.728 21.8406 14.728 21.843 14.728C21.8454 14.728 21.8478 14.728 21.8502 14.728C21.8526 14.728 21.855 14.728 21.8574 14.728C21.8598 14.728 21.8622 14.728 21.8646 14.728C21.8669 14.728 21.8693 14.728 21.8717 14.728C21.8741 14.728 21.8765 14.728 21.8789 14.728C21.8813 14.728 21.8837 14.728 21.8861 14.728C21.8885 14.728 21.8909 14.728 21.8932 14.728C21.8956 14.728 21.898 14.728 21.9004 14.728C21.9028 14.728 21.9052 14.728 21.9076 14.728C21.91 14.728 21.9123 14.728 21.9147 14.728C21.9171 14.728 21.9195 14.728 21.9219 14.728C21.9243 14.728 21.9267 14.728 21.929 14.728C21.9314 14.728 21.9338 14.728 21.9362 14.728C21.9386 14.728 21.941 14.728 21.9433 14.728C21.9457 14.728 21.9481 14.728 21.9505 14.728C21.9529 14.728 21.9552 14.728 21.9576 14.728C21.96 14.728 21.9624 14.728 21.9648 14.728C21.9671 14.728 21.9695 14.728 21.9719 14.728C21.9743 14.728 21.9767 14.728 21.979 14.728C21.9814 14.728 21.9838 14.728 21.9862 14.728C21.9885 14.728 21.9909 14.728 21.9933 14.728C21.9957 14.728 21.998 14.728 22.0004 14.728C22.0028 14.728 22.0052 14.728 22.0075 14.728C22.0099 14.728 22.0123 14.728 22.0147 14.728C22.017 14.728 22.0194 14.728 22.0218 14.728C22.0241 14.728 22.0265 14.728 22.0289 14.728C22.0313 14.728 22.0336 14.728 22.036 14.728C22.0384 14.728 22.0407 14.728 22.0431 14.728C22.0455 14.728 22.0478 14.728 22.0502 14.728C22.0526 14.728 22.0549 14.728 22.0573 14.728C22.0597 14.728 22.062 14.728 22.0644 14.728C22.0668 14.728 22.0691 14.728 22.0715 14.728C22.0739 14.728 22.0762 14.728 22.0786 14.728C22.081 14.728 22.0833 14.728 22.0857 14.728C22.088 14.728 22.0904 14.728 22.0928 14.728C22.0951 14.728 22.0975 14.728 22.0999 14.728C22.1022 14.728 22.1046 14.728 22.1069 14.728C22.1093 14.728 22.1117 14.728 22.114 14.728C22.1164 14.728 22.1187 14.728 22.1211 14.728C22.1234 14.728 22.1258 14.728 22.1282 14.728C22.1305 14.728 22.1329 14.728 22.1352 14.728C22.1376 14.728 22.1399 14.728 22.1423 14.728C22.1446 14.728 22.147 14.728 22.1494 14.728C22.1517 14.728 22.1541 14.728 22.1564 14.728C22.1588 14.728 22.1611 14.728 22.1635 14.728C22.1658 14.728 22.1682 14.728 22.1705 14.728C22.1729 14.728 22.1752 14.728 22.1776 14.728C22.1799 14.728 22.1823 14.728 22.1846 14.728C22.187 14.728 22.1893 14.728 22.1917 14.728C22.194 14.728 22.1964 14.728 22.1987 14.728C22.2011 14.728 22.2034 14.728 22.2058 14.728C22.2081 14.728 22.2104 14.728 22.2128 14.728C22.2151 14.728 22.2175 14.728 22.2198 14.728C22.2222 14.728 22.2245 14.728 22.2269 14.728C22.2292 14.728 22.2315 14.728 22.2339 14.728C22.2362 14.728 22.2386 14.728 22.2409 14.728C22.2432 14.728 22.2456 14.728 22.2479 14.728C22.2503 14.728 22.2526 14.728 22.2549 14.728C22.2573 14.728 22.2596 14.728 22.262 14.728C22.2643 14.728 22.2666 14.728 22.269 14.728C22.2713 14.728 22.2737 14.728 22.276 14.728C22.2783 14.728 22.2807 14.728 22.283 14.728C22.2853 14.728 22.2877 14.728 22.29 14.728C22.2923 14.728 22.2947 14.728 22.297 14.728V8.728ZM18.329 8.728H12.121V14.728H18.329V8.728ZM12.121 8.728C11.2983 8.728 10.4182 8.75083 9.4823 8.7954L9.7677 14.7886C10.6238 14.7478 11.4077 14.728 12.121 14.728V8.728ZM9.47519 8.79574C8.8163 8.82869 8.22239 8.79418 7.6862 8.70482L6.6998 14.6232C7.69961 14.7898 8.72704 14.8406 9.77481 14.7883L9.47519 8.79574ZM7.84379 8.73544C7.50997 8.66125 7.3003 8.54371 7.14682 8.41384L3.27118 12.9942C4.22703 13.803 5.34003 14.3254 6.54221 14.5926L7.84379 8.73544ZM7.23617 8.49253C7.35864 8.60479 7.3793 8.68233 7.35423 8.62215C7.32592 8.55421 7.26778 8.37716 7.22763 8.04256L1.27037 8.75743C1.43919 10.1643 1.9188 11.7577 3.18183 12.9155L7.23617 8.49253ZM7.23549 8.11557C7.20809 7.82792 7.21635 7.65055 7.2272 7.56099C7.238 7.47193 7.24582 7.51457 7.18828 7.62964L1.82172 4.94636C1.20893 6.17194 1.15179 7.52182 1.26251 8.68443L7.23549 8.11557ZM7.18828 7.62964C7.19588 7.61444 7.18652 7.63724 7.15004 7.67587C7.11225 7.71588 7.06824 7.74858 7.02955 7.76969L4.15645 2.50231C3.11062 3.07276 2.33122 3.92736 1.82172 4.94636L7.18828 7.62964Z" fill="#1EE5B0" mask="url(#path-1-outside-1_567_894)"/>
</svg>
