<svg width="42" height="61" viewBox="0 0 42 61" fill="none" xmlns="http://www.w3.org/2000/svg">
<mask id="path-1-outside-1_567_894" maskUnits="userSpaceOnUse" x="2" y="0" width="38" height="53" fill="black">
<rect fill="white" x="2" width="38" height="53"/>
<path d="M21.1583 49.936C19.8783 49.936 18.5556 49.872 17.1903 49.744C15.8676 49.616 14.5663 49.36 13.2863 48.976C12.0489 48.5493 10.8756 47.9733 9.76625 47.248C8.69958 46.5227 7.80358 45.584 7.07825 44.432C6.26758 43.1947 5.69158 41.872 5.35025 40.464C5.05158 39.0133 4.94492 37.5413 5.03025 36.048C5.24358 33.744 6.01158 31.7813 7.33425 30.16C8.69958 28.5387 10.4063 27.3013 12.4543 26.448C12.2836 26.448 12.0063 26.3413 11.6223 26.128C11.2809 25.9147 10.9183 25.6587 10.5343 25.36C10.1503 25.0613 9.78758 24.784 9.44625 24.528C9.14758 24.2293 8.93425 24.0373 8.80625 23.952C8.29425 23.3973 7.86758 22.7573 7.52625 22.032C7.22758 21.3067 6.97158 20.5813 6.75825 19.856C6.20358 17.936 6.13958 15.9307 6.56625 13.84C6.99292 11.7067 7.86758 9.85067 9.19025 8.272C9.74492 7.58933 10.4489 6.992 11.3023 6.48C12.1556 5.92533 13.0729 5.47733 14.0543 5.136C15.0356 4.752 16.0169 4.45333 16.9983 4.24C18.0223 4.02666 18.9396 3.92 19.7503 3.92C20.8596 3.92 21.9476 3.89867 23.0143 3.856C24.0809 3.81333 25.1476 3.87733 26.2143 4.048C27.5369 4.26133 28.7529 4.688 29.8623 5.328C31.0143 5.968 32.0169 6.75733 32.8703 7.696C34.5769 9.57333 35.6649 11.6853 36.1343 14.032C36.6463 16.336 36.5823 18.704 35.9423 21.136C35.7289 21.8187 35.4089 22.4587 34.9823 23.056C34.5556 23.6107 34.0649 24.144 33.5103 24.656C33.3823 24.7413 33.1689 24.8907 32.8703 25.104C32.5716 25.3173 32.2303 25.552 31.8463 25.808C31.5049 26.0213 31.1636 26.2133 30.8223 26.384C30.4809 26.512 30.2249 26.5547 30.0543 26.512C31.0783 27.152 32.0596 27.792 32.9983 28.432C33.9369 29.0293 34.7049 29.8827 35.3022 30.992C35.8996 32.1013 36.3263 33.2747 36.5823 34.512C36.8809 35.7493 36.9876 36.9867 36.9023 38.224C36.8596 39.4613 36.6249 40.6773 36.1982 41.872C35.7716 43.024 35.1529 44.0693 34.3423 45.008C33.5316 45.9467 32.5929 46.736 31.5263 47.376C30.5023 47.9733 29.4143 48.464 28.2623 48.848C27.1103 49.232 25.9156 49.5093 24.6783 49.68C23.4836 49.8507 22.3103 49.936 21.1583 49.936ZM21.2863 31.248C20.3476 31.2907 19.3876 31.4187 18.4062 31.632C17.4676 31.8453 16.5929 32.1867 15.7823 32.656C15.0143 33.0827 14.3529 33.68 13.7983 34.448C13.2436 35.1733 12.9023 36.0907 12.7743 37.2C12.6889 38.0533 12.7956 38.8213 13.0943 39.504C13.4356 40.144 13.8623 40.72 14.3743 41.232C14.9289 41.7013 15.5689 42.0853 16.2943 42.384C17.0196 42.64 17.7449 42.8107 18.4703 42.896C20.1769 43.152 21.8196 43.1307 23.3983 42.832C23.9956 42.704 24.5503 42.5973 25.0623 42.512C25.6169 42.384 26.1076 42.2133 26.5343 42C27.0036 41.7867 27.4089 41.5093 27.7503 41.168C28.1343 40.784 28.4543 40.272 28.7103 39.632C29.0943 38.736 29.2436 37.7333 29.1583 36.624C29.1156 35.472 28.7743 34.5333 28.1343 33.808C27.1956 32.6987 26.1503 31.9733 24.9983 31.632C23.8889 31.2907 22.6516 31.1627 21.2863 31.248ZM21.3503 10.96C20.3689 11.0453 19.4303 11.1947 18.5343 11.408C17.6383 11.6213 16.8489 11.9627 16.1663 12.432C15.4836 12.9013 14.9503 13.52 14.5663 14.288C14.2249 15.056 14.0756 16.016 14.1183 17.168C14.1609 17.9787 14.2889 18.7467 14.5023 19.472C14.7156 20.1547 15.1209 20.7947 15.7183 21.392C16.4436 22.2453 17.3183 22.7573 18.3423 22.928C19.3663 23.056 20.3903 23.0987 21.4143 23.056C22.9929 23.056 24.3583 22.8213 25.5103 22.352C26.7049 21.8827 27.6649 20.88 28.3903 19.344C28.9449 18.1067 29.0943 16.9547 28.8383 15.888C28.5823 14.8213 28.0916 13.9253 27.3663 13.2C26.6409 12.432 25.7236 11.856 24.6143 11.472C23.5476 11.0453 22.4596 10.8747 21.3503 10.96Z"/>
</mask>
<path d="M21.1583 49.936C19.8783 49.936 18.5556 49.872 17.1903 49.744C15.8676 49.616 14.5663 49.36 13.2863 48.976C12.0489 48.5493 10.8756 47.9733 9.76625 47.248C8.69958 46.5227 7.80358 45.584 7.07825 44.432C6.26758 43.1947 5.69158 41.872 5.35025 40.464C5.05158 39.0133 4.94492 37.5413 5.03025 36.048C5.24358 33.744 6.01158 31.7813 7.33425 30.16C8.69958 28.5387 10.4063 27.3013 12.4543 26.448C12.2836 26.448 12.0063 26.3413 11.6223 26.128C11.2809 25.9147 10.9183 25.6587 10.5343 25.36C10.1503 25.0613 9.78758 24.784 9.44625 24.528C9.14758 24.2293 8.93425 24.0373 8.80625 23.952C8.29425 23.3973 7.86758 22.7573 7.52625 22.032C7.22758 21.3067 6.97158 20.5813 6.75825 19.856C6.20358 17.936 6.13958 15.9307 6.56625 13.84C6.99292 11.7067 7.86758 9.85067 9.19025 8.272C9.74492 7.58933 10.4489 6.992 11.3023 6.48C12.1556 5.92533 13.0729 5.47733 14.0543 5.136C15.0356 4.752 16.0169 4.45333 16.9983 4.24C18.0223 4.02666 18.9396 3.92 19.7503 3.92C20.8596 3.92 21.9476 3.89867 23.0143 3.856C24.0809 3.81333 25.1476 3.87733 26.2143 4.048C27.5369 4.26133 28.7529 4.688 29.8623 5.328C31.0143 5.968 32.0169 6.75733 32.8703 7.696C34.5769 9.57333 35.6649 11.6853 36.1343 14.032C36.6463 16.336 36.5823 18.704 35.9423 21.136C35.7289 21.8187 35.4089 22.4587 34.9823 23.056C34.5556 23.6107 34.0649 24.144 33.5103 24.656C33.3823 24.7413 33.1689 24.8907 32.8703 25.104C32.5716 25.3173 32.2303 25.552 31.8463 25.808C31.5049 26.0213 31.1636 26.2133 30.8223 26.384C30.4809 26.512 30.2249 26.5547 30.0543 26.512C31.0783 27.152 32.0596 27.792 32.9983 28.432C33.9369 29.0293 34.7049 29.8827 35.3022 30.992C35.8996 32.1013 36.3263 33.2747 36.5823 34.512C36.8809 35.7493 36.9876 36.9867 36.9023 38.224C36.8596 39.4613 36.6249 40.6773 36.1982 41.872C35.7716 43.024 35.1529 44.0693 34.3423 45.008C33.5316 45.9467 32.5929 46.736 31.5263 47.376C30.5023 47.9733 29.4143 48.464 28.2623 48.848C27.1103 49.232 25.9156 49.5093 24.6783 49.68C23.4836 49.8507 22.3103 49.936 21.1583 49.936ZM21.2863 31.248C20.3476 31.2907 19.3876 31.4187 18.4062 31.632C17.4676 31.8453 16.5929 32.1867 15.7823 32.656C15.0143 33.0827 14.3529 33.68 13.7983 34.448C13.2436 35.1733 12.9023 36.0907 12.7743 37.2C12.6889 38.0533 12.7956 38.8213 13.0943 39.504C13.4356 40.144 13.8623 40.72 14.3743 41.232C14.9289 41.7013 15.5689 42.0853 16.2943 42.384C17.0196 42.64 17.7449 42.8107 18.4703 42.896C20.1769 43.152 21.8196 43.1307 23.3983 42.832C23.9956 42.704 24.5503 42.5973 25.0623 42.512C25.6169 42.384 26.1076 42.2133 26.5343 42C27.0036 41.7867 27.4089 41.5093 27.7503 41.168C28.1343 40.784 28.4543 40.272 28.7103 39.632C29.0943 38.736 29.2436 37.7333 29.1583 36.624C29.1156 35.472 28.7743 34.5333 28.1343 33.808C27.1956 32.6987 26.1503 31.9733 24.9983 31.632C23.8889 31.2907 22.6516 31.1627 21.2863 31.248ZM21.3503 10.96C20.3689 11.0453 19.4303 11.1947 18.5343 11.408C17.6383 11.6213 16.8489 11.9627 16.1663 12.432C15.4836 12.9013 14.9503 13.52 14.5663 14.288C14.2249 15.056 14.0756 16.016 14.1183 17.168C14.1609 17.9787 14.2889 18.7467 14.5023 19.472C14.7156 20.1547 15.1209 20.7947 15.7183 21.392C16.4436 22.2453 17.3183 22.7573 18.3423 22.928C19.3663 23.056 20.3903 23.0987 21.4143 23.056C22.9929 23.056 24.3583 22.8213 25.5103 22.352C26.7049 21.8827 27.6649 20.88 28.3903 19.344C28.9449 18.1067 29.0943 16.9547 28.8383 15.888C28.5823 14.8213 28.0916 13.9253 27.3663 13.2C26.6409 12.432 25.7236 11.856 24.6143 11.472C23.5476 11.0453 22.4596 10.8747 21.3503 10.96Z" fill="white"/>
<path d="M17.1903 49.744L16.9013 52.7301L16.9102 52.7309L17.1903 49.744ZM13.2863 48.976L12.3083 51.8121L12.3659 51.832L12.4242 51.8495L13.2863 48.976ZM9.76625 47.248L8.07932 49.7288L8.10177 49.744L8.1245 49.7589L9.76625 47.248ZM7.07825 44.432L9.61695 42.8336L9.6025 42.8106L9.58763 42.7879L7.07825 44.432ZM5.35025 40.464L2.41188 41.069L2.4224 41.1201L2.4347 41.1708L5.35025 40.464ZM5.03025 36.048L2.04303 35.7714L2.03815 35.8241L2.03514 35.8768L5.03025 36.048ZM7.33425 30.16L5.03952 28.2276L5.02445 28.2455L5.00966 28.2636L7.33425 30.16ZM12.4543 26.448L13.6081 29.2172L12.4543 23.448V26.448ZM11.6223 26.128L10.0323 28.672L10.0978 28.7129L10.1653 28.7505L11.6223 26.128ZM10.5343 25.36L8.69243 27.7281L8.69243 27.7281L10.5343 25.36ZM9.44625 24.528L7.32493 26.6493L7.47569 26.8001L7.64625 26.928L9.44625 24.528ZM8.80625 23.952L6.60184 25.9868L6.8445 26.2497L7.14217 26.4482L8.80625 23.952ZM7.52625 22.032L4.75222 23.1742L4.78034 23.2426L4.81179 23.3094L7.52625 22.032ZM6.75825 19.856L3.87611 20.6886L3.87811 20.6956L3.88015 20.7025L6.75825 19.856ZM6.56625 13.84L9.50569 14.4399L9.50799 14.4283L6.56625 13.84ZM9.19025 8.272L11.4898 10.1987L11.5043 10.1813L11.5186 10.1638L9.19025 8.272ZM11.3023 6.48L12.8457 9.05248L12.892 9.02473L12.9372 8.99533L11.3023 6.48ZM14.0543 5.136L15.0398 7.96949L15.094 7.95064L15.1474 7.92973L14.0543 5.136ZM16.9983 4.24L16.3864 1.30306L16.3737 1.30571L16.361 1.30847L16.9983 4.24ZM23.0143 3.856L23.1342 6.8536L23.1342 6.8536L23.0143 3.856ZM26.2143 4.048L26.6919 1.08627L26.6882 1.08567L26.2143 4.048ZM29.8623 5.328L28.3631 7.92655L28.3841 7.93868L28.4053 7.95047L29.8623 5.328ZM32.8703 7.696L30.6504 9.71402L30.6504 9.71402L32.8703 7.696ZM36.1343 14.032L33.1925 14.6203L33.1988 14.6516L33.2057 14.6828L36.1343 14.032ZM35.9423 21.136L38.8057 22.0308L38.8261 21.9656L38.8435 21.8995L35.9423 21.136ZM34.9823 23.056L37.3601 24.8851L37.3925 24.843L37.4234 24.7997L34.9823 23.056ZM33.5103 24.656L35.1743 27.1522L35.3712 27.0209L35.5451 26.8604L33.5103 24.656ZM32.8703 25.104L31.1265 22.6628L31.1265 22.6628L32.8703 25.104ZM31.8463 25.808L33.4362 28.352L33.4736 28.3286L33.5103 28.3042L31.8463 25.808ZM30.8223 26.384L31.8756 29.193L32.0231 29.1377L32.1639 29.0673L30.8223 26.384ZM30.0543 26.512L30.7818 23.6016L28.4643 29.056L30.0543 26.512ZM32.9983 28.432L31.3082 30.9107L31.3475 30.9375L31.3876 30.963L32.9983 28.432ZM36.5823 34.512L33.6445 35.1198L33.6544 35.168L33.666 35.2159L36.5823 34.512ZM36.9023 38.224L33.9094 38.0176L33.9058 38.0691L33.904 38.1206L36.9023 38.224ZM36.1982 41.872L39.0115 42.9139L39.0176 42.8975L39.0235 42.881L36.1982 41.872ZM34.3423 45.008L32.0718 43.0471L34.3423 45.008ZM31.5263 47.376L33.0379 49.9673L33.0539 49.958L33.0697 49.9485L31.5263 47.376ZM28.2623 48.848L27.3136 46.0019L27.3136 46.0019L28.2623 48.848ZM24.6783 49.68L24.2683 46.7081L24.2612 46.7091L24.254 46.7102L24.6783 49.68ZM21.2863 31.248L21.4225 34.2449L21.4479 34.2437L21.4734 34.2422L21.2863 31.248ZM18.4062 31.632L17.769 28.7005L17.7552 28.7035L17.7414 28.7066L18.4062 31.632ZM15.7823 32.656L17.2392 35.2785L17.2624 35.2656L17.2854 35.2523L15.7823 32.656ZM13.7983 34.448L16.1813 36.2703L16.2063 36.2377L16.2303 36.2045L13.7983 34.448ZM12.7743 37.2L9.79402 36.8561L9.79141 36.8788L9.78914 36.9015L12.7743 37.2ZM13.0943 39.504L10.3458 40.7065L10.3924 40.8131L10.4472 40.9158L13.0943 39.504ZM14.3743 41.232L12.2529 43.3533L12.3412 43.4416L12.4364 43.5222L14.3743 41.232ZM16.2943 42.384L15.152 45.158L15.2232 45.1873L15.2958 45.213L16.2943 42.384ZM18.4703 42.896L18.9153 39.9292L18.8681 39.9221L18.8208 39.9165L18.4703 42.896ZM23.3983 42.832L23.9559 45.7797L23.9915 45.773L24.0268 45.7654L23.3983 42.832ZM25.0623 42.512L25.5554 45.4712L25.6467 45.456L25.7368 45.4352L25.0623 42.512ZM26.5343 42L25.2928 39.2689L25.2423 39.2919L25.1926 39.3167L26.5343 42ZM27.7503 41.168L29.8716 43.2893L29.8716 43.2893L27.7503 41.168ZM28.7103 39.632L25.9528 38.4502L25.9384 38.4839L25.9248 38.5178L28.7103 39.632ZM29.1583 36.624L26.1603 36.735L26.1625 36.7946L26.1671 36.8541L29.1583 36.624ZM28.1343 33.808L25.8441 35.7458L25.8642 35.7696L25.8847 35.7929L28.1343 33.808ZM24.9983 31.632L24.116 34.4993L24.131 34.5039L24.146 34.5084L24.9983 31.632ZM21.3503 10.96L21.1202 7.96884L21.1053 7.96998L21.0904 7.97128L21.3503 10.96ZM16.1663 12.432L17.8658 14.9041L17.8658 14.9041L16.1663 12.432ZM14.5663 14.288L11.883 12.9464L11.8525 13.0073L11.8248 13.0696L14.5663 14.288ZM14.1183 17.168L11.1203 17.279L11.1212 17.3024L11.1224 17.3257L14.1183 17.168ZM14.5023 19.472L11.6242 20.3185L11.6313 20.3427L11.6388 20.3668L14.5023 19.472ZM15.7183 21.392L18.0041 19.4491L17.9254 19.3565L17.8396 19.2707L15.7183 21.392ZM18.3423 22.928L17.8491 25.8872L17.9094 25.8972L17.9701 25.9048L18.3423 22.928ZM21.4143 23.056V20.056H21.3518L21.2894 20.0586L21.4143 23.056ZM25.5103 22.352L24.4133 19.5597L24.3958 19.5666L24.3784 19.5737L25.5103 22.352ZM28.3903 19.344L31.103 20.625L31.1157 20.5982L31.1278 20.5712L28.3903 19.344ZM28.8383 15.888L31.7554 15.1879L31.7554 15.1879L28.8383 15.888ZM27.3663 13.2L25.1852 15.2599L25.2146 15.291L25.2449 15.3213L27.3663 13.2ZM24.6143 11.472L23.5001 14.2574L23.5659 14.2838L23.6329 14.307L24.6143 11.472ZM21.1583 46.936C19.9781 46.936 18.7491 46.877 17.4703 46.7571L16.9102 52.7309C18.3621 52.867 19.7784 52.936 21.1583 52.936V46.936ZM17.4792 46.7579C16.3519 46.6489 15.2424 46.4308 14.1483 46.1025L12.4242 51.8495C13.8901 52.2892 15.3833 52.5831 16.9013 52.7301L17.4792 46.7579ZM14.2642 46.1399C13.2637 45.7949 12.313 45.3288 11.408 44.7371L8.1245 49.7589C9.4382 50.6179 10.8342 51.3038 12.3083 51.8121L14.2642 46.1399ZM11.4532 44.7672C10.7469 44.287 10.1346 43.6556 9.61695 42.8336L4.53955 46.0304C5.47261 47.5124 6.65225 48.7584 8.07932 49.7288L11.4532 44.7672ZM9.58763 42.7879C8.96092 41.8314 8.52461 40.8248 8.2658 39.7572L2.4347 41.1708C2.85856 42.9192 3.57424 44.558 4.56887 46.0761L9.58763 42.7879ZM8.28862 39.859C8.04301 38.6661 7.95474 37.455 8.02536 36.2191L2.03514 35.8768C1.93509 37.6276 2.06016 39.3606 2.41188 41.069L8.28862 39.859ZM8.01747 36.3246C8.18188 34.549 8.75262 33.1672 9.65885 32.0564L5.00966 28.2636C3.27055 30.3954 2.30528 32.939 2.04303 35.7714L8.01747 36.3246ZM9.62898 32.0924C10.6717 30.8542 11.9804 29.8954 13.6081 29.2172L11.3004 23.6788C8.83211 24.7072 6.72751 26.2231 5.03952 28.2276L9.62898 32.0924ZM12.4543 23.448C12.7106 23.448 12.9029 23.4862 13.0011 23.5096C13.1059 23.5345 13.1736 23.5597 13.1952 23.568C13.2329 23.5825 13.2008 23.5731 13.0792 23.5055L10.1653 28.7505C10.4277 28.8962 10.7263 29.0469 11.0413 29.168C11.3076 29.2704 11.8243 29.448 12.4543 29.448V23.448ZM13.2122 23.584C12.9735 23.4348 12.6952 23.2402 12.3761 22.9919L8.69243 27.7281C9.14128 28.0772 9.58836 28.3946 10.0323 28.672L13.2122 23.584ZM12.3761 22.9919C11.9801 22.684 11.6034 22.3959 11.2463 22.128L7.64625 26.928C7.97177 27.1721 8.3204 27.4387 8.69243 27.7281L12.3761 22.9919ZM11.5676 22.4067C11.2908 22.1299 10.881 21.7296 10.4703 21.4558L7.14217 26.4482C7.07034 26.4003 7.02881 26.3662 7.02648 26.3643C7.02025 26.3593 7.02896 26.3661 7.05536 26.3899C7.10944 26.4386 7.19723 26.5216 7.32493 26.6493L11.5676 22.4067ZM11.0107 21.9172C10.7188 21.601 10.4598 21.2201 10.2407 20.7546L4.81179 23.3094C5.2754 24.2946 5.86965 25.1936 6.60184 25.9868L11.0107 21.9172ZM10.3003 20.8898C10.04 20.2575 9.81909 19.6308 9.63635 19.0095L3.88015 20.7025C4.12407 21.5318 4.41521 22.3558 4.75222 23.1742L10.3003 20.8898ZM9.64039 19.0234C9.22936 17.6006 9.16922 16.0885 9.50566 14.4399L3.62684 13.2401C3.10995 15.7729 3.1778 18.2714 3.87611 20.6886L9.64039 19.0234ZM9.50799 14.4283C9.84183 12.7592 10.5082 11.3702 11.4898 10.1987L6.89069 6.34534C5.22693 8.33111 4.144 10.6542 3.62451 13.2517L9.50799 14.4283ZM11.5186 10.1638C11.8263 9.78503 12.2527 9.40829 12.8457 9.05248L9.75877 3.90752C8.64512 4.57571 7.66351 5.39363 6.86191 6.38022L11.5186 10.1638ZM12.9372 8.99533C13.5835 8.57525 14.2822 8.23301 15.0398 7.96949L13.0687 2.30251C11.8636 2.72165 10.7277 3.27541 9.66728 3.96467L12.9372 8.99533ZM15.1474 7.92973C15.988 7.60083 16.817 7.34947 17.6355 7.17153L16.361 1.30847C15.2168 1.55719 14.0832 1.90316 12.9611 2.34227L15.1474 7.92973ZM17.6101 7.17694C18.4875 6.99414 19.1944 6.92 19.7503 6.92V0.919998C18.6848 0.919998 17.557 1.05919 16.3864 1.30306L17.6101 7.17694ZM19.7503 6.92C20.898 6.92 22.026 6.89793 23.1342 6.8536L22.8943 0.858396C21.8692 0.899403 20.8212 0.919998 19.7503 0.919998V6.92ZM23.1342 6.8536C23.9998 6.81897 24.8676 6.87068 25.7403 7.01032L26.6882 1.08567C25.4276 0.883975 24.162 0.807687 22.8943 0.858396L23.1342 6.8536ZM25.7366 7.00972C26.7163 7.16774 27.5838 7.47695 28.3631 7.92655L31.3614 2.72944C29.9221 1.89904 28.3575 1.35491 26.6919 1.08627L25.7366 7.00972ZM28.4053 7.95047C29.283 8.43808 30.0253 9.02632 30.6504 9.71402L35.0901 5.67798C34.0086 4.48834 32.7455 3.49792 31.3192 2.70553L28.4053 7.95047ZM30.6504 9.71402C32.0143 11.2142 32.8363 12.8393 33.1925 14.6203L39.076 13.4437C38.4935 10.5314 37.1396 7.93243 35.0901 5.67798L30.6504 9.71402ZM33.2057 14.6828C33.6072 16.4895 33.5675 18.3719 33.041 20.3725L38.8435 21.8995C39.597 19.0361 39.6853 16.1825 39.0628 13.3812L33.2057 14.6828ZM33.0788 20.2412C32.9628 20.6123 32.7878 20.9668 32.5411 21.3123L37.4234 24.7997C38.03 23.9505 38.495 23.025 38.8057 22.0308L33.0788 20.2412ZM32.6044 21.2269C32.289 21.6369 31.915 22.0458 31.4754 22.4516L35.5451 26.8604C36.2148 26.2422 36.8222 25.5844 37.3601 24.8851L32.6044 21.2269ZM31.8462 22.1598C31.6738 22.2747 31.4256 22.4492 31.1265 22.6628L34.614 27.5452C34.9123 27.3321 35.0907 27.2079 35.1743 27.1522L31.8462 22.1598ZM31.1265 22.6628C30.8598 22.8534 30.5458 23.0694 30.1822 23.3118L33.5103 28.3042C33.9147 28.0346 34.2834 27.7813 34.614 27.5452L31.1265 22.6628ZM30.2563 23.264C29.9911 23.4297 29.7325 23.5748 29.4806 23.7007L32.1639 29.0673C32.5946 28.8519 33.0187 28.6129 33.4362 28.352L30.2563 23.264ZM29.7689 23.575C29.713 23.596 29.7586 23.5732 29.8811 23.5528C29.9828 23.5359 30.3249 23.4873 30.7818 23.6016L29.3267 29.4224C30.4502 29.7033 31.4622 29.348 31.8756 29.193L29.7689 23.575ZM28.4643 29.056C29.4566 29.6762 30.4045 30.2945 31.3082 30.9107L34.6883 25.9533C33.7147 25.2895 32.6999 24.6278 31.6442 23.968L28.4643 29.056ZM31.3876 30.963C31.8389 31.2501 32.274 31.6958 32.6608 32.4143L37.9437 29.5697C37.1359 28.0695 36.035 26.8085 34.6089 25.901L31.3876 30.963ZM32.6608 32.4143C33.1201 33.2672 33.4471 34.1661 33.6445 35.1198L39.52 33.9042C39.2054 32.3833 38.6791 30.9355 37.9437 29.5697L32.6608 32.4143ZM33.666 35.2159C33.8947 36.1634 33.9731 37.0939 33.9094 38.0176L39.8951 38.4304C40.0021 36.8795 39.8671 35.3353 39.4985 33.8081L33.666 35.2159ZM33.904 38.1206C33.8723 39.0414 33.6983 39.9522 33.373 40.863L39.0235 42.881C39.5515 41.4024 39.8469 39.8813 39.9005 38.3274L33.904 38.1206ZM33.385 40.8301C33.0841 41.6425 32.6504 42.3772 32.0718 43.0471L36.6127 46.9689C37.6555 45.7615 38.4591 44.4055 39.0115 42.9139L33.385 40.8301ZM32.0718 43.0471C31.47 43.7439 30.777 44.327 29.9828 44.8035L33.0697 49.9485C34.4089 49.145 35.5931 48.1494 36.6127 46.9689L32.0718 43.0471ZM30.0146 44.7847C29.1733 45.2754 28.2744 45.6817 27.3136 46.0019L29.2109 51.694C30.5541 51.2463 31.8312 50.6712 33.0379 49.9673L30.0146 44.7847ZM27.3136 46.0019C26.3418 46.3259 25.3278 46.562 24.2683 46.7081L25.0882 52.6519C26.5033 52.4567 27.8787 52.1381 29.2109 51.694L27.3136 46.0019ZM24.254 46.7102C23.1932 46.8617 22.1618 46.936 21.1583 46.936V52.936C22.4588 52.936 23.7739 52.8396 25.1025 52.6498L24.254 46.7102ZM21.15 28.2511C20.0317 28.3019 18.904 28.4537 17.769 28.7005L19.0435 34.5635C19.8712 34.3836 20.6634 34.2794 21.4225 34.2449L21.15 28.2511ZM17.7414 28.7066C16.5166 28.985 15.3583 29.435 14.2791 30.0597L17.2854 35.2523C17.8276 34.9384 18.4186 34.7057 19.0711 34.5574L17.7414 28.7066ZM14.3253 30.0335C13.1432 30.6902 12.158 31.5952 11.3662 32.6915L16.2303 36.2045C16.5479 35.7648 16.8853 35.4751 17.2392 35.2785L14.3253 30.0335ZM11.4152 32.6256C10.4656 33.8674 9.97026 35.3288 9.79402 36.8561L15.7545 37.5439C15.8342 36.8526 16.0216 36.4792 16.1813 36.2703L11.4152 32.6256ZM9.78914 36.9015C9.66039 38.189 9.81137 39.4849 10.3458 40.7065L15.8427 38.3015C15.7798 38.1577 15.7174 37.9177 15.7594 37.4985L9.78914 36.9015ZM10.4472 40.9158C10.9276 41.8165 11.5313 42.6317 12.2529 43.3533L16.4956 39.1107C16.1932 38.8083 15.9436 38.4715 15.7413 38.0922L10.4472 40.9158ZM12.4364 43.5222C13.2477 44.2086 14.1608 44.7499 15.152 45.158L17.4365 39.61C16.977 39.4208 16.6101 39.194 16.3121 38.9418L12.4364 43.5222ZM15.2958 45.213C16.2197 45.5391 17.1621 45.7628 18.1197 45.8755L18.8208 39.9165C18.3277 39.8585 17.8194 39.7409 17.2927 39.555L15.2958 45.213ZM18.0252 45.8628C20.0401 46.165 22.0227 46.1454 23.9559 45.7797L22.8406 39.8843C21.6164 40.1159 20.3137 40.139 18.9153 39.9292L18.0252 45.8628ZM24.0268 45.7654C24.5868 45.6454 25.0958 45.5478 25.5554 45.4712L24.5691 39.5528C24.0047 39.6469 23.4043 39.7626 22.7697 39.8986L24.0268 45.7654ZM25.7368 45.4352C26.4796 45.2638 27.201 45.0207 27.8759 44.6833L25.1926 39.3167C25.0142 39.4059 24.7543 39.5042 24.3877 39.5888L25.7368 45.4352ZM27.7757 44.7311C28.5501 44.3791 29.259 43.9019 29.8716 43.2893L25.6289 39.0467C25.5588 39.1168 25.4571 39.1942 25.2928 39.2689L27.7757 44.7311ZM29.8716 43.2893C30.609 42.5519 31.1279 41.6656 31.4957 40.7462L25.9248 38.5178C25.7806 38.8784 25.6595 39.0161 25.6289 39.0467L29.8716 43.2893ZM31.4677 40.8138C32.0678 39.4135 32.2666 37.9171 32.1494 36.3939L26.1671 36.8541C26.2206 37.5496 26.1207 38.0585 25.9528 38.4502L31.4677 40.8138ZM32.1562 36.513C32.093 34.807 31.566 33.163 30.3838 31.8231L25.8847 35.7929C25.9825 35.9036 26.1382 36.137 26.1603 36.735L32.1562 36.513ZM30.4244 31.8702C29.1881 30.409 27.6709 29.295 25.8505 28.7556L24.146 34.5084C24.6296 34.6517 25.2031 34.9883 25.8441 35.7458L30.4244 31.8702ZM25.8805 28.7647C24.3695 28.2997 22.7625 28.1499 21.0991 28.2538L21.4734 34.2422C22.5407 34.1754 23.4083 34.2816 24.116 34.4993L25.8805 28.7647ZM21.0904 7.97128C19.9726 8.06848 18.8879 8.23992 17.8394 8.48958L19.2291 14.3264C19.9726 14.1494 20.7653 14.0222 21.6101 13.9487L21.0904 7.97128ZM17.8394 8.48958C16.6239 8.77897 15.4861 9.25902 14.4667 9.95988L17.8658 14.9041C18.2117 14.6663 18.6526 14.4637 19.2291 14.3264L17.8394 8.48958ZM14.4667 9.95987C13.3502 10.7275 12.4853 11.7416 11.883 12.9464L17.2495 15.6296C17.4152 15.2984 17.617 15.0752 17.8658 14.9041L14.4667 9.95987ZM11.8248 13.0696C11.242 14.3808 11.0667 15.8306 11.1203 17.279L17.1162 17.057C17.0845 16.2014 17.2078 15.7312 17.3077 15.5064L11.8248 13.0696ZM11.1224 17.3257C11.1765 18.3527 11.3402 19.3531 11.6242 20.3185L17.3803 18.6255C17.2376 18.1402 17.1454 17.6046 17.1141 17.0103L11.1224 17.3257ZM11.6388 20.3668C12.0208 21.5893 12.7187 22.6351 13.5969 23.5133L17.8396 19.2707C17.5231 18.9542 17.4103 18.7201 17.3657 18.5772L11.6388 20.3668ZM13.4324 23.3349C14.5776 24.6822 16.0691 25.5905 17.8491 25.8872L18.8354 19.9688C18.5674 19.9241 18.3096 19.8085 18.0041 19.4491L13.4324 23.3349ZM17.9701 25.9048C19.1578 26.0533 20.348 26.103 21.5391 26.0534L21.2894 20.0586C20.4325 20.0943 19.5747 20.0587 18.7144 19.9512L17.9701 25.9048ZM21.4143 26.056C23.2807 26.056 25.0483 25.7796 26.6421 25.1303L24.3784 19.5737C23.6682 19.863 22.7051 20.056 21.4143 20.056V26.056ZM26.6072 25.1443C28.7188 24.3147 30.1596 22.6228 31.103 20.625L25.6775 18.063C25.1702 19.1372 24.691 19.4506 24.4133 19.5597L26.6072 25.1443ZM31.1278 20.5712C31.8882 18.8749 32.1997 17.0392 31.7554 15.1879L25.9211 16.5881C25.9888 16.8702 26.0017 17.3384 25.6527 18.1168L31.1278 20.5712ZM31.7554 15.1879C31.3796 13.622 30.6315 12.2226 29.4876 11.0787L25.2449 15.3213C25.5517 15.628 25.7849 16.0207 25.9211 16.5881L31.7554 15.1879ZM29.5473 11.1401C28.4547 9.98329 27.1098 9.16119 25.5956 8.63704L23.6329 14.307C24.3374 14.5508 24.8271 14.8807 25.1852 15.2599L29.5473 11.1401ZM25.7284 8.68657C24.2497 8.09506 22.7026 7.84711 21.1202 7.96884L21.5803 13.9512C22.2166 13.9022 22.8455 13.9956 23.5001 14.2574L25.7284 8.68657Z" fill="#1EE5B0" mask="url(#path-1-outside-1_567_894)"/>
</svg>
