<svg width="42" height="61" viewBox="0 0 42 61" fill="none" xmlns="http://www.w3.org/2000/svg">
<mask id="path-1-outside-1_567_894" maskUnits="userSpaceOnUse" x="0" y="1" width="42" height="53" fill="black">
<rect fill="white" y="1" width="42" height="53"/>
<path d="M31.1068 14.288C30.7228 14.032 30.3174 13.776 29.8908 13.52C29.4641 13.2213 29.0161 12.9867 28.5468 12.816C27.0534 12.2187 25.4108 11.8987 23.6188 11.856C21.8694 11.7707 20.2268 12.0907 18.6908 12.816C17.4534 13.4133 16.4081 14.16 15.5548 15.056C14.7441 15.952 14.0828 16.9547 13.5708 18.064C13.0588 19.1733 12.6748 20.3467 12.4188 21.584C12.1628 22.8213 12.0134 24.0587 11.9708 25.296C13.1228 24.144 14.5308 23.12 16.1948 22.224C17.8588 21.2853 19.9921 20.816 22.5948 20.816C24.7708 20.816 26.7974 21.136 28.6748 21.776C30.5948 22.3733 32.2588 23.2693 33.6668 24.464C35.0748 25.6587 36.1841 27.1307 36.9948 28.88C37.8054 30.6293 38.2108 32.6347 38.2108 34.896C38.2108 37.1573 37.7841 39.2267 36.9308 41.104C36.0774 42.9387 34.9041 44.5387 33.4108 45.904C31.9601 47.2267 30.2108 48.272 28.1628 49.04C26.1574 49.7653 23.9814 50.128 21.6348 50.128C18.9041 50.128 16.5148 49.7227 14.4668 48.912C12.4614 48.0587 10.7121 46.9067 9.21875 45.456C8.36542 44.6027 7.59742 43.664 6.91475 42.64C6.27475 41.5733 5.72008 40.3787 5.25075 39.056C4.78142 37.6907 4.41875 36.1333 4.16275 34.384C3.90675 32.6347 3.77875 30.6293 3.77875 28.368C3.77875 26.4907 3.90675 24.592 4.16275 22.672C4.41875 20.752 4.84542 18.896 5.44275 17.104C6.08275 15.312 6.91475 13.6267 7.93875 12.048C8.96275 10.4693 10.2428 9.06133 11.7788 7.824C13.2294 6.672 14.8081 5.776 16.5148 5.136C18.2214 4.496 19.9708 4.13333 21.7628 4.048C23.5548 3.96266 25.3468 4.13333 27.1388 4.56C28.9308 4.98666 30.6161 5.69066 32.1948 6.672C32.6214 6.928 33.1121 7.312 33.6668 7.824C34.2214 8.29333 34.6908 8.82667 35.0748 9.424C35.4588 10.0213 35.6934 10.704 35.7788 11.472C35.8641 12.1973 35.6508 12.944 35.1388 13.712C35.0534 13.8827 34.8614 14.0533 34.5628 14.224C34.2641 14.3947 33.9227 14.5227 33.5387 14.608C33.1548 14.6933 32.7494 14.7147 32.3228 14.672C31.8961 14.6293 31.4908 14.5013 31.1068 14.288ZM21.1868 28.496C19.7361 28.5813 18.3708 28.9653 17.0908 29.648C15.8108 30.288 14.7014 31.1627 13.7628 32.272C13.1654 32.9973 12.8241 33.8293 12.7388 34.768C12.6534 35.664 12.7174 36.56 12.9308 37.456C13.1014 38.5227 13.5281 39.4613 14.2108 40.272C14.8934 41.04 15.6828 41.68 16.5788 42.192C17.5174 42.6613 18.5201 43.0027 19.5868 43.216C20.6961 43.3867 21.7628 43.408 22.7868 43.28C23.9388 43.152 24.9841 42.8533 25.9228 42.384C26.9041 41.872 27.7361 41.2533 28.4188 40.528C29.1014 39.76 29.6134 38.8853 29.9548 37.904C30.3388 36.88 30.4668 35.792 30.3388 34.64C30.2108 33.4027 29.8908 32.3787 29.3788 31.568C28.8668 30.7147 28.2054 30.0533 27.3948 29.584C26.5841 29.1147 25.6454 28.816 24.5788 28.688C23.5121 28.5173 22.3814 28.4533 21.1868 28.496Z"/>
</mask>
<path d="M31.1068 14.288C30.7228 14.032 30.3174 13.776 29.8908 13.52C29.4641 13.2213 29.0161 12.9867 28.5468 12.816C27.0534 12.2187 25.4108 11.8987 23.6188 11.856C21.8694 11.7707 20.2268 12.0907 18.6908 12.816C17.4534 13.4133 16.4081 14.16 15.5548 15.056C14.7441 15.952 14.0828 16.9547 13.5708 18.064C13.0588 19.1733 12.6748 20.3467 12.4188 21.584C12.1628 22.8213 12.0134 24.0587 11.9708 25.296C13.1228 24.144 14.5308 23.12 16.1948 22.224C17.8588 21.2853 19.9921 20.816 22.5948 20.816C24.7708 20.816 26.7974 21.136 28.6748 21.776C30.5948 22.3733 32.2588 23.2693 33.6668 24.464C35.0748 25.6587 36.1841 27.1307 36.9948 28.88C37.8054 30.6293 38.2108 32.6347 38.2108 34.896C38.2108 37.1573 37.7841 39.2267 36.9308 41.104C36.0774 42.9387 34.9041 44.5387 33.4108 45.904C31.9601 47.2267 30.2108 48.272 28.1628 49.04C26.1574 49.7653 23.9814 50.128 21.6348 50.128C18.9041 50.128 16.5148 49.7227 14.4668 48.912C12.4614 48.0587 10.7121 46.9067 9.21875 45.456C8.36542 44.6027 7.59742 43.664 6.91475 42.64C6.27475 41.5733 5.72008 40.3787 5.25075 39.056C4.78142 37.6907 4.41875 36.1333 4.16275 34.384C3.90675 32.6347 3.77875 30.6293 3.77875 28.368C3.77875 26.4907 3.90675 24.592 4.16275 22.672C4.41875 20.752 4.84542 18.896 5.44275 17.104C6.08275 15.312 6.91475 13.6267 7.93875 12.048C8.96275 10.4693 10.2428 9.06133 11.7788 7.824C13.2294 6.672 14.8081 5.776 16.5148 5.136C18.2214 4.496 19.9708 4.13333 21.7628 4.048C23.5548 3.96266 25.3468 4.13333 27.1388 4.56C28.9308 4.98666 30.6161 5.69066 32.1948 6.672C32.6214 6.928 33.1121 7.312 33.6668 7.824C34.2214 8.29333 34.6908 8.82667 35.0748 9.424C35.4588 10.0213 35.6934 10.704 35.7788 11.472C35.8641 12.1973 35.6508 12.944 35.1388 13.712C35.0534 13.8827 34.8614 14.0533 34.5628 14.224C34.2641 14.3947 33.9227 14.5227 33.5387 14.608C33.1548 14.6933 32.7494 14.7147 32.3228 14.672C31.8961 14.6293 31.4908 14.5013 31.1068 14.288ZM21.1868 28.496C19.7361 28.5813 18.3708 28.9653 17.0908 29.648C15.8108 30.288 14.7014 31.1627 13.7628 32.272C13.1654 32.9973 12.8241 33.8293 12.7388 34.768C12.6534 35.664 12.7174 36.56 12.9308 37.456C13.1014 38.5227 13.5281 39.4613 14.2108 40.272C14.8934 41.04 15.6828 41.68 16.5788 42.192C17.5174 42.6613 18.5201 43.0027 19.5868 43.216C20.6961 43.3867 21.7628 43.408 22.7868 43.28C23.9388 43.152 24.9841 42.8533 25.9228 42.384C26.9041 41.872 27.7361 41.2533 28.4188 40.528C29.1014 39.76 29.6134 38.8853 29.9548 37.904C30.3388 36.88 30.4668 35.792 30.3388 34.64C30.2108 33.4027 29.8908 32.3787 29.3788 31.568C28.8668 30.7147 28.2054 30.0533 27.3948 29.584C26.5841 29.1147 25.6454 28.816 24.5788 28.688C23.5121 28.5173 22.3814 28.4533 21.1868 28.496Z" fill="white"/>
<path d="M31.1068 14.288L29.4426 16.7841L29.5437 16.8515L29.6498 16.9105L31.1068 14.288ZM29.8908 13.52L28.1704 15.9777L28.2568 16.0382L28.3473 16.0925L29.8908 13.52ZM28.5468 12.816L27.4326 15.6014L27.4768 15.6191L27.5215 15.6354L28.5468 12.816ZM23.6188 11.856L23.4726 14.8524L23.5099 14.8543L23.5473 14.8551L23.6188 11.856ZM18.6908 12.816L17.4097 10.1033L17.3981 10.1087L17.3865 10.1143L18.6908 12.816ZM15.5548 15.056L13.3823 12.987L13.3559 13.0148L13.3301 13.0433L15.5548 15.056ZM13.5708 18.064L10.8469 16.8068L10.8469 16.8068L13.5708 18.064ZM12.4188 21.584L9.48097 20.9762L9.48097 20.9762L12.4188 21.584ZM11.9708 25.296L8.97253 25.1926L8.71024 32.7992L14.0921 27.4173L11.9708 25.296ZM16.1948 22.224L17.6171 24.8654L17.643 24.8514L17.6687 24.8369L16.1948 22.224ZM28.6748 21.776L27.7067 24.6155L27.745 24.6286L27.7836 24.6406L28.6748 21.776ZM33.6668 24.464L35.6077 22.1765L35.6077 22.1765L33.6668 24.464ZM36.9308 41.104L39.6509 42.3692L39.6564 42.3573L39.6619 42.3454L36.9308 41.104ZM33.4108 45.904L35.432 48.1209L35.4351 48.1181L33.4108 45.904ZM28.1628 49.04L29.1832 51.8611L29.1997 51.8552L29.2161 51.849L28.1628 49.04ZM14.4668 48.912L13.2921 51.6725L13.3272 51.6874L13.3626 51.7014L14.4668 48.912ZM9.21875 45.456L7.09743 47.5773L7.1128 47.5927L7.12839 47.6078L9.21875 45.456ZM6.91475 42.64L4.34227 44.1835L4.379 44.2447L4.4186 44.3041L6.91475 42.64ZM5.25075 39.056L2.41369 40.0312L2.41851 40.0453L2.42347 40.0592L5.25075 39.056ZM4.16275 34.384L7.13113 33.9496L7.13113 33.9496L4.16275 34.384ZM4.16275 22.672L7.13643 23.0685L7.13643 23.0685L4.16275 22.672ZM5.44275 17.104L2.61752 16.095L2.60679 16.125L2.5967 16.1553L5.44275 17.104ZM11.7788 7.824L9.9131 5.47467L9.90491 5.48117L9.89676 5.48774L11.7788 7.824ZM16.5148 5.136L15.4614 2.32701L15.4614 2.32701L16.5148 5.136ZM21.7628 4.048L21.6201 1.05139L21.6201 1.05139L21.7628 4.048ZM27.1388 4.56L27.8336 1.64158L27.8336 1.64158L27.1388 4.56ZM32.1948 6.672L30.6109 9.21985L30.631 9.23232L30.6513 9.24447L32.1948 6.672ZM33.6668 7.824L31.6319 10.0284L31.6795 10.0723L31.7289 10.1142L33.6668 7.824ZM35.7788 11.472L32.7971 11.8033L32.7982 11.8129L32.7993 11.8225L35.7788 11.472ZM35.1388 13.712L32.6426 12.0479L32.539 12.2033L32.4555 12.3703L35.1388 13.712ZM34.5628 14.224L36.0512 16.8287L36.0512 16.8287L34.5628 14.224ZM33.5387 14.608L32.888 11.6794L32.8879 11.6794L33.5387 14.608ZM32.3228 14.672L32.6213 11.6869L32.6213 11.6869L32.3228 14.672ZM21.1868 28.496L21.0797 25.4979L21.0451 25.4991L21.0106 25.5012L21.1868 28.496ZM17.0908 29.648L18.4324 32.3313L18.4677 32.3136L18.5025 32.2951L17.0908 29.648ZM13.7628 32.272L11.4726 30.3342L11.4597 30.3494L11.447 30.3649L13.7628 32.272ZM12.7388 34.768L15.7253 35.0524L15.7264 35.0396L12.7388 34.768ZM12.9308 37.456L15.8931 36.982L15.8753 36.8708L15.8492 36.7611L12.9308 37.456ZM14.2108 40.272L11.916 42.2044L11.9419 42.2351L11.9685 42.2651L14.2108 40.272ZM16.5788 42.192L15.0903 44.7967L15.1626 44.838L15.2371 44.8753L16.5788 42.192ZM19.5868 43.216L18.9984 46.1577L19.0642 46.1709L19.1306 46.1811L19.5868 43.216ZM22.7868 43.28L22.4555 40.2983L22.435 40.3006L22.4146 40.3032L22.7868 43.28ZM25.9228 42.384L27.2644 45.0673L27.2875 45.0557L27.3104 45.0438L25.9228 42.384ZM28.4188 40.528L30.6033 42.5841L30.6326 42.553L30.661 42.5211L28.4188 40.528ZM29.9548 37.904L27.1458 36.8506L27.1331 36.8844L27.1213 36.9184L29.9548 37.904ZM30.3388 34.64L27.3547 34.9487L27.3558 34.96L27.3571 34.9713L30.3388 34.64ZM29.3788 31.568L26.8063 33.1115L26.8239 33.1409L26.8423 33.17L29.3788 31.568ZM27.3948 29.584L25.8916 32.1803L25.8916 32.1803L27.3948 29.584ZM24.5788 28.688L24.1048 31.6503L24.1629 31.6596L24.2213 31.6666L24.5788 28.688ZM32.7709 11.7918C32.3443 11.5075 31.8986 11.2261 31.4342 10.9475L28.3473 16.0925C28.7363 16.3259 29.1012 16.5565 29.4426 16.7841L32.7709 11.7918ZM31.6111 11.0623C30.9788 10.6197 30.2982 10.2607 29.572 9.99662L27.5215 15.6354C27.7339 15.7126 27.9494 15.823 28.1704 15.9777L31.6111 11.0623ZM29.6609 10.0306C27.7997 9.28607 25.799 8.90706 23.6902 8.85685L23.5473 14.8551C25.0225 14.8903 26.3072 15.1513 27.4326 15.6014L29.6609 10.0306ZM23.7649 8.85956C21.5397 8.75101 19.4051 9.16099 17.4097 10.1033L19.9718 15.5287C21.0484 15.0203 22.1992 14.7903 23.4726 14.8524L23.7649 8.85956ZM17.3865 10.1143C15.8598 10.8514 14.5106 11.8023 13.3823 12.987L17.7272 17.125C18.3055 16.5177 19.047 15.9753 19.995 15.5177L17.3865 10.1143ZM13.3301 13.0433C12.3135 14.1669 11.4847 15.4249 10.8469 16.8068L16.2946 19.3212C16.6808 18.4844 17.1747 17.7371 17.7794 17.0687L13.3301 13.0433ZM10.8469 16.8068C10.2358 18.1307 9.78171 19.5226 9.48097 20.9762L15.3565 22.1918C15.5678 21.1707 15.8817 20.2159 16.2946 19.3212L10.8469 16.8068ZM9.48097 20.9762C9.1913 22.3762 9.02117 23.7823 8.97253 25.1926L14.969 25.3994C15.0057 24.3351 15.1342 23.2664 15.3565 22.1918L9.48097 20.9762ZM14.0921 27.4173C15.0077 26.5017 16.17 25.6446 17.6171 24.8654L14.7725 19.5826C12.8915 20.5954 11.2378 21.7863 9.84943 23.1747L14.0921 27.4173ZM17.6687 24.8369C18.7491 24.2275 20.3293 23.816 22.5948 23.816V17.816C19.6548 17.816 16.9684 18.3432 14.7208 19.6111L17.6687 24.8369ZM22.5948 23.816C24.4733 23.816 26.1698 24.0916 27.7067 24.6155L29.6428 18.9365C27.425 18.1804 25.0682 17.816 22.5948 17.816V23.816ZM27.7836 24.6406C29.3529 25.1288 30.6518 25.8402 31.7258 26.7515L35.6077 22.1765C33.8657 20.6984 31.8366 19.6178 29.566 18.9114L27.7836 24.6406ZM31.7258 26.7515C32.7875 27.6523 33.6368 28.7688 34.2728 30.1414L39.7167 27.6186C38.7314 25.4925 37.362 23.665 35.6077 22.1765L31.7258 26.7515ZM34.2728 30.1414C34.8713 31.4329 35.2108 32.9956 35.2108 34.896H41.2108C41.2108 32.2737 40.7395 29.8258 39.7167 27.6186L34.2728 30.1414ZM35.2108 34.896C35.2108 36.7709 34.8593 38.4114 34.1997 39.8626L39.6619 42.3454C40.7089 40.0419 41.2108 37.5438 41.2108 34.896H35.2108ZM34.2106 39.8388C33.5243 41.3143 32.5875 42.5918 31.3864 43.6899L35.4351 48.1181C37.2207 46.4855 38.6305 44.563 39.6509 42.3692L34.2106 39.8388ZM31.3895 43.6871C30.2513 44.7249 28.8408 45.5817 27.1094 46.231L29.2161 51.849C31.5807 50.9623 33.6689 49.7284 35.432 48.1209L31.3895 43.6871ZM27.1423 46.2189C25.4954 46.8146 23.6683 47.128 21.6348 47.128V53.128C24.2945 53.128 26.8194 52.7161 29.1832 51.8611L27.1423 46.2189ZM21.6348 47.128C19.1946 47.128 17.1943 46.7652 15.5709 46.1226L13.3626 51.7014C15.8352 52.6802 18.6136 53.128 21.6348 53.128V47.128ZM15.6414 46.1515C13.9601 45.4361 12.525 44.4853 11.3091 43.3042L7.12839 47.6078C8.89915 49.328 10.9628 50.6813 13.2921 51.6725L15.6414 46.1515ZM11.3401 43.3347C10.6292 42.6238 9.98616 41.8388 9.4109 40.9759L4.4186 44.3041C5.20868 45.4892 6.10166 46.5815 7.09743 47.5773L11.3401 43.3347ZM9.48723 41.0965C8.96202 40.2212 8.48897 39.2109 8.07803 38.0528L2.42347 40.0592C2.9512 41.5465 3.58748 42.9255 4.34227 44.1835L9.48723 41.0965ZM8.08781 38.0808C7.69058 36.9252 7.36596 35.5542 7.13113 33.9496L1.19437 34.8184C1.47154 36.7124 1.87226 38.4562 2.41369 40.0312L8.08781 38.0808ZM7.13113 33.9496C6.90104 32.3773 6.77875 30.5219 6.77875 28.368H0.77875C0.77875 30.7368 0.912459 32.892 1.19437 34.8184L7.13113 33.9496ZM6.77875 28.368C6.77875 26.6274 6.8974 24.8612 7.13643 23.0685L1.18907 22.2755C0.916096 24.3228 0.77875 26.3539 0.77875 28.368H6.77875ZM7.13643 23.0685C7.36805 21.3314 7.75285 19.6605 8.2888 18.0527L2.5967 16.1553C1.93799 18.1315 1.46945 20.1726 1.18907 22.2755L7.13643 23.0685ZM8.26798 18.113C8.83061 16.5376 9.55967 15.0618 10.4556 13.6806L5.42187 10.4154C4.26983 12.1915 3.33489 14.0864 2.61752 16.095L8.26798 18.113ZM10.4556 13.6806C11.2984 12.3813 12.3603 11.2078 13.6607 10.1603L9.89676 5.48774C8.1252 6.91483 6.62708 8.55739 5.42187 10.4154L10.4556 13.6806ZM13.6444 10.1733C14.854 9.21277 16.1593 8.47328 17.5681 7.94499L15.4614 2.32701C13.4568 3.07872 11.6048 4.13123 9.9131 5.47467L13.6444 10.1733ZM17.5681 7.94499C18.9876 7.4127 20.4299 7.11487 21.9054 7.0446L21.6201 1.05139C19.5116 1.1518 17.4553 1.5793 15.4614 2.32701L17.5681 7.94499ZM21.9054 7.0446C23.4085 6.97303 24.9186 7.11526 26.4439 7.47842L27.8336 1.64158C25.7749 1.15141 23.701 0.952299 21.6201 1.05139L21.9054 7.0446ZM26.4439 7.47842C27.9187 7.82955 29.3042 8.40753 30.6109 9.21985L33.7786 4.12414C31.928 2.9738 29.9428 2.14378 27.8336 1.64158L26.4439 7.47842ZM30.6513 9.24447C30.8366 9.3557 31.1592 9.59205 31.6319 10.0284L35.7016 5.61958C35.065 5.03195 34.4062 4.5003 33.7382 4.09952L30.6513 9.24447ZM31.7289 10.1142C32.0616 10.3957 32.332 10.7052 32.5512 11.0463L37.5983 7.80173C37.0495 6.94813 36.3812 6.19099 35.6046 5.53384L31.7289 10.1142ZM32.5512 11.0463C32.6635 11.2209 32.7583 11.4539 32.7971 11.8033L38.7604 11.1407C38.6286 9.95409 38.254 8.82179 37.5983 7.80173L32.5512 11.0463ZM32.7993 11.8225C32.7927 11.7667 32.8029 11.7355 32.7982 11.7518C32.7911 11.7767 32.758 11.8748 32.6426 12.0479L37.6349 15.3761C38.435 14.176 38.9469 12.7252 38.7582 11.1215L32.7993 11.8225ZM32.4555 12.3703C32.6314 12.0184 32.8413 11.8114 32.9377 11.7258C33.039 11.6357 33.0999 11.6047 33.0743 11.6193L36.0512 16.8287C36.5058 16.569 37.3334 16.0308 37.822 15.0537L32.4555 12.3703ZM33.0743 11.6193C33.0715 11.6209 33.0195 11.6502 32.888 11.6794L34.1895 17.5366C34.826 17.3951 35.4567 17.1684 36.0512 16.8287L33.0743 11.6193ZM32.8879 11.6794C32.8421 11.6896 32.759 11.7007 32.6213 11.6869L32.0242 17.6571C32.7398 17.7287 33.4674 17.697 34.1896 17.5366L32.8879 11.6794ZM32.6213 11.6869C32.6115 11.6859 32.5992 11.6853 32.5637 11.6655L29.6498 16.9105C30.3823 17.3174 31.1807 17.5728 32.0242 17.6571L32.6213 11.6869ZM21.0106 25.5012C19.1286 25.6119 17.3416 26.1142 15.679 27.0009L18.5025 32.2951C19.3999 31.8165 20.3436 31.5508 21.3629 31.4908L21.0106 25.5012ZM15.7491 26.9647C14.1 27.7893 12.6695 28.9196 11.4726 30.3342L16.0529 34.2098C16.7333 33.4057 17.5215 32.7867 18.4324 32.3313L15.7491 26.9647ZM11.447 30.3649C10.4652 31.557 9.8908 32.9594 9.75107 34.4964L15.7264 35.0396C15.7574 34.6992 15.8657 34.4376 16.0785 34.1791L11.447 30.3649ZM9.75226 34.4836C9.63497 35.7152 9.7245 36.942 10.0123 38.1509L15.8492 36.7611C15.7103 36.178 15.6719 35.6128 15.7252 35.0524L9.75226 34.4836ZM9.96843 37.93C10.2234 39.5235 10.8755 40.9688 11.916 42.2044L16.5055 38.3396C16.1806 37.9538 15.9794 37.5219 15.8931 36.982L9.96843 37.93ZM11.9685 42.2651C12.8685 43.2776 13.9128 44.1238 15.0903 44.7967L18.0672 39.5873C17.4527 39.2362 16.9183 38.8024 16.453 38.2789L11.9685 42.2651ZM15.2371 44.8753C16.4229 45.4682 17.6799 45.894 18.9984 46.1577L20.1751 40.2743C19.3603 40.1113 18.612 39.8545 17.9204 39.5087L15.2371 44.8753ZM19.1306 46.1811C20.4903 46.3903 21.8366 46.4221 23.1589 46.2568L22.4146 40.3032C21.6889 40.3939 20.9019 40.383 20.0429 40.2509L19.1306 46.1811ZM23.118 46.2617C24.5852 46.0986 25.9778 45.7106 27.2644 45.0673L24.5811 39.7007C23.9904 39.9961 23.2923 40.2054 22.4555 40.2983L23.118 46.2617ZM27.3104 45.0438C28.5564 44.3937 29.6666 43.5794 30.6033 42.5841L26.2342 38.4719C25.8056 38.9273 25.2517 39.3503 24.5351 39.7242L27.3104 45.0438ZM30.661 42.5211C31.6078 41.4559 32.3192 40.238 32.7882 38.8896L27.1213 36.9184C26.9076 37.5327 26.595 38.0641 26.1765 38.5349L30.661 42.5211ZM32.7637 38.9574C33.3232 37.4654 33.4973 35.9006 33.3204 34.3087L27.3571 34.9713C27.4362 35.6834 27.3543 36.2946 27.1458 36.8506L32.7637 38.9574ZM33.3228 34.3313C33.1609 32.766 32.7363 31.266 31.9152 29.966L26.8423 33.17C27.0452 33.4913 27.2606 34.0393 27.3547 34.9487L33.3228 34.3313ZM31.9512 30.0245C31.1946 28.7634 30.1759 27.7276 28.8979 26.9877L25.8916 32.1803C26.2349 32.379 26.5389 32.6659 26.8063 33.1115L31.9512 30.0245ZM28.8979 26.9877C27.6872 26.2868 26.3478 25.8788 24.9362 25.7094L24.2213 31.6666C24.9431 31.7532 25.481 31.9425 25.8916 32.1803L28.8979 26.9877ZM25.0527 25.7257C23.7749 25.5212 22.4484 25.449 21.0797 25.4979L21.2938 31.4941C22.3144 31.4576 23.2493 31.5134 24.1048 31.6503L25.0527 25.7257Z" fill="#1EE5B0" mask="url(#path-1-outside-1_567_894)"/>
</svg>
