<svg width="42" height="42" viewBox="0 0 42 42" fill="none" xmlns="http://www.w3.org/2000/svg">
<path d="M31.395 27.195C31.4475 26.775 31.465 26.3375 31.465 25.8825V18.8825C31.465 13.3 28.665 10.5 23.0825 10.5H11.8825C11.4275 10.5 10.99 10.5175 10.57 10.57M31.395 27.195C30.9925 31.92 28.21 34.265 23.0825 34.265H22.3825C21.945 34.265 21.525 34.475 21.2625 34.825L19.1625 37.625C18.235 38.8675 16.73 38.8675 15.8025 37.625L13.7025 34.825C13.475 34.5275 12.9675 34.265 12.5825 34.265H11.8825C6.30001 34.265 3.5 32.8825 3.5 25.8825V18.8825C3.5 13.755 5.86251 10.9725 10.57 10.57M31.395 27.195C36.1025 26.7925 38.465 24.0275 38.465 18.8825V11.8825C38.465 6.30001 35.665 3.5 30.0825 3.5H18.8825C13.755 3.5 10.9725 5.86251 10.57 10.57M23.6171 23.1875H23.6329M17.4921 23.1875H17.5079M11.3671 23.1875H11.3829" stroke="#ffff" stroke-width="1.5" stroke-linecap="round" stroke-linejoin="round"/>
</svg>
