<svg width="30" height="30" viewBox="0 0 30 30" fill="none" xmlns="http://www.w3.org/2000/svg">
<path d="M14.9062 27.8437C8.36719 27.8437 1.3125 23.7422 1.3125 14.7422C1.3125 5.74219 8.36719 1.64062 14.9062 1.64062C18.5391 1.64062 21.8906 2.83594 24.375 5.01562C27.0703 7.40625 28.5 10.7812 28.5 14.7422C28.5 18.7031 27.0703 22.0547 24.375 24.4453C21.8906 26.625 18.5156 27.8437 14.9062 27.8437Z" fill="url(#paint0_radial_97_1432)"/>
<path d="M26.1305 6.95386C27.3797 8.96948 28.0312 11.3695 28.0312 14.039C28.0312 18 26.6016 21.3515 23.9062 23.7421C21.4219 25.9218 18.0469 27.1406 14.4375 27.1406C10.2047 27.1406 5.76562 25.4179 3.14531 21.764C5.66718 25.9031 10.4109 27.8437 14.9062 27.8437C18.5156 27.8437 21.8906 26.625 24.375 24.4453C27.0703 22.0546 28.5 18.7031 28.5 14.7421C28.5 11.7562 27.6867 9.10308 26.1305 6.95386Z" fill="#EB8F00"/>
<path d="M15 21.9866C12.3023 21.9866 10.3758 20.5804 9.79687 19.7038C9.5789 19.4202 9.53437 19.0406 9.67969 18.7148C9.78984 18.5062 10.0078 18.3773 10.2445 18.3843C10.3312 18.3843 10.418 18.3984 10.5 18.4242C11.9602 18.8648 13.4766 19.0851 15 19.0757C16.5234 19.0851 18.0422 18.8648 19.5 18.4242C19.582 18.3984 19.6687 18.3843 19.7555 18.3843C19.9922 18.3773 20.2102 18.5062 20.3203 18.7148C20.4656 19.0406 20.4211 19.4202 20.2031 19.7038C19.6242 20.5851 17.6977 21.9866 15 21.9866Z" fill="#422B0D"/>
<path d="M29.0625 10.6454C29.0625 10.6454 28.0641 10.6665 28.0641 11.4657C28.0641 13.4391 28.0875 17.6743 22.9078 17.6743C18.7688 17.6743 16.793 15.5368 16.4602 13.1766C16.3242 12.1946 15.9914 11.1258 14.9906 11.1258C13.9898 11.1258 13.6664 12.1875 13.5305 13.1766C13.1977 15.5368 11.2219 17.6743 7.08282 17.6743C1.91251 17.6743 1.92657 13.4391 1.92657 11.4657C1.92657 10.6665 0.928131 10.6454 0.928131 10.6454V8.69067C2.5336 8.47974 4.15079 8.3813 5.76797 8.39536C8.69297 8.39536 9.85782 8.39536 12.1852 8.62974C13.5609 8.76567 14.9977 8.78208 14.9977 8.78208C14.9977 8.78208 16.4273 8.76567 17.8102 8.62974C20.1375 8.39536 21.3023 8.39536 24.2273 8.39536C25.8445 8.3813 27.4594 8.48208 29.0625 8.69067V10.6454Z" fill="#422B0D"/>
<path d="M4.95 12.1875C4.92656 12.5625 4.77656 12.9093 4.40859 12.9796C4.36641 12.9867 4.32656 12.9914 4.28438 12.9914C3.95391 12.989 3.67031 12.75 3.61875 12.4218C3.47578 11.775 3.63281 11.0976 4.04531 10.5796C4.425 10.1203 4.99219 9.85543 5.5875 9.85777C5.94141 9.82496 6.25547 10.0851 6.28828 10.439C6.28828 10.4461 6.29063 10.4531 6.29063 10.4625C6.29063 10.9031 5.93906 11.0906 5.5875 11.2125C5.20313 11.3859 4.95469 11.7656 4.95 12.1875Z" fill="#896024"/>
<path d="M19.8516 12.1875C19.8305 12.5625 19.6781 12.9093 19.3125 12.9796C19.2703 12.9867 19.2281 12.9914 19.1859 12.9914C18.8531 12.9914 18.5695 12.75 18.5156 12.4218C18.3727 11.775 18.5297 11.0976 18.9422 10.5796C19.3242 10.1203 19.8891 9.85543 20.4867 9.85777C20.8406 9.82496 21.1547 10.0851 21.1875 10.439C21.1875 10.4461 21.1899 10.4531 21.1899 10.4625C21.1899 10.9031 20.8383 11.0906 20.4867 11.2125C20.1047 11.3859 19.8563 11.7656 19.8516 12.1875Z" fill="#896024"/>
<defs>
<radialGradient id="paint0_radial_97_1432" cx="0" cy="0" r="1" gradientUnits="userSpaceOnUse" gradientTransform="translate(14.9062 14.7422) scale(13.3499)">
<stop offset="0.5" stop-color="#FDE030"/>
<stop offset="0.92" stop-color="#F7C02B"/>
<stop offset="1" stop-color="#F4A223"/>
</radialGradient>
</defs>
</svg>
