<svg width="110" height="110" viewBox="0 0 110 110" fill="none" xmlns="http://www.w3.org/2000/svg">
<circle cx="55" cy="55" r="55" fill="#ECECEC"/>
<path d="M55.4953 54.6355C61.0263 54.6355 66.3307 52.4422 70.2417 48.5381C74.1526 44.634 76.3498 39.339 76.3498 33.8178C76.3498 28.2965 74.1526 23.0015 70.2417 19.0974C66.3307 15.1933 61.0263 13 55.4953 13C49.9644 13 44.66 15.1933 40.749 19.0974C36.838 23.0015 34.6409 28.2965 34.6409 33.8178C34.6409 39.339 36.838 44.634 40.749 48.5381C44.66 52.4422 49.9644 54.6355 55.4953 54.6355ZM48.0496 62.4422C32.0015 62.4422 19 75.4207 19 91.4406C19 94.1079 21.1669 96.271 23.8389 96.271H87.1518C89.8237 96.271 91.9907 94.1079 91.9907 91.4406C91.9907 75.4207 78.9892 62.4422 62.941 62.4422H48.0496Z" fill="white" fill-opacity="0.79"/>
</svg>
