<svg width="39" height="39" viewBox="0 0 39 39" fill="none" xmlns="http://www.w3.org/2000/svg">
<path d="M11.6999 9.94501V10.945C12.0556 10.945 12.3845 10.7561 12.5637 10.4489L11.6999 9.94501ZM14.4299 5.26501V4.26501C14.0742 4.26501 13.7453 4.45393 13.5661 4.76114L14.4299 5.26501ZM24.5699 5.26501L25.4337 4.76114C25.2545 4.45393 24.9256 4.26501 24.5699 4.26501V5.26501ZM27.2999 9.94501L26.4361 10.4489C26.6153 10.7561 26.9442 10.945 27.2999 10.945V9.94501ZM4.8999 29.835V13.845H2.8999V29.835H4.8999ZM7.7999 10.945H11.6999V8.94501H7.7999V10.945ZM12.5637 10.4489L15.2937 5.76889L13.5661 4.76114L10.8361 9.44114L12.5637 10.4489ZM14.4299 6.26501H24.5699V4.26501H14.4299V6.26501ZM23.7061 5.76889L26.4361 10.4489L28.1637 9.44114L25.4337 4.76114L23.7061 5.76889ZM27.2999 10.945H31.1999V8.94501H27.2999V10.945ZM34.0999 13.845V29.835H36.0999V13.845H34.0999ZM34.0999 29.835C34.0999 31.4366 32.8015 32.735 31.1999 32.735V34.735C33.9061 34.735 36.0999 32.5412 36.0999 29.835H34.0999ZM31.1999 10.945C32.8015 10.945 34.0999 12.2434 34.0999 13.845H36.0999C36.0999 11.1388 33.9061 8.94501 31.1999 8.94501V10.945ZM4.8999 13.845C4.8999 12.2434 6.19828 10.945 7.7999 10.945V8.94501C5.09371 8.94501 2.8999 11.1388 2.8999 13.845H4.8999ZM7.7999 32.735C6.19828 32.735 4.8999 31.4366 4.8999 29.835H2.8999C2.8999 32.5412 5.09371 34.735 7.7999 34.735V32.735ZM24.3499 20.865C24.3499 23.5436 22.1785 25.715 19.4999 25.715V27.715C23.2831 27.715 26.3499 24.6482 26.3499 20.865H24.3499ZM19.4999 25.715C16.8213 25.715 14.6499 23.5436 14.6499 20.865H12.6499C12.6499 24.6482 15.7168 27.715 19.4999 27.715V25.715ZM14.6499 20.865C14.6499 18.1864 16.8213 16.015 19.4999 16.015V14.015C15.7168 14.015 12.6499 17.0819 12.6499 20.865H14.6499ZM19.4999 16.015C22.1785 16.015 24.3499 18.1864 24.3499 20.865H26.3499C26.3499 17.0819 23.2831 14.015 19.4999 14.015V16.015ZM31.1999 32.735H7.7999V34.735H31.1999V32.735Z" fill="black"/>
</svg>
