<svg width="584" height="183" viewBox="0 0 584 183" fill="none" xmlns="http://www.w3.org/2000/svg">
<mask id="path-1-inside-1_145_597" fill="white">
<path fill-rule="evenodd" clip-rule="evenodd" d="M0.822266 0H583.177V28.2287C581.493 28.2287 579.826 28.6316 578.27 29.4143C576.715 30.197 575.301 31.3442 574.11 32.7904C572.92 34.2366 571.975 35.9535 571.331 37.8431C570.686 39.7327 570.355 41.7579 570.355 43.8032C570.355 45.8485 570.686 47.8737 571.331 49.7633C571.975 51.6529 572.92 53.3698 574.11 54.816C575.301 56.2622 576.715 57.4094 578.27 58.1921C579.826 58.9748 581.493 59.3777 583.177 59.3777V75.9255C581.493 75.9255 579.826 76.3284 578.27 77.1111C576.715 77.8938 575.301 79.041 574.11 80.4872C572.92 81.9334 571.975 83.6503 571.331 85.5399C570.686 87.4295 570.355 89.4547 570.355 91.5C570.355 93.5453 570.686 95.5705 571.331 97.4601C571.975 99.3497 572.92 101.067 574.11 102.513C575.301 103.959 576.715 105.106 578.27 105.889C579.826 106.672 581.493 107.074 583.177 107.074V123.622C581.493 123.622 579.826 124.025 578.27 124.808C576.715 125.591 575.301 126.738 574.11 128.184C572.92 129.63 571.975 131.347 571.331 133.237C570.686 135.126 570.355 137.152 570.355 139.197C570.355 141.242 570.686 143.267 571.331 145.157C571.975 147.046 572.92 148.763 574.11 150.21C575.301 151.656 576.715 152.803 578.27 153.586C579.826 154.368 581.493 154.771 583.177 154.771V183H0.822266V0ZM0.822288 59.3777C2.50616 59.3777 4.17355 58.9748 5.72924 58.1921C7.28494 57.4094 8.69848 56.2622 9.88916 54.816C11.0798 53.3698 12.0243 51.6529 12.6687 49.7633C13.3131 47.8737 13.6448 45.8485 13.6448 43.8032C13.6448 41.7579 13.3131 39.7327 12.6687 37.8431C12.0243 35.9535 11.0798 34.2366 9.88916 32.7904C8.69848 31.3442 7.28494 30.1969 5.72924 29.4143C4.17355 28.6316 2.50616 28.2287 0.822288 28.2287L0.822289 43.8032L0.822288 59.3777ZM0.822288 107.074C2.50616 107.074 4.17355 106.672 5.72924 105.889C7.28494 105.106 8.69848 103.959 9.88916 102.513C11.0798 101.067 12.0243 99.3497 12.6687 97.4601C13.3131 95.5705 13.6448 93.5453 13.6448 91.5C13.6448 89.4547 13.3131 87.4295 12.6687 85.5399C12.0243 83.6503 11.0798 81.9334 9.88916 80.4872C8.69848 79.041 7.28494 77.8938 5.72924 77.1111C4.17355 76.3284 2.50616 75.9255 0.822288 75.9255L0.822289 91.5L0.822288 107.074ZM0.822288 154.771C2.50616 154.771 4.17355 154.368 5.72924 153.586C7.28494 152.803 8.69848 151.656 9.88916 150.21C11.0798 148.763 12.0243 147.046 12.6687 145.157C13.3131 143.267 13.6448 141.242 13.6448 139.197C13.6448 137.152 13.3131 135.126 12.6687 133.237C12.0243 131.347 11.0798 129.63 9.88916 128.184C8.69848 126.738 7.28494 125.591 5.72924 124.808C4.17355 124.025 2.50616 123.622 0.822288 123.622L0.822289 139.197L0.822288 154.771Z"/>
</mask>
<path fill-rule="evenodd" clip-rule="evenodd" d="M0.822266 0H583.177V28.2287C581.493 28.2287 579.826 28.6316 578.27 29.4143C576.715 30.197 575.301 31.3442 574.11 32.7904C572.92 34.2366 571.975 35.9535 571.331 37.8431C570.686 39.7327 570.355 41.7579 570.355 43.8032C570.355 45.8485 570.686 47.8737 571.331 49.7633C571.975 51.6529 572.92 53.3698 574.11 54.816C575.301 56.2622 576.715 57.4094 578.27 58.1921C579.826 58.9748 581.493 59.3777 583.177 59.3777V75.9255C581.493 75.9255 579.826 76.3284 578.27 77.1111C576.715 77.8938 575.301 79.041 574.11 80.4872C572.92 81.9334 571.975 83.6503 571.331 85.5399C570.686 87.4295 570.355 89.4547 570.355 91.5C570.355 93.5453 570.686 95.5705 571.331 97.4601C571.975 99.3497 572.92 101.067 574.11 102.513C575.301 103.959 576.715 105.106 578.27 105.889C579.826 106.672 581.493 107.074 583.177 107.074V123.622C581.493 123.622 579.826 124.025 578.27 124.808C576.715 125.591 575.301 126.738 574.11 128.184C572.92 129.63 571.975 131.347 571.331 133.237C570.686 135.126 570.355 137.152 570.355 139.197C570.355 141.242 570.686 143.267 571.331 145.157C571.975 147.046 572.92 148.763 574.11 150.21C575.301 151.656 576.715 152.803 578.27 153.586C579.826 154.368 581.493 154.771 583.177 154.771V183H0.822266V0ZM0.822288 59.3777C2.50616 59.3777 4.17355 58.9748 5.72924 58.1921C7.28494 57.4094 8.69848 56.2622 9.88916 54.816C11.0798 53.3698 12.0243 51.6529 12.6687 49.7633C13.3131 47.8737 13.6448 45.8485 13.6448 43.8032C13.6448 41.7579 13.3131 39.7327 12.6687 37.8431C12.0243 35.9535 11.0798 34.2366 9.88916 32.7904C8.69848 31.3442 7.28494 30.1969 5.72924 29.4143C4.17355 28.6316 2.50616 28.2287 0.822288 28.2287L0.822289 43.8032L0.822288 59.3777ZM0.822288 107.074C2.50616 107.074 4.17355 106.672 5.72924 105.889C7.28494 105.106 8.69848 103.959 9.88916 102.513C11.0798 101.067 12.0243 99.3497 12.6687 97.4601C13.3131 95.5705 13.6448 93.5453 13.6448 91.5C13.6448 89.4547 13.3131 87.4295 12.6687 85.5399C12.0243 83.6503 11.0798 81.9334 9.88916 80.4872C8.69848 79.041 7.28494 77.8938 5.72924 77.1111C4.17355 76.3284 2.50616 75.9255 0.822288 75.9255L0.822289 91.5L0.822288 107.074ZM0.822288 154.771C2.50616 154.771 4.17355 154.368 5.72924 153.586C7.28494 152.803 8.69848 151.656 9.88916 150.21C11.0798 148.763 12.0243 147.046 12.6687 145.157C13.3131 143.267 13.6448 141.242 13.6448 139.197C13.6448 137.152 13.3131 135.126 12.6687 133.237C12.0243 131.347 11.0798 129.63 9.88916 128.184C8.69848 126.738 7.28494 125.591 5.72924 124.808C4.17355 124.025 2.50616 123.622 0.822288 123.622L0.822289 139.197L0.822288 154.771Z" fill="#F9F9F9"/>
<path d="M583.177 0H584.177V-1H583.177V0ZM0.822266 0V-1H-0.177734V0H0.822266ZM583.177 28.2287V29.2287H584.177V28.2287H583.177ZM578.27 29.4143L577.821 28.5209L577.821 28.521L578.27 29.4143ZM574.11 32.7904L573.338 32.1548L573.338 32.1548L574.11 32.7904ZM571.331 37.8431L572.277 38.1659L572.277 38.1659L571.331 37.8431ZM571.331 49.7633L572.277 49.4405L572.277 49.4405L571.331 49.7633ZM574.11 54.816L573.338 55.4516L573.338 55.4516L574.11 54.816ZM578.27 58.1921L577.821 59.0854L577.821 59.0854L578.27 58.1921ZM583.177 59.3777H584.177V58.3777H583.177V59.3777ZM583.177 75.9255V76.9255H584.177V75.9255H583.177ZM578.27 77.1111L577.821 76.2178L577.821 76.2178L578.27 77.1111ZM571.331 85.5399L572.277 85.8627L572.277 85.8627L571.331 85.5399ZM571.331 97.4601L572.277 97.1373L572.277 97.1373L571.331 97.4601ZM574.11 102.513L573.338 103.148L573.338 103.148L574.11 102.513ZM578.27 105.889L577.821 106.782L577.821 106.782L578.27 105.889ZM583.177 107.074H584.177V106.074H583.177V107.074ZM583.177 123.622V124.622H584.177V123.622H583.177ZM578.27 124.808L577.821 123.915L577.821 123.915L578.27 124.808ZM574.11 128.184L574.882 128.82L574.882 128.82L574.11 128.184ZM571.331 133.237L572.277 133.56L572.277 133.559L571.331 133.237ZM571.331 145.157L572.277 144.834L572.277 144.834L571.331 145.157ZM574.11 150.21L574.882 149.574L574.882 149.574L574.11 150.21ZM578.27 153.586L577.821 154.479L577.821 154.479L578.27 153.586ZM583.177 154.771H584.177V153.771H583.177V154.771ZM583.177 183V184H584.177V183H583.177ZM0.822266 183H-0.177734V184H0.822266V183ZM5.72924 58.1921L6.17868 59.0854L6.17868 59.0854L5.72924 58.1921ZM0.822288 59.3777L-0.177712 59.3777L-0.177712 60.3777H0.822288V59.3777ZM12.6687 49.7633L13.6152 50.0861L13.6152 50.0861L12.6687 49.7633ZM12.6687 37.8431L11.7223 38.1659L11.7223 38.1659L12.6687 37.8431ZM9.88916 32.7904L10.6612 32.1548L10.6612 32.1548L9.88916 32.7904ZM5.72924 29.4143L5.27981 30.3076L5.27981 30.3076L5.72924 29.4143ZM0.822288 28.2287V27.2287H-0.177712L-0.177712 28.2287L0.822288 28.2287ZM0.822289 43.8032L1.82229 43.8032L1.82229 43.8032L0.822289 43.8032ZM5.72924 105.889L5.27981 104.996L5.27981 104.996L5.72924 105.889ZM0.822288 107.074L-0.177712 107.074L-0.177712 108.074H0.822288V107.074ZM9.88916 102.513L9.11715 101.877L9.11714 101.877L9.88916 102.513ZM12.6687 85.5399L11.7223 85.8627L11.7223 85.8627L12.6687 85.5399ZM9.88916 80.4872L10.6612 79.8516L10.6612 79.8516L9.88916 80.4872ZM5.72924 77.1111L6.17868 76.2177L6.17868 76.2177L5.72924 77.1111ZM0.822288 75.9255V74.9255H-0.177712L-0.177712 75.9255L0.822288 75.9255ZM0.822289 91.5L1.82229 91.5L1.82229 91.5L0.822289 91.5ZM5.72924 153.586L6.17868 154.479L6.17868 154.479L5.72924 153.586ZM0.822288 154.771L-0.177712 154.771L-0.177712 155.771H0.822288V154.771ZM9.88916 150.21L9.11715 149.574L9.11714 149.574L9.88916 150.21ZM12.6687 145.157L11.7223 144.834L11.7223 144.834L12.6687 145.157ZM12.6687 133.237L13.6152 132.914L13.6152 132.914L12.6687 133.237ZM9.88916 128.184L10.6612 127.548L10.6612 127.548L9.88916 128.184ZM5.72924 124.808L6.17868 123.915L6.17868 123.915L5.72924 124.808ZM0.822288 123.622V122.622H-0.177712L-0.177712 123.622L0.822288 123.622ZM0.822289 139.197L1.82229 139.197L1.82229 139.197L0.822289 139.197ZM583.177 -1H0.822266V1H583.177V-1ZM584.177 28.2287V0H582.177V28.2287H584.177ZM583.177 27.2287C581.332 27.2287 579.511 27.6706 577.821 28.5209L578.72 30.3076C580.141 29.5926 581.655 29.2287 583.177 29.2287V27.2287ZM577.821 28.521C576.132 29.3708 574.611 30.6094 573.338 32.1548L574.882 33.426C575.991 32.0789 577.298 31.0231 578.72 30.3076L577.821 28.521ZM573.338 32.1548C572.066 33.6999 571.065 35.5244 570.384 37.5204L572.277 38.1659C572.885 36.3827 573.773 34.7733 574.882 33.426L573.338 32.1548ZM570.384 37.5203C569.704 39.5164 569.355 41.6508 569.355 43.8032H571.355C571.355 41.865 571.669 39.949 572.277 38.1659L570.384 37.5203ZM569.355 43.8032C569.355 45.9555 569.704 48.09 570.384 50.0861L572.277 49.4405C571.669 47.6574 571.355 45.7414 571.355 43.8032H569.355ZM570.384 50.086C571.065 52.082 572.066 53.9065 573.338 55.4516L574.882 54.1804C573.773 52.8331 572.885 51.2237 572.277 49.4405L570.384 50.086ZM573.338 55.4516C574.611 56.997 576.132 58.2356 577.821 59.0854L578.72 57.2988C577.298 56.5833 575.991 55.5275 574.882 54.1804L573.338 55.4516ZM577.821 59.0854C579.511 59.9358 581.332 60.3777 583.177 60.3777V58.3777C581.655 58.3777 580.141 58.0138 578.72 57.2988L577.821 59.0854ZM584.177 75.9255V59.3777H582.177V75.9255H584.177ZM578.72 78.0044C580.141 77.2894 581.655 76.9255 583.177 76.9255V74.9255C581.332 74.9255 579.511 75.3674 577.821 76.2178L578.72 78.0044ZM574.882 81.1228C575.991 79.7757 577.298 78.7199 578.72 78.0044L577.821 76.2178C576.132 77.0676 574.611 78.3062 573.338 79.8516L574.882 81.1228ZM572.277 85.8627C572.885 84.0795 573.773 82.4701 574.882 81.1228L573.338 79.8516C572.066 81.3967 571.065 83.2212 570.384 85.2172L572.277 85.8627ZM571.355 91.5C571.355 89.5618 571.669 87.6458 572.277 85.8627L570.384 85.2171C569.704 87.2132 569.355 89.3477 569.355 91.5H571.355ZM572.277 97.1373C571.669 95.3542 571.355 93.4382 571.355 91.5H569.355C569.355 93.6523 569.704 95.7868 570.384 97.7829L572.277 97.1373ZM574.882 101.877C573.773 100.53 572.885 98.9205 572.277 97.1373L570.384 97.7828C571.065 99.7788 572.066 101.603 573.338 103.148L574.882 101.877ZM578.72 104.996C577.298 104.28 575.991 103.224 574.882 101.877L573.338 103.148C574.611 104.694 576.132 105.932 577.821 106.782L578.72 104.996ZM583.177 106.074C581.655 106.074 580.141 105.711 578.72 104.996L577.821 106.782C579.511 107.633 581.332 108.074 583.177 108.074V106.074ZM584.177 123.622V107.074H582.177V123.622H584.177ZM578.72 125.701C580.141 124.986 581.655 124.622 583.177 124.622V122.622C581.332 122.622 579.511 123.064 577.821 123.915L578.72 125.701ZM574.882 128.82C575.991 127.473 577.298 126.417 578.72 125.701L577.821 123.915C576.132 124.764 574.611 126.003 573.338 127.548L574.882 128.82ZM572.277 133.559C572.885 131.776 573.773 130.167 574.882 128.82L573.338 127.548C572.066 129.094 571.065 130.918 570.384 132.914L572.277 133.559ZM571.355 139.197C571.355 137.259 571.669 135.343 572.277 133.56L570.384 132.914C569.704 134.91 569.355 137.044 569.355 139.197H571.355ZM572.277 144.834C571.669 143.051 571.355 141.135 571.355 139.197H569.355C569.355 141.349 569.704 143.484 570.384 145.48L572.277 144.834ZM574.882 149.574C573.773 148.227 572.885 146.617 572.277 144.834L570.384 145.48C571.065 147.476 572.066 149.3 573.338 150.845L574.882 149.574ZM578.72 152.692C577.298 151.977 575.991 150.921 574.882 149.574L573.338 150.845C574.611 152.391 576.132 153.629 577.821 154.479L578.72 152.692ZM583.177 153.771C581.655 153.771 580.141 153.407 578.72 152.692L577.821 154.479C579.511 155.329 581.332 155.771 583.177 155.771V153.771ZM584.177 183V154.771H582.177V183H584.177ZM0.822266 184H583.177V182H0.822266V184ZM-0.177734 0V183H1.82227V0H-0.177734ZM5.27981 57.2988C3.85861 58.0138 2.34465 58.3777 0.822288 58.3777V60.3777C2.66767 60.3777 4.48848 59.9358 6.17868 59.0854L5.27981 57.2988ZM9.11714 54.1804C8.00811 55.5275 6.70203 56.5833 5.27981 57.2988L6.17868 59.0854C7.86785 58.2356 9.38885 56.997 10.6612 55.4516L9.11714 54.1804ZM11.7223 49.4405C11.1141 51.2237 10.2264 52.8331 9.11714 54.1804L10.6612 55.4516C11.9333 53.9065 12.9345 52.082 13.6152 50.0861L11.7223 49.4405ZM12.6448 43.8032C12.6448 45.7414 12.3303 47.6574 11.7223 49.4405L13.6152 50.0861C14.2959 48.09 14.6448 45.9555 14.6448 43.8032H12.6448ZM11.7223 38.1659C12.3303 39.949 12.6448 41.865 12.6448 43.8032H14.6448C14.6448 41.6508 14.2959 39.5164 13.6152 37.5203L11.7223 38.1659ZM9.11714 33.426C10.2264 34.7733 11.1141 36.3827 11.7223 38.1659L13.6152 37.5203C12.9345 35.5244 11.9333 33.6999 10.6612 32.1548L9.11714 33.426ZM5.27981 30.3076C6.70203 31.0231 8.00811 32.0789 9.11714 33.426L10.6612 32.1548C9.38885 30.6094 7.86786 29.3708 6.17868 28.5209L5.27981 30.3076ZM0.822288 29.2287C2.34465 29.2287 3.85862 29.5926 5.27981 30.3076L6.17868 28.5209C4.48848 27.6706 2.66767 27.2287 0.822288 27.2287V29.2287ZM1.82229 43.8032L1.82229 28.2287L-0.177712 28.2287L-0.177711 43.8032L1.82229 43.8032ZM1.82229 59.3777L1.82229 43.8032L-0.177711 43.8032L-0.177712 59.3777L1.82229 59.3777ZM5.27981 104.996C3.85861 105.711 2.34465 106.074 0.822288 106.074V108.074C2.66767 108.074 4.48848 107.633 6.17868 106.782L5.27981 104.996ZM9.11714 101.877C8.00811 103.224 6.70203 104.28 5.27981 104.996L6.17868 106.782C7.86785 105.932 9.38885 104.694 10.6612 103.148L9.11714 101.877ZM11.7223 97.1373C11.1141 98.9205 10.2264 100.53 9.11715 101.877L10.6612 103.148C11.9333 101.603 12.9345 99.7788 13.6152 97.7829L11.7223 97.1373ZM12.6448 91.5C12.6448 93.4382 12.3303 95.3542 11.7223 97.1373L13.6152 97.7829C14.2959 95.7868 14.6448 93.6523 14.6448 91.5H12.6448ZM11.7223 85.8627C12.3303 87.6458 12.6448 89.5618 12.6448 91.5H14.6448C14.6448 89.3477 14.2959 87.2132 13.6152 85.2171L11.7223 85.8627ZM9.11714 81.1228C10.2264 82.4701 11.1141 84.0795 11.7223 85.8627L13.6152 85.2171C12.9345 83.2212 11.9333 81.3967 10.6612 79.8516L9.11714 81.1228ZM5.27981 78.0044C6.70203 78.7199 8.00811 79.7757 9.11715 81.1228L10.6612 79.8516C9.38886 78.3062 7.86786 77.0676 6.17868 76.2177L5.27981 78.0044ZM0.822288 76.9255C2.34465 76.9255 3.85862 77.2894 5.27981 78.0044L6.17868 76.2177C4.48848 75.3674 2.66767 74.9255 0.822288 74.9255V76.9255ZM1.82229 91.5L1.82229 75.9255L-0.177712 75.9255L-0.177711 91.5L1.82229 91.5ZM1.82229 107.074L1.82229 91.5L-0.177711 91.5L-0.177712 107.074L1.82229 107.074ZM5.27981 152.692C3.85862 153.407 2.34465 153.771 0.822288 153.771V155.771C2.66767 155.771 4.48848 155.329 6.17868 154.479L5.27981 152.692ZM9.11714 149.574C8.00811 150.921 6.70203 151.977 5.2798 152.692L6.17868 154.479C7.86785 153.629 9.38885 152.391 10.6612 150.845L9.11714 149.574ZM11.7223 144.834C11.1141 146.617 10.2264 148.227 9.11715 149.574L10.6612 150.845C11.9333 149.3 12.9345 147.476 13.6152 145.48L11.7223 144.834ZM12.6448 139.197C12.6448 141.135 12.3303 143.051 11.7223 144.834L13.6152 145.48C14.2959 143.484 14.6448 141.349 14.6448 139.197H12.6448ZM11.7223 133.559C12.3303 135.343 12.6448 137.259 12.6448 139.197H14.6448C14.6448 137.044 14.2959 134.91 13.6152 132.914L11.7223 133.559ZM9.11714 128.82C10.2264 130.167 11.1141 131.776 11.7223 133.559L13.6152 132.914C12.9345 130.918 11.9333 129.094 10.6612 127.548L9.11714 128.82ZM5.27981 125.701C6.70203 126.417 8.00811 127.473 9.11715 128.82L10.6612 127.548C9.38886 126.003 7.86786 124.764 6.17868 123.915L5.27981 125.701ZM0.822288 124.622C2.34465 124.622 3.85862 124.986 5.27981 125.701L6.17868 123.915C4.48848 123.064 2.66767 122.622 0.822288 122.622V124.622ZM1.82229 139.197L1.82229 123.622L-0.177712 123.622L-0.177711 139.197L1.82229 139.197ZM1.82229 154.771L1.82229 139.197L-0.177711 139.197L-0.177712 154.771L1.82229 154.771Z" fill="black" fill-opacity="0.18" mask="url(#path-1-inside-1_145_597)"/>
</svg>
