<svg width="157" height="159" viewBox="0 0 157 159" fill="none" xmlns="http://www.w3.org/2000/svg">
<g filter="url(#filter0_d_379_865)">
<rect x="4" width="142" height="142" rx="50" fill="#ECECEC"/>
<path d="M75.2753 75.746C82.375 75.8031 89.2065 73.0464 94.267 68.0824C99.3275 63.1184 102.202 56.3537 102.259 49.2765C102.316 42.1993 99.5504 35.3892 94.5704 30.3445C89.5904 25.2998 82.8041 22.4337 75.7044 22.3766C68.6047 22.3195 61.7732 25.0762 56.7127 30.0402C51.6522 35.0042 48.7773 41.7689 48.7204 48.8461C48.6636 55.9233 51.4293 62.7333 56.4093 67.778C61.3893 72.8228 68.1756 75.6889 75.2753 75.746ZM65.6374 85.6759C45.0375 85.5103 28.2147 102.012 28.0496 122.547C28.0221 125.966 30.7814 128.761 34.2112 128.789L115.481 129.442C118.911 129.47 121.715 126.719 121.743 123.3C121.908 102.766 105.352 85.9952 84.7524 85.8296L65.6374 85.6759Z" fill="white" fill-opacity="0.79"/>
<path d="M125.7 121.945V122.945C126.056 122.945 126.384 122.756 126.564 122.449L125.7 121.945ZM128.43 117.265V116.265C128.074 116.265 127.745 116.454 127.566 116.761L128.43 117.265ZM138.57 117.265L139.434 116.761C139.254 116.454 138.926 116.265 138.57 116.265V117.265ZM141.3 121.945L140.436 122.449C140.615 122.756 140.944 122.945 141.3 122.945V121.945ZM118.9 141.835V125.845H116.9V141.835H118.9ZM121.8 122.945H125.7V120.945H121.8V122.945ZM126.564 122.449L129.294 117.769L127.566 116.761L124.836 121.441L126.564 122.449ZM128.43 118.265H138.57V116.265H128.43V118.265ZM137.706 117.769L140.436 122.449L142.164 121.441L139.434 116.761L137.706 117.769ZM141.3 122.945H145.2V120.945H141.3V122.945ZM148.1 125.845V141.835H150.1V125.845H148.1ZM148.1 141.835C148.1 143.437 146.802 144.735 145.2 144.735V146.735C147.906 146.735 150.1 144.541 150.1 141.835H148.1ZM145.2 122.945C146.802 122.945 148.1 124.243 148.1 125.845H150.1C150.1 123.139 147.906 120.945 145.2 120.945V122.945ZM118.9 125.845C118.9 124.243 120.198 122.945 121.8 122.945V120.945C119.094 120.945 116.9 123.139 116.9 125.845H118.9ZM121.8 144.735C120.198 144.735 118.9 143.437 118.9 141.835H116.9C116.9 144.541 119.094 146.735 121.8 146.735V144.735ZM138.35 132.865C138.35 135.544 136.178 137.715 133.5 137.715V139.715C137.283 139.715 140.35 136.648 140.35 132.865H138.35ZM133.5 137.715C130.821 137.715 128.65 135.544 128.65 132.865H126.65C126.65 136.648 129.717 139.715 133.5 139.715V137.715ZM128.65 132.865C128.65 130.186 130.821 128.015 133.5 128.015V126.015C129.717 126.015 126.65 129.082 126.65 132.865H128.65ZM133.5 128.015C136.178 128.015 138.35 130.186 138.35 132.865H140.35C140.35 129.082 137.283 126.015 133.5 126.015V128.015ZM145.2 144.735H121.8V146.735H145.2V144.735Z" fill="black"/>
</g>
<defs>
<filter id="filter0_d_379_865" x="0" y="0" width="159" height="159" filterUnits="userSpaceOnUse" color-interpolation-filters="sRGB">
<feFlood flood-opacity="0" result="BackgroundImageFix"/>
<feColorMatrix in="SourceAlpha" type="matrix" values="0 0 0 0 0 0 0 0 0 0 0 0 0 0 0 0 0 0 127 0" result="hardAlpha"/>
<feOffset dy="4"/>
<feGaussianBlur stdDeviation="2"/>
<feComposite in2="hardAlpha" operator="out"/>
<feColorMatrix type="matrix" values="0 0 0 0 0 0 0 0 0 0 0 0 0 0 0 0 0 0 0.25 0"/>
<feBlend mode="normal" in2="BackgroundImageFix" result="effect1_dropShadow_379_865"/>
<feBlend mode="normal" in="SourceGraphic" in2="effect1_dropShadow_379_865" result="shape"/>
</filter>
</defs>
</svg>
