<svg width="20" height="17" viewBox="0 0 20 17" fill="none" xmlns="http://www.w3.org/2000/svg">
<path d="M18.5977 8.92291C20.4674 6.88064 20.4674 3.57325 18.5977 1.53098C16.943 -0.276332 14.3352 -0.511284 12.4324 0.974331L12.3794 1.01409C11.9029 1.3864 11.7937 2.10933 12.1345 2.62622C12.4754 3.14311 13.1373 3.26601 13.6105 2.8937L13.6634 2.85394C14.7257 2.02619 16.1785 2.15632 17.0985 3.1648C18.141 4.30341 18.141 6.14687 17.0985 7.28548L13.3855 11.3483C12.343 12.4869 10.6552 12.4869 9.61281 11.3483C8.6895 10.3398 8.57036 8.75302 9.3282 7.59634L9.36461 7.53851C9.70547 7.018 9.59295 6.29507 9.11972 5.92638C8.64648 5.55769 7.9813 5.67697 7.64375 6.19386L7.60735 6.2517C6.2439 8.3265 6.45901 11.1748 8.11368 12.9821C9.98345 15.0244 13.0115 15.0244 14.8813 12.9821L18.5977 8.92291ZM1.40233 8.07709C-0.467444 10.1194 -0.467444 13.4267 1.40233 15.469C3.057 17.2763 5.66476 17.5113 7.56764 16.0257L7.62058 15.9859C8.09713 15.6136 8.20634 14.8907 7.86548 14.3738C7.52461 13.8569 6.86275 13.734 6.38951 14.1063L6.33656 14.1461C5.27426 14.9738 3.82146 14.8437 2.90146 13.8352C1.85902 12.693 1.85902 10.8495 2.90146 9.7109L6.61454 5.65167C7.65699 4.51306 9.34475 4.51306 10.3872 5.65167C11.3105 6.66015 11.4296 8.24698 10.6718 9.40727L10.6354 9.46511C10.2945 9.98561 10.407 10.7085 10.8803 11.0772C11.3535 11.4459 12.0187 11.3266 12.3563 10.8098L12.3927 10.7519C13.7561 8.6735 13.541 5.82517 11.8863 4.01785C10.0165 1.97558 6.9885 1.97558 5.11872 4.01785L1.40233 8.07709Z" fill="#CCCCCC"/>
</svg>
