<svg width="581" height="232" viewBox="0 0 581 232" fill="none" xmlns="http://www.w3.org/2000/svg">
<mask id="path-1-inside-1_1604_1363" fill="white">
<path fill-rule="evenodd" clip-rule="evenodd" d="M-0.00390625 0H580.863V35.7872C579.183 35.7872 577.52 36.2979 575.969 37.2902C574.417 38.2825 573.007 39.7369 571.819 41.5703C570.632 43.4038 569.69 45.5804 569.047 47.9759C568.404 50.3715 568.073 52.939 568.073 55.5319C568.073 58.1248 568.404 60.6923 569.047 63.0879C569.69 65.4834 570.632 67.66 571.819 69.4935C573.007 71.327 574.417 72.7814 575.969 73.7736C577.52 74.7659 579.183 75.2766 580.863 75.2766V96.2553C579.183 96.2553 577.52 96.766 575.969 97.7583C574.417 98.7506 573.007 100.205 571.819 102.038C570.632 103.872 569.69 106.049 569.047 108.444C568.404 110.84 568.073 113.407 568.073 116C568.073 118.593 568.404 121.16 569.047 123.556C569.69 125.952 570.632 128.128 571.819 129.962C573.007 131.795 574.417 133.249 575.969 134.242C577.52 135.234 579.183 135.745 580.863 135.745V156.723C579.183 156.723 577.52 157.234 575.969 158.226C574.417 159.219 573.007 160.673 571.819 162.506C570.632 164.34 569.69 166.517 569.047 168.912C568.404 171.308 568.073 173.875 568.073 176.468C568.073 179.061 568.404 181.629 569.047 184.024C569.69 186.42 570.632 188.596 571.819 190.43C573.007 192.263 574.417 193.718 575.969 194.71C577.52 195.702 579.183 196.213 580.863 196.213V232H-0.00390625V0ZM-0.00388295 75.2766C1.67569 75.2766 3.33881 74.7659 4.89053 73.7736C6.44226 72.7814 7.85219 71.327 9.03982 69.4935C10.2275 67.66 11.1695 65.4834 11.8123 63.0879C12.455 60.6923 12.7858 58.1248 12.7858 55.5319C12.7858 52.939 12.455 50.3715 11.8123 47.9759C11.1695 45.5804 10.2275 43.4038 9.03982 41.5703C7.85219 39.7369 6.44226 38.2825 4.89053 37.2902C3.33881 36.2979 1.67569 35.7872 -0.00388257 35.7872L-0.0038822 55.5319L-0.00388295 75.2766ZM-0.00388295 135.745C1.67569 135.745 3.33881 135.234 4.89053 134.242C6.44226 133.249 7.85219 131.795 9.03982 129.962C10.2275 128.128 11.1695 125.951 11.8123 123.556C12.455 121.16 12.7858 118.593 12.7858 116C12.7858 113.407 12.455 110.84 11.8123 108.444C11.1695 106.049 10.2275 103.872 9.03982 102.038C7.85219 100.205 6.44226 98.7506 4.89053 97.7583C3.33881 96.766 1.67569 96.2553 -0.00388257 96.2553L-0.0038822 116L-0.00388295 135.745ZM-0.00388295 196.213C1.67569 196.213 3.33881 195.702 4.89053 194.71C6.44226 193.718 7.85219 192.263 9.03982 190.43C10.2275 188.596 11.1695 186.42 11.8123 184.024C12.455 181.629 12.7858 179.061 12.7858 176.468C12.7858 173.875 12.455 171.308 11.8123 168.912C11.1695 166.517 10.2275 164.34 9.03982 162.506C7.85219 160.673 6.44226 159.219 4.89053 158.226C3.33881 157.234 1.67569 156.723 -0.00388257 156.723L-0.0038822 176.468L-0.00388295 196.213Z"/>
</mask>
<path fill-rule="evenodd" clip-rule="evenodd" d="M-0.00390625 0H580.863V35.7872C579.183 35.7872 577.52 36.2979 575.969 37.2902C574.417 38.2825 573.007 39.7369 571.819 41.5703C570.632 43.4038 569.69 45.5804 569.047 47.9759C568.404 50.3715 568.073 52.939 568.073 55.5319C568.073 58.1248 568.404 60.6923 569.047 63.0879C569.69 65.4834 570.632 67.66 571.819 69.4935C573.007 71.327 574.417 72.7814 575.969 73.7736C577.52 74.7659 579.183 75.2766 580.863 75.2766V96.2553C579.183 96.2553 577.52 96.766 575.969 97.7583C574.417 98.7506 573.007 100.205 571.819 102.038C570.632 103.872 569.69 106.049 569.047 108.444C568.404 110.84 568.073 113.407 568.073 116C568.073 118.593 568.404 121.16 569.047 123.556C569.69 125.952 570.632 128.128 571.819 129.962C573.007 131.795 574.417 133.249 575.969 134.242C577.52 135.234 579.183 135.745 580.863 135.745V156.723C579.183 156.723 577.52 157.234 575.969 158.226C574.417 159.219 573.007 160.673 571.819 162.506C570.632 164.34 569.69 166.517 569.047 168.912C568.404 171.308 568.073 173.875 568.073 176.468C568.073 179.061 568.404 181.629 569.047 184.024C569.69 186.42 570.632 188.596 571.819 190.43C573.007 192.263 574.417 193.718 575.969 194.71C577.52 195.702 579.183 196.213 580.863 196.213V232H-0.00390625V0ZM-0.00388295 75.2766C1.67569 75.2766 3.33881 74.7659 4.89053 73.7736C6.44226 72.7814 7.85219 71.327 9.03982 69.4935C10.2275 67.66 11.1695 65.4834 11.8123 63.0879C12.455 60.6923 12.7858 58.1248 12.7858 55.5319C12.7858 52.939 12.455 50.3715 11.8123 47.9759C11.1695 45.5804 10.2275 43.4038 9.03982 41.5703C7.85219 39.7369 6.44226 38.2825 4.89053 37.2902C3.33881 36.2979 1.67569 35.7872 -0.00388257 35.7872L-0.0038822 55.5319L-0.00388295 75.2766ZM-0.00388295 135.745C1.67569 135.745 3.33881 135.234 4.89053 134.242C6.44226 133.249 7.85219 131.795 9.03982 129.962C10.2275 128.128 11.1695 125.951 11.8123 123.556C12.455 121.16 12.7858 118.593 12.7858 116C12.7858 113.407 12.455 110.84 11.8123 108.444C11.1695 106.049 10.2275 103.872 9.03982 102.038C7.85219 100.205 6.44226 98.7506 4.89053 97.7583C3.33881 96.766 1.67569 96.2553 -0.00388257 96.2553L-0.0038822 116L-0.00388295 135.745ZM-0.00388295 196.213C1.67569 196.213 3.33881 195.702 4.89053 194.71C6.44226 193.718 7.85219 192.263 9.03982 190.43C10.2275 188.596 11.1695 186.42 11.8123 184.024C12.455 181.629 12.7858 179.061 12.7858 176.468C12.7858 173.875 12.455 171.308 11.8123 168.912C11.1695 166.517 10.2275 164.34 9.03982 162.506C7.85219 160.673 6.44226 159.219 4.89053 158.226C3.33881 157.234 1.67569 156.723 -0.00388257 156.723L-0.0038822 176.468L-0.00388295 196.213Z" fill="#E7F8FF"/>
<path d="M580.863 0H581.863V-1H580.863V0ZM-0.00390625 0V-1H-1.00391V0H-0.00390625ZM580.863 35.7872L580.863 36.7872L581.863 36.7872V35.7872H580.863ZM575.969 37.2902L575.43 36.4477L575.43 36.4477L575.969 37.2902ZM571.819 41.5703L570.98 41.0266L570.98 41.0267L571.819 41.5703ZM569.047 47.9759L568.081 47.7168L568.081 47.7168L569.047 47.9759ZM569.047 63.0879L568.081 63.347L568.081 63.347L569.047 63.0879ZM571.819 69.4935L570.98 70.0372L570.98 70.0372L571.819 69.4935ZM575.969 73.7736L575.43 74.6161L575.43 74.6161L575.969 73.7736ZM580.863 75.2766H581.863V74.2766H580.863V75.2766ZM580.863 96.2553V97.2553H581.863V96.2553H580.863ZM575.969 97.7583L575.43 96.9158L575.43 96.9158L575.969 97.7583ZM571.819 102.038L570.98 101.495L570.98 101.495L571.819 102.038ZM569.047 108.444L568.081 108.185L568.081 108.185L569.047 108.444ZM569.047 123.556L568.081 123.815L568.081 123.815L569.047 123.556ZM571.819 129.962L570.98 130.505L570.98 130.505L571.819 129.962ZM575.969 134.242L575.43 135.084L575.43 135.084L575.969 134.242ZM580.863 135.745H581.863V134.745H580.863V135.745ZM580.863 156.723V157.723H581.863V156.723H580.863ZM575.969 158.226L575.43 157.384L575.43 157.384L575.969 158.226ZM571.819 162.506L570.98 161.963L570.98 161.963L571.819 162.506ZM569.047 168.912L568.081 168.653L568.081 168.653L569.047 168.912ZM569.047 184.024L568.081 184.283L568.081 184.283L569.047 184.024ZM571.819 190.43L570.98 190.973L570.98 190.973L571.819 190.43ZM575.969 194.71L575.43 195.552L575.43 195.552L575.969 194.71ZM580.863 196.213H581.863V195.213H580.863V196.213ZM580.863 232V233H581.863V232H580.863ZM-0.00390625 232H-1.00391V233H-0.00390625V232ZM4.89053 73.7736L5.42927 74.6161L5.42927 74.6161L4.89053 73.7736ZM-0.00388295 75.2766L-1.00388 75.2766L-1.00388 76.2766H-0.00388295V75.2766ZM9.03982 69.4935L9.87912 70.0372L9.87913 70.0372L9.03982 69.4935ZM11.8123 63.0879L10.8464 62.8287L10.8464 62.8287L11.8123 63.0879ZM11.8123 47.9759L12.7781 47.7168L12.7781 47.7168L11.8123 47.9759ZM9.03982 41.5703L9.87913 41.0266L9.87912 41.0266L9.03982 41.5703ZM4.89053 37.2902L5.42927 36.4477L5.42926 36.4477L4.89053 37.2902ZM-0.00388257 35.7872V34.7872H-1.00388L-1.00388 35.7872L-0.00388257 35.7872ZM-0.0038822 55.5319L0.996118 55.5319L0.996118 55.5319L-0.0038822 55.5319ZM4.89053 134.242L5.42927 135.084L5.42927 135.084L4.89053 134.242ZM-0.00388295 135.745L-1.00388 135.745L-1.00388 136.745H-0.00388295V135.745ZM11.8123 123.556L10.8464 123.297L10.8464 123.297L11.8123 123.556ZM11.8123 108.444L12.7781 108.185L12.7781 108.185L11.8123 108.444ZM9.03982 102.038L8.20052 102.582L8.20052 102.582L9.03982 102.038ZM4.89053 97.7583L4.3518 98.6008L4.3518 98.6008L4.89053 97.7583ZM-0.00388257 96.2553V95.2553H-1.00388L-1.00388 96.2553L-0.00388257 96.2553ZM-0.0038822 116L0.996118 116L0.996118 116L-0.0038822 116ZM4.89053 194.71L5.42927 195.552L5.42927 195.552L4.89053 194.71ZM-0.00388295 196.213L-1.00388 196.213L-1.00388 197.213H-0.00388295V196.213ZM9.03982 162.506L8.20052 163.05L8.20052 163.05L9.03982 162.506ZM4.89053 158.226L4.3518 159.069L4.3518 159.069L4.89053 158.226ZM-0.00388257 156.723V155.723H-1.00388L-1.00388 156.723L-0.00388257 156.723ZM-0.0038822 176.468L0.996118 176.468L0.996118 176.468L-0.0038822 176.468ZM580.863 -1H-0.00390625V1H580.863V-1ZM581.863 35.7872V0H579.863V35.7872H581.863ZM580.863 34.7872C578.974 34.7872 577.126 35.3629 575.43 36.4477L576.507 38.1327C577.914 37.233 579.393 36.7872 580.863 36.7872L580.863 34.7872ZM575.43 36.4477C573.737 37.53 572.231 39.0953 570.98 41.0266L572.659 42.114C573.783 40.3784 575.096 39.035 576.507 38.1327L575.43 36.4477ZM570.98 41.0267C569.728 42.9587 568.747 45.2338 568.081 47.7168L570.013 48.2351C570.632 45.927 571.535 43.8488 572.659 42.114L570.98 41.0267ZM568.081 47.7168C567.415 50.2006 567.073 52.8555 567.073 55.5319H569.073C569.073 53.0225 569.394 50.5424 570.013 48.2351L568.081 47.7168ZM567.073 55.5319C567.073 58.2084 567.415 60.8632 568.081 63.347L570.013 62.8287C569.394 60.5215 569.073 58.0413 569.073 55.5319H567.073ZM568.081 63.347C568.747 65.83 569.728 68.1051 570.98 70.0372L572.659 68.9498C571.535 67.215 570.632 65.1368 570.013 62.8287L568.081 63.347ZM570.98 70.0372C572.231 71.9685 573.737 73.5339 575.43 74.6161L576.507 72.9311C575.096 72.0289 573.783 70.6854 572.659 68.9498L570.98 70.0372ZM575.43 74.6161C577.126 75.7009 578.974 76.2766 580.863 76.2766V74.2766C579.393 74.2766 577.914 73.8309 576.507 72.9311L575.43 74.6161ZM581.863 96.2553V75.2766H579.863V96.2553H581.863ZM576.507 98.6008C577.914 97.7011 579.393 97.2553 580.863 97.2553V95.2553C578.974 95.2553 577.126 95.831 575.43 96.9158L576.507 98.6008ZM572.659 102.582C573.783 100.847 575.096 99.5031 576.507 98.6008L575.43 96.9158C573.737 97.9981 572.231 99.5634 570.98 101.495L572.659 102.582ZM570.013 108.703C570.632 106.395 571.535 104.317 572.659 102.582L570.98 101.495C569.728 103.427 568.747 105.702 568.081 108.185L570.013 108.703ZM569.073 116C569.073 113.491 569.394 111.01 570.013 108.703L568.081 108.185C567.415 110.669 567.073 113.324 567.073 116H569.073ZM570.013 123.297C569.394 120.99 569.073 118.509 569.073 116H567.073C567.073 118.676 567.415 121.331 568.081 123.815L570.013 123.297ZM572.659 129.418C571.535 127.683 570.632 125.605 570.013 123.297L568.081 123.815C568.747 126.298 569.728 128.573 570.98 130.505L572.659 129.418ZM576.507 133.399C575.096 132.497 573.783 131.154 572.659 129.418L570.98 130.505C572.231 132.437 573.737 134.002 575.43 135.084L576.507 133.399ZM580.863 134.745C579.393 134.745 577.914 134.299 576.507 133.399L575.43 135.084C577.126 136.169 578.974 136.745 580.863 136.745V134.745ZM581.863 156.723V135.745H579.863V156.723H581.863ZM576.507 159.069C577.914 158.169 579.393 157.723 580.863 157.723V155.723C578.974 155.723 577.126 156.299 575.43 157.384L576.507 159.069ZM572.659 163.05C573.783 161.315 575.096 159.971 576.507 159.069L575.43 157.384C573.737 158.466 572.231 160.031 570.98 161.963L572.659 163.05ZM570.013 169.171C570.632 166.863 571.535 164.785 572.659 163.05L570.98 161.963C569.728 163.895 568.747 166.17 568.081 168.653L570.013 169.171ZM569.073 176.468C569.073 173.959 569.394 171.479 570.013 169.171L568.081 168.653C567.415 171.137 567.073 173.792 567.073 176.468H569.073ZM570.013 183.765C569.394 181.458 569.073 178.977 569.073 176.468H567.073C567.073 179.145 567.415 181.799 568.081 184.283L570.013 183.765ZM572.659 189.886C571.535 188.151 570.632 186.073 570.013 183.765L568.081 184.283C568.747 186.766 569.728 189.041 570.98 190.973L572.659 189.886ZM576.507 193.867C575.096 192.965 573.783 191.622 572.659 189.886L570.98 190.973C572.231 192.905 573.737 194.47 575.43 195.552L576.507 193.867ZM580.863 195.213C579.393 195.213 577.914 194.767 576.507 193.867L575.43 195.552C577.126 196.637 578.974 197.213 580.863 197.213V195.213ZM581.863 232V196.213H579.863V232H581.863ZM-0.00390625 233H580.863V231H-0.00390625V233ZM-1.00391 0V232H0.996094V0H-1.00391ZM4.3518 72.9311C2.94481 73.8309 1.46647 74.2766 -0.00388295 74.2766V76.2766C1.88491 76.2766 3.73282 75.7009 5.42927 74.6161L4.3518 72.9311ZM8.20052 68.9499C7.0763 70.6854 5.76283 72.0288 4.3518 72.9311L5.42927 74.6161C7.12168 73.5339 8.62807 71.9685 9.87912 70.0372L8.20052 68.9499ZM10.8464 62.8287C10.2272 65.1368 9.32428 67.215 8.20052 68.9499L9.87913 70.0372C11.1306 68.1051 12.1119 65.83 12.7781 63.347L10.8464 62.8287ZM11.7858 55.5319C11.7858 58.0413 11.4655 60.5215 10.8464 62.8287L12.7781 63.347C13.4446 60.8632 13.7858 58.2083 13.7858 55.5319H11.7858ZM10.8464 48.2351C11.4655 50.5424 11.7858 53.0225 11.7858 55.5319H13.7858C13.7858 52.8555 13.4446 50.2006 12.7781 47.7168L10.8464 48.2351ZM8.20052 42.114C9.32428 43.8488 10.2272 45.927 10.8464 48.2351L12.7781 47.7168C12.1119 45.2338 11.1306 42.9587 9.87913 41.0266L8.20052 42.114ZM4.3518 38.1327C5.76283 39.035 7.0763 40.3784 8.20052 42.114L9.87912 41.0266C8.62807 39.0953 7.12168 37.53 5.42927 36.4477L4.3518 38.1327ZM-0.00388257 36.7872C1.46647 36.7872 2.94481 37.233 4.35181 38.1327L5.42926 36.4477C3.73282 35.3629 1.88491 34.7872 -0.00388257 34.7872V36.7872ZM0.996118 55.5319L0.996117 35.7872L-1.00388 35.7872L-1.00388 55.5319L0.996118 55.5319ZM0.996117 75.2766L0.996118 55.5319L-1.00388 55.5319L-1.00388 75.2766L0.996117 75.2766ZM4.3518 133.399C2.94481 134.299 1.46647 134.745 -0.00388295 134.745V136.745C1.88491 136.745 3.73282 136.169 5.42927 135.084L4.3518 133.399ZM8.20052 129.418C7.0763 131.153 5.76283 132.497 4.3518 133.399L5.42927 135.084C7.12168 134.002 8.62807 132.437 9.87913 130.505L8.20052 129.418ZM10.8464 123.297C10.2272 125.605 9.32428 127.683 8.20052 129.418L9.87913 130.505C11.1306 128.573 12.1119 126.298 12.7781 123.815L10.8464 123.297ZM11.7858 116C11.7858 118.509 11.4655 120.99 10.8464 123.297L12.7781 123.815C13.4446 121.331 13.7858 118.676 13.7858 116H11.7858ZM10.8464 108.703C11.4655 111.01 11.7858 113.491 11.7858 116H13.7858C13.7858 113.324 13.4446 110.669 12.7781 108.185L10.8464 108.703ZM8.20052 102.582C9.32428 104.317 10.2272 106.395 10.8464 108.703L12.7781 108.185C12.1119 105.702 11.1306 103.427 9.87913 101.495L8.20052 102.582ZM4.3518 98.6008C5.76283 99.5031 7.07631 100.847 8.20052 102.582L9.87913 101.495C8.62807 99.5634 7.12168 97.998 5.42927 96.9158L4.3518 98.6008ZM-0.00388257 97.2553C1.46647 97.2553 2.94481 97.7011 4.3518 98.6008L5.42927 96.9158C3.73282 95.831 1.88491 95.2553 -0.00388257 95.2553V97.2553ZM0.996118 116L0.996117 96.2553L-1.00388 96.2553L-1.00388 116L0.996118 116ZM0.996117 135.745L0.996118 116L-1.00388 116L-1.00388 135.745L0.996117 135.745ZM4.3518 193.867C2.94481 194.767 1.46647 195.213 -0.00388295 195.213V197.213C1.88491 197.213 3.73282 196.637 5.42927 195.552L4.3518 193.867ZM8.20052 189.886C7.0763 191.622 5.76283 192.965 4.3518 193.867L5.42927 195.552C7.12168 194.47 8.62807 192.905 9.87913 190.973L8.20052 189.886ZM10.8464 183.765C10.2272 186.073 9.32428 188.151 8.20052 189.886L9.87913 190.973C11.1306 189.041 12.1119 186.766 12.7781 184.283L10.8464 183.765ZM11.7858 176.468C11.7858 178.977 11.4655 181.458 10.8464 183.765L12.7781 184.283C13.4446 181.799 13.7858 179.145 13.7858 176.468H11.7858ZM10.8464 169.171C11.4655 171.479 11.7858 173.959 11.7858 176.468H13.7858C13.7858 173.792 13.4446 171.137 12.7781 168.653L10.8464 169.171ZM8.20052 163.05C9.32428 164.785 10.2272 166.863 10.8464 169.171L12.7781 168.653C12.1119 166.17 11.1306 163.895 9.87913 161.963L8.20052 163.05ZM4.3518 159.069C5.76283 159.971 7.07631 161.315 8.20052 163.05L9.87913 161.963C8.62807 160.031 7.12168 158.466 5.42927 157.384L4.3518 159.069ZM-0.00388257 157.723C1.46647 157.723 2.94481 158.169 4.3518 159.069L5.42927 157.384C3.73282 156.299 1.88491 155.723 -0.00388257 155.723V157.723ZM0.996118 176.468L0.996117 156.723L-1.00388 156.723L-1.00388 176.468L0.996118 176.468ZM0.996117 196.213L0.996118 176.468L-1.00388 176.468L-1.00388 196.213L0.996117 196.213Z" fill="black" fill-opacity="0.18" mask="url(#path-1-inside-1_1604_1363)"/>
<line x1="172.5" y1="27" x2="172.5" y2="204" stroke="#82DCFF" stroke-dasharray="5 5"/>
</svg>
