<svg width="42" height="42" viewBox="0 0 42 42" fill="none" xmlns="http://www.w3.org/2000/svg">
<path fill-rule="evenodd" clip-rule="evenodd" d="M6.66131 10.8612C8.23654 9.28645 10.3727 8.4018 12.6001 8.4018C14.8275 8.4018 16.9637 9.28645 18.5389 10.8612L21.0001 13.3203L23.4613 10.8612C24.2362 10.0589 25.1631 9.41899 26.1879 8.97875C27.2127 8.53852 28.315 8.30679 29.4303 8.2971C30.5457 8.28741 31.6518 8.49994 32.6841 8.9223C33.7164 9.34466 34.6543 9.96839 35.443 10.7571C36.2317 11.5458 36.8554 12.4837 37.2778 13.516C37.7002 14.5483 37.9127 15.6544 37.903 16.7698C37.8933 17.8851 37.6616 18.9874 37.2214 20.0122C36.7811 21.037 36.1412 21.9639 35.3389 22.7388L21.0001 37.0797L6.66131 22.7388C5.08655 21.1636 4.2019 19.0274 4.2019 16.8C4.2019 14.5726 5.08655 12.4364 6.66131 10.8612V10.8612Z" stroke="#FF0000" stroke-width="2" stroke-linejoin="round"/>
</svg>
