<svg width="50" height="50" viewBox="0 0 50 50" fill="none" xmlns="http://www.w3.org/2000/svg">
<path d="M33.326 22.9166H33.3448M24.9907 22.9166H25.0094M16.6553 22.9166H16.674M17.7084 39.5833H16.6667C8.33341 39.5833 4.16675 37.5 4.16675 27.0833V16.6666C4.16675 8.33329 8.33341 4.16663 16.6667 4.16663H33.3334C41.6667 4.16663 45.8334 8.33329 45.8334 16.6666V27.0833C45.8334 35.4166 41.6667 39.5833 33.3334 39.5833H32.2917C31.6459 39.5833 31.0209 39.8958 30.6251 40.4166L27.5001 44.5833C26.1251 46.4166 23.8751 46.4166 22.5001 44.5833L19.3751 40.4166C19.0417 39.9583 18.2709 39.5833 17.7084 39.5833Z" stroke="white" stroke-width="1.5" stroke-linecap="round" stroke-linejoin="round"/>
</svg>
