<svg width="70" height="52" viewBox="0 0 70 52" fill="none" xmlns="http://www.w3.org/2000/svg">
<path d="M34.875 23.9867V19.9867M30.9017 3.78672L23.715 9.38672C22.515 10.3201 21.5417 12.3067 21.5417 13.8134V23.6934C21.5417 26.7867 24.0617 29.3201 27.155 29.3201H42.595C45.6883 29.3201 48.2083 26.7867 48.2083 23.7067V14.0001C48.2083 12.3867 47.1283 10.3201 45.8083 9.40005L37.5683 3.62672C35.7017 2.32005 32.7017 2.38672 30.9017 3.78672Z" stroke="white" stroke-width="1.5" stroke-linecap="round" stroke-linejoin="round"/>
<path d="M30.461 46.312H39.099V49.924H30.461V46.312ZM37.965 47.208H31.609V49.042H37.965V47.208ZM29.663 38.472H39.841V39.382H29.663V38.472ZM34.787 39.886C37.391 39.886 38.875 40.502 38.875 41.678C38.875 42.854 37.391 43.47 34.787 43.47C32.169 43.47 30.699 42.854 30.699 41.678C30.699 40.502 32.169 39.886 34.787 39.886ZM34.787 40.698C32.953 40.698 31.931 41.048 31.931 41.678C31.931 42.308 32.953 42.658 34.787 42.658C36.607 42.658 37.629 42.308 37.629 41.678C37.629 41.048 36.607 40.698 34.787 40.698ZM34.213 37.254H35.361V39.06H34.213V37.254ZM29.061 44.436H40.499V45.346H29.061V44.436ZM34.213 43.19H35.361V44.94H34.213V43.19Z" fill="white"/>
</svg>
