<svg width="71" height="54" viewBox="0 0 71 54" fill="none" xmlns="http://www.w3.org/2000/svg">
<path d="M42.2075 23.0808L47.6675 28.5408C47.9442 28.8174 47.9442 29.2659 47.6675 29.5425C47.3909 29.8192 46.9424 29.8192 46.6658 29.5425L41.2058 24.0825C39.2078 25.8464 36.583 26.9167 33.7083 26.9167C27.4491 26.9167 22.375 21.8426 22.375 15.5833C22.375 9.32411 27.4491 4.25 33.7083 4.25C39.9676 4.25 45.0417 9.32411 45.0417 15.5833C45.0417 18.458 43.9714 21.0828 42.2075 23.0808ZM33.7083 25.5C39.1852 25.5 43.625 21.0602 43.625 15.5833C43.625 10.1065 39.1852 5.66667 33.7083 5.66667C28.2315 5.66667 23.7917 10.1065 23.7917 15.5833C23.7917 21.0602 28.2315 25.5 33.7083 25.5Z" fill="black"/>
<path d="M28.089 40.248H29.307C29.307 43.44 27.067 45.722 23.427 46.744L22.951 45.834C26.157 44.924 28.089 43.09 28.089 40.738V40.248ZM23.609 40.248H28.873V41.186H23.609V40.248ZM32.065 39.436H33.227V46.66H32.065V39.436ZM29.321 42.684H32.289V43.65H29.321V42.684ZM25.065 47.192H33.227V51.924H25.065V47.192ZM32.093 48.13H26.213V50.972H32.093V48.13ZM38.3499 40.192H39.2739V41.886C39.2739 43.79 38.1959 45.792 36.3339 46.646L35.7039 45.736C37.3559 44.994 38.3499 43.328 38.3499 41.886V40.192ZM38.5319 40.192H39.4559V41.886C39.4559 43.328 40.3939 44.77 42.0179 45.428L41.4019 46.324C39.5679 45.554 38.5319 43.776 38.5319 41.886V40.192ZM45.2519 39.45H46.3579V47.094H45.2519V39.45ZM43.2079 42.726H45.6019V43.692H43.2079V42.726ZM42.5359 39.66H43.6419V47.024H42.5359V39.66ZM37.8739 47.78H46.3579V52.092H45.2099V48.732H37.8739V47.78Z" fill="#404040"/>
</svg>
