<svg width="71" height="54" viewBox="0 0 71 54" fill="none" xmlns="http://www.w3.org/2000/svg">
<path d="M43.2083 11.1734V7.66675C43.2083 5.00008 41.8749 3.66675 39.2083 3.66675H32.5416C29.8749 3.66675 28.5416 5.00008 28.5416 7.66675V11.0801M25.5549 15.6934V22.3201C25.5549 24.7467 25.5549 24.7467 27.8483 26.2934L34.1549 29.9334C35.1016 30.4801 36.6483 30.4801 37.5949 29.9334L43.9016 26.2934C46.1949 24.7467 46.1949 24.7467 46.1949 22.3201V15.6934C46.1949 13.2667 46.1949 13.2667 43.9016 11.7201L37.5949 8.08008C36.6483 7.53341 35.1016 7.53341 34.1549 8.08008L27.8483 11.7201C25.5549 13.2667 25.5549 13.2667 25.5549 15.6934ZM36.7149 15.6534L37.4749 16.8401C37.5949 17.0267 37.8616 17.2134 38.0616 17.2667L39.4216 17.6134C40.2616 17.8267 40.4883 18.5467 39.9416 19.2134L39.0483 20.2934C38.9149 20.4667 38.8083 20.7734 38.8216 20.9867L38.9016 22.3867C38.9549 23.2534 38.3416 23.6934 37.5416 23.3734L36.2349 22.8534C36.0349 22.7734 35.7016 22.7734 35.5016 22.8534L34.1949 23.3734C33.3949 23.6934 32.7816 23.2401 32.8349 22.3867L32.9149 20.9867C32.9283 20.7734 32.8216 20.4534 32.6883 20.2934L31.7949 19.2134C31.2483 18.5467 31.4749 17.8267 32.3149 17.6134L33.6749 17.2667C33.8883 17.2134 34.1549 17.0134 34.2616 16.8401L35.0216 15.6534C35.5016 14.9334 36.2483 14.9334 36.7149 15.6534Z" stroke="#292D32" stroke-width="1.5" stroke-linecap="round" stroke-linejoin="round"/>
<path d="M26.707 38.436H27.827V51.092H26.707V38.436ZM24.705 43.448H27.127V44.4H24.705V43.448ZM23.907 38.702H25.013V50.462H23.907V38.702ZM17.523 39.892H22.353V47.704H17.523V39.892ZM21.261 40.816H18.615V46.78H21.261V40.816ZM39.1519 38.436H40.3139V51.092H39.1519V38.436ZM33.4539 41.446H34.3919V42.524C34.3919 45.226 32.8659 47.676 30.8359 48.656L30.1779 47.76C32.0539 46.892 33.4539 44.736 33.4539 42.524V41.446ZM33.6779 41.446H34.6019V42.524C34.6019 44.638 36.0439 46.696 37.9339 47.522L37.2759 48.432C35.2319 47.508 33.6779 45.142 33.6779 42.524V41.446ZM30.5279 40.634H37.4999V41.572H30.5279V40.634ZM33.4539 38.66H34.6159V41.152H33.4539V38.66ZM49.1888 41.446H52.5908V42.412H49.1888V41.446ZM46.2768 39.01C48.1668 39.01 49.5388 40.214 49.5388 41.95C49.5388 43.686 48.1668 44.876 46.2768 44.876C44.3868 44.876 43.0148 43.686 43.0148 41.95C43.0148 40.214 44.3868 39.01 46.2768 39.01ZM46.2768 39.99C45.0308 39.99 44.1348 40.788 44.1348 41.95C44.1348 43.098 45.0308 43.91 46.2768 43.91C47.5228 43.91 48.4188 43.098 48.4188 41.95C48.4188 40.788 47.5228 39.99 46.2768 39.99ZM52.0728 38.436H53.2348V45.226H52.0728V38.436ZM45.1288 45.856H46.2908V47.452H52.0868V45.856H53.2348V50.924H45.1288V45.856ZM46.2908 48.376V49.986H52.0868V48.376H46.2908Z" fill="#404040"/>
</svg>
