<svg width="71" height="52" viewBox="0 0 71 52" fill="none" xmlns="http://www.w3.org/2000/svg">
<path d="M35.2498 23.9867V19.9867M31.2765 3.78672L24.0898 9.38672C22.8898 10.3201 21.9165 12.3067 21.9165 13.8134V23.6934C21.9165 26.7867 24.4365 29.3201 27.5298 29.3201H42.9698C46.0632 29.3201 48.5832 26.7867 48.5832 23.7067V14.0001C48.5832 12.3867 47.5032 10.3201 46.1832 9.40005L37.9432 3.62672C36.0765 2.32005 33.0765 2.38672 31.2765 3.78672Z" stroke="#292D32" stroke-width="1.5" stroke-linecap="round" stroke-linejoin="round"/>
<path d="M30.836 46.312H39.474V49.924H30.836V46.312ZM38.34 47.208H31.984V49.042H38.34V47.208ZM30.038 38.472H40.216V39.382H30.038V38.472ZM35.162 39.886C37.766 39.886 39.25 40.502 39.25 41.678C39.25 42.854 37.766 43.47 35.162 43.47C32.544 43.47 31.074 42.854 31.074 41.678C31.074 40.502 32.544 39.886 35.162 39.886ZM35.162 40.698C33.328 40.698 32.306 41.048 32.306 41.678C32.306 42.308 33.328 42.658 35.162 42.658C36.982 42.658 38.004 42.308 38.004 41.678C38.004 41.048 36.982 40.698 35.162 40.698ZM34.588 37.254H35.736V39.06H34.588V37.254ZM29.436 44.436H40.874V45.346H29.436V44.436ZM34.588 43.19H35.736V44.94H34.588V43.19Z" fill="#404040"/>
</svg>
