<svg width="70" height="54" viewBox="0 0 70 54" fill="none" xmlns="http://www.w3.org/2000/svg">
<path d="M42.3333 11.1732V7.6665C42.3333 4.99984 41 3.6665 38.3333 3.6665H31.6667C29 3.6665 27.6667 4.99984 27.6667 7.6665V11.0798M24.68 15.6932V22.3198C24.68 24.7465 24.68 24.7465 26.9733 26.2932L33.28 29.9332C34.2267 30.4798 35.7733 30.4798 36.72 29.9332L43.0267 26.2932C45.32 24.7465 45.32 24.7465 45.32 22.3198V15.6932C45.32 13.2665 45.32 13.2665 43.0267 11.7198L36.72 8.07984C35.7733 7.53317 34.2267 7.53317 33.28 8.07984L26.9733 11.7198C24.68 13.2665 24.68 13.2665 24.68 15.6932ZM35.84 15.6532L36.6 16.8398C36.72 17.0265 36.9867 17.2132 37.1867 17.2665L38.5467 17.6132C39.3867 17.8265 39.6133 18.5465 39.0667 19.2132L38.1733 20.2932C38.04 20.4665 37.9333 20.7732 37.9467 20.9865L38.0267 22.3865C38.08 23.2532 37.4667 23.6932 36.6667 23.3732L35.36 22.8532C35.16 22.7732 34.8267 22.7732 34.6267 22.8532L33.32 23.3732C32.52 23.6932 31.9067 23.2398 31.96 22.3865L32.04 20.9865C32.0533 20.7732 31.9467 20.4532 31.8133 20.2932L30.92 19.2132C30.3733 18.5465 30.6 17.8265 31.44 17.6132L32.8 17.2665C33.0133 17.2132 33.28 17.0132 33.3867 16.8398L34.1467 15.6532C34.6267 14.9332 35.3733 14.9332 35.84 15.6532Z" stroke="white" stroke-width="1.5" stroke-linecap="round" stroke-linejoin="round"/>
<path d="M25.832 38.436H26.952V51.092H25.832V38.436ZM23.83 43.448H26.252V44.4H23.83V43.448ZM23.032 38.702H24.138V50.462H23.032V38.702ZM16.648 39.892H21.478V47.704H16.648V39.892ZM20.386 40.816H17.74V46.78H20.386V40.816ZM38.2769 38.436H39.4389V51.092H38.2769V38.436ZM32.5789 41.446H33.5169V42.524C33.5169 45.226 31.9909 47.676 29.9609 48.656L29.3029 47.76C31.1789 46.892 32.5789 44.736 32.5789 42.524V41.446ZM32.8029 41.446H33.7269V42.524C33.7269 44.638 35.1689 46.696 37.0589 47.522L36.4009 48.432C34.3569 47.508 32.8029 45.142 32.8029 42.524V41.446ZM29.6529 40.634H36.6249V41.572H29.6529V40.634ZM32.5789 38.66H33.7409V41.152H32.5789V38.66ZM48.3138 41.446H51.7158V42.412H48.3138V41.446ZM45.4018 39.01C47.2918 39.01 48.6638 40.214 48.6638 41.95C48.6638 43.686 47.2918 44.876 45.4018 44.876C43.5118 44.876 42.1398 43.686 42.1398 41.95C42.1398 40.214 43.5118 39.01 45.4018 39.01ZM45.4018 39.99C44.1558 39.99 43.2598 40.788 43.2598 41.95C43.2598 43.098 44.1558 43.91 45.4018 43.91C46.6478 43.91 47.5438 43.098 47.5438 41.95C47.5438 40.788 46.6478 39.99 45.4018 39.99ZM51.1978 38.436H52.3598V45.226H51.1978V38.436ZM44.2538 45.856H45.4158V47.452H51.2118V45.856H52.3598V50.924H44.2538V45.856ZM45.4158 48.376V49.986H51.2118V48.376H45.4158Z" fill="white"/>
</svg>
