<svg width="71" height="54" viewBox="0 0 71 54" fill="none" xmlns="http://www.w3.org/2000/svg">
<g clip-path="url(#clip0_161_336)">
<path d="M43.3042 6H29.0919C23.6486 6 22.1279 7.22317 22 11.9829C24.743 11.9829 26.9601 14.0703 26.9601 16.6363C26.9601 19.2023 24.743 21.2764 22 21.2897C22.1279 26.0494 23.6486 27.2726 29.0919 27.2726H43.3042C48.9891 27.2726 50.4104 25.943 50.4104 20.6249V12.6477C50.4104 7.32954 48.9891 6 43.3042 6Z" stroke="#292D32" stroke-width="1.5" stroke-linecap="round" stroke-linejoin="round"/>
<path d="M31.9321 6V10.6534" stroke="#292D32" stroke-width="1.5" stroke-linecap="round" stroke-linejoin="round"/>
<path d="M31.9321 22.6189V27.2723" stroke="#292D32" stroke-width="1.5" stroke-linecap="round" stroke-linejoin="round"/>
<path d="M40.5046 13.086L41.3857 14.7479C41.471 14.9074 41.6416 15.0271 41.8263 15.0537L43.7876 15.3196C44.2708 15.3861 44.4698 15.9445 44.1145 16.2635L42.6933 17.5532C42.5512 17.6729 42.4943 17.859 42.5227 18.0451L42.8638 19.8666C42.9491 20.3186 42.4375 20.6643 42.0111 20.4516L40.263 19.5874C40.0924 19.5076 39.8792 19.5076 39.7087 19.5874L37.9606 20.4516C37.52 20.6643 37.0226 20.3186 37.1079 19.8666L37.4489 18.0451C37.4774 17.859 37.4205 17.6862 37.2784 17.5532L35.8714 16.2635C35.5161 15.9445 35.715 15.3861 36.1983 15.3196L38.1596 15.0537C38.3585 15.0271 38.5149 14.9207 38.6001 14.7479L39.4671 13.086C39.6661 12.6738 40.2914 12.6738 40.5046 13.086Z" stroke="#292D32" stroke-width="1.5" stroke-linecap="round" stroke-linejoin="round"/>
</g>
<path d="M32.037 39.422H33.199V52.106H32.037V39.422ZM23.553 48.088H24.603C26.717 48.088 28.607 48.004 30.847 47.64L30.973 48.592C28.677 48.97 26.773 49.054 24.603 49.054H23.553V48.088ZM23.525 40.612H29.377V45.134H24.715V48.452H23.553V44.182H28.201V41.564H23.525V40.612ZM38.5739 46.982H39.7359V52.092H38.5739V46.982ZM43.0959 46.982H44.2719V52.092H43.0959V46.982ZM35.6899 46.828H47.1699V47.78H35.6899V46.828ZM37.1319 39.926H38.2939V41.62H44.5519V39.926H45.6999V45.344H37.1319V39.926ZM38.2939 42.572V44.378H44.5519V42.572H38.2939Z" fill="#404040"/>
<defs>
<clipPath id="clip0_161_336">
<rect width="31" height="29" fill="white" transform="translate(20 2)"/>
</clipPath>
</defs>
</svg>
