<svg width="70" height="52" viewBox="0 0 70 52" fill="none" xmlns="http://www.w3.org/2000/svg">
<path d="M41.6659 21.7231L46.8047 26.8619C47.0651 27.1223 47.0651 27.5444 46.8047 27.8047C46.5444 28.0651 46.1223 28.0651 45.8619 27.8047L40.7231 22.6659C38.8426 24.326 36.3723 25.3333 33.6667 25.3333C27.7756 25.3333 23 20.5577 23 14.6667C23 8.77563 27.7756 4 33.6667 4C39.5577 4 44.3333 8.77563 44.3333 14.6667C44.3333 17.3723 43.326 19.8426 41.6659 21.7231ZM33.6667 24C38.8213 24 43 19.8213 43 14.6667C43 9.51201 38.8213 5.33333 33.6667 5.33333C28.512 5.33333 24.3333 9.51201 24.3333 14.6667C24.3333 19.8213 28.512 24 33.6667 24Z" fill="white"/>
<path d="M27.964 38.248H29.182C29.182 41.44 26.942 43.722 23.302 44.744L22.826 43.834C26.032 42.924 27.964 41.09 27.964 38.738V38.248ZM23.484 38.248H28.748V39.186H23.484V38.248ZM31.94 37.436H33.102V44.66H31.94V37.436ZM29.196 40.684H32.164V41.65H29.196V40.684ZM24.94 45.192H33.102V49.924H24.94V45.192ZM31.968 46.13H26.088V48.972H31.968V46.13ZM38.2249 38.192H39.1489V39.886C39.1489 41.79 38.0709 43.792 36.2089 44.646L35.5789 43.736C37.2309 42.994 38.2249 41.328 38.2249 39.886V38.192ZM38.4069 38.192H39.3309V39.886C39.3309 41.328 40.2689 42.77 41.8929 43.428L41.2769 44.324C39.4429 43.554 38.4069 41.776 38.4069 39.886V38.192ZM45.1269 37.45H46.2329V45.094H45.1269V37.45ZM43.0829 40.726H45.4769V41.692H43.0829V40.726ZM42.4109 37.66H43.5169V45.024H42.4109V37.66ZM37.7489 45.78H46.2329V50.092H45.0849V46.732H37.7489V45.78Z" fill="white"/>
</svg>
