<svg width="36" height="36" viewBox="0 0 36 36" fill="none" xmlns="http://www.w3.org/2000/svg">
<path d="M8.17489 20.79L8.81742 21.1768L8.8191 21.174L8.17489 20.79ZM6.44989 23.655L5.80736 23.2681L5.80725 23.2683L6.44989 23.655ZM8.06989 28.05L7.82944 28.7604L7.83222 28.7613L8.06989 28.05ZM27.9749 28.05L27.7395 27.3379L27.7372 27.3386L27.9749 28.05ZM29.5949 23.655L30.238 23.2691L30.2374 23.2681L29.5949 23.655ZM27.8699 20.79L27.2201 21.1648L27.2274 21.1768L27.8699 20.79ZM20.8049 4.79997L20.5958 5.52023C20.8702 5.59991 21.1661 5.5167 21.3588 5.30565C21.5515 5.0946 21.6075 4.79239 21.5032 4.52632L20.8049 4.79997ZM19.3649 4.49997L19.2719 5.24419L19.2746 5.24452L19.3649 4.49997ZM15.2549 4.79997L14.5566 4.52632C14.4523 4.79243 14.5083 5.09469 14.7011 5.30574C14.8938 5.5168 15.1898 5.59995 15.4642 5.52016L15.2549 4.79997ZM18.0299 3.61497C12.6507 3.61497 8.27989 7.98576 8.27989 13.365H9.77989C9.77989 8.81419 13.4791 5.11497 18.0299 5.11497V3.61497ZM8.27989 13.365V17.7H9.77989V13.365H8.27989ZM8.27989 17.7C8.27989 18.0671 8.19881 18.5736 8.05409 19.095C7.90943 19.6161 7.71789 20.0919 7.53068 20.4059L8.8191 21.174C9.09689 20.7081 9.33284 20.0963 9.49944 19.4962C9.66596 18.8963 9.77989 18.2478 9.77989 17.7H8.27989ZM7.53236 20.4031L5.80736 23.2681L7.09241 24.0418L8.81741 21.1768L7.53236 20.4031ZM5.80725 23.2683C5.16871 24.3295 5.04501 25.5004 5.42593 26.5292C5.80652 27.557 6.66203 28.3653 7.82944 28.7604L8.31033 27.3396C7.52774 27.0747 7.04075 26.5704 6.83259 26.0083C6.62477 25.447 6.66606 24.7504 7.09253 24.0416L5.80725 23.2683ZM7.83222 28.7613C14.4515 30.9729 21.5933 30.9729 28.2126 28.7613L27.7372 27.3386C21.4265 29.4471 14.6183 29.4471 8.30755 27.3386L7.83222 28.7613ZM28.2103 28.7621C30.4843 28.0103 31.4738 25.3287 30.238 23.2691L28.9518 24.0408C29.696 25.2813 29.0954 26.8896 27.7395 27.3379L28.2103 28.7621ZM30.2374 23.2681L28.5124 20.4031L27.2274 21.1768L28.9524 24.0418L30.2374 23.2681ZM28.5195 20.4152C28.3366 20.0982 28.1476 19.6193 28.0044 19.0972C27.861 18.5743 27.7799 18.0673 27.7799 17.7H26.2799C26.2799 18.2476 26.3938 18.8956 26.5578 19.494C26.7222 20.0931 26.9532 20.7018 27.2202 21.1648L28.5195 20.4152ZM27.7799 17.7V13.365H26.2799V17.7H27.7799ZM27.7799 13.365C27.7799 8.00076 23.3941 3.61497 18.0299 3.61497V5.11497C22.5657 5.11497 26.2799 8.82919 26.2799 13.365H27.7799ZM21.014 4.07971C20.5164 3.93525 19.9964 3.82103 19.4551 3.75542L19.2746 5.24452C19.7234 5.29892 20.1634 5.3947 20.5958 5.52023L21.014 4.07971ZM19.4579 3.75576C17.9223 3.56382 16.4391 3.67468 15.0455 4.07979L15.4642 5.52016C16.6507 5.17526 17.9275 5.07613 19.2719 5.24418L19.4579 3.75576ZM15.9532 5.07363C16.2787 4.24291 17.087 3.65997 18.0299 3.65997V2.15997C16.4527 2.15997 15.101 3.13704 14.5566 4.52632L15.9532 5.07363ZM18.0299 3.65997C18.9727 3.65997 19.781 4.24291 20.1066 5.07363L21.5032 4.52632C20.9587 3.13704 19.607 2.15997 18.0299 2.15997V3.65997ZM21.7799 28.59C21.7799 30.6508 20.0907 32.34 18.0299 32.34V33.84C20.9191 33.84 23.2799 31.4792 23.2799 28.59H21.7799ZM18.0299 32.34C17.0074 32.34 16.0557 31.9152 15.3802 31.2396L14.3196 32.3003C15.264 33.2448 16.5924 33.84 18.0299 33.84V32.34ZM15.3802 31.2396C14.7047 30.5641 14.2799 29.6125 14.2799 28.59H12.7799C12.7799 30.0275 13.3751 31.3558 14.3196 32.3003L15.3802 31.2396Z" fill="white"/>
</svg>
