<svg width="71" height="52" viewBox="0 0 71 52" fill="none" xmlns="http://www.w3.org/2000/svg">
<path d="M42.5409 21.7231L47.6797 26.8619C47.9401 27.1223 47.9401 27.5444 47.6797 27.8047C47.4194 28.0651 46.9973 28.0651 46.7369 27.8047L41.5981 22.6659C39.7176 24.326 37.2473 25.3333 34.5417 25.3333C28.6506 25.3333 23.875 20.5577 23.875 14.6667C23.875 8.77563 28.6506 4 34.5417 4C40.4327 4 45.2083 8.77563 45.2083 14.6667C45.2083 17.3723 44.201 19.8426 42.5409 21.7231ZM34.5417 24C39.6963 24 43.875 19.8213 43.875 14.6667C43.875 9.51201 39.6963 5.33333 34.5417 5.33333C29.387 5.33333 25.2083 9.51201 25.2083 14.6667C25.2083 19.8213 29.387 24 34.5417 24Z" fill="#724B2E"/>
<path d="M28.839 38.248H30.057C30.057 41.44 27.817 43.722 24.177 44.744L23.701 43.834C26.907 42.924 28.839 41.09 28.839 38.738V38.248ZM24.359 38.248H29.623V39.186H24.359V38.248ZM32.815 37.436H33.977V44.66H32.815V37.436ZM30.071 40.684H33.039V41.65H30.071V40.684ZM25.815 45.192H33.977V49.924H25.815V45.192ZM32.843 46.13H26.963V48.972H32.843V46.13ZM39.0999 38.192H40.0239V39.886C40.0239 41.79 38.9459 43.792 37.0839 44.646L36.4539 43.736C38.1059 42.994 39.0999 41.328 39.0999 39.886V38.192ZM39.2819 38.192H40.2059V39.886C40.2059 41.328 41.1439 42.77 42.7679 43.428L42.1519 44.324C40.3179 43.554 39.2819 41.776 39.2819 39.886V38.192ZM46.0019 37.45H47.1079V45.094H46.0019V37.45ZM43.9579 40.726H46.3519V41.692H43.9579V40.726ZM43.2859 37.66H44.3919V45.024H43.2859V37.66ZM38.6239 45.78H47.1079V50.092H45.9599V46.732H38.6239V45.78Z" fill="#724B2E"/>
</svg>
