<svg width="71" height="52" viewBox="0 0 71 52" fill="none" xmlns="http://www.w3.org/2000/svg">
<g clip-path="url(#clip0_85_661)">
<path d="M52 16.0051C52.0017 13.3423 51.3384 10.7212 50.0702 8.37957C48.802 6.03794 46.9691 4.04987 44.7377 2.59571C42.5063 1.14154 39.9471 0.267283 37.2921 0.0522452C34.6372 -0.162793 31.9705 0.288191 29.5341 1.36429C27.0976 2.44038 24.9684 4.10754 23.3397 6.21453C21.711 8.32152 20.6342 10.8017 20.2071 13.43C19.7799 16.0584 20.0159 18.7517 20.8937 21.2658C21.7715 23.7799 23.2632 26.0351 25.2336 27.8269C25.2726 27.8731 25.3179 27.9136 25.3683 27.947C28.2942 30.5574 32.0786 32.0001 36.0002 32C39.9218 31.9999 43.7063 30.5571 46.632 27.9467C46.6822 27.9134 46.7273 27.8731 46.7661 27.8271C48.4153 26.3307 49.7329 24.5057 50.6343 22.4697C51.5357 20.4337 52.0009 18.2316 52 16.0051ZM21.28 16.0051C21.2783 13.5858 21.8733 11.2035 23.0123 9.06894C24.1513 6.9344 25.7992 5.11352 27.8101 3.76749C29.821 2.42147 32.1328 1.59183 34.5409 1.35202C36.949 1.11221 39.3791 1.46964 41.6161 2.39264C43.853 3.31565 45.8279 4.77578 47.3657 6.64375C48.9036 8.51172 49.957 10.7299 50.4327 13.102C50.9085 15.474 50.7919 17.9267 50.0933 20.243C49.3946 22.5592 48.1355 24.6676 46.4274 26.3813C44.8387 23.7217 42.2898 21.7729 39.3062 20.9366C40.6929 20.1992 41.7931 19.0194 42.4317 17.5848C43.0704 16.1503 43.2108 14.5435 42.8307 13.02C42.4506 11.4965 41.5718 10.1438 40.334 9.17716C39.0963 8.21051 37.5707 7.68542 36 7.68542C34.4293 7.68542 32.9037 8.21051 31.666 9.17716C30.4282 10.1438 29.5494 11.4965 29.1693 13.02C28.7891 14.5435 28.9296 16.1503 29.5683 17.5848C30.2069 19.0194 31.3071 20.1992 32.6938 20.9366C29.7102 21.7729 27.1613 23.7217 25.5726 26.3812C24.2105 25.0182 23.1304 23.4004 22.3938 21.62C21.6573 19.8397 21.2788 17.9317 21.28 16.0051ZM36 20.4837C34.8608 20.4837 33.7471 20.146 32.7999 19.5132C31.8527 18.8805 31.1144 17.9812 30.6785 16.9291C30.2425 15.8769 30.1284 14.7191 30.3507 13.6021C30.5729 12.4852 31.1215 11.4592 31.9271 10.6539C32.7326 9.84857 33.7589 9.30015 34.8763 9.07797C35.9936 8.85579 37.1518 8.96982 38.2043 9.40565C39.2568 9.84147 40.1563 10.5795 40.7893 11.5264C41.4222 12.4734 41.76 13.5866 41.76 14.7255C41.7583 16.2521 41.1509 17.7157 40.071 18.7952C38.9912 19.8747 37.5271 20.4819 36 20.4837ZM26.5384 27.2682C27.4882 25.5967 28.8642 24.2067 30.5263 23.2397C32.1883 22.2727 34.077 21.7633 36 21.7633C37.923 21.7633 39.8117 22.2727 41.4737 23.2397C43.1357 24.2067 44.5117 25.5968 45.4616 27.2683C42.8132 29.4978 39.4622 30.7204 35.9999 30.7204C32.5377 30.7204 29.1867 29.4977 26.5384 27.2682Z" fill="#724B2E"/>
</g>
<path d="M26.679 37.436H27.799V50.092H26.679V37.436ZM24.551 42.588H26.987V43.54H24.551V42.588ZM23.809 37.716H24.901V49.448H23.809V37.716ZM17.677 38.962H18.839V46.27H17.677V38.962ZM17.677 45.808H18.489C19.791 45.808 21.247 45.724 22.899 45.402L23.025 46.41C21.303 46.746 19.847 46.816 18.489 46.816H17.677V45.808ZM36.7019 40.712H39.5579V41.678H36.7019V40.712ZM39.1939 37.436H40.3559V44.982H39.1939V37.436ZM36.1979 45.36C38.8019 45.36 40.4119 46.242 40.4119 47.726C40.4119 49.224 38.8019 50.078 36.1979 50.078C33.5799 50.078 31.9699 49.224 31.9699 47.726C31.9699 46.242 33.5799 45.36 36.1979 45.36ZM36.1979 46.27C34.2939 46.27 33.1319 46.802 33.1319 47.726C33.1319 48.636 34.2939 49.168 36.1979 49.168C38.1019 49.168 39.2639 48.636 39.2639 47.726C39.2639 46.802 38.1019 46.27 36.1979 46.27ZM33.1739 38.71H34.1259V39.732C34.1259 42.07 32.6979 44.072 30.5979 44.856L29.9959 43.932C31.8719 43.246 33.1739 41.552 33.1739 39.732V38.71ZM33.3979 38.71H34.3359V39.732C34.3359 41.37 35.5679 42.938 37.4019 43.582L36.8139 44.506C34.7559 43.764 33.3979 41.86 33.3979 39.732V38.71ZM30.3459 38.36H37.1079V39.312H30.3459V38.36ZM42.8328 47.516H54.2988V48.482H42.8328V47.516ZM47.9568 44.492H49.1188V47.796H47.9568V44.492ZM44.1768 38.332H45.3248V40.586H51.7788V38.332H52.9268V44.8H44.1768V38.332ZM45.3248 41.524V43.848H51.7788V41.524H45.3248Z" fill="#404040"/>
<defs>
<clipPath id="clip0_85_661">
<rect width="32" height="32" fill="white" transform="translate(19.875)"/>
</clipPath>
</defs>
</svg>
