<svg width="71" height="54" viewBox="0 0 71 54" fill="none" xmlns="http://www.w3.org/2000/svg">
<path d="M43.2083 11.1732V7.6665C43.2083 4.99984 41.875 3.6665 39.2083 3.6665H32.5417C29.875 3.6665 28.5417 4.99984 28.5417 7.6665V11.0798M25.555 15.6932V22.3198C25.555 24.7465 25.555 24.7465 27.8483 26.2932L34.155 29.9332C35.1017 30.4798 36.6483 30.4798 37.595 29.9332L43.9017 26.2932C46.195 24.7465 46.195 24.7465 46.195 22.3198V15.6932C46.195 13.2665 46.195 13.2665 43.9017 11.7198L37.595 8.07984C36.6483 7.53317 35.1017 7.53317 34.155 8.07984L27.8483 11.7198C25.555 13.2665 25.555 13.2665 25.555 15.6932ZM36.715 15.6532L37.475 16.8398C37.595 17.0265 37.8617 17.2132 38.0617 17.2665L39.4217 17.6132C40.2617 17.8265 40.4883 18.5465 39.9417 19.2132L39.0483 20.2932C38.915 20.4665 38.8083 20.7732 38.8217 20.9865L38.9017 22.3865C38.955 23.2532 38.3417 23.6932 37.5417 23.3732L36.235 22.8532C36.035 22.7732 35.7017 22.7732 35.5017 22.8532L34.195 23.3732C33.395 23.6932 32.7817 23.2398 32.835 22.3865L32.915 20.9865C32.9283 20.7732 32.8217 20.4532 32.6883 20.2932L31.795 19.2132C31.2483 18.5465 31.475 17.8265 32.315 17.6132L33.675 17.2665C33.8883 17.2132 34.155 17.0132 34.2617 16.8398L35.0217 15.6532C35.5017 14.9332 36.2483 14.9332 36.715 15.6532Z" stroke="#724B2E" stroke-width="1.5" stroke-linecap="round" stroke-linejoin="round"/>
<path d="M26.707 38.436H27.827V51.092H26.707V38.436ZM24.705 43.448H27.127V44.4H24.705V43.448ZM23.907 38.702H25.013V50.462H23.907V38.702ZM17.523 39.892H22.353V47.704H17.523V39.892ZM21.261 40.816H18.615V46.78H21.261V40.816ZM39.1519 38.436H40.3139V51.092H39.1519V38.436ZM33.4539 41.446H34.3919V42.524C34.3919 45.226 32.8659 47.676 30.8359 48.656L30.1779 47.76C32.0539 46.892 33.4539 44.736 33.4539 42.524V41.446ZM33.6779 41.446H34.6019V42.524C34.6019 44.638 36.0439 46.696 37.9339 47.522L37.2759 48.432C35.2319 47.508 33.6779 45.142 33.6779 42.524V41.446ZM30.5279 40.634H37.4999V41.572H30.5279V40.634ZM33.4539 38.66H34.6159V41.152H33.4539V38.66ZM49.1888 41.446H52.5908V42.412H49.1888V41.446ZM46.2768 39.01C48.1668 39.01 49.5388 40.214 49.5388 41.95C49.5388 43.686 48.1668 44.876 46.2768 44.876C44.3868 44.876 43.0148 43.686 43.0148 41.95C43.0148 40.214 44.3868 39.01 46.2768 39.01ZM46.2768 39.99C45.0308 39.99 44.1348 40.788 44.1348 41.95C44.1348 43.098 45.0308 43.91 46.2768 43.91C47.5228 43.91 48.4188 43.098 48.4188 41.95C48.4188 40.788 47.5228 39.99 46.2768 39.99ZM52.0728 38.436H53.2348V45.226H52.0728V38.436ZM45.1288 45.856H46.2908V47.452H52.0868V45.856H53.2348V50.924H45.1288V45.856ZM46.2908 48.376V49.986H52.0868V48.376H46.2908Z" fill="#724B2E"/>
</svg>
