<svg width="70" height="52" viewBox="0 0 70 52" fill="none" xmlns="http://www.w3.org/2000/svg">
<g clip-path="url(#clip0_1905_1395)">
<path d="M51.125 16.0051C51.1267 13.3423 50.4634 10.7212 49.1952 8.37957C47.927 6.03794 46.0941 4.04987 43.8627 2.59571C41.6313 1.14154 39.072 0.267283 36.4171 0.0522452C33.7622 -0.162792 31.0955 0.288191 28.6591 1.36429C26.2226 2.44038 24.0934 4.10754 22.4647 6.21453C20.836 8.32152 19.7592 10.8017 19.3321 13.43C18.9049 16.0584 19.1409 18.7517 20.0187 21.2658C20.8965 23.7799 22.3882 26.0351 24.3586 27.8269C24.3976 27.8731 24.4429 27.9136 24.4933 27.947C27.4192 30.5574 31.2036 32.0001 35.1252 32C39.0468 31.9999 42.8313 30.5571 45.757 27.9467C45.8072 27.9134 45.8523 27.8731 45.8911 27.8271C47.5403 26.3307 48.8579 24.5057 49.7593 22.4697C50.6607 20.4337 51.1259 18.2316 51.125 16.0051ZM20.405 16.0051C20.4033 13.5858 20.9983 11.2035 22.1373 9.06894C23.2763 6.9344 24.9242 5.11352 26.9351 3.76749C28.946 2.42147 31.2578 1.59183 33.6659 1.35202C36.074 1.11221 38.5041 1.46964 40.7411 2.39264C42.978 3.31565 44.9529 4.77578 46.4907 6.64375C48.0286 8.51172 49.082 10.7299 49.5577 13.102C50.0335 15.474 49.9169 17.9267 49.2183 20.243C48.5196 22.5592 47.2605 24.6676 45.5524 26.3813C43.9637 23.7217 41.4148 21.7729 38.4312 20.9366C39.8179 20.1992 40.9181 19.0194 41.5567 17.5848C42.1954 16.1503 42.3358 14.5435 41.9557 13.02C41.5756 11.4965 40.6968 10.1438 39.459 9.17716C38.2213 8.21051 36.6957 7.68542 35.125 7.68542C33.5543 7.68542 32.0287 8.21051 30.791 9.17716C29.5532 10.1438 28.6744 11.4965 28.2943 13.02C27.9141 14.5435 28.0546 16.1503 28.6933 17.5848C29.3319 19.0194 30.4321 20.1992 31.8188 20.9366C28.8352 21.7729 26.2863 23.7217 24.6976 26.3812C23.3355 25.0182 22.2554 23.4004 21.5188 21.62C20.7823 19.8397 20.4038 17.9317 20.405 16.0051ZM35.125 20.4837C33.9858 20.4837 32.8721 20.146 31.9249 19.5132C30.9777 18.8805 30.2394 17.9812 29.8035 16.9291C29.3675 15.8769 29.2534 14.7191 29.4757 13.6021C29.6979 12.4852 30.2465 11.4592 31.0521 10.6539C31.8576 9.84857 32.8839 9.30015 34.0013 9.07797C35.1186 8.85579 36.2768 8.96982 37.3293 9.40565C38.3818 9.84147 39.2813 10.5795 39.9143 11.5264C40.5472 12.4734 40.885 13.5866 40.885 14.7255C40.8833 16.2521 40.2759 17.7157 39.196 18.7952C38.1162 19.8747 36.6521 20.4819 35.125 20.4837ZM25.6634 27.2682C26.6132 25.5967 27.9892 24.2067 29.6513 23.2397C31.3133 22.2727 33.202 21.7633 35.125 21.7633C37.048 21.7633 38.9367 22.2727 40.5987 23.2397C42.2607 24.2067 43.6367 25.5968 44.5866 27.2683C41.9382 29.4978 38.5872 30.7204 35.1249 30.7204C31.6627 30.7204 28.3117 29.4977 25.6634 27.2682Z" fill="#F84B99"/>
</g>
<path d="M25.804 37.436H26.924V50.092H25.804V37.436ZM23.676 42.588H26.112V43.54H23.676V42.588ZM22.934 37.716H24.026V49.448H22.934V37.716ZM16.802 38.962H17.964V46.27H16.802V38.962ZM16.802 45.808H17.614C18.916 45.808 20.372 45.724 22.024 45.402L22.15 46.41C20.428 46.746 18.972 46.816 17.614 46.816H16.802V45.808ZM35.8269 40.712H38.6829V41.678H35.8269V40.712ZM38.3189 37.436H39.4809V44.982H38.3189V37.436ZM35.3229 45.36C37.9269 45.36 39.5369 46.242 39.5369 47.726C39.5369 49.224 37.9269 50.078 35.3229 50.078C32.7049 50.078 31.0949 49.224 31.0949 47.726C31.0949 46.242 32.7049 45.36 35.3229 45.36ZM35.3229 46.27C33.4189 46.27 32.2569 46.802 32.2569 47.726C32.2569 48.636 33.4189 49.168 35.3229 49.168C37.2269 49.168 38.3889 48.636 38.3889 47.726C38.3889 46.802 37.2269 46.27 35.3229 46.27ZM32.2989 38.71H33.2509V39.732C33.2509 42.07 31.8229 44.072 29.7229 44.856L29.1209 43.932C30.9969 43.246 32.2989 41.552 32.2989 39.732V38.71ZM32.5229 38.71H33.4609V39.732C33.4609 41.37 34.6929 42.938 36.5269 43.582L35.9389 44.506C33.8809 43.764 32.5229 41.86 32.5229 39.732V38.71ZM29.4709 38.36H36.2329V39.312H29.4709V38.36ZM41.9578 47.516H53.4238V48.482H41.9578V47.516ZM47.0818 44.492H48.2438V47.796H47.0818V44.492ZM43.3018 38.332H44.4498V40.586H50.9038V38.332H52.0518V44.8H43.3018V38.332ZM44.4498 41.524V43.848H50.9038V41.524H44.4498Z" fill="#F84B99"/>
<defs>
<clipPath id="clip0_1905_1395">
<rect width="32" height="32" fill="white" transform="translate(19)"/>
</clipPath>
</defs>
</svg>
