<svg width="70" height="52" viewBox="0 0 70 52" fill="none" xmlns="http://www.w3.org/2000/svg">
<path d="M35 23.9867V19.9867M31.0267 3.78672L23.84 9.38672C22.64 10.3201 21.6667 12.3067 21.6667 13.8134V23.6934C21.6667 26.7867 24.1867 29.3201 27.28 29.3201H42.72C45.8133 29.3201 48.3333 26.7867 48.3333 23.7067V14.0001C48.3333 12.3867 47.2533 10.3201 45.9333 9.40005L37.6933 3.62672C35.8267 2.32005 32.8267 2.38672 31.0267 3.78672Z" stroke="#724B2E" stroke-width="1.5" stroke-linecap="round" stroke-linejoin="round"/>
<path d="M30.586 46.312H39.224V49.924H30.586V46.312ZM38.09 47.208H31.734V49.042H38.09V47.208ZM29.788 38.472H39.966V39.382H29.788V38.472ZM34.912 39.886C37.516 39.886 39 40.502 39 41.678C39 42.854 37.516 43.47 34.912 43.47C32.294 43.47 30.824 42.854 30.824 41.678C30.824 40.502 32.294 39.886 34.912 39.886ZM34.912 40.698C33.078 40.698 32.056 41.048 32.056 41.678C32.056 42.308 33.078 42.658 34.912 42.658C36.732 42.658 37.754 42.308 37.754 41.678C37.754 41.048 36.732 40.698 34.912 40.698ZM34.338 37.254H35.486V39.06H34.338V37.254ZM29.186 44.436H40.624V45.346H29.186V44.436ZM34.338 43.19H35.486V44.94H34.338V43.19Z" fill="#724B2E"/>
</svg>
