<svg width="70" height="54" viewBox="0 0 70 54" fill="none" xmlns="http://www.w3.org/2000/svg">
<g clip-path="url(#clip0_1905_1376)">
<path d="M43.056 5.41357H28.3852C22.7663 5.41357 21.1966 6.76328 21.0645 12.0154C23.896 12.0154 26.1846 14.3187 26.1846 17.1502C26.1846 19.9816 23.896 22.2702 21.0645 22.2849C21.1966 27.537 22.7663 28.8868 28.3852 28.8868H43.056C48.9243 28.8868 50.3913 27.4197 50.3913 21.5514V12.7489C50.3913 6.88065 48.9243 5.41357 43.056 5.41357Z" stroke="#F84B99" stroke-width="1.5" stroke-linecap="round" stroke-linejoin="round"/>
<path d="M31.3168 5.41357V10.5483" stroke="#F84B99" stroke-width="1.5" stroke-linecap="round" stroke-linejoin="round"/>
<path d="M31.3168 23.752V28.8867" stroke="#F84B99" stroke-width="1.5" stroke-linecap="round" stroke-linejoin="round"/>
<path d="M40.166 13.2327L41.0756 15.0665C41.1636 15.2426 41.3396 15.3746 41.5304 15.4039L43.5549 15.6974C44.0537 15.7707 44.2591 16.3869 43.8924 16.739L42.4253 18.162C42.2786 18.2941 42.2199 18.4995 42.2492 18.7049L42.6013 20.7148C42.6894 21.2136 42.1612 21.595 41.7211 21.3603L39.9166 20.4067C39.7405 20.3186 39.5205 20.3186 39.3444 20.4067L37.5399 21.3603C37.0851 21.595 36.5717 21.2136 36.6597 20.7148L37.0118 18.7049C37.0411 18.4995 36.9824 18.3088 36.8357 18.162L35.3833 16.739C35.0166 16.3869 35.222 15.7707 35.7208 15.6974L37.7453 15.4039C37.9507 15.3746 38.1121 15.2572 38.2001 15.0665L39.095 13.2327C39.3004 12.7779 39.9459 12.7779 40.166 13.2327Z" stroke="#F84B99" stroke-width="1.5" stroke-linecap="round" stroke-linejoin="round"/>
</g>
<path d="M31.912 38.422H33.074V51.106H31.912V38.422ZM23.428 47.088H24.478C26.592 47.088 28.482 47.004 30.722 46.64L30.848 47.592C28.552 47.97 26.648 48.054 24.478 48.054H23.428V47.088ZM23.4 39.612H29.252V44.134H24.59V47.452H23.428V43.182H28.076V40.564H23.4V39.612ZM38.4489 45.982H39.6109V51.092H38.4489V45.982ZM42.9709 45.982H44.1469V51.092H42.9709V45.982ZM35.5649 45.828H47.0449V46.78H35.5649V45.828ZM37.0069 38.926H38.1689V40.62H44.4269V38.926H45.5749V44.344H37.0069V38.926ZM38.1689 41.572V43.378H44.4269V41.572H38.1689Z" fill="#F84B99"/>
<defs>
<clipPath id="clip0_1905_1376">
<rect width="32" height="32" fill="white" transform="translate(19 1)"/>
</clipPath>
</defs>
</svg>
