<svg width="71" height="54" viewBox="0 0 71 54" fill="none" xmlns="http://www.w3.org/2000/svg">
<g clip-path="url(#clip0_85_649)">
<path d="M43.931 5.41357H29.2602C23.6413 5.41357 22.0716 6.76328 21.9395 12.0154C24.771 12.0154 27.0596 14.3187 27.0596 17.1502C27.0596 19.9816 24.771 22.2702 21.9395 22.2849C22.0716 27.537 23.6413 28.8868 29.2602 28.8868H43.931C49.7993 28.8868 51.2663 27.4197 51.2663 21.5514V12.7489C51.2663 6.88065 49.7993 5.41357 43.931 5.41357Z" stroke="#724B2E" stroke-width="1.5" stroke-linecap="round" stroke-linejoin="round"/>
<path d="M32.1918 5.41357V10.5483" stroke="#724B2E" stroke-width="1.5" stroke-linecap="round" stroke-linejoin="round"/>
<path d="M32.1918 23.752V28.8867" stroke="#724B2E" stroke-width="1.5" stroke-linecap="round" stroke-linejoin="round"/>
<path d="M41.041 13.2327L41.9506 15.0665C42.0386 15.2426 42.2146 15.3746 42.4054 15.4039L44.4299 15.6974C44.9287 15.7707 45.1341 16.3869 44.7673 16.739L43.3003 18.162C43.1536 18.2941 43.0949 18.4995 43.1242 18.7049L43.4763 20.7148C43.5643 21.2136 43.0362 21.595 42.5961 21.3603L40.7916 20.4067C40.6155 20.3186 40.3955 20.3186 40.2194 20.4067L38.4149 21.3603C37.9601 21.595 37.4467 21.2136 37.5347 20.7148L37.8868 18.7049C37.9161 18.4995 37.8574 18.3088 37.7107 18.162L36.2583 16.739C35.8916 16.3869 36.0969 15.7707 36.5957 15.6974L38.6203 15.4039C38.8257 15.3746 38.9871 15.2572 39.0751 15.0665L39.97 13.2327C40.1754 12.7779 40.8209 12.7779 41.041 13.2327Z" stroke="#724B2E" stroke-width="1.5" stroke-linecap="round" stroke-linejoin="round"/>
</g>
<path d="M32.787 38.422H33.949V51.106H32.787V38.422ZM24.303 47.088H25.353C27.467 47.088 29.357 47.004 31.597 46.64L31.723 47.592C29.427 47.97 27.523 48.054 25.353 48.054H24.303V47.088ZM24.275 39.612H30.127V44.134H25.465V47.452H24.303V43.182H28.951V40.564H24.275V39.612ZM39.3239 45.982H40.4859V51.092H39.3239V45.982ZM43.8459 45.982H45.0219V51.092H43.8459V45.982ZM36.4399 45.828H47.9199V46.78H36.4399V45.828ZM37.8819 38.926H39.0439V40.62H45.3019V38.926H46.4499V44.344H37.8819V38.926ZM39.0439 41.572V43.378H45.3019V41.572H39.0439Z" fill="#724B2E"/>
<defs>
<clipPath id="clip0_85_649">
<rect width="32" height="32" fill="white" transform="translate(19.875 1)"/>
</clipPath>
</defs>
</svg>
