<svg width="26" height="26" viewBox="0 0 26 26" fill="none" xmlns="http://www.w3.org/2000/svg">
<path d="M18.9586 8.26567V5.4165C18.9586 3.24984 17.8752 2.1665 15.7086 2.1665H10.2919C8.12523 2.1665 7.0419 3.24984 7.0419 5.4165V8.18984M4.61523 11.9382V17.3223C4.61523 19.294 4.61523 19.294 6.47857 20.5507L11.6027 23.5082C12.3719 23.9523 13.6286 23.9523 14.3977 23.5082L19.5219 20.5507C21.3852 19.294 21.3852 19.294 21.3852 17.3223V11.9382C21.3852 9.9665 21.3852 9.9665 19.5219 8.70984L14.3977 5.75234C13.6286 5.30817 12.3719 5.30817 11.6027 5.75234L6.47857 8.70984C4.61523 9.9665 4.61523 9.9665 4.61523 11.9382ZM13.6827 11.9057L14.3002 12.8698C14.3977 13.0215 14.6144 13.1732 14.7769 13.2165L15.8819 13.4982C16.5644 13.6715 16.7486 14.2565 16.3044 14.7982L15.5786 15.6757C15.4702 15.8165 15.3836 16.0657 15.3944 16.239L15.4594 17.3765C15.5027 18.0807 15.0044 18.4382 14.3544 18.1782L13.2927 17.7557C13.1302 17.6907 12.8594 17.6907 12.6969 17.7557L11.6352 18.1782C10.9852 18.4382 10.4869 18.0698 10.5302 17.3765L10.5952 16.239C10.6061 16.0657 10.5194 15.8057 10.4111 15.6757L9.68523 14.7982C9.24107 14.2565 9.42523 13.6715 10.1077 13.4982L11.2127 13.2165C11.3861 13.1732 11.6027 13.0107 11.6894 12.8698L12.3069 11.9057C12.6969 11.3207 13.3036 11.3207 13.6827 11.9057Z" stroke="#000000" stroke-width="1.5" stroke-linecap="round" stroke-linejoin="round"/>
</svg>
