<svg width="24" height="24" viewBox="0 0 24 24" fill="none" xmlns="http://www.w3.org/2000/svg">
<path d="M12.075 0.581022C12.035 0.311046 11.83 0.0910654 11.56 0.051069C10.4551 -0.103917 9.33019 0.096065 8.34026 0.621018L4.64053 2.59584C3.6556 3.12079 2.86066 3.94572 2.37069 4.95063L0.535822 8.73029C0.0458568 9.7352 -0.114132 10.8751 0.0808543 11.975L0.805802 16.1146C1.00079 17.2195 1.53575 18.2294 2.34069 19.0094L5.35548 21.9291C6.16042 22.709 7.18535 23.209 8.29027 23.364L12.44 23.9489C13.5449 24.1039 14.6698 23.9039 15.6597 23.379L19.3595 21.4042C20.3444 20.8792 21.1393 20.0543 21.6293 19.0444L23.4642 15.2697C23.9541 14.2648 24.1141 13.1249 23.9191 12.025C23.8741 11.76 23.6542 11.56 23.3892 11.52C20.8144 11.1101 18.7495 9.16525 18.1646 6.65048C18.0746 6.27051 17.7646 5.98054 17.3796 5.92054C14.6498 5.48558 12.495 3.32078 12.07 0.581022H12.075ZM9.60017 6.4005C10.0245 6.4005 10.4314 6.56906 10.7315 6.86909C11.0315 7.16912 11.2001 7.57605 11.2001 8.00036C11.2001 8.42467 11.0315 8.8316 10.7315 9.13163C10.4314 9.43166 10.0245 9.60021 9.60017 9.60021C9.17586 9.60021 8.76892 9.43166 8.46888 9.13163C8.16885 8.8316 8.00029 8.42467 8.00029 8.00036C8.00029 7.57605 8.16885 7.16912 8.46888 6.86909C8.76892 6.56906 9.17586 6.4005 9.60017 6.4005ZM6.4004 15.9996C6.4004 15.5753 6.56896 15.1684 6.869 14.8684C7.16903 14.5683 7.57597 14.3998 8.00029 14.3998C8.4246 14.3998 8.83154 14.5683 9.13158 14.8684C9.43161 15.1684 9.60017 15.5753 9.60017 15.9996C9.60017 16.424 9.43161 16.8309 9.13158 17.1309C8.83154 17.4309 8.4246 17.5995 8.00029 17.5995C7.57597 17.5995 7.16903 17.4309 6.869 17.1309C6.56896 16.8309 6.4004 16.424 6.4004 15.9996ZM17.5996 12.7999C18.0239 12.7999 18.4309 12.9685 18.7309 13.2685C19.0309 13.5685 19.1995 13.9755 19.1995 14.3998C19.1995 14.8241 19.0309 15.231 18.7309 15.5311C18.4309 15.8311 18.0239 15.9996 17.5996 15.9996C17.1753 15.9996 16.7683 15.8311 16.4683 15.5311C16.1683 15.231 15.9997 14.8241 15.9997 14.3998C15.9997 13.9755 16.1683 13.5685 16.4683 13.2685C16.7683 12.9685 17.1753 12.7999 17.5996 12.7999Z" fill="#CC9D52"/>
</svg>
