<svg width="22" height="22" viewBox="0 0 22 22" fill="none" xmlns="http://www.w3.org/2000/svg">
<path d="M11.0687 0.532603C11.0321 0.285125 10.8442 0.0834766 10.5967 0.0468133C9.58385 -0.0952574 8.55268 0.0880596 7.64524 0.569266L4.25382 2.37952C3.35097 2.86073 2.62227 3.61691 2.17313 4.53808L0.49117 8.00277C0.0420354 8.92394 -0.104621 9.96884 0.0741164 10.9771L0.738652 14.7717C0.917389 15.7846 1.40777 16.7103 2.14563 17.4253L4.90919 20.1017C5.64705 20.8166 6.58657 21.2749 7.59941 21.417L11.4033 21.9532C12.4161 22.0953 13.4473 21.9119 14.3548 21.4307L17.7462 19.6205C18.649 19.1393 19.3777 18.3831 19.8269 17.4573L21.5088 13.9972C21.958 13.0761 22.1046 12.0312 21.9259 11.0229C21.8846 10.78 21.683 10.5967 21.4401 10.56C19.0798 10.1842 17.1871 8.40148 16.6508 6.09627C16.5684 5.74797 16.2842 5.48216 15.9313 5.42717C13.429 5.02845 11.4537 3.04404 11.0642 0.532603H11.0687ZM8.80016 5.86713C9.18911 5.86713 9.56214 6.02164 9.83717 6.29666C10.1122 6.57169 10.2667 6.94471 10.2667 7.33366C10.2667 7.72261 10.1122 8.09563 9.83717 8.37066C9.56214 8.64569 9.18911 8.8002 8.80016 8.8002C8.4112 8.8002 8.03818 8.64569 7.76314 8.37066C7.48811 8.09563 7.3336 7.72261 7.3336 7.33366C7.3336 6.94471 7.48811 6.57169 7.76314 6.29666C8.03818 6.02164 8.4112 5.86713 8.80016 5.86713ZM5.86703 14.6663C5.86703 14.2774 6.02155 13.9044 6.29658 13.6293C6.57161 13.3543 6.94464 13.1998 7.3336 13.1998C7.72255 13.1998 8.09558 13.3543 8.37061 13.6293C8.64565 13.9044 8.80016 14.2774 8.80016 14.6663C8.80016 15.0553 8.64565 15.4283 8.37061 15.7033C8.09558 15.9784 7.72255 16.1329 7.3336 16.1329C6.94464 16.1329 6.57161 15.9784 6.29658 15.7033C6.02155 15.4283 5.86703 15.0553 5.86703 14.6663ZM16.133 11.7333C16.5219 11.7333 16.8949 11.8878 17.17 12.1628C17.445 12.4378 17.5995 12.8109 17.5995 13.1998C17.5995 13.5888 17.445 13.9618 17.17 14.2368C16.8949 14.5118 16.5219 14.6663 16.133 14.6663C15.744 14.6663 15.371 14.5118 15.096 14.2368C14.8209 13.9618 14.6664 13.5888 14.6664 13.1998C14.6664 12.8109 14.8209 12.4378 15.096 12.1628C15.371 11.8878 15.744 11.7333 16.133 11.7333Z" fill="#CC9D52"/>
</svg>
