<svg width="26" height="24" viewBox="0 0 26 24" fill="none" xmlns="http://www.w3.org/2000/svg">
<path d="M12.5967 0.051069C11.5839 -0.103917 10.5527 0.096065 9.64524 0.621018L6.25382 2.59584C5.35097 3.12079 4.62227 3.94572 4.17313 4.95063L2.49117 8.73029C2.04204 9.7352 1.89538 10.8751 2.07412 11.975L2.73865 16.1146C2.91739 17.2195 3.40777 18.2294 4.14563 19.0094L6.90919 21.9291C7.64705 22.709 8.58657 23.209 9.59941 23.364L13.4033 23.9489C14.4161 24.1039 15.4473 23.9039 16.3548 23.379L19.7462 21.4042C20.649 20.8792 21.3777 20.0543 21.8269 19.0444L23.5088 15.2697C23.958 14.2648 24.1046 13.1249 23.9259 12.025L23.2568 7.88537C23.078 6.78047 22.5876 5.77056 21.8498 4.99063L19.0908 2.07589C18.3529 1.29596 17.4134 0.796002 16.4006 0.641016L12.5967 0.051069ZM10.8002 6.4005C11.1891 6.4005 11.5621 6.56906 11.8372 6.86909C12.1122 7.16912 12.2667 7.57605 12.2667 8.00036C12.2667 8.42467 12.1122 8.8316 11.8372 9.13163C11.5621 9.43166 11.1891 9.60021 10.8002 9.60021C10.4112 9.60021 10.0382 9.43166 9.76314 9.13163C9.48811 8.8316 9.3336 8.42467 9.3336 8.00036C9.3336 7.57605 9.48811 7.16912 9.76314 6.86909C10.0382 6.56906 10.4112 6.4005 10.8002 6.4005ZM7.86703 15.9996C7.86703 15.5753 8.02155 15.1684 8.29658 14.8684C8.57161 14.5683 8.94464 14.3998 9.3336 14.3998C9.72255 14.3998 10.0956 14.5683 10.3706 14.8684C10.6456 15.1684 10.8002 15.5753 10.8002 15.9996C10.8002 16.424 10.6456 16.8309 10.3706 17.1309C10.0956 17.4309 9.72255 17.5995 9.3336 17.5995C8.94464 17.5995 8.57161 17.4309 8.29658 17.1309C8.02155 16.8309 7.86703 16.424 7.86703 15.9996ZM18.133 12.7999C18.5219 12.7999 18.8949 12.9685 19.17 13.2685C19.445 13.5685 19.5995 13.9755 19.5995 14.3998C19.5995 14.8241 19.445 15.231 19.17 15.5311C18.8949 15.8311 18.5219 15.9996 18.133 15.9996C17.744 15.9996 17.371 15.8311 17.096 15.5311C16.8209 15.231 16.6664 14.8241 16.6664 14.3998C16.6664 13.9755 16.8209 13.5685 17.096 13.2685C17.371 12.9685 17.744 12.7999 18.133 12.7999Z" fill="#AFAFAF"/>
</svg>
