<svg width="25" height="24" viewBox="0 0 25 24" fill="none" xmlns="http://www.w3.org/2000/svg">
<path d="M6.09375 0H24.3742V23.5625H0V0H6.09375ZM19.9062 21.9375H22.7492V19.9062H19.9062V21.9375ZM19.9062 18.2812H22.7492V16.25H19.9062V18.2812ZM19.9062 14.625H22.7492V12.5938H19.9062V14.625ZM19.9062 10.9688H22.7492V8.9375H19.9062V10.9688ZM19.9062 7.3125H22.7492V5.28125H19.9062V7.3125ZM19.9062 3.65625H22.7492V1.625H19.9062V3.65625ZM6.09375 14.625V21.9375H18.2805V12.5938H6.09375V14.625ZM6.09375 3.65625V10.9688H18.2805V1.625H6.09375V3.65625ZM1.625 21.9375H4.46875V19.9062H1.625V21.9375ZM1.625 18.2812H4.46875V16.25H1.625V18.2812ZM1.625 14.625H4.46875V12.5938H1.625V14.625ZM1.625 10.9688H4.46875V8.9375H1.625V10.9688ZM1.625 7.3125H4.46875V5.28125H1.625V7.3125ZM1.625 3.65625H4.46875V1.625H1.625V3.65625Z" fill="#CC9D52"/>
</svg>
