<svg width="23" height="20" viewBox="0 0 23 20" fill="none" xmlns="http://www.w3.org/2000/svg">
<path d="M10.542 1.66688H8.62533C3.83366 1.66688 1.91699 3.33354 1.91699 7.50021V12.5002C1.91699 16.6669 3.83366 18.3335 8.62533 18.3335H14.3753C19.167 18.3335 21.0837 16.6669 21.0837 12.5002V10.8335M14.2891 3.45854C14.9312 5.45021 16.7232 7.00854 19.0232 7.57521M15.372 2.51688L7.82033 9.08354C7.53283 9.33354 7.24533 9.82521 7.18783 10.1835L6.77574 12.6919C6.62241 13.6002 7.36033 14.2335 8.40491 14.1085L11.2895 13.7502C11.692 13.7002 12.2574 13.4502 12.5545 13.2002L20.1062 6.63354C21.4095 5.50021 22.0228 4.18354 20.1062 2.51688C18.1895 0.850211 16.6753 1.38354 15.372 2.51688Z" stroke="#04012D" stroke-width="2" stroke-miterlimit="10" stroke-linecap="round" stroke-linejoin="round"/>
</svg>
