<svg width="26" height="26" viewBox="0 0 30 30" fill="none" xmlns="http://www.w3.org/2000/svg">
<path d="M6.03583 3.68604L6.03611 3.6859L10.6596 1.21801C10.6598 1.2179 10.66 1.21779 10.6602 1.21768C11.805 0.610744 13.1046 0.380104 14.3801 0.558923C14.3803 0.558945 14.3804 0.558967 14.3806 0.558989L19.5668 1.29629L19.5677 1.29642C20.844 1.47544 22.0276 2.05273 22.9577 2.95395L22.9578 2.95404L26.72 6.59737C26.72 6.5974 26.72 6.59743 26.72 6.59746C27.6503 7.49886 28.2686 8.66586 28.4941 9.9436L29.4065 15.1181L29.4066 15.1185C29.6319 16.3891 29.447 17.7067 28.8808 18.868L28.8805 18.8685L26.587 23.5869L26.5868 23.5872C26.0204 24.7546 25.1019 25.7076 23.9642 26.314L23.9639 26.3141L19.3404 28.782C19.3402 28.7821 19.34 28.7822 19.3398 28.7823C18.1948 29.3893 16.8951 29.62 15.6194 29.441L10.4326 28.7099L10.4323 28.7098C9.15604 28.5308 7.97239 27.9535 7.04228 27.0523L7.04219 27.0522L3.2738 23.4026C2.34356 22.5013 1.72525 21.3344 1.4997 20.0567C1.49968 20.0566 1.49966 20.0565 1.49964 20.0564L0.593574 14.8825L0.593392 14.8815C0.368144 13.6109 0.553006 12.2933 1.1192 11.132L1.11958 11.1312L3.41279 6.40741C3.41284 6.40731 3.41289 6.4072 3.41294 6.4071C3.97932 5.24564 4.89807 4.29246 6.03583 3.68604ZM13.7679 8.2328C13.2991 7.764 12.6632 7.50063 12.0002 7.50063C11.3372 7.50063 10.7014 7.764 10.2326 8.2328C9.76374 8.70161 9.50036 9.33745 9.50036 10.0004C9.50036 10.6634 9.76374 11.2993 10.2326 11.7681C10.7014 12.2369 11.3372 12.5003 12.0002 12.5003C12.6632 12.5003 13.2991 12.2369 13.7679 11.7681C14.2367 11.2993 14.5001 10.6634 14.5001 10.0004C14.5001 9.33745 14.2367 8.70161 13.7679 8.2328ZM8.2327 18.2319C7.76388 18.7007 7.5005 19.3366 7.5005 19.9996C7.5005 20.6625 7.76388 21.2984 8.2327 21.7672C8.70151 22.236 9.33736 22.4994 10.0004 22.4994C10.6634 22.4994 11.2992 22.236 11.768 21.7672C12.2368 21.2984 12.5002 20.6625 12.5002 19.9996C12.5002 19.3366 12.2368 18.7007 11.768 18.2319C11.2992 17.7631 10.6634 17.4997 10.0004 17.4997C9.33736 17.4997 8.70151 17.7631 8.2327 18.2319ZM23.7672 16.2321C23.2983 15.7633 22.6625 15.4999 21.9995 15.4999C21.3365 15.4999 20.7007 15.7633 20.2318 16.2321C19.763 16.7009 19.4996 17.3367 19.4996 17.9997C19.4996 18.6627 19.763 19.2986 20.2318 19.7674C20.7007 20.2362 21.3365 20.4996 21.9995 20.4996C22.6625 20.4996 23.2983 20.2362 23.7672 19.7674C24.236 19.2986 24.4994 18.6627 24.4994 17.9997C24.4994 17.3367 24.236 16.7009 23.7672 16.2321Z" stroke="#724B2E"/>
</svg>
