<svg width="26" height="26" viewBox="0 0 26 26" fill="none" xmlns="http://www.w3.org/2000/svg">
<path d="M12.5967 1.05107C11.5839 0.896083 10.5527 1.09606 9.64524 1.62102L6.25382 3.59584C5.35097 4.12079 4.62227 4.94572 4.17313 5.95063L2.49117 9.73029C2.04204 10.7352 1.89538 11.8751 2.07412 12.975L2.73865 17.1146C2.91739 18.2195 3.40777 19.2294 4.14563 20.0094L6.90919 22.9291C7.64705 23.709 8.58657 24.209 9.59941 24.364L13.4033 24.9489C14.4161 25.1039 15.4473 24.9039 16.3548 24.379L19.7462 22.4042C20.649 21.8792 21.3777 21.0543 21.8269 20.0444L23.5088 16.2697C23.958 15.2648 24.1046 14.1249 23.9259 13.025L23.2568 8.88537C23.078 7.78047 22.5876 6.77056 21.8498 5.99063L19.0908 3.07589C18.3529 2.29596 17.4134 1.796 16.4006 1.64102L12.5967 1.05107ZM10.8002 7.4005C11.1891 7.4005 11.5621 7.56906 11.8372 7.86909C12.1122 8.16912 12.2667 8.57605 12.2667 9.00036C12.2667 9.42467 12.1122 9.8316 11.8372 10.1316C11.5621 10.4317 11.1891 10.6002 10.8002 10.6002C10.4112 10.6002 10.0382 10.4317 9.76314 10.1316C9.48811 9.8316 9.3336 9.42467 9.3336 9.00036C9.3336 8.57605 9.48811 8.16912 9.76314 7.86909C10.0382 7.56906 10.4112 7.4005 10.8002 7.4005ZM7.86703 16.9996C7.86703 16.5753 8.02155 16.1684 8.29658 15.8684C8.57161 15.5683 8.94464 15.3998 9.3336 15.3998C9.72255 15.3998 10.0956 15.5683 10.3706 15.8684C10.6456 16.1684 10.8002 16.5753 10.8002 16.9996C10.8002 17.424 10.6456 17.8309 10.3706 18.1309C10.0956 18.4309 9.72255 18.5995 9.3336 18.5995C8.94464 18.5995 8.57161 18.4309 8.29658 18.1309C8.02155 17.8309 7.86703 17.424 7.86703 16.9996ZM18.133 13.7999C18.5219 13.7999 18.8949 13.9685 19.17 14.2685C19.445 14.5685 19.5995 14.9755 19.5995 15.3998C19.5995 15.8241 19.445 16.231 19.17 16.5311C18.8949 16.8311 18.5219 16.9996 18.133 16.9996C17.744 16.9996 17.371 16.8311 17.096 16.5311C16.8209 16.231 16.6664 15.8241 16.6664 15.3998C16.6664 14.9755 16.8209 14.5685 17.096 14.2685C17.371 13.9685 17.744 13.7999 18.133 13.7999Z" fill="#724B2E"/>
</svg>
