<svg width="25" height="25" viewBox="0 0 25 25" fill="none" xmlns="http://www.w3.org/2000/svg">
<path d="M11.888 22.8137C12.3059 23.0469 12.8088 23.034 13.2243 22.7965C16.0236 21.1967 20.8879 17.514 22.7983 12.7303C25.6023 6.50187 19.0185 1.52995 14.4682 5.10594C13.9936 5.47896 13.3968 5.90589 12.9861 6.3103C12.8004 6.49316 12.4731 6.5118 12.2804 6.33641C11.7404 5.84513 10.8965 5.21493 10.3545 4.84826C6.47537 2.22374 -0.58292 5.6833 2.42789 13.0668C3.53083 16.381 8.78672 21.083 11.888 22.8137Z" fill="url(#paint0_radial_1660_1364)"/>
<path d="M11.888 22.8137C12.3059 23.0469 12.8088 23.034 13.2243 22.7965C16.0236 21.1967 20.8879 17.514 22.7983 12.7303C25.6023 6.50187 19.0185 1.52995 14.4682 5.10594C13.9936 5.47896 13.3968 5.90589 12.9861 6.3103C12.8004 6.49316 12.4731 6.5118 12.2804 6.33641C11.7404 5.84513 10.8965 5.21493 10.3545 4.84826C6.47537 2.22374 -0.58292 5.6833 2.42789 13.0668C3.53083 16.381 8.78672 21.083 11.888 22.8137Z" fill="url(#paint1_radial_1660_1364)"/>
<path d="M11.888 22.8137C12.3059 23.0469 12.8088 23.034 13.2243 22.7965C16.0236 21.1967 20.8879 17.514 22.7983 12.7303C25.6023 6.50187 19.0185 1.52995 14.4682 5.10594C13.9936 5.47896 13.3968 5.90589 12.9861 6.3103C12.8004 6.49316 12.4731 6.5118 12.2804 6.33641C11.7404 5.84513 10.8965 5.21493 10.3545 4.84826C6.47537 2.22374 -0.58292 5.6833 2.42789 13.0668C3.53083 16.381 8.78672 21.083 11.888 22.8137Z" fill="url(#paint2_radial_1660_1364)"/>
<path d="M11.888 22.8137C12.3059 23.0469 12.8088 23.034 13.2243 22.7965C16.0236 21.1967 20.8879 17.514 22.7983 12.7303C25.6023 6.50187 19.0185 1.52995 14.4682 5.10594C13.9936 5.47896 13.3968 5.90589 12.9861 6.3103C12.8004 6.49316 12.4731 6.5118 12.2804 6.33641C11.7404 5.84513 10.8965 5.21493 10.3545 4.84826C6.47537 2.22374 -0.58292 5.6833 2.42789 13.0668C3.53083 16.381 8.78672 21.083 11.888 22.8137Z" fill="url(#paint3_radial_1660_1364)"/>
<path d="M11.888 22.8137C12.3059 23.0469 12.8088 23.034 13.2243 22.7965C16.0236 21.1967 20.8879 17.514 22.7983 12.7303C25.6023 6.50187 19.0185 1.52995 14.4682 5.10594C13.9936 5.47896 13.3968 5.90589 12.9861 6.3103C12.8004 6.49316 12.4731 6.5118 12.2804 6.33641C11.7404 5.84513 10.8965 5.21493 10.3545 4.84826C6.47537 2.22374 -0.58292 5.6833 2.42789 13.0668C3.53083 16.381 8.78672 21.083 11.888 22.8137Z" fill="url(#paint4_linear_1660_1364)"/>
<path d="M11.888 22.8137C12.3059 23.0469 12.8088 23.034 13.2243 22.7965C16.0236 21.1967 20.8879 17.514 22.7983 12.7303C25.6023 6.50187 19.0185 1.52995 14.4682 5.10594C13.9936 5.47896 13.3968 5.90589 12.9861 6.3103C12.8004 6.49316 12.4731 6.5118 12.2804 6.33641C11.7404 5.84513 10.8965 5.21493 10.3545 4.84826C6.47537 2.22374 -0.58292 5.6833 2.42789 13.0668C3.53083 16.381 8.78672 21.083 11.888 22.8137Z" fill="url(#paint5_linear_1660_1364)"/>
<path d="M12.0061 22.9982C12.4241 23.2314 12.927 23.2186 13.3425 22.9811C16.1418 21.3813 21.0061 17.6986 22.9164 12.9149C25.7204 6.68644 19.1367 1.71452 14.5864 5.29051C14.1118 5.66353 13.515 6.09046 13.1043 6.49487C12.9186 6.67773 12.5913 6.69637 12.3986 6.52098C11.8586 6.0297 11.0147 5.3995 10.4727 5.03283C6.59353 2.40831 -0.464756 5.86787 2.54606 13.2514C3.64899 16.5656 8.90488 21.2675 12.0061 22.9982Z" fill="url(#paint6_radial_1660_1364)" fill-opacity="0.6"/>
<path d="M12.4287 8.23498V13.5652C12.4287 14.2721 13.2846 14.6072 13.7254 14.0544C15.0887 12.3443 16.1883 10.2648 14.9611 8.56608C14.4907 7.91483 13.5893 7.49759 12.8528 7.63033C12.5772 7.67998 12.4287 7.95498 12.4287 8.23498Z" fill="#FA1C56"/>
<path d="M21.2832 10.9611C22.6635 9.61925 22.8804 7.60345 21.7676 6.45871C20.6548 5.31397 18.6336 5.47378 17.2533 6.81567C15.8729 8.15755 15.656 10.1734 16.7689 11.3181C17.8817 12.4628 19.9028 12.303 21.2832 10.9611Z" fill="url(#paint7_radial_1660_1364)"/>
<path d="M18.2934 5.01535C19.018 5.10643 19.6209 5.05685 19.6401 4.90461C19.6592 4.75236 19.0873 4.55509 18.3628 4.464C17.6382 4.37291 17.0353 4.42249 17.0161 4.57474C16.997 4.72699 17.5689 4.92426 18.2934 5.01535Z" fill="#FF7383"/>
<path d="M7.33758 4.92407C7.99279 4.9161 8.52288 4.8224 8.52157 4.71479C8.52026 4.60719 7.98805 4.52642 7.33284 4.53439C6.67764 4.54236 6.14755 4.63606 6.14886 4.74367C6.15016 4.85127 6.68238 4.93204 7.33758 4.92407Z" fill="#FF93BA" fill-opacity="0.5"/>
<path d="M11.5982 7.78262L11.8424 15.7905C6.4713 10.5659 5.43848 6.89689 7.49665 6.07364C9.44983 5.29239 11.0123 6.56192 11.5982 7.78262Z" fill="url(#paint8_radial_1660_1364)"/>
<path d="M11.207 7.31396C10.5508 7.22021 10.3477 6.67595 10.3281 6.41553C10.7031 6.80615 11.0703 6.83871 11.207 6.80615V7.31396Z" fill="#FF7383"/>
<defs>
<radialGradient id="paint0_radial_1660_1364" cx="0" cy="0" r="1" gradientUnits="userSpaceOnUse" gradientTransform="translate(12.4081 4.40127) rotate(90) scale(17.9566 19.0641)">
<stop stop-color="#FC0000"/>
<stop offset="0.527969" stop-color="#FF3B79"/>
<stop offset="1" stop-color="#F724B3"/>
</radialGradient>
<radialGradient id="paint1_radial_1660_1364" cx="0" cy="0" r="1" gradientUnits="userSpaceOnUse" gradientTransform="translate(17.9879 8.87742) rotate(134.402) scale(16.613 31.1178)">
<stop offset="0.797874" stop-color="#C82092" stop-opacity="0"/>
<stop offset="0.908039" stop-color="#C82092"/>
</radialGradient>
<radialGradient id="paint2_radial_1660_1364" cx="0" cy="0" r="1" gradientUnits="userSpaceOnUse" gradientTransform="translate(15.6222 13.8973) rotate(-158.663) scale(17.7727 25.1242)">
<stop offset="0.40984" stop-color="#B91D43" stop-opacity="0"/>
<stop offset="0.833898" stop-color="#B91D43"/>
</radialGradient>
<radialGradient id="paint3_radial_1660_1364" cx="0" cy="0" r="1" gradientUnits="userSpaceOnUse" gradientTransform="translate(12.1561 10.7934) rotate(90) scale(15.4681)">
<stop offset="0.671096" stop-color="#FF7AF2" stop-opacity="0"/>
<stop offset="0.933555" stop-color="#FFBCE6"/>
</radialGradient>
<linearGradient id="paint4_linear_1660_1364" x1="13.8633" y1="12.604" x2="20.1229" y2="20.0535" gradientUnits="userSpaceOnUse">
<stop offset="0.694491" stop-color="#FF7AF2" stop-opacity="0"/>
<stop offset="0.933555" stop-color="#FFBCE6"/>
</linearGradient>
<linearGradient id="paint5_linear_1660_1364" x1="13.0873" y1="12.9144" x2="5.7412" y2="21.1916" gradientUnits="userSpaceOnUse">
<stop offset="0.694491" stop-color="#FF7AF2" stop-opacity="0"/>
<stop offset="0.933555" stop-color="#FFBCE6"/>
</linearGradient>
<radialGradient id="paint6_radial_1660_1364" cx="0" cy="0" r="1" gradientUnits="userSpaceOnUse" gradientTransform="translate(14.4515 10.2593) rotate(164.618) scale(13.4489 14.2033)">
<stop offset="0.802083" stop-color="#FF73A6" stop-opacity="0"/>
<stop offset="1" stop-color="#FF93BA"/>
</radialGradient>
<radialGradient id="paint7_radial_1660_1364" cx="0" cy="0" r="1" gradientUnits="userSpaceOnUse" gradientTransform="translate(21.6965 6.3912) rotate(128.737) scale(5.69638 7.5747)">
<stop stop-color="#FF7383"/>
<stop offset="1" stop-color="#FF7383" stop-opacity="0"/>
</radialGradient>
<radialGradient id="paint8_radial_1660_1364" cx="0" cy="0" r="1" gradientUnits="userSpaceOnUse" gradientTransform="translate(12.7701 10.8119) rotate(-135.591) scale(9.91102 17.5938)">
<stop stop-color="#FF6274"/>
<stop offset="1" stop-color="#FF6274" stop-opacity="0"/>
</radialGradient>
</defs>
</svg>
