<svg width="23" height="21" viewBox="0 0 23 21" fill="none" xmlns="http://www.w3.org/2000/svg">
<path d="M14.5457 0.130336C12.8297 -0.380394 11.0373 0.655123 10.5477 2.44502L10.2916 3.38214C10.1254 3.99127 9.82441 4.55354 9.41563 5.0221L7.11113 7.66478C6.71133 8.12397 6.74277 8.83618 7.18301 9.2532C7.62324 9.67022 8.30605 9.63742 8.70586 9.17823L11.0104 6.53555C11.6438 5.80928 12.1064 4.94245 12.3625 4.00064L12.6186 3.06352C12.7803 2.46845 13.3777 2.12172 13.9527 2.2904C14.5277 2.45908 14.8557 3.08226 14.6939 3.68202L14.4379 4.61914C14.1818 5.55158 13.7775 6.43247 13.243 7.21965C13.0094 7.5617 12.9824 8.01152 13.1666 8.38636C13.3508 8.76121 13.7191 8.99549 14.1234 8.99549H20.125C20.5203 8.99549 20.8437 9.33285 20.8437 9.74519C20.8437 10.0638 20.6506 10.3403 20.3766 10.448C20.0441 10.5792 19.7926 10.8697 19.7072 11.2305C19.6219 11.5913 19.7117 11.9708 19.9453 12.2473C20.0576 12.3785 20.125 12.5519 20.125 12.744C20.125 13.1094 19.8734 13.414 19.541 13.4796C19.1727 13.5546 18.8627 13.8217 18.7324 14.1918C18.6021 14.562 18.6605 14.9743 18.8941 15.2836C18.9885 15.4101 19.0469 15.5694 19.0469 15.7474C19.0469 16.0614 18.8582 16.3378 18.5887 16.4456C18.0721 16.6564 17.7936 17.2375 17.9418 17.795C17.9598 17.856 17.9687 17.9262 17.9687 17.9965C17.9687 18.4089 17.6453 18.7462 17.25 18.7462H12.8701C12.3041 18.7462 11.7471 18.5729 11.2754 18.2449L8.50371 16.3191C8.00957 15.9723 7.34023 16.1129 7.00781 16.633C6.67539 17.1531 6.81016 17.8466 7.30879 18.1933L10.0805 20.1191C10.907 20.6954 11.8773 21 12.8701 21H17.25C18.8088 21 20.0756 19.7068 20.125 18.0949C20.7809 17.5467 21.2031 16.7033 21.2031 15.7521C21.2031 15.5413 21.1807 15.3398 21.1447 15.143C21.8365 14.5948 22.2812 13.7279 22.2812 12.7533C22.2812 12.4488 22.2363 12.1536 22.1555 11.8771C22.6766 11.3242 23 10.5745 23 9.74519C23 8.09117 21.7152 6.7464 20.125 6.7464H15.9787C16.1898 6.2591 16.3695 5.75306 16.5088 5.23764L16.7648 4.30052C17.2545 2.51062 16.2617 0.641067 14.5457 0.130336ZM1.4375 7.4961C0.642383 7.4961 0 8.16614 0 8.99549V19.4912C0 20.3206 0.642383 20.9906 1.4375 20.9906H4.3125C5.10762 20.9906 5.75 20.3206 5.75 19.4912V8.99549C5.75 8.16614 5.10762 7.4961 4.3125 7.4961H1.4375Z" fill="#04012D"/>
</svg>
