<svg fill="none" height="141" viewBox="0 0 158 141" width="158" xmlns="http://www.w3.org/2000/svg" xmlns:xlink="http://www.w3.org/1999/xlink"><clipPath id="a"><path d="m.777344 0h157v141h-157z"/></clipPath><g clip-path="url(#a)" fill="#000"><path d="m25.3444 106.878c2.4384 1.666 2.7576 2.877 1.4841 5.633-2.6645 5.769-5.738 12.606-8.3321 19.597-.6912 1.862-.7407 5.499.7544 6.959 1.2234 1.195 3.2989 1.359 5.306 1.517.5935.047 1.1538.091 1.6814.16.0854.012.1713.017.2574.017.73-.069 1.433-.311 2.0507-.705l.2606-.136c2.1998-1.135 4.4017-2.266 6.6057-3.394 6.2911-3.225 12.7959-6.563 19.1299-9.967l.0593-.031c7.622-4.094 14.815-7.962 23.648-6.262.3687.059.7427.074 1.1153.043.1179-.006.2371-.011.3537-.012 20.9842-.191 37.1542-4.535 50.8872-13.671 21.034-13.9938 30.478-34.0204 25.911-54.9442-4.228-19.3729-12.564-31.4271-27.029-39.0833-14.706-7.78227-31.2777-12.253945-46.6618-12.59117578-.0058.00097036-.0117.00097036-.0169 0-18.9888.07472368-34.8529 3.19505578-49.9236 9.82203578-18.2694 8.03184-28.28675 19.57104-30.62351 35.27664-1.00729 6.3889-1.12744 12.8856-.35702 19.3072 2.52959 19.5276 10.19723 33.4178 23.43923 42.4648zm6.4318 15.79c1.2704-4.52 2.469-8.789 3.9641-12.879 2.3452-6.41-1.1159-10.0113-4.3908-12.433-4.981-3.6816-10.0193-7.92-13.1372-13.9447-8.0519-15.5587-9.14765-30.1338-3.3523-44.558 3.1432-7.8226 9.5242-13.6308 20.081-18.2792 14.571-6.4158 29.0737-9.6235 43.4117-9.6235 14.2753.0634 28.3713 3.1795 41.3383 9.1374 14.97 6.7271 23.272 17.8221 26.127 34.9175 2.346 14.029-1.552 25.7138-12.259 36.7709-9.534 9.8456-22.389 15.6396-40.4548 18.2336-9.1053 1.307-19.8751 2.39-30.7143.51-1.353-.229-2.8664.616-4.0904 1.3-7.3373 4.113-14.6056 8.238-22.2999 12.605l-5.6279 3.193c.4912-1.699.9537-3.345 1.4045-4.95z"/><path d="m50.4727 69.7116h.0905c1.0224-.0032 2.0338-.2105 2.9749-.6088.9411-.399 1.793-.9805 2.5058-1.7115.6123-.6303 1.0902-1.3782 1.405-2.1975.3147-.8196.4597-1.6942.4262-2.5712-.1154-1.7874-.8889-3.4691-2.1719-4.7222-1.283-1.2532-2.9851-1.9897-4.7791-2.0674-.9531.006-1.8956.201-2.7728.573-.8771.372-1.6715.9135-2.3372 1.594-.7256.6916-1.3071 1.5195-1.7109 2.436s-.6221 1.904-.6421 2.9049c-.0054.8134.1521 1.6195.4634 2.3714.3112.7518.7698 1.4334 1.3489 2.0065 1.4004 1.3242 3.2701 2.0409 5.1993 1.9928z"/><path d="m81.3262 71.5141h.0651c1.7681-.0143 3.4586-.7245 4.7042-1.9759 1.31-1.2703 2.0651-3.0052 2.1009-4.8273.015-1.8194-.9948-3.9706-2.6351-5.6112-1.1121-1.2447-2.6632-2.0128-4.3296-2.1441h-.0208c-3.3648.0195-6.7152 3.6995-6.7641 7.4292-.0169.9325.1525 1.859.4984 2.7252.3453.8668.8599 1.6562 1.5146 2.3223.6326.651 1.3883 1.1702 2.2234 1.5276.8358.3573 1.7335.5458 2.643.5542z"/><path d="m110.697 70.7603h.043c1.676-.0644 3.271-.7375 4.485-1.8922 1.214-1.1553 1.964-2.7127 2.108-4.3798-.046-1.6477-.739-3.2116-1.931-4.3536-1.602-1.7804-3.826-2.8831-6.216-3.0826-.607-.0119-1.209.0998-1.77.3275-.562.2276-1.071.5666-1.497.9968-.67.6874-1.197 1.501-1.549 2.3935-.352.8924-.523 1.8458-.501 2.8046-.041 1.8538.653 3.6478 1.932 4.9934 1.278 1.3451 3.038 2.1339 4.896 2.1924z"/></g></svg>