<svg width="26" height="26" viewBox="0 0 26 26" fill="none" xmlns="http://www.w3.org/2000/svg">
<path d="M6.90625 1.21875H25.1867V24.7812H0.8125V1.21875H6.90625ZM20.7188 23.1562H23.5617V21.125H20.7188V23.1562ZM20.7188 19.5H23.5617V17.4688H20.7188V19.5ZM20.7188 15.8438H23.5617V13.8125H20.7188V15.8438ZM20.7188 12.1875H23.5617V10.1562H20.7188V12.1875ZM20.7188 8.53125H23.5617V6.5H20.7188V8.53125ZM20.7188 4.875H23.5617V2.84375H20.7188V4.875ZM6.90625 15.8438V23.1562H19.093V13.8125H6.90625V15.8438ZM6.90625 4.875V12.1875H19.093V2.84375H6.90625V4.875ZM2.4375 23.1562H5.28125V21.125H2.4375V23.1562ZM2.4375 19.5H5.28125V17.4688H2.4375V19.5ZM2.4375 15.8438H5.28125V13.8125H2.4375V15.8438ZM2.4375 12.1875H5.28125V10.1562H2.4375V12.1875ZM2.4375 8.53125H5.28125V6.5H2.4375V8.53125ZM2.4375 4.875H5.28125V2.84375H2.4375V4.875Z" fill="#724B2E"/>
</svg>
