<svg width="26" height="26" viewBox="0 0 26 26" fill="none" xmlns="http://www.w3.org/2000/svg">
<path d="M19.0253 4H7.66752C3.3175 4 2.10222 4.9775 2 8.78125C4.19205 8.78125 5.96386 10.4494 5.96386 12.5C5.96386 14.5506 4.19205 16.2081 2 16.2188C2.10222 20.0225 3.3175 21 7.66752 21H19.0253C23.5684 21 24.7042 19.9375 24.7042 15.6875V9.3125C24.7042 5.0625 23.5684 4 19.0253 4Z" stroke="#724B2E" stroke-width="1.5" stroke-linecap="round" stroke-linejoin="round"/>
<path d="M9.9375 4V7.71875" stroke="#724B2E" stroke-width="1.5" stroke-linecap="round" stroke-linejoin="round"/>
<path d="M9.9375 17.2812V21" stroke="#724B2E" stroke-width="1.5" stroke-linecap="round" stroke-linejoin="round"/>
<path d="M16.7877 9.6628L17.4918 10.9909C17.56 11.1184 17.6963 11.214 17.8439 11.2353L19.4113 11.4478C19.7975 11.5009 19.9565 11.9472 19.6725 12.2022L18.5368 13.2328C18.4232 13.3284 18.3778 13.4772 18.4005 13.6259L18.6731 15.0815C18.7412 15.4428 18.3323 15.719 17.9916 15.549L16.5946 14.8584C16.4583 14.7947 16.2879 14.7947 16.1516 14.8584L14.7546 15.549C14.4025 15.719 14.005 15.4428 14.0732 15.0815L14.3457 13.6259C14.3685 13.4772 14.323 13.339 14.2095 13.2328L13.085 12.2022C12.8011 11.9472 12.9601 11.5009 13.3463 11.4478L14.9136 11.2353C15.0726 11.214 15.1976 11.129 15.2657 10.9909L15.9586 9.6628C16.1176 9.33343 16.6173 9.33343 16.7877 9.6628Z" stroke="#724B2E" stroke-width="1.5" stroke-linecap="round" stroke-linejoin="round"/>
</svg>
