<svg width="730" height="201" viewBox="0 0 730 201" fill="none" xmlns="http://www.w3.org/2000/svg">
<mask id="path-1-inside-1_1705_1375" fill="white">
<path fill-rule="evenodd" clip-rule="evenodd" d="M0 0H730L730 31.0053C727.889 31.0053 725.799 31.4478 723.849 32.3075C721.899 33.1671 720.127 34.4272 718.634 36.0157C717.142 37.6041 715.958 39.4899 715.15 41.5654C714.342 43.6408 713.927 45.8653 713.927 48.1117C713.927 50.3581 714.342 52.5826 715.15 54.658C715.958 56.7335 717.142 58.6193 718.634 60.2077C720.127 61.7962 721.899 63.0563 723.849 63.9159C725.799 64.7756 727.889 65.2181 730 65.2181V83.3936C727.889 83.3936 725.799 83.8361 723.849 84.6958C721.899 85.5554 720.127 86.8155 718.634 88.404C717.142 89.9924 715.958 91.8782 715.15 93.9537C714.342 96.0291 713.927 98.2536 713.927 100.5C713.927 102.746 714.342 104.971 715.15 107.046C715.958 109.122 717.142 111.008 718.634 112.596C720.127 114.185 721.899 115.445 723.849 116.304C725.799 117.164 727.889 117.606 730 117.606V135.782C727.889 135.782 725.799 136.224 723.849 137.084C721.899 137.944 720.127 139.204 718.634 140.792C717.142 142.381 715.958 144.267 715.15 146.342C714.342 148.417 713.927 150.642 713.927 152.888C713.927 155.135 714.342 157.359 715.15 159.435C715.958 161.51 717.142 163.396 718.634 164.984C720.127 166.573 721.899 167.833 723.849 168.693C725.799 169.552 727.889 169.995 730 169.995L730 201H0V0ZM2.67367e-05 65.2181C2.11081 65.2181 4.20093 64.7756 6.15105 63.9159C8.10116 63.0563 9.87308 61.7962 11.3656 60.2077C12.8582 58.6193 14.0421 56.7335 14.8499 54.658C15.6577 52.5826 16.0734 50.3581 16.0734 48.1117C16.0734 45.8653 15.6577 43.6408 14.8499 41.5654C14.0421 39.4899 12.8582 37.6041 11.3656 36.0157C9.87308 34.4272 8.10116 33.1671 6.15105 32.3075C4.20093 31.4478 2.11082 31.0053 2.7205e-05 31.0053L2.76734e-05 48.1117L2.67367e-05 65.2181ZM2.67367e-05 117.606C2.11081 117.606 4.20093 117.164 6.15105 116.304C8.10116 115.445 9.87308 114.185 11.3656 112.596C12.8582 111.008 14.0421 109.122 14.8499 107.046C15.6577 104.971 16.0734 102.746 16.0734 100.5C16.0734 98.2536 15.6577 96.0291 14.8499 93.9537C14.0421 91.8782 12.8582 89.9924 11.3656 88.404C9.87308 86.8155 8.10116 85.5554 6.15105 84.6958C4.20093 83.8361 2.11082 83.3936 2.7205e-05 83.3936L2.76734e-05 100.5L2.67367e-05 117.606ZM2.67367e-05 169.995C2.11081 169.995 4.20093 169.552 6.15105 168.693C8.10116 167.833 9.87308 166.573 11.3656 164.984C12.8582 163.396 14.0421 161.51 14.8499 159.435C15.6577 157.359 16.0734 155.135 16.0734 152.888C16.0734 150.642 15.6577 148.417 14.8499 146.342C14.0421 144.267 12.8582 142.381 11.3656 140.792C9.87308 139.204 8.10116 137.944 6.15105 137.084C4.20093 136.224 2.11082 135.782 2.7205e-05 135.782L2.76734e-05 152.888L2.67367e-05 169.995Z"/>
</mask>
<path fill-rule="evenodd" clip-rule="evenodd" d="M0 0H730L730 31.0053C727.889 31.0053 725.799 31.4478 723.849 32.3075C721.899 33.1671 720.127 34.4272 718.634 36.0157C717.142 37.6041 715.958 39.4899 715.15 41.5654C714.342 43.6408 713.927 45.8653 713.927 48.1117C713.927 50.3581 714.342 52.5826 715.15 54.658C715.958 56.7335 717.142 58.6193 718.634 60.2077C720.127 61.7962 721.899 63.0563 723.849 63.9159C725.799 64.7756 727.889 65.2181 730 65.2181V83.3936C727.889 83.3936 725.799 83.8361 723.849 84.6958C721.899 85.5554 720.127 86.8155 718.634 88.404C717.142 89.9924 715.958 91.8782 715.15 93.9537C714.342 96.0291 713.927 98.2536 713.927 100.5C713.927 102.746 714.342 104.971 715.15 107.046C715.958 109.122 717.142 111.008 718.634 112.596C720.127 114.185 721.899 115.445 723.849 116.304C725.799 117.164 727.889 117.606 730 117.606V135.782C727.889 135.782 725.799 136.224 723.849 137.084C721.899 137.944 720.127 139.204 718.634 140.792C717.142 142.381 715.958 144.267 715.15 146.342C714.342 148.417 713.927 150.642 713.927 152.888C713.927 155.135 714.342 157.359 715.15 159.435C715.958 161.51 717.142 163.396 718.634 164.984C720.127 166.573 721.899 167.833 723.849 168.693C725.799 169.552 727.889 169.995 730 169.995L730 201H0V0ZM2.67367e-05 65.2181C2.11081 65.2181 4.20093 64.7756 6.15105 63.9159C8.10116 63.0563 9.87308 61.7962 11.3656 60.2077C12.8582 58.6193 14.0421 56.7335 14.8499 54.658C15.6577 52.5826 16.0734 50.3581 16.0734 48.1117C16.0734 45.8653 15.6577 43.6408 14.8499 41.5654C14.0421 39.4899 12.8582 37.6041 11.3656 36.0157C9.87308 34.4272 8.10116 33.1671 6.15105 32.3075C4.20093 31.4478 2.11082 31.0053 2.7205e-05 31.0053L2.76734e-05 48.1117L2.67367e-05 65.2181ZM2.67367e-05 117.606C2.11081 117.606 4.20093 117.164 6.15105 116.304C8.10116 115.445 9.87308 114.185 11.3656 112.596C12.8582 111.008 14.0421 109.122 14.8499 107.046C15.6577 104.971 16.0734 102.746 16.0734 100.5C16.0734 98.2536 15.6577 96.0291 14.8499 93.9537C14.0421 91.8782 12.8582 89.9924 11.3656 88.404C9.87308 86.8155 8.10116 85.5554 6.15105 84.6958C4.20093 83.8361 2.11082 83.3936 2.7205e-05 83.3936L2.76734e-05 100.5L2.67367e-05 117.606ZM2.67367e-05 169.995C2.11081 169.995 4.20093 169.552 6.15105 168.693C8.10116 167.833 9.87308 166.573 11.3656 164.984C12.8582 163.396 14.0421 161.51 14.8499 159.435C15.6577 157.359 16.0734 155.135 16.0734 152.888C16.0734 150.642 15.6577 148.417 14.8499 146.342C14.0421 144.267 12.8582 142.381 11.3656 140.792C9.87308 139.204 8.10116 137.944 6.15105 137.084C4.20093 136.224 2.11082 135.782 2.7205e-05 135.782L2.76734e-05 152.888L2.67367e-05 169.995Z" fill="#F9F9F9"/>
<path d="M730 0L731 -1.96854e-06L731 -1H730V0ZM0 0V-1H-1V0H0ZM730 31.0053V32.0053H731L731 31.0053L730 31.0053ZM723.849 32.3075L723.446 31.3924L723.446 31.3924L723.849 32.3075ZM715.15 41.5654L714.218 41.2027L714.218 41.2027L715.15 41.5654ZM715.15 54.658L714.218 55.0207L714.218 55.0207L715.15 54.658ZM718.634 60.2077L717.906 60.8925L717.906 60.8925L718.634 60.2077ZM723.849 63.9159L723.446 64.831L723.446 64.831L723.849 63.9159ZM730 65.2181H731V64.2181H730V65.2181ZM730 83.3936V84.3936H731V83.3936H730ZM723.849 84.6958L723.446 83.7807L723.446 83.7807L723.849 84.6958ZM718.634 88.404L717.906 87.7192L717.906 87.7192L718.634 88.404ZM715.15 93.9537L714.218 93.591L714.218 93.591L715.15 93.9537ZM715.15 107.046L714.218 107.409L714.218 107.409L715.15 107.046ZM718.634 112.596L717.906 113.281L717.906 113.281L718.634 112.596ZM723.849 116.304L723.446 117.219L723.446 117.219L723.849 116.304ZM730 117.606H731V116.606H730V117.606ZM730 135.782V136.782H731V135.782H730ZM723.849 137.084L723.446 136.169L723.446 136.169L723.849 137.084ZM715.15 146.342L714.218 145.979L714.218 145.979L715.15 146.342ZM715.15 159.435L714.218 159.797L714.218 159.797L715.15 159.435ZM718.634 164.984L717.906 165.669L717.906 165.669L718.634 164.984ZM723.849 168.693L723.446 169.608L723.446 169.608L723.849 168.693ZM730 169.995L731 169.995L731 168.995H730V169.995ZM730 201V202H731L731 201L730 201ZM0 201H-1V202H0V201ZM2.67367e-05 65.2181L-0.999973 65.2181L-0.999973 66.2181H2.67367e-05V65.2181ZM14.8499 54.658L13.918 54.2953L13.918 54.2953L14.8499 54.658ZM16.0734 48.1117L17.0734 48.1117V48.1117H16.0734ZM14.8499 41.5654L13.918 41.9281L13.918 41.9281L14.8499 41.5654ZM11.3656 36.0157L12.0944 35.3309L12.0944 35.3309L11.3656 36.0157ZM2.7205e-05 31.0053V30.0053H-0.999973L-0.999973 31.0053L2.7205e-05 31.0053ZM2.76734e-05 48.1117L1.00003 48.1117L1.00003 48.1117L2.76734e-05 48.1117ZM6.15105 116.304L5.74767 115.389L5.74767 115.389L6.15105 116.304ZM2.67367e-05 117.606L-0.999973 117.606L-0.999973 118.606H2.67367e-05V117.606ZM11.3656 112.596L10.6369 111.911L10.6369 111.911L11.3656 112.596ZM14.8499 107.046L13.918 106.684L13.918 106.684L14.8499 107.046ZM16.0734 100.5L17.0734 100.5V100.5H16.0734ZM14.8499 93.9537L15.7818 93.591L15.7818 93.591L14.8499 93.9537ZM11.3656 88.404L10.6369 89.0887L10.6369 89.0887L11.3656 88.404ZM6.15105 84.6958L5.74767 85.6108L5.74767 85.6108L6.15105 84.6958ZM2.7205e-05 83.3936V82.3936H-0.999973L-0.999973 83.3936L2.7205e-05 83.3936ZM2.76734e-05 100.5L1.00003 100.5L1.00003 100.5L2.76734e-05 100.5ZM6.15105 168.693L6.55442 169.608L6.55443 169.608L6.15105 168.693ZM2.67367e-05 169.995L-0.999973 169.995L-0.999973 170.995H2.67367e-05V169.995ZM14.8499 159.435L15.7818 159.797L15.7818 159.797L14.8499 159.435ZM16.0734 152.888L17.0734 152.888V152.888H16.0734ZM14.8499 146.342L13.918 146.705L13.918 146.705L14.8499 146.342ZM11.3656 140.792L10.6369 141.477L10.6369 141.477L11.3656 140.792ZM6.15105 137.084L6.55443 136.169L6.55442 136.169L6.15105 137.084ZM2.7205e-05 135.782V134.782H-0.999973L-0.999973 135.782L2.7205e-05 135.782ZM2.76734e-05 152.888L1.00003 152.888L1.00003 152.888L2.76734e-05 152.888ZM730 -1H0V1H730V-1ZM731 31.0053L731 -1.96854e-06L729 1.96854e-06L729 31.0053L731 31.0053ZM730 30.0053C727.749 30.0053 725.522 30.4773 723.446 31.3924L724.252 33.2225C726.077 32.4183 728.029 32.0053 730 32.0053V30.0053ZM723.446 31.3924C721.37 32.3075 719.488 33.6469 717.906 35.3309L719.363 36.7004C720.766 35.2075 722.428 34.0268 724.252 33.2225L723.446 31.3924ZM717.906 35.3309C716.323 37.0148 715.071 39.0105 714.218 41.2027L716.082 41.9281C716.844 39.9694 717.96 38.1935 719.363 36.7004L717.906 35.3309ZM714.218 41.2027C713.365 43.3948 712.927 45.7423 712.927 48.1117H714.927C714.927 45.9882 715.32 43.8869 716.082 41.9281L714.218 41.2027ZM712.927 48.1117C712.927 50.4811 713.365 52.8286 714.218 55.0207L716.082 54.2953C715.32 52.3365 714.927 50.2352 714.927 48.1117H712.927ZM714.218 55.0207C715.071 57.2129 716.323 59.2086 717.906 60.8925L719.363 59.523C717.96 58.0299 716.844 56.2541 716.082 54.2953L714.218 55.0207ZM717.906 60.8925C719.488 62.5765 721.37 63.9159 723.446 64.831L724.252 63.0009C722.428 62.1966 720.766 61.0159 719.363 59.523L717.906 60.8925ZM723.446 64.831C725.522 65.7461 727.749 66.2181 730 66.2181V64.2181C728.029 64.2181 726.077 63.8051 724.252 63.0009L723.446 64.831ZM731 83.3936V65.2181H729V83.3936H731ZM724.252 85.6108C726.077 84.8066 728.029 84.3936 730 84.3936V82.3936C727.749 82.3936 725.522 82.8656 723.446 83.7807L724.252 85.6108ZM719.363 89.0887C720.766 87.5958 722.428 86.4151 724.252 85.6108L723.446 83.7807C721.37 84.6958 719.488 86.0352 717.906 87.7192L719.363 89.0887ZM716.082 94.3164C716.844 92.3577 717.96 90.5818 719.363 89.0887L717.906 87.7192C716.323 89.4031 715.071 91.3988 714.218 93.591L716.082 94.3164ZM714.927 100.5C714.927 98.3765 715.32 96.2752 716.082 94.3164L714.218 93.591C713.365 95.7831 712.927 98.1306 712.927 100.5H714.927ZM716.082 106.684C715.32 104.725 714.927 102.623 714.927 100.5H712.927C712.927 102.869 713.365 105.217 714.218 107.409L716.082 106.684ZM719.363 111.911C717.96 110.418 716.844 108.642 716.082 106.684L714.218 107.409C715.071 109.601 716.323 111.597 717.906 113.281L719.363 111.911ZM724.252 115.389C722.428 114.585 720.766 113.404 719.363 111.911L717.906 113.281C719.488 114.965 721.37 116.304 723.446 117.219L724.252 115.389ZM730 116.606C728.029 116.606 726.077 116.193 724.252 115.389L723.446 117.219C725.522 118.134 727.749 118.606 730 118.606V116.606ZM731 135.782V117.606H729V135.782H731ZM724.252 137.999C726.077 137.195 728.029 136.782 730 136.782V134.782C727.749 134.782 725.522 135.254 723.446 136.169L724.252 137.999ZM719.363 141.477C720.766 139.984 722.428 138.803 724.252 137.999L723.446 136.169C721.37 137.084 719.488 138.424 717.906 140.108L719.363 141.477ZM716.082 146.705C716.844 144.746 717.96 142.97 719.363 141.477L717.906 140.108C716.323 141.791 715.071 143.787 714.218 145.979L716.082 146.705ZM714.927 152.888C714.927 150.765 715.32 148.663 716.082 146.705L714.218 145.979C713.365 148.171 712.927 150.519 712.927 152.888H714.927ZM716.082 159.072C715.32 157.113 714.927 155.012 714.927 152.888H712.927C712.927 155.258 713.365 157.605 714.218 159.797L716.082 159.072ZM719.363 164.3C717.96 162.807 716.844 161.031 716.082 159.072L714.218 159.797C715.071 161.99 716.323 163.985 717.906 165.669L719.363 164.3ZM724.252 167.778C722.428 166.973 720.766 165.793 719.363 164.3L717.906 165.669C719.488 167.353 721.37 168.693 723.446 169.608L724.252 167.778ZM730 168.995C728.029 168.995 726.077 168.582 724.252 167.778L723.446 169.608C725.522 170.523 727.749 170.995 730 170.995V168.995ZM731 201L731 169.995L729 169.995L729 201L731 201ZM0 202H730V200H0V202ZM-1 0V201H1V0H-1ZM5.74767 63.0009C3.92339 63.8051 1.97054 64.2181 2.67367e-05 64.2181V66.2181C2.25109 66.2181 4.47848 65.7461 6.55443 64.831L5.74767 63.0009ZM10.6369 59.523C9.23408 61.0159 7.57213 62.1966 5.74767 63.0009L6.55443 64.831C8.63019 63.9159 10.5121 62.5765 12.0944 60.8925L10.6369 59.523ZM13.918 54.2953C13.1557 56.2541 12.0398 58.0299 10.6369 59.523L12.0944 60.8925C13.6766 59.2086 14.9286 57.2129 15.7818 55.0207L13.918 54.2953ZM15.0734 48.1117C15.0734 50.2352 14.6804 52.3365 13.918 54.2953L15.7818 55.0207C16.635 52.8286 17.0734 50.4811 17.0734 48.1117L15.0734 48.1117ZM13.918 41.9281C14.6804 43.8869 15.0734 45.9882 15.0734 48.1117H17.0734C17.0734 45.7423 16.635 43.3948 15.7818 41.2027L13.918 41.9281ZM10.6369 36.7004C12.0398 38.1935 13.1557 39.9693 13.918 41.9281L15.7818 41.2027C14.9286 39.0105 13.6766 37.0148 12.0944 35.3309L10.6369 36.7004ZM5.74767 33.2225C7.57214 34.0268 9.23408 35.2075 10.6369 36.7004L12.0944 35.3309C10.5121 33.6469 8.63019 32.3075 6.55443 31.3924L5.74767 33.2225ZM2.7205e-05 32.0053C1.97054 32.0053 3.92339 32.4183 5.74767 33.2225L6.55443 31.3924C4.47848 30.4773 2.25109 30.0053 2.7205e-05 30.0053V32.0053ZM1.00003 48.1117L1.00003 31.0053L-0.999973 31.0053L-0.999972 48.1117L1.00003 48.1117ZM1.00003 65.2181L1.00003 48.1117L-0.999972 48.1117L-0.999973 65.2181L1.00003 65.2181ZM5.74767 115.389C3.92339 116.193 1.97054 116.606 2.67367e-05 116.606V118.606C2.25109 118.606 4.47848 118.134 6.55443 117.219L5.74767 115.389ZM10.6369 111.911C9.23408 113.404 7.57213 114.585 5.74767 115.389L6.55442 117.219C8.63019 116.304 10.5121 114.965 12.0944 113.281L10.6369 111.911ZM13.918 106.684C13.1557 108.642 12.0398 110.418 10.6369 111.911L12.0944 113.281C13.6766 111.597 14.9286 109.601 15.7818 107.409L13.918 106.684ZM15.0734 100.5C15.0734 102.623 14.6804 104.725 13.918 106.684L15.7818 107.409C16.635 105.217 17.0734 102.869 17.0734 100.5L15.0734 100.5ZM13.918 94.3164C14.6804 96.2752 15.0734 98.3765 15.0734 100.5H17.0734C17.0734 98.1306 16.635 95.7831 15.7818 93.591L13.918 94.3164ZM10.6369 89.0887C12.0398 90.5818 13.1557 92.3576 13.918 94.3164L15.7818 93.591C14.9286 91.3988 13.6766 89.4031 12.0944 87.7192L10.6369 89.0887ZM5.74767 85.6108C7.57214 86.4151 9.23408 87.5958 10.6369 89.0887L12.0944 87.7192C10.5121 86.0352 8.63019 84.6958 6.55442 83.7807L5.74767 85.6108ZM2.7205e-05 84.3936C1.97054 84.3936 3.92339 84.8066 5.74767 85.6108L6.55443 83.7807C4.47848 82.8656 2.25109 82.3936 2.7205e-05 82.3936V84.3936ZM1.00003 100.5L1.00003 83.3936L-0.999973 83.3936L-0.999972 100.5L1.00003 100.5ZM1.00003 117.606L1.00003 100.5L-0.999972 100.5L-0.999973 117.606L1.00003 117.606ZM5.74767 167.777C3.92339 168.582 1.97054 168.995 2.67367e-05 168.995V170.995C2.25109 170.995 4.47848 170.523 6.55442 169.608L5.74767 167.777ZM10.6369 164.3C9.23408 165.793 7.57213 166.973 5.74767 167.778L6.55443 169.608C8.63019 168.692 10.5121 167.353 12.0944 165.669L10.6369 164.3ZM13.918 159.072C13.1557 161.031 12.0398 162.807 10.6369 164.3L12.0944 165.669C13.6766 163.985 14.9286 161.989 15.7818 159.797L13.918 159.072ZM15.0734 152.888C15.0734 155.012 14.6804 157.113 13.918 159.072L15.7818 159.797C16.635 157.605 17.0734 155.258 17.0734 152.888L15.0734 152.888ZM13.918 146.705C14.6804 148.663 15.0734 150.765 15.0734 152.888H17.0734C17.0734 150.519 16.635 148.171 15.7818 145.979L13.918 146.705ZM10.6369 141.477C12.0398 142.97 13.1557 144.746 13.918 146.705L15.7818 145.979C14.9286 143.787 13.6766 141.791 12.0944 140.108L10.6369 141.477ZM5.74767 137.999C7.57214 138.803 9.23408 139.984 10.6369 141.477L12.0944 140.108C10.5121 138.423 8.63019 137.084 6.55443 136.169L5.74767 137.999ZM2.7205e-05 136.782C1.97054 136.782 3.92339 137.195 5.74768 137.999L6.55442 136.169C4.47848 135.254 2.25109 134.782 2.7205e-05 134.782V136.782ZM1.00003 152.888L1.00003 135.782L-0.999973 135.782L-0.999972 152.888L1.00003 152.888ZM1.00003 169.995L1.00003 152.888L-0.999972 152.888L-0.999973 169.995L1.00003 169.995Z" fill="black" fill-opacity="0.18" mask="url(#path-1-inside-1_1705_1375)"/>
</svg>
