<svg width="50" height="50" viewBox="0 0 50 50" fill="none" xmlns="http://www.w3.org/2000/svg">
<circle cx="25" cy="25" r="25" fill="#FDF8FA"/>
<path fill-rule="evenodd" clip-rule="evenodd" d="M37.25 16.25C39.183 16.25 40.75 17.817 40.75 19.75V33.75C40.75 35.683 39.183 37.25 37.25 37.25H12.75C10.817 37.25 9.25 35.683 9.25 33.75V19.75C9.25 17.817 10.817 16.25 12.75 16.25H17.125C18.0915 16.25 18.875 15.4665 18.875 14.5C18.875 13.5335 19.6585 12.75 20.625 12.75H29.375C30.3415 12.75 31.125 13.5335 31.125 14.5C31.125 15.4665 31.9085 16.25 32.875 16.25H37.25ZM25 32C27.8995 32 30.25 29.6495 30.25 26.75C30.25 23.8505 27.8995 21.5 25 21.5C22.1005 21.5 19.75 23.8505 19.75 26.75C19.75 29.6495 22.1005 32 25 32Z" fill="#F84B99"/>
<path d="M40.75 33.75V19.75C40.75 17.817 39.183 16.25 37.25 16.25H32.875C31.9085 16.25 31.125 15.4665 31.125 14.5C31.125 13.5335 30.3415 12.75 29.375 12.75H20.625C19.6585 12.75 18.875 13.5335 18.875 14.5C18.875 15.4665 18.0915 16.25 17.125 16.25H12.75C10.817 16.25 9.25 17.817 9.25 19.75V33.75C9.25 35.683 10.817 37.25 12.75 37.25H37.25C39.183 37.25 40.75 35.683 40.75 33.75Z" stroke="black" stroke-width="2" stroke-linecap="round" stroke-linejoin="round"/>
<path d="M30.25 26.75C30.25 29.6495 27.8995 32 25 32C22.1005 32 19.75 29.6495 19.75 26.75C19.75 23.8505 22.1005 21.5 25 21.5C27.8995 21.5 30.25 23.8505 30.25 26.75Z" stroke="black" stroke-width="2" stroke-linecap="round" stroke-linejoin="round"/>
</svg>
