<svg width="42" height="42" viewBox="0 0 42 42" fill="none" xmlns="http://www.w3.org/2000/svg">
<path d="M24.5 8.75C24.5 6.825 22.925 5.25 21 5.25C19.075 5.25 17.5 6.825 17.5 8.75C17.5 10.675 19.075 12.25 21 12.25C22.925 12.25 24.5 10.675 24.5 8.75Z" fill="#F84B99"/>
<path d="M24.5 33.25C24.5 31.325 22.925 29.75 21 29.75C19.075 29.75 17.5 31.325 17.5 33.25C17.5 35.175 19.075 36.75 21 36.75C22.925 36.75 24.5 35.175 24.5 33.25Z" fill="#F84B99"/>
<path d="M24.5 21C24.5 19.075 22.925 17.5 21 17.5C19.075 17.5 17.5 19.075 17.5 21C17.5 22.925 19.075 24.5 21 24.5C22.925 24.5 24.5 22.925 24.5 21Z" fill="#F84B99"/>
</svg>
