<svg width="42" height="42" viewBox="0 0 42 42" fill="none" xmlns="http://www.w3.org/2000/svg">
<path d="M7.18475 31.6879L6.39094 31.0798L6.39094 31.0798L7.18475 31.6879ZM9.21997 25.966L8.21997 25.9537V25.966H9.21997ZM9.26268 22.5065L10.2627 22.5189V22.5065H9.26268ZM34.8261 31.7157L35.632 31.1237L35.632 31.1237L34.8261 31.7157ZM32.8675 25.966L31.8675 25.9531V25.966H32.8675ZM32.9102 22.678L33.9102 22.691V22.678H32.9102ZM27.6 33.319C27.6 32.7668 27.1523 32.319 26.6 32.319C26.0477 32.319 25.6 32.7668 25.6 33.319H27.6ZM16.4 33.319C16.4 32.7668 15.9523 32.319 15.4 32.319C14.8477 32.319 14.4 32.7668 14.4 33.319H16.4ZM6.07353 11.4199C5.86567 11.9315 6.11196 12.5148 6.62364 12.7227C7.13532 12.9305 7.71861 12.6843 7.92647 12.1726L6.07353 11.4199ZM12.3978 7.14599C12.8855 6.88675 13.0707 6.28127 12.8114 5.79361C12.5522 5.30595 11.9467 5.12078 11.459 5.38002L12.3978 7.14599ZM30.5156 5.39997C30.0307 5.1356 29.4233 5.31437 29.1589 5.79927C28.8945 6.28417 29.0733 6.89157 29.5582 7.15594L30.5156 5.39997ZM34.0695 12.1475C34.2718 12.6614 34.8525 12.914 35.3663 12.7116C35.8802 12.5093 36.1328 11.9287 35.9305 11.4148L34.0695 12.1475ZM7.97857 32.2961C9.10357 30.8277 10.22 28.6366 10.22 25.966H8.21997C8.21997 28.0705 7.3372 29.8447 6.39094 31.0798L7.97857 32.2961ZM10.2199 25.9784L10.2626 22.5189L8.26276 22.4942L8.22004 25.9537L10.2199 25.9784ZM35.632 31.1237C34.7254 29.8896 33.8675 28.0991 33.8675 25.966H31.8675C31.8675 28.6408 32.9398 30.8372 34.0202 32.3078L35.632 31.1237ZM33.8674 25.979L33.9101 22.691L31.9103 22.665L31.8676 25.9531L33.8674 25.979ZM33.9102 22.678C33.9102 15.5955 28.1221 9.86842 21 9.86842V11.8684C27.0336 11.8684 31.9102 16.716 31.9102 22.678H33.9102ZM34.1133 34.319C34.9956 34.319 35.5768 33.7037 35.8228 33.1309C36.0673 32.5612 36.1053 31.7678 35.632 31.1237L34.0202 32.3078C33.9976 32.277 33.9992 32.2578 33.9999 32.27C34.0002 32.2759 34 32.2865 33.9974 32.3005C33.9949 32.3146 33.9906 32.3289 33.985 32.3419C33.9794 32.355 33.9739 32.3635 33.9709 32.3675C33.9678 32.3716 33.9694 32.3684 33.9782 32.3615C33.9875 32.3543 34.0048 32.3431 34.0306 32.3337C34.0572 32.3241 34.0861 32.319 34.1133 32.319V34.319ZM10.2627 22.5065C10.2627 16.6393 15.0619 11.8684 21 11.8684V9.86842C13.9734 9.86842 8.26268 15.5187 8.26268 22.5065H10.2627ZM7.88836 32.319C7.91647 32.319 7.94611 32.3244 7.97332 32.3344C7.99959 32.344 8.01689 32.3555 8.02579 32.3626C8.0343 32.3694 8.03519 32.372 8.03149 32.3669C8.0278 32.3619 8.02173 32.3521 8.01568 32.3376C8.00966 32.3231 8.00511 32.3074 8.00248 32.292C7.99986 32.2766 7.99975 32.265 8.00021 32.2583C8.00118 32.2445 8.00282 32.2645 7.97857 32.2961L6.39094 31.0798C5.8972 31.7243 5.92961 32.5306 6.16933 33.1063C6.41017 33.6847 6.9919 34.319 7.88836 34.319V32.319ZM34.1133 32.319H7.88836V34.319H34.1133V32.319ZM25.6 33.319C25.6 35.5563 23.6152 37.5 21 37.5V39.5C24.5704 39.5 27.6 36.8045 27.6 33.319H25.6ZM21 37.5C18.3848 37.5 16.4 35.5563 16.4 33.319H14.4C14.4 36.8045 17.4296 39.5 21 39.5V37.5ZM23.7333 7.18421C23.7333 8.65421 22.5221 9.86842 21 9.86842V11.8684C23.6016 11.8684 25.7333 9.78367 25.7333 7.18421H23.7333ZM21 9.86842C19.4779 9.86842 18.2667 8.65421 18.2667 7.18421H16.2667C16.2667 9.78367 18.3984 11.8684 21 11.8684V9.86842ZM18.2667 7.18421C18.2667 5.71421 19.4779 4.5 21 4.5V2.5C18.3984 2.5 16.2667 4.58475 16.2667 7.18421H18.2667ZM21 4.5C22.5221 4.5 23.7333 5.71421 23.7333 7.18421H25.7333C25.7333 4.58475 23.6016 2.5 21 2.5V4.5ZM7.92647 12.1726C8.80166 10.0182 10.3653 8.2265 12.3978 7.14599L11.459 5.38002C8.98883 6.69319 7.11489 8.85637 6.07353 11.4199L7.92647 12.1726ZM29.5582 7.15594C31.6302 8.2856 33.239 10.038 34.0695 12.1475L35.9305 11.4148C34.9142 8.83346 32.9648 6.73531 30.5156 5.39997L29.5582 7.15594Z" fill="#F84B99"/>
</svg>
