<svg width="862" height="604" viewBox="0 0 862 604" fill="none" xmlns="http://www.w3.org/2000/svg">
<path d="M770.061 347.828C770.061 443.689 731.223 506.831 668.457 546.041C605.648 585.277 518.82 600.582 422.813 600.582C326.807 600.582 239.979 585.277 177.169 546.041C114.404 506.831 75.5656 443.689 75.5656 347.828C75.5656 156.048 231.034 0.579713 422.813 0.579713C614.593 0.579713 770.061 156.048 770.061 347.828Z" fill="#CD8418" stroke="#CD8418" stroke-width="1.15943"/>
<path d="M123.329 309.154C147.767 299.441 176.596 300.176 207.456 315.385C205.214 335.921 204.032 352.501 203.109 366.65C202.974 368.718 202.845 370.733 202.718 372.701C201.974 384.293 201.336 394.237 200.292 403.526C197.856 425.222 193.211 443.325 179.826 470.298C166.418 497.314 151.777 518.679 132.805 529.471C113.889 540.231 90.5408 540.546 59.5286 525.156C44.0815 517.49 35.0762 507.127 30.6299 495.079C26.177 483.013 26.274 469.194 29.1576 454.591C34.4289 427.896 48.9658 398.775 61.6794 373.307C62.8855 370.891 64.0752 368.508 65.239 366.162C78.6041 339.231 98.7835 318.91 123.329 309.154Z" fill="#CD8418" stroke="#CD8418" stroke-width="1.15943"/>
<path d="M721.862 313.635C696.51 309.577 667.594 316.217 637.838 336.86C641.795 355.627 644.36 370.909 646.462 383.967C646.77 385.876 647.067 387.736 647.357 389.553C649.068 400.255 650.535 409.433 652.354 417.914C656.601 437.716 662.762 453.697 678.433 476.182C694.132 498.709 710.588 515.674 730.507 521.86C750.384 528.034 773.872 523.518 803.757 502.69C818.652 492.31 826.841 480.731 830.305 468.526C833.771 456.313 832.525 443.405 828.421 430.341C820.916 406.447 803.913 382.189 789.03 360.958C787.619 358.945 786.227 356.959 784.864 355.003C769.227 332.566 747.304 317.708 721.862 313.635Z" fill="#CD8418" stroke="#CD8418" stroke-width="1.15943"/>
<path d="M352.42 538.682C352.42 550.96 349.273 561.117 343.601 569.457C337.927 577.801 329.702 584.359 319.5 589.395C299.08 599.474 270.812 603.42 239.5 603.42C208.188 603.42 179.92 599.474 159.5 589.395C149.298 584.359 141.073 577.801 135.399 569.457C129.727 561.117 126.58 550.96 126.58 538.682C126.58 489.592 177.001 449.58 239.5 449.58C301.999 449.58 352.42 489.592 352.42 538.682Z" fill="#CD8418" stroke="#CD8418" stroke-width="1.15943"/>
<path d="M251.919 108.459C251.919 120.646 253.668 131.716 255.528 141.444C255.976 143.785 256.429 146.044 256.865 148.22C258.248 155.116 259.464 161.182 259.814 166.382C260.273 173.211 259.22 178.346 255.246 181.814C251.251 185.299 244.17 187.228 232.22 187.247C222.543 180.838 212.245 176.665 202.263 173.262C198.408 171.949 194.613 170.753 190.92 169.59C184.966 167.714 179.276 165.922 174.023 163.85C165.536 160.502 158.328 156.472 153.236 150.315C148.156 144.172 145.131 135.851 145.131 123.821C145.131 75.6048 184.046 36.5219 232.045 36.5219C244.119 36.5219 251.268 38.0287 255.288 40.9184C259.227 43.7499 260.272 48.0045 259.814 53.9555C259.482 58.2801 258.368 63.383 257.07 69.3258C256.572 71.6046 256.048 74.0069 255.53 76.5361C253.669 85.6271 251.919 96.2692 251.919 108.459Z" fill="#CD8418" stroke="#CD8418" stroke-width="1.15943"/>
<path d="M743.974 173.334C743.974 182.683 743.366 189.053 741.907 193.373C741.182 195.524 740.252 197.144 739.1 198.369C737.951 199.59 736.557 200.441 734.864 201.021C731.445 202.192 726.852 202.245 720.696 201.984C719.114 201.917 717.432 201.83 715.648 201.737C710.57 201.473 704.656 201.165 697.82 201.16C690.422 196.246 684.764 193.473 680.444 191.505C679.666 191.15 678.936 190.824 678.249 190.517C677.009 189.962 675.909 189.47 674.921 188.989C673.391 188.245 672.181 187.55 671.208 186.739C669.304 185.151 668.221 183.045 667.622 178.95C667.018 174.827 666.92 168.789 666.92 159.421C666.92 150.003 665.352 141.4 663.594 133.812C662.993 131.217 662.372 128.751 661.784 126.414C660.644 121.885 659.627 117.842 659.11 114.29C658.326 108.907 658.74 104.916 661.429 102.232C664.149 99.5165 669.354 97.9713 678.638 97.9713C697.03 97.9713 713.357 107.492 725.102 121.7C736.848 135.909 743.974 154.765 743.974 173.334Z" fill="#CD8418" stroke="#CD8418" stroke-width="1.15943"/>
<path d="M678.467 367.19C678.467 377.469 677.915 385.191 676.563 391C675.214 396.799 673.078 400.641 669.945 403.222C666.802 405.809 662.583 407.19 656.938 407.914C651.329 408.634 644.388 408.696 635.813 408.697C623.393 400.368 611.984 398.256 602.768 396.55C599.955 396.029 597.346 395.546 594.974 394.936C589.879 393.624 585.9 391.742 583.163 387.739C580.408 383.712 578.845 377.441 578.845 367.19C578.845 363.917 578.822 360.71 578.799 357.578C578.75 350.84 578.703 344.446 578.897 338.485C579.18 329.755 579.978 322.018 582.017 315.581C584.052 309.156 587.314 304.053 592.515 300.545C597.726 297.031 604.948 295.074 614.984 295.074C635.034 295.074 650.884 302.887 661.732 315.779C672.588 328.683 678.467 346.715 678.467 367.19Z" fill="#CD8418" stroke="#CD8418" stroke-width="1.15943"/>
<path d="M236.137 286.346C245.471 287.408 252.42 288.713 257.547 290.555C262.665 292.394 265.919 294.751 267.927 297.891C269.942 301.041 270.754 305.06 270.821 310.329C270.886 315.562 270.218 321.954 269.321 329.844C260.456 340.422 257.342 350.714 254.828 359.02C254.061 361.555 253.35 363.905 252.549 366.022C250.825 370.575 248.704 374.033 244.797 376.131C240.865 378.243 235.02 379.036 225.715 377.978C222.743 377.64 219.827 377.33 216.98 377.027C210.856 376.376 205.047 375.759 199.655 374.965C191.759 373.803 184.823 372.27 179.198 369.732C173.585 367.199 169.301 363.676 166.666 358.535C164.026 353.385 163.004 346.542 164.054 337.306C166.153 318.856 174.903 305.082 187.735 296.435C200.577 287.78 217.555 284.233 236.137 286.346Z" fill="#CD8418" stroke="#CD8418" stroke-width="1.15943"/>
<path d="M357.062 29.0106C372.958 30.8186 379.81 34.0712 384.567 40.5468C386.973 43.8222 388.863 47.9488 391.079 53.2284C391.523 54.2853 391.979 55.3873 392.455 56.5362C394.315 61.0271 396.472 66.2336 399.325 72.2553C394.769 77.6905 391.253 82.69 388.152 87.1002C387.957 87.3778 387.763 87.653 387.571 87.9259C384.266 92.6211 381.418 96.5877 378.207 99.7091C375.01 102.816 371.459 105.079 366.753 106.351C362.034 107.626 356.121 107.913 348.19 107.011C345.652 106.723 343.164 106.458 340.735 106.2C335.512 105.645 330.559 105.119 325.961 104.442C319.227 103.45 313.319 102.144 308.532 99.9835C303.756 97.8284 300.119 94.8345 297.882 90.4707C295.639 86.0971 294.767 80.2779 295.662 72.4087C297.45 56.6931 304.902 44.9648 315.827 37.6027C326.763 30.2332 341.225 27.2094 357.062 29.0106Z" fill="#CD8418" stroke="#CD8418" stroke-width="1.15943"/>
<path d="M715.42 539.103C715.42 551.308 712.465 561.404 707.143 569.691C701.819 577.98 694.105 584.492 684.538 589.492C665.389 599.5 638.876 603.42 609.5 603.42C580.124 603.42 553.611 599.5 534.462 589.492C524.895 584.492 517.181 577.98 511.857 569.691C506.535 561.404 503.58 551.308 503.58 539.103C503.58 490.306 550.901 450.58 609.5 450.58C668.099 450.58 715.42 490.306 715.42 539.103Z" fill="#CD8418" stroke="#CD8418" stroke-width="1.15943"/>
<path d="M326.001 278.262C326.001 290.243 318.354 299.711 309.19 299.711C300.025 299.711 292.378 290.243 292.378 278.262C292.378 266.281 300.025 256.813 309.19 256.813C318.354 256.813 326.001 266.281 326.001 278.262Z" fill="#CD8418" stroke="#CD8418" stroke-width="1.15943"/>
<path d="M550.93 275.943C550.93 287.925 543.283 297.393 534.118 297.393C524.954 297.393 517.307 287.925 517.307 275.943C517.307 263.962 524.954 254.494 534.118 254.494C543.283 254.494 550.93 263.962 550.93 275.943Z" fill="#CD8418" stroke="#CD8418" stroke-width="1.15943"/>
<path d="M363.683 294.494C412.184 312.351 437.224 310.429 479.625 294.494" stroke="#CD8418" stroke-width="11.5943" stroke-linecap="round"/>
<path d="M723 345C723 510.685 588.685 563.5 423 563.5C257.315 563.5 123 510.685 123 345C123 179.315 257.315 45 423 45C588.685 45 723 179.315 723 345Z" fill="#FFD76B"/>
<path d="M186.469 331.879C176.427 397.227 181.525 411.473 159.92 455.008C138.315 498.543 113.932 524.953 70.4238 503.361C26.9155 481.77 59.5076 421.37 81.1123 377.835C102.717 334.3 142.961 310.288 186.469 331.879Z" fill="#FFD76B"/>
<path d="M643.99 322.952C663.586 384.204 660.993 398.491 688.1 437.387C715.208 476.283 742.277 498.434 779.923 472.198C817.568 445.962 777.493 392.334 750.385 353.438C723.277 314.541 681.635 296.716 643.99 322.952Z" fill="#FFD76B"/>
<path d="M310 512.953C310 555.453 275.526 569 233 569C190.474 569 156 555.453 156 512.953C156 470.453 190.474 436 233 436C275.526 436 310 470.453 310 512.953Z" fill="#9E563E"/>
<path d="M276.104 138.545C276.104 180.406 300.14 207 258.463 207C225.142 184.838 183 193.656 183 151.796C183 109.935 216.786 76 258.463 76C300.14 76 276.104 96.6844 276.104 138.545Z" fill="#9E563E"/>
<path d="M700.5 194.5C700.5 226.774 692.132 219 660.041 219C634.383 201.914 633.041 214.774 633.041 182.5C633.041 150.226 611.556 129 643.647 129C675.739 129 700.5 162.226 700.5 194.5Z" fill="#9E563E"/>
<path d="M644 361.7C644 397.202 636.394 398 606.559 398C578.681 379.205 557.077 397.202 557.077 361.7C557.077 326.198 553.878 299 588.747 299C623.615 299 644 326.198 644 361.7Z" fill="#9E563E"/>
<path d="M262.049 291.476C294.289 295.143 294.217 302.228 291.093 329.696C271.106 353.42 285.187 375.168 252.947 371.501C220.707 367.834 195.673 367.97 199.324 335.869C202.975 303.767 229.809 287.809 262.049 291.476Z" fill="#9E563E"/>
<path d="M366.346 69.5246C393.849 72.6528 390.699 80.8414 403.33 107.396C386.279 127.635 386.085 140.922 358.581 137.793C331.078 134.665 309.721 134.781 312.836 107.396C315.951 80.01 338.842 66.3964 366.346 69.5246Z" fill="#9E563E"/>
<path d="M688 516.953C688 559.453 653.526 573 611 573C568.474 573 534 559.453 534 516.953C534 474.453 568.474 440 611 440C653.526 440 688 474.453 688 516.953Z" fill="#9E563E"/>
<path d="M339.5 285C339.5 295.334 332.904 303.5 325 303.5C317.096 303.5 310.5 295.334 310.5 285C310.5 274.666 317.096 266.5 325 266.5C332.904 266.5 339.5 274.666 339.5 285Z" fill="#421806" stroke="#421806"/>
<path d="M533.5 283C533.5 293.334 526.904 301.5 519 301.5C511.096 301.5 504.5 293.334 504.5 283C504.5 272.666 511.096 264.5 519 264.5C526.904 264.5 533.5 272.666 533.5 283Z" fill="#421806" stroke="#421806"/>
<path d="M372 299C413.832 314.402 435.429 312.744 472 299" stroke="#421806" stroke-width="10" stroke-linecap="round"/>
<path d="M186.469 331.879C176.427 397.227 181.525 411.473 159.92 455.008C138.315 498.543 113.932 524.953 70.4238 503.361C26.9155 481.77 59.5076 421.37 81.1123 377.835C102.717 334.3 142.961 310.288 186.469 331.879Z" fill="#FFD76B"/>
<path d="M211.881 232.585C202.895 232.585 195.926 240.433 196.986 249.356L205.952 324.771C206.849 332.317 213.247 338 220.847 338H341.818C349.334 338 355.689 332.438 356.686 324.988L366.772 249.574C367.974 240.58 360.978 232.585 351.904 232.585H211.881Z" fill="#FF6969" stroke="#412000" stroke-width="16"/>
<path d="M491.589 232.585C482.603 232.585 475.633 240.433 476.694 249.356L485.659 324.771C486.556 332.317 492.955 338 500.554 338H621.525C629.041 338 635.397 332.438 636.393 324.988L646.479 249.574C647.682 240.58 640.686 232.585 631.611 232.585H491.589Z" fill="#6994FF" stroke="#412000" stroke-width="16"/>
<path d="M421.202 265.361L363.841 278.929V236.5H477.475V278.926L421.435 265.361L421.319 265.333L421.202 265.361Z" fill="#412000" stroke="#412000"/>
</svg>
