<svg width="26" height="26" viewBox="0 0 26 26" fill="none" xmlns="http://www.w3.org/2000/svg">
<path d="M12.9998 16.25C14.7948 16.25 16.2498 14.7949 16.2498 13C16.2498 11.2051 14.7948 9.75001 12.9998 9.75001C11.2049 9.75001 9.74984 11.2051 9.74984 13C9.74984 14.7949 11.2049 16.25 12.9998 16.25Z" stroke="#04012D" stroke-width="1.5" stroke-miterlimit="10" stroke-linecap="round" stroke-linejoin="round"/>
<path d="M2.1665 13.9533V12.0467C2.1665 10.92 3.08734 9.98835 4.22484 9.98835C6.18567 9.98835 6.98734 8.60168 6.0015 6.90085C5.43817 5.92585 5.774 4.65835 6.75984 4.09501L8.634 3.02251C9.48984 2.51335 10.5948 2.81668 11.104 3.67251L11.2232 3.87835C12.1982 5.57918 13.8015 5.57918 14.7873 3.87835L14.9065 3.67251C15.4157 2.81668 16.5207 2.51335 17.3765 3.02251L19.2507 4.09501C20.2365 4.65835 20.5723 5.92585 20.009 6.90085C19.0232 8.60168 19.8248 9.98835 21.7857 9.98835C22.9123 9.98835 23.844 10.9092 23.844 12.0467V13.9533C23.844 15.08 22.9232 16.0117 21.7857 16.0117C19.8248 16.0117 19.0232 17.3983 20.009 19.0992C20.5723 20.085 20.2365 21.3417 19.2507 21.905L17.3765 22.9775C16.5207 23.4867 15.4157 23.1833 14.9065 22.3275L14.7873 22.1217C13.8123 20.4208 12.209 20.4208 11.2232 22.1217L11.104 22.3275C10.5948 23.1833 9.48984 23.4867 8.634 22.9775L6.75984 21.905C5.774 21.3417 5.43817 20.0742 6.0015 19.0992C6.98734 17.3983 6.18567 16.0117 4.22484 16.0117C3.08734 16.0117 2.1665 15.08 2.1665 13.9533Z" stroke="#04012D" stroke-width="1.5" stroke-miterlimit="10" stroke-linecap="round" stroke-linejoin="round"/>
</svg>
