<svg width="55" height="55" viewBox="0 0 55 55" fill="none" xmlns="http://www.w3.org/2000/svg">
<path d="M26.1543 50.1901C27.0738 50.7031 28.1802 50.6748 29.0942 50.1523C35.2527 46.6328 45.9541 38.5308 50.157 28.0067C56.3258 14.3041 41.8415 3.3659 31.8308 11.2331C30.7867 12.0537 29.4737 12.993 28.5702 13.8827C28.1616 14.2849 27.4417 14.326 27.0176 13.9401C25.8296 12.8593 23.973 11.4728 22.7808 10.6662C14.2466 4.89223 -1.28164 12.5033 5.34214 28.747C7.76861 36.0382 19.3316 46.3825 26.1543 50.1901Z" fill="url(#paint0_radial_97_921)"/>
<path d="M26.1543 50.1901C27.0738 50.7031 28.1802 50.6748 29.0942 50.1523C35.2527 46.6328 45.9541 38.5308 50.157 28.0067C56.3258 14.3041 41.8415 3.3659 31.8308 11.2331C30.7867 12.0537 29.4737 12.993 28.5702 13.8827C28.1616 14.2849 27.4417 14.326 27.0176 13.9401C25.8296 12.8593 23.973 11.4728 22.7808 10.6662C14.2466 4.89223 -1.28164 12.5033 5.34214 28.747C7.76861 36.0382 19.3316 46.3825 26.1543 50.1901Z" fill="url(#paint1_radial_97_921)"/>
<path d="M26.1543 50.1901C27.0738 50.7031 28.1802 50.6748 29.0942 50.1523C35.2527 46.6328 45.9541 38.5308 50.157 28.0067C56.3258 14.3041 41.8415 3.3659 31.8308 11.2331C30.7867 12.0537 29.4737 12.993 28.5702 13.8827C28.1616 14.2849 27.4417 14.326 27.0176 13.9401C25.8296 12.8593 23.973 11.4728 22.7808 10.6662C14.2466 4.89223 -1.28164 12.5033 5.34214 28.747C7.76861 36.0382 19.3316 46.3825 26.1543 50.1901Z" fill="url(#paint2_radial_97_921)"/>
<path d="M26.1543 50.1901C27.0738 50.7031 28.1802 50.6748 29.0942 50.1523C35.2527 46.6328 45.9541 38.5308 50.157 28.0067C56.3258 14.3041 41.8415 3.3659 31.8308 11.2331C30.7867 12.0537 29.4737 12.993 28.5702 13.8827C28.1616 14.2849 27.4417 14.326 27.0176 13.9401C25.8296 12.8593 23.973 11.4728 22.7808 10.6662C14.2466 4.89223 -1.28164 12.5033 5.34214 28.747C7.76861 36.0382 19.3316 46.3825 26.1543 50.1901Z" fill="url(#paint3_radial_97_921)"/>
<path d="M26.1543 50.1901C27.0738 50.7031 28.1802 50.6748 29.0942 50.1523C35.2527 46.6328 45.9541 38.5308 50.157 28.0067C56.3258 14.3041 41.8415 3.3659 31.8308 11.2331C30.7867 12.0537 29.4737 12.993 28.5702 13.8827C28.1616 14.2849 27.4417 14.326 27.0176 13.9401C25.8296 12.8593 23.973 11.4728 22.7808 10.6662C14.2466 4.89223 -1.28164 12.5033 5.34214 28.747C7.76861 36.0382 19.3316 46.3825 26.1543 50.1901Z" fill="url(#paint4_linear_97_921)"/>
<path d="M26.1543 50.1901C27.0738 50.7031 28.1802 50.6748 29.0942 50.1523C35.2527 46.6328 45.9541 38.5308 50.157 28.0067C56.3258 14.3041 41.8415 3.3659 31.8308 11.2331C30.7867 12.0537 29.4737 12.993 28.5702 13.8827C28.1616 14.2849 27.4417 14.326 27.0176 13.9401C25.8296 12.8593 23.973 11.4728 22.7808 10.6662C14.2466 4.89223 -1.28164 12.5033 5.34214 28.747C7.76861 36.0382 19.3316 46.3825 26.1543 50.1901Z" fill="url(#paint5_linear_97_921)"/>
<path d="M26.4131 50.5963C27.3326 51.1094 28.439 51.081 29.353 50.5585C35.5115 47.039 46.2129 38.937 50.4158 28.4129C56.5846 14.7104 42.1003 3.77215 32.0896 11.6393C31.0455 12.46 29.7325 13.3992 28.829 14.2889C28.4204 14.6912 27.7004 14.7322 27.2764 14.3464C26.0884 13.2655 24.2318 11.8791 23.0395 11.0724C14.5054 5.29848 -1.02285 12.9095 5.60093 29.1532C8.0274 36.4445 19.5904 46.7888 26.4131 50.5963Z" fill="url(#paint6_radial_97_921)" fill-opacity="0.6"/>
<path d="M27.3428 18.1168V29.8433C27.3428 31.3985 29.2258 32.1356 30.1954 30.9196C33.1948 27.1573 35.6139 22.5823 32.9141 18.8452C31.8791 17.4125 29.896 16.4945 28.2757 16.7866C27.6695 16.8958 27.3428 17.5008 27.3428 18.1168Z" fill="#FA1C56"/>
<path d="M46.8224 24.1143C49.8592 21.1622 50.3364 16.7274 47.8881 14.209C45.4399 11.6905 40.9934 12.0421 37.9566 14.9943C34.9198 17.9464 34.4427 22.3812 36.8909 24.8996C39.3391 27.418 43.7856 27.0664 46.8224 24.1143Z" fill="url(#paint7_radial_97_921)"/>
<path d="M40.2461 11.0338C41.8401 11.2342 43.1665 11.1251 43.2086 10.7902C43.2507 10.4552 41.9926 10.0213 40.3985 9.82086C38.8045 9.62046 37.4781 9.72954 37.436 10.0645C37.3939 10.3994 38.652 10.8334 40.2461 11.0338Z" fill="#FF7383"/>
<path d="M16.1424 10.8329C17.5838 10.8153 18.75 10.6092 18.7472 10.3724C18.7443 10.1357 17.5734 9.95802 16.132 9.97556C14.6905 9.9931 13.5243 10.1992 13.5272 10.436C13.5301 10.6727 14.7009 10.8504 16.1424 10.8329Z" fill="#FF93BA" fill-opacity="0.5"/>
<path d="M25.5151 17.1219L26.0524 34.7391C14.236 23.245 11.9638 15.1733 16.4918 13.3621C20.7888 11.6434 24.2263 14.4363 25.5151 17.1219Z" fill="url(#paint8_radial_97_921)"/>
<path d="M24.6558 16.0908C23.212 15.8846 22.7651 14.6872 22.7222 14.1143C23.5472 14.9736 24.355 15.0453 24.6558 14.9736V16.0908Z" fill="#FF7383"/>
<defs>
<radialGradient id="paint0_radial_97_921" cx="0" cy="0" r="1" gradientUnits="userSpaceOnUse" gradientTransform="translate(27.2987 9.6828) rotate(90) scale(39.5046 41.9411)">
<stop stop-color="#FC0000"/>
<stop offset="0.527969" stop-color="#FF3B79"/>
<stop offset="1" stop-color="#F724B3"/>
</radialGradient>
<radialGradient id="paint1_radial_97_921" cx="0" cy="0" r="1" gradientUnits="userSpaceOnUse" gradientTransform="translate(39.5741 19.5303) rotate(134.402) scale(36.5487 68.4592)">
<stop offset="0.797874" stop-color="#C82092" stop-opacity="0"/>
<stop offset="0.908039" stop-color="#C82092"/>
</radialGradient>
<radialGradient id="paint2_radial_97_921" cx="0" cy="0" r="1" gradientUnits="userSpaceOnUse" gradientTransform="translate(34.3696 30.5742) rotate(-158.663) scale(39.0998 55.2733)">
<stop offset="0.40984" stop-color="#B91D43" stop-opacity="0"/>
<stop offset="0.833898" stop-color="#B91D43"/>
</radialGradient>
<radialGradient id="paint3_radial_97_921" cx="0" cy="0" r="1" gradientUnits="userSpaceOnUse" gradientTransform="translate(26.7442 23.7454) rotate(90) scale(34.0299)">
<stop offset="0.671096" stop-color="#FF7AF2" stop-opacity="0"/>
<stop offset="0.933555" stop-color="#FFBCE6"/>
</radialGradient>
<linearGradient id="paint4_linear_97_921" x1="30.5" y1="27.7288" x2="44.2711" y2="44.1177" gradientUnits="userSpaceOnUse">
<stop offset="0.694491" stop-color="#FF7AF2" stop-opacity="0"/>
<stop offset="0.933555" stop-color="#FFBCE6"/>
</linearGradient>
<linearGradient id="paint5_linear_97_921" x1="28.7928" y1="28.4116" x2="12.6314" y2="46.6216" gradientUnits="userSpaceOnUse">
<stop offset="0.694491" stop-color="#FF7AF2" stop-opacity="0"/>
<stop offset="0.933555" stop-color="#FFBCE6"/>
</linearGradient>
<radialGradient id="paint6_radial_97_921" cx="0" cy="0" r="1" gradientUnits="userSpaceOnUse" gradientTransform="translate(31.793 22.5707) rotate(164.618) scale(29.5876 31.2472)">
<stop offset="0.802083" stop-color="#FF73A6" stop-opacity="0"/>
<stop offset="1" stop-color="#FF93BA"/>
</radialGradient>
<radialGradient id="paint7_radial_97_921" cx="0" cy="0" r="1" gradientUnits="userSpaceOnUse" gradientTransform="translate(47.7317 14.0604) rotate(128.737) scale(12.532 16.6643)">
<stop stop-color="#FF7383"/>
<stop offset="1" stop-color="#FF7383" stop-opacity="0"/>
</radialGradient>
<radialGradient id="paint8_radial_97_921" cx="0" cy="0" r="1" gradientUnits="userSpaceOnUse" gradientTransform="translate(28.0934 23.7862) rotate(-135.591) scale(21.8042 38.7063)">
<stop stop-color="#FF6274"/>
<stop offset="1" stop-color="#FF6274" stop-opacity="0"/>
</radialGradient>
</defs>
</svg>
