<svg width="100" height="100" viewBox="0 0 100 100" fill="none" xmlns="http://www.w3.org/2000/svg">
<circle cx="50" cy="50" r="50" fill="#ECECEC"/>
<path d="M50 44.3926C55.0281 44.3926 59.8503 42.3987 63.4058 38.8495C66.9612 35.3003 68.9586 30.4866 68.9586 25.4673C68.9586 20.4481 66.9612 15.6344 63.4058 12.0852C59.8503 8.53602 55.0281 6.54211 50 6.54211C44.9719 6.54211 40.1497 8.53602 36.5942 12.0852C33.0388 15.6344 31.0414 20.4481 31.0414 25.4673C31.0414 30.4866 33.0388 35.3003 36.5942 38.8495C40.1497 42.3987 44.9719 44.3926 50 44.3926ZM43.2312 51.4895C28.6419 51.4895 16.8224 63.2882 16.8224 77.8518C16.8224 80.2766 18.7923 82.243 21.2214 82.243H78.7786C81.2076 82.243 83.1776 80.2766 83.1776 77.8518C83.1776 63.2882 71.3581 51.4895 56.7688 51.4895H43.2312Z" fill="white" fill-opacity="0.79"/>
</svg>
