<svg width="18" height="18" viewBox="0 0 18 18" fill="none" xmlns="http://www.w3.org/2000/svg">
<path d="M8.67002 0.0383018C7.84133 -0.0779378 6.99764 0.0720487 6.2552 0.465764L3.4804 1.94688C2.7417 2.3406 2.14549 2.95929 1.77802 3.71297L0.401866 6.54772C0.0343926 7.3014 -0.0855988 8.15633 0.0606407 8.98125L0.604352 12.086C0.750591 12.9146 1.15181 13.6721 1.75552 14.257L4.01661 16.4468C4.62031 17.0318 5.38901 17.4067 6.2177 17.523L9.32998 17.9617C10.1587 18.0779 11.0024 17.928 11.7448 17.5342L14.5196 16.0531C15.2583 15.6594 15.8545 15.0407 16.222 14.2833L17.5981 11.4523C17.9656 10.6986 18.0856 9.84367 17.9394 9.01875L17.3919 5.91403C17.2457 5.08535 16.8444 4.32792 16.2407 3.74297L13.9834 1.55692C13.3797 0.971968 12.611 0.597002 11.7823 0.480762L8.67002 0.0383018ZM7.20013 4.80038C7.51837 4.80038 7.82357 4.92679 8.0486 5.15182C8.27362 5.37684 8.40004 5.68204 8.40004 6.00027C8.40004 6.3185 8.27362 6.6237 8.0486 6.84872C7.82357 7.07374 7.51837 7.20016 7.20013 7.20016C6.88189 7.20016 6.57669 7.07374 6.35166 6.84872C6.12663 6.6237 6.00021 6.3185 6.00021 6.00027C6.00021 5.68204 6.12663 5.37684 6.35166 5.15182C6.57669 4.92679 6.88189 4.80038 7.20013 4.80038ZM4.8003 11.9997C4.8003 11.6815 4.92672 11.3763 5.15175 11.1513C5.37678 10.9263 5.68198 10.7998 6.00021 10.7998C6.31845 10.7998 6.62365 10.9263 6.84868 11.1513C7.07371 11.3763 7.20013 11.6815 7.20013 11.9997C7.20013 12.318 7.07371 12.6232 6.84868 12.8482C6.62365 13.0732 6.31845 13.1996 6.00021 13.1996C5.68198 13.1996 5.37678 13.0732 5.15175 12.8482C4.92672 12.6232 4.8003 12.318 4.8003 11.9997ZM13.1997 9.59995C13.5179 9.59995 13.8231 9.72636 14.0482 9.95139C14.2732 10.1764 14.3996 10.4816 14.3996 10.7998C14.3996 11.1181 14.2732 11.4233 14.0482 11.6483C13.8231 11.8733 13.5179 11.9997 13.1997 11.9997C12.8815 11.9997 12.5763 11.8733 12.3512 11.6483C12.1262 11.4233 11.9998 11.1181 11.9998 10.7998C11.9998 10.4816 12.1262 10.1764 12.3512 9.95139C12.5763 9.72636 12.8815 9.59995 13.1997 9.59995Z" fill="#CC9D52"/>
</svg>
