<svg width="42" height="42" viewBox="0 0 42 42" fill="none" xmlns="http://www.w3.org/2000/svg">
<path d="M7.57995 21.0829L21 35L34.42 21.0829C35.9119 19.5358 36.75 17.4375 36.75 15.2496C36.75 10.6935 33.1884 7 28.795 7C26.6853 7 24.6619 7.86915 23.17 9.41624L21 11.6667L18.83 9.41625C17.3381 7.86915 15.3147 7 13.205 7C8.81155 7 5.25 10.6935 5.25 15.2496C5.25 17.4375 6.08811 19.5358 7.57995 21.0829Z" fill="#FF0000"/>
<path d="M7.57995 21.0829L21 35L34.42 21.0829C35.9119 19.5358 36.75 17.4375 36.75 15.2496C36.75 10.6935 33.1884 7 28.795 7C26.6853 7 24.6619 7.86915 23.17 9.41624L21 11.6667L18.83 9.41625C17.3381 7.86915 15.3147 7 13.205 7C8.81155 7 5.25 10.6935 5.25 15.2496C5.25 17.4375 6.08811 19.5358 7.57995 21.0829Z" stroke="#FF0000" stroke-width="2" stroke-linecap="round" stroke-linejoin="round"/>
</svg>
